<?xml version="1.0" standalone="no"?>
<!DOCTYPE svg PUBLIC "-//W3C//DTD SVG 1.1//EN" "http://www.w3.org/Graphics/SVG/1.1/DTD/svg11.dtd">
<svg width="210mm" height="100mm" viewBox="-105 -50 210 100" xmlns="http://www.w3.org/2000/svg" version="1.1">
<title>OpenSCAD Model</title>
<path d="
M 105,-50 L -105,-50 L -105,20.5 L -46,20.5 L -46,50 L 105,50
 z
M -100.657,-39.5082 L -100.812,-39.5328 L -100.964,-39.5734 L -101.11,-39.6297 L -101.25,-39.701 L -101.382,-39.7865
 L -101.504,-39.8853 L -101.615,-39.9963 L -101.714,-40.1183 L -101.799,-40.25 L -101.87,-40.3899 L -101.927,-40.5365
 L -101.967,-40.6881 L -101.992,-40.8432 L -102,-41 L -101.992,-41.1568 L -101.967,-41.3119 L -101.927,-41.4635
 L -101.87,-41.6101 L -101.799,-41.75 L -101.714,-41.8817 L -101.615,-42.0037 L -101.504,-42.1147 L -101.382,-42.2135
 L -101.25,-42.299 L -101.11,-42.3703 L -100.964,-42.4266 L -100.812,-42.4672 L -100.657,-42.4918 L -100.5,-42.5
 L -100.343,-42.4918 L -100.188,-42.4672 L -100.036,-42.4266 L -99.8899,-42.3703 L -99.75,-42.299 L -99.6183,-42.2135
 L -99.4963,-42.1147 L -99.3853,-42.0037 L -99.2865,-41.8817 L -99.201,-41.75 L -99.1297,-41.6101 L -99.0734,-41.4635
 L -99.0328,-41.3119 L -99.0082,-41.1568 L -99,-41 L -99.0082,-40.8432 L -99.0328,-40.6881 L -99.0734,-40.5365
 L -99.1297,-40.3899 L -99.201,-40.25 L -99.2865,-40.1183 L -99.3853,-39.9963 L -99.4963,-39.8853 L -99.6183,-39.7865
 L -99.75,-39.701 L -99.8899,-39.6297 L -100.036,-39.5734 L -100.188,-39.5328 L -100.343,-39.5082 L -100.5,-39.5
 z
M -51.6568,-39.5082 L -51.8119,-39.5328 L -51.9635,-39.5734 L -52.1101,-39.6297 L -52.25,-39.701 L -52.3817,-39.7865
 L -52.5037,-39.8853 L -52.6147,-39.9963 L -52.7135,-40.1183 L -52.799,-40.25 L -52.8703,-40.3899 L -52.9266,-40.5365
 L -52.9672,-40.6881 L -52.9918,-40.8432 L -53,-41 L -52.9918,-41.1568 L -52.9672,-41.3119 L -52.9266,-41.4635
 L -52.8703,-41.6101 L -52.799,-41.75 L -52.7135,-41.8817 L -52.6147,-42.0037 L -52.5037,-42.1147 L -52.3817,-42.2135
 L -52.25,-42.299 L -52.1101,-42.3703 L -51.9635,-42.4266 L -51.8119,-42.4672 L -51.6568,-42.4918 L -51.5,-42.5
 L -51.3432,-42.4918 L -51.1881,-42.4672 L -51.0365,-42.4266 L -50.8899,-42.3703 L -50.75,-42.299 L -50.6183,-42.2135
 L -50.4963,-42.1147 L -50.3853,-42.0037 L -50.2865,-41.8817 L -50.201,-41.75 L -50.1297,-41.6101 L -50.0734,-41.4635
 L -50.0328,-41.3119 L -50.0082,-41.1568 L -50,-41 L -50.0082,-40.8432 L -50.0328,-40.6881 L -50.0734,-40.5365
 L -50.1297,-40.3899 L -50.201,-40.25 L -50.2865,-40.1183 L -50.3853,-39.9963 L -50.4963,-39.8853 L -50.6183,-39.7865
 L -50.75,-39.701 L -50.8899,-39.6297 L -51.0365,-39.5734 L -51.1881,-39.5328 L -51.3432,-39.5082 L -51.5,-39.5
 z
M 93.8432,-37.2582 L 93.6881,-37.2828 L 93.5365,-37.3234 L 93.3899,-37.3797 L 93.25,-37.451 L 93.1183,-37.5365
 L 92.9963,-37.6353 L 92.8853,-37.7463 L 92.7865,-37.8683 L 92.701,-38 L 92.6297,-38.1399 L 92.5734,-38.2865
 L 92.5328,-38.4381 L 92.5082,-38.5932 L 92.5,-38.75 L 92.5082,-38.9068 L 92.5328,-39.0619 L 92.5734,-39.2135
 L 92.6297,-39.3601 L 92.701,-39.5 L 92.7865,-39.6317 L 92.8853,-39.7537 L 92.9963,-39.8647 L 93.1183,-39.9635
 L 93.25,-40.049 L 93.3899,-40.1203 L 93.5365,-40.1766 L 93.6881,-40.2172 L 93.8432,-40.2418 L 94,-40.25
 L 94.1568,-40.2418 L 94.3119,-40.2172 L 94.4635,-40.1766 L 94.6101,-40.1203 L 94.75,-40.049 L 94.8817,-39.9635
 L 95.0037,-39.8647 L 95.1147,-39.7537 L 95.2135,-39.6317 L 95.299,-39.5 L 95.3703,-39.3601 L 95.4266,-39.2135
 L 95.4672,-39.0619 L 95.4918,-38.9068 L 95.5,-38.75 L 95.4918,-38.5932 L 95.4672,-38.4381 L 95.4266,-38.2865
 L 95.3703,-38.1399 L 95.299,-38 L 95.2135,-37.8683 L 95.1147,-37.7463 L 95.0037,-37.6353 L 94.8817,-37.5365
 L 94.75,-37.451 L 94.6101,-37.3797 L 94.4635,-37.3234 L 94.3119,-37.2828 L 94.1568,-37.2582 L 94,-37.25
 z
M 45.8432,-37.2582 L 45.6881,-37.2828 L 45.5365,-37.3234 L 45.3899,-37.3797 L 45.25,-37.451 L 45.1183,-37.5365
 L 44.9963,-37.6353 L 44.8853,-37.7463 L 44.7865,-37.8683 L 44.701,-38 L 44.6297,-38.1399 L 44.5734,-38.2865
 L 44.5328,-38.4381 L 44.5082,-38.5932 L 44.5,-38.75 L 44.5082,-38.9068 L 44.5328,-39.0619 L 44.5734,-39.2135
 L 44.6297,-39.3601 L 44.701,-39.5 L 44.7865,-39.6317 L 44.8853,-39.7537 L 44.9963,-39.8647 L 45.1183,-39.9635
 L 45.25,-40.049 L 45.3899,-40.1203 L 45.5365,-40.1766 L 45.6881,-40.2172 L 45.8432,-40.2418 L 46,-40.25
 L 46.1568,-40.2418 L 46.3119,-40.2172 L 46.4635,-40.1766 L 46.6101,-40.1203 L 46.75,-40.049 L 46.8817,-39.9635
 L 47.0037,-39.8647 L 47.1147,-39.7537 L 47.2135,-39.6317 L 47.299,-39.5 L 47.3703,-39.3601 L 47.4266,-39.2135
 L 47.4672,-39.0619 L 47.4918,-38.9068 L 47.5,-38.75 L 47.4918,-38.5932 L 47.4672,-38.4381 L 47.4266,-38.2865
 L 47.3703,-38.1399 L 47.299,-38 L 47.2135,-37.8683 L 47.1147,-37.7463 L 47.0037,-37.6353 L 46.8817,-37.5365
 L 46.75,-37.451 L 46.6101,-37.3797 L 46.4635,-37.3234 L 46.3119,-37.2828 L 46.1568,-37.2582 L 46,-37.25
 z
M 49,-9.75 L 49,-40.25 L 91,-40.25 L 91,-9.75 z
M -52.8323,-35.8227 L -52.884,-35.8309 L -52.9345,-35.8445 L -52.9834,-35.8632 L -53.03,-35.887 L -53.0739,-35.9155
 L -53.1146,-35.9484 L -53.1516,-35.9854 L -53.1845,-36.0261 L -53.213,-36.07 L -53.2368,-36.1166 L -53.2555,-36.1655
 L -53.2691,-36.216 L -53.2773,-36.2677 L -53.28,-36.32 L -53.2773,-36.3723 L -53.2691,-36.4239 L -53.2555,-36.4745
 L -53.2368,-36.5233 L -53.213,-36.57 L -53.1845,-36.6139 L -53.1516,-36.6546 L -53.1146,-36.6916 L -53.0739,-36.7245
 L -53.03,-36.753 L -52.9834,-36.7768 L -52.9345,-36.7955 L -52.884,-36.8091 L -52.8323,-36.8172 L -52.78,-36.82
 L -52.7278,-36.8172 L -52.6761,-36.8091 L -52.6255,-36.7955 L -52.5767,-36.7768 L -52.53,-36.753 L -52.4861,-36.7245
 L -52.4454,-36.6916 L -52.4084,-36.6546 L -52.3755,-36.6139 L -52.347,-36.57 L -52.3232,-36.5233 L -52.3045,-36.4745
 L -52.291,-36.4239 L -52.2828,-36.3723 L -52.28,-36.32 L -52.2828,-36.2677 L -52.291,-36.216 L -52.3045,-36.1655
 L -52.3232,-36.1166 L -52.347,-36.07 L -52.3755,-36.0261 L -52.4084,-35.9854 L -52.4454,-35.9484 L -52.4861,-35.9155
 L -52.53,-35.887 L -52.5767,-35.8632 L -52.6255,-35.8445 L -52.6761,-35.8309 L -52.7278,-35.8227 L -52.78,-35.82
 z
M -50.2723,-35.8227 L -50.3239,-35.8309 L -50.3745,-35.8445 L -50.4234,-35.8632 L -50.47,-35.887 L -50.5139,-35.9155
 L -50.5546,-35.9484 L -50.5916,-35.9854 L -50.6245,-36.0261 L -50.653,-36.07 L -50.6768,-36.1166 L -50.6955,-36.1655
 L -50.7091,-36.216 L -50.7173,-36.2677 L -50.72,-36.32 L -50.7173,-36.3723 L -50.7091,-36.4239 L -50.6955,-36.4745
 L -50.6768,-36.5233 L -50.653,-36.57 L -50.6245,-36.6139 L -50.5916,-36.6546 L -50.5546,-36.6916 L -50.5139,-36.7245
 L -50.47,-36.753 L -50.4234,-36.7768 L -50.3745,-36.7955 L -50.3239,-36.8091 L -50.2723,-36.8172 L -50.22,-36.82
 L -50.1677,-36.8172 L -50.1161,-36.8091 L -50.0655,-36.7955 L -50.0166,-36.7768 L -49.97,-36.753 L -49.9261,-36.7245
 L -49.8854,-36.6916 L -49.8484,-36.6546 L -49.8155,-36.6139 L -49.787,-36.57 L -49.7632,-36.5233 L -49.7445,-36.4745
 L -49.7309,-36.4239 L -49.7227,-36.3723 L -49.72,-36.32 L -49.7227,-36.2677 L -49.7309,-36.216 L -49.7445,-36.1655
 L -49.7632,-36.1166 L -49.787,-36.07 L -49.8155,-36.0261 L -49.8484,-35.9854 L -49.8854,-35.9484 L -49.9261,-35.9155
 L -49.97,-35.887 L -50.0166,-35.8632 L -50.0655,-35.8445 L -50.1161,-35.8309 L -50.1677,-35.8227 L -50.22,-35.82
 z
M -75.986,3.3959 L -77.9503,3.08479 L -79.8713,2.57007 L -81.728,1.85736 L -83.5,0.954468 L -85.1679,-0.128677
 L -86.7135,-1.38025 L -88.1198,-2.78653 L -89.3713,-4.33209 L -90.4545,-6 L -91.3574,-7.77202 L -92.0701,-9.62868
 L -92.5848,-11.5497 L -92.8959,-13.514 L -93,-15.5 L -92.8959,-17.486 L -92.5848,-19.4503 L -92.0701,-21.3713
 L -91.3574,-23.228 L -90.4545,-25 L -89.3713,-26.6679 L -88.1198,-28.2135 L -86.7135,-29.6198 L -85.1679,-30.8713
 L -83.5,-31.9545 L -81.728,-32.8574 L -79.8713,-33.5701 L -77.9503,-34.0848 L -75.986,-34.3959 L -74,-34.5
 L -72.014,-34.3959 L -70.0497,-34.0848 L -68.1287,-33.5701 L -66.272,-32.8574 L -64.5,-31.9545 L -62.8321,-30.8713
 L -61.2865,-29.6198 L -59.8802,-28.2135 L -58.6287,-26.6679 L -57.5455,-25 L -56.6426,-23.228 L -55.9299,-21.3713
 L -55.4152,-19.4503 L -55.1041,-17.486 L -55,-15.5 L -55.1041,-13.514 L -55.4152,-11.5497 L -55.9299,-9.62868
 L -56.6426,-7.77202 L -57.5455,-6 L -58.6287,-4.33209 L -59.8802,-2.78653 L -61.2865,-1.38025 L -62.8321,-0.128677
 L -64.5,0.954468 L -66.272,1.85736 L -68.1287,2.57007 L -70.0497,3.08479 L -72.014,3.3959 L -74,3.5
 z
M -52.8323,-33.2627 L -52.884,-33.2709 L -52.9345,-33.2845 L -52.9834,-33.3032 L -53.03,-33.327 L -53.0739,-33.3555
 L -53.1146,-33.3884 L -53.1516,-33.4254 L -53.1845,-33.4661 L -53.213,-33.51 L -53.2368,-33.5566 L -53.2555,-33.6055
 L -53.2691,-33.656 L -53.2773,-33.7077 L -53.28,-33.76 L -53.2773,-33.8123 L -53.2691,-33.864 L -53.2555,-33.9145
 L -53.2368,-33.9634 L -53.213,-34.01 L -53.1845,-34.0539 L -53.1516,-34.0946 L -53.1146,-34.1316 L -53.0739,-34.1645
 L -53.03,-34.193 L -52.9834,-34.2168 L -52.9345,-34.2355 L -52.884,-34.2491 L -52.8323,-34.2573 L -52.78,-34.26
 L -52.7278,-34.2573 L -52.6761,-34.2491 L -52.6255,-34.2355 L -52.5767,-34.2168 L -52.53,-34.193 L -52.4861,-34.1645
 L -52.4454,-34.1316 L -52.4084,-34.0946 L -52.3755,-34.0539 L -52.347,-34.01 L -52.3232,-33.9634 L -52.3045,-33.9145
 L -52.291,-33.864 L -52.2828,-33.8123 L -52.28,-33.76 L -52.2828,-33.7077 L -52.291,-33.656 L -52.3045,-33.6055
 L -52.3232,-33.5566 L -52.347,-33.51 L -52.3755,-33.4661 L -52.4084,-33.4254 L -52.4454,-33.3884 L -52.4861,-33.3555
 L -52.53,-33.327 L -52.5767,-33.3032 L -52.6255,-33.2845 L -52.6761,-33.2709 L -52.7278,-33.2627 L -52.78,-33.26
 z
M -50.2723,-33.2627 L -50.3239,-33.2709 L -50.3745,-33.2845 L -50.4234,-33.3032 L -50.47,-33.327 L -50.5139,-33.3555
 L -50.5546,-33.3884 L -50.5916,-33.4254 L -50.6245,-33.4661 L -50.653,-33.51 L -50.6768,-33.5566 L -50.6955,-33.6055
 L -50.7091,-33.656 L -50.7173,-33.7077 L -50.72,-33.76 L -50.7173,-33.8123 L -50.7091,-33.864 L -50.6955,-33.9145
 L -50.6768,-33.9634 L -50.653,-34.01 L -50.6245,-34.0539 L -50.5916,-34.0946 L -50.5546,-34.1316 L -50.5139,-34.1645
 L -50.47,-34.193 L -50.4234,-34.2168 L -50.3745,-34.2355 L -50.3239,-34.2491 L -50.2723,-34.2573 L -50.22,-34.26
 L -50.1677,-34.2573 L -50.1161,-34.2491 L -50.0655,-34.2355 L -50.0166,-34.2168 L -49.97,-34.193 L -49.9261,-34.1645
 L -49.8854,-34.1316 L -49.8484,-34.0946 L -49.8155,-34.0539 L -49.787,-34.01 L -49.7632,-33.9634 L -49.7445,-33.9145
 L -49.7309,-33.864 L -49.7227,-33.8123 L -49.72,-33.76 L -49.7227,-33.7077 L -49.7309,-33.656 L -49.7445,-33.6055
 L -49.7632,-33.5566 L -49.787,-33.51 L -49.8155,-33.4661 L -49.8484,-33.4254 L -49.8854,-33.3884 L -49.9261,-33.3555
 L -49.97,-33.327 L -50.0166,-33.3032 L -50.0655,-33.2845 L -50.1161,-33.2709 L -50.1677,-33.2627 L -50.22,-33.26
 z
M -58.1568,-30.0082 L -58.3119,-30.0328 L -58.4635,-30.0734 L -58.6101,-30.1297 L -58.75,-30.201 L -58.8817,-30.2865
 L -59.0037,-30.3853 L -59.1147,-30.4963 L -59.2135,-30.6183 L -59.299,-30.75 L -59.3703,-30.8899 L -59.4266,-31.0365
 L -59.4672,-31.1881 L -59.4918,-31.3432 L -59.5,-31.5 L -59.4918,-31.6568 L -59.4672,-31.8119 L -59.4266,-31.9635
 L -59.3703,-32.1101 L -59.299,-32.25 L -59.2135,-32.3817 L -59.1147,-32.5037 L -59.0037,-32.6147 L -58.8817,-32.7135
 L -58.75,-32.799 L -58.6101,-32.8703 L -58.4635,-32.9266 L -58.3119,-32.9672 L -58.1568,-32.9918 L -58,-33
 L -57.8432,-32.9918 L -57.6881,-32.9672 L -57.5365,-32.9266 L -57.3899,-32.8703 L -57.25,-32.799 L -57.1183,-32.7135
 L -56.9963,-32.6147 L -56.8853,-32.5037 L -56.7865,-32.3817 L -56.701,-32.25 L -56.6297,-32.1101 L -56.5734,-31.9635
 L -56.5328,-31.8119 L -56.5082,-31.6568 L -56.5,-31.5 L -56.5082,-31.3432 L -56.5328,-31.1881 L -56.5734,-31.0365
 L -56.6297,-30.8899 L -56.701,-30.75 L -56.7865,-30.6183 L -56.8853,-30.4963 L -56.9963,-30.3853 L -57.1183,-30.2865
 L -57.25,-30.201 L -57.3899,-30.1297 L -57.5365,-30.0734 L -57.6881,-30.0328 L -57.8432,-30.0082 L -58,-30
 z
M -90.1568,-30.0082 L -90.3119,-30.0328 L -90.4635,-30.0734 L -90.6101,-30.1297 L -90.75,-30.201 L -90.8817,-30.2865
 L -91.0037,-30.3853 L -91.1147,-30.4963 L -91.2135,-30.6183 L -91.299,-30.75 L -91.3703,-30.8899 L -91.4266,-31.0365
 L -91.4672,-31.1881 L -91.4918,-31.3432 L -91.5,-31.5 L -91.4918,-31.6568 L -91.4672,-31.8119 L -91.4266,-31.9635
 L -91.3703,-32.1101 L -91.299,-32.25 L -91.2135,-32.3817 L -91.1147,-32.5037 L -91.0037,-32.6147 L -90.8817,-32.7135
 L -90.75,-32.799 L -90.6101,-32.8703 L -90.4635,-32.9266 L -90.3119,-32.9672 L -90.1568,-32.9918 L -90,-33
 L -89.8432,-32.9918 L -89.6881,-32.9672 L -89.5365,-32.9266 L -89.3899,-32.8703 L -89.25,-32.799 L -89.1183,-32.7135
 L -88.9963,-32.6147 L -88.8853,-32.5037 L -88.7865,-32.3817 L -88.701,-32.25 L -88.6297,-32.1101 L -88.5734,-31.9635
 L -88.5328,-31.8119 L -88.5082,-31.6568 L -88.5,-31.5 L -88.5082,-31.3432 L -88.5328,-31.1881 L -88.5734,-31.0365
 L -88.6297,-30.8899 L -88.701,-30.75 L -88.7865,-30.6183 L -88.8853,-30.4963 L -88.9963,-30.3853 L -89.1183,-30.2865
 L -89.25,-30.201 L -89.3899,-30.1297 L -89.5365,-30.0734 L -89.6881,-30.0328 L -89.8432,-30.0082 L -90,-30
 z
M -50.2723,-30.7027 L -50.3239,-30.7109 L -50.3745,-30.7245 L -50.4234,-30.7432 L -50.47,-30.767 L -50.5139,-30.7955
 L -50.5546,-30.8284 L -50.5916,-30.8654 L -50.6245,-30.9061 L -50.653,-30.95 L -50.6768,-30.9966 L -50.6955,-31.0455
 L -50.7091,-31.096 L -50.7173,-31.1477 L -50.72,-31.2 L -50.7173,-31.2523 L -50.7091,-31.304 L -50.6955,-31.3545
 L -50.6768,-31.4034 L -50.653,-31.45 L -50.6245,-31.4939 L -50.5916,-31.5346 L -50.5546,-31.5716 L -50.5139,-31.6045
 L -50.47,-31.633 L -50.4234,-31.6568 L -50.3745,-31.6755 L -50.3239,-31.6891 L -50.2723,-31.6973 L -50.22,-31.7
 L -50.1677,-31.6973 L -50.1161,-31.6891 L -50.0655,-31.6755 L -50.0166,-31.6568 L -49.97,-31.633 L -49.9261,-31.6045
 L -49.8854,-31.5716 L -49.8484,-31.5346 L -49.8155,-31.4939 L -49.787,-31.45 L -49.7632,-31.4034 L -49.7445,-31.3545
 L -49.7309,-31.304 L -49.7227,-31.2523 L -49.72,-31.2 L -49.7227,-31.1477 L -49.7309,-31.096 L -49.7445,-31.0455
 L -49.7632,-30.9966 L -49.787,-30.95 L -49.8155,-30.9061 L -49.8484,-30.8654 L -49.8854,-30.8284 L -49.9261,-30.7955
 L -49.97,-30.767 L -50.0166,-30.7432 L -50.0655,-30.7245 L -50.1161,-30.7109 L -50.1677,-30.7027 L -50.22,-30.7
 z
M -52.8323,-30.7027 L -52.884,-30.7109 L -52.9345,-30.7245 L -52.9834,-30.7432 L -53.03,-30.767 L -53.0739,-30.7955
 L -53.1146,-30.8284 L -53.1516,-30.8654 L -53.1845,-30.9061 L -53.213,-30.95 L -53.2368,-30.9966 L -53.2555,-31.0455
 L -53.2691,-31.096 L -53.2773,-31.1477 L -53.28,-31.2 L -53.2773,-31.2523 L -53.2691,-31.304 L -53.2555,-31.3545
 L -53.2368,-31.4034 L -53.213,-31.45 L -53.1845,-31.4939 L -53.1516,-31.5346 L -53.1146,-31.5716 L -53.0739,-31.6045
 L -53.03,-31.633 L -52.9834,-31.6568 L -52.9345,-31.6755 L -52.884,-31.6891 L -52.8323,-31.6973 L -52.78,-31.7
 L -52.7278,-31.6973 L -52.6761,-31.6891 L -52.6255,-31.6755 L -52.5767,-31.6568 L -52.53,-31.633 L -52.4861,-31.6045
 L -52.4454,-31.5716 L -52.4084,-31.5346 L -52.3755,-31.4939 L -52.347,-31.45 L -52.3232,-31.4034 L -52.3045,-31.3545
 L -52.291,-31.304 L -52.2828,-31.2523 L -52.28,-31.2 L -52.2828,-31.1477 L -52.291,-31.096 L -52.3045,-31.0455
 L -52.3232,-30.9966 L -52.347,-30.95 L -52.3755,-30.9061 L -52.4084,-30.8654 L -52.4454,-30.8284 L -52.4861,-30.7955
 L -52.53,-30.767 L -52.5767,-30.7432 L -52.6255,-30.7245 L -52.6761,-30.7109 L -52.7278,-30.7027 L -52.78,-30.7
 z
M -50.2723,-28.1427 L -50.3239,-28.1509 L -50.3745,-28.1645 L -50.4234,-28.1832 L -50.47,-28.207 L -50.5139,-28.2355
 L -50.5546,-28.2684 L -50.5916,-28.3054 L -50.6245,-28.3461 L -50.653,-28.39 L -50.6768,-28.4366 L -50.6955,-28.4855
 L -50.7091,-28.536 L -50.7173,-28.5877 L -50.72,-28.64 L -50.7173,-28.6923 L -50.7091,-28.744 L -50.6955,-28.7945
 L -50.6768,-28.8434 L -50.653,-28.89 L -50.6245,-28.9339 L -50.5916,-28.9746 L -50.5546,-29.0116 L -50.5139,-29.0445
 L -50.47,-29.073 L -50.4234,-29.0968 L -50.3745,-29.1155 L -50.3239,-29.1291 L -50.2723,-29.1373 L -50.22,-29.14
 L -50.1677,-29.1373 L -50.1161,-29.1291 L -50.0655,-29.1155 L -50.0166,-29.0968 L -49.97,-29.073 L -49.9261,-29.0445
 L -49.8854,-29.0116 L -49.8484,-28.9746 L -49.8155,-28.9339 L -49.787,-28.89 L -49.7632,-28.8434 L -49.7445,-28.7945
 L -49.7309,-28.744 L -49.7227,-28.6923 L -49.72,-28.64 L -49.7227,-28.5877 L -49.7309,-28.536 L -49.7445,-28.4855
 L -49.7632,-28.4366 L -49.787,-28.39 L -49.8155,-28.3461 L -49.8484,-28.3054 L -49.8854,-28.2684 L -49.9261,-28.2355
 L -49.97,-28.207 L -50.0166,-28.1832 L -50.0655,-28.1645 L -50.1161,-28.1509 L -50.1677,-28.1427 L -50.22,-28.14
 z
M -52.8323,-28.1427 L -52.884,-28.1509 L -52.9345,-28.1645 L -52.9834,-28.1832 L -53.03,-28.207 L -53.0739,-28.2355
 L -53.1146,-28.2684 L -53.1516,-28.3054 L -53.1845,-28.3461 L -53.213,-28.39 L -53.2368,-28.4366 L -53.2555,-28.4855
 L -53.2691,-28.536 L -53.2773,-28.5877 L -53.28,-28.64 L -53.2773,-28.6923 L -53.2691,-28.744 L -53.2555,-28.7945
 L -53.2368,-28.8434 L -53.213,-28.89 L -53.1845,-28.9339 L -53.1516,-28.9746 L -53.1146,-29.0116 L -53.0739,-29.0445
 L -53.03,-29.073 L -52.9834,-29.0968 L -52.9345,-29.1155 L -52.884,-29.1291 L -52.8323,-29.1373 L -52.78,-29.14
 L -52.7278,-29.1373 L -52.6761,-29.1291 L -52.6255,-29.1155 L -52.5767,-29.0968 L -52.53,-29.073 L -52.4861,-29.0445
 L -52.4454,-29.0116 L -52.4084,-28.9746 L -52.3755,-28.9339 L -52.347,-28.89 L -52.3232,-28.8434 L -52.3045,-28.7945
 L -52.291,-28.744 L -52.2828,-28.6923 L -52.28,-28.64 L -52.2828,-28.5877 L -52.291,-28.536 L -52.3045,-28.4855
 L -52.3232,-28.4366 L -52.347,-28.39 L -52.3755,-28.3461 L -52.4084,-28.3054 L -52.4454,-28.2684 L -52.4861,-28.2355
 L -52.53,-28.207 L -52.5767,-28.1832 L -52.6255,-28.1645 L -52.6761,-28.1509 L -52.7278,-28.1427 L -52.78,-28.14
 z
M -50.2723,-25.5827 L -50.3239,-25.5909 L -50.3745,-25.6045 L -50.4234,-25.6232 L -50.47,-25.647 L -50.5139,-25.6755
 L -50.5546,-25.7084 L -50.5916,-25.7454 L -50.6245,-25.7861 L -50.653,-25.83 L -50.6768,-25.8766 L -50.6955,-25.9255
 L -50.7091,-25.976 L -50.7173,-26.0277 L -50.72,-26.08 L -50.7173,-26.1323 L -50.7091,-26.184 L -50.6955,-26.2345
 L -50.6768,-26.2834 L -50.653,-26.33 L -50.6245,-26.3739 L -50.5916,-26.4146 L -50.5546,-26.4516 L -50.5139,-26.4845
 L -50.47,-26.513 L -50.4234,-26.5368 L -50.3745,-26.5555 L -50.3239,-26.5691 L -50.2723,-26.5773 L -50.22,-26.58
 L -50.1677,-26.5773 L -50.1161,-26.5691 L -50.0655,-26.5555 L -50.0166,-26.5368 L -49.97,-26.513 L -49.9261,-26.4845
 L -49.8854,-26.4516 L -49.8484,-26.4146 L -49.8155,-26.3739 L -49.787,-26.33 L -49.7632,-26.2834 L -49.7445,-26.2345
 L -49.7309,-26.184 L -49.7227,-26.1323 L -49.72,-26.08 L -49.7227,-26.0277 L -49.7309,-25.976 L -49.7445,-25.9255
 L -49.7632,-25.8766 L -49.787,-25.83 L -49.8155,-25.7861 L -49.8484,-25.7454 L -49.8854,-25.7084 L -49.9261,-25.6755
 L -49.97,-25.647 L -50.0166,-25.6232 L -50.0655,-25.6045 L -50.1161,-25.5909 L -50.1677,-25.5827 L -50.22,-25.58
 z
M -52.8323,-25.5827 L -52.884,-25.5909 L -52.9345,-25.6045 L -52.9834,-25.6232 L -53.03,-25.647 L -53.0739,-25.6755
 L -53.1146,-25.7084 L -53.1516,-25.7454 L -53.1845,-25.7861 L -53.213,-25.83 L -53.2368,-25.8766 L -53.2555,-25.9255
 L -53.2691,-25.976 L -53.2773,-26.0277 L -53.28,-26.08 L -53.2773,-26.1323 L -53.2691,-26.184 L -53.2555,-26.2345
 L -53.2368,-26.2834 L -53.213,-26.33 L -53.1845,-26.3739 L -53.1516,-26.4146 L -53.1146,-26.4516 L -53.0739,-26.4845
 L -53.03,-26.513 L -52.9834,-26.5368 L -52.9345,-26.5555 L -52.884,-26.5691 L -52.8323,-26.5773 L -52.78,-26.58
 L -52.7278,-26.5773 L -52.6761,-26.5691 L -52.6255,-26.5555 L -52.5767,-26.5368 L -52.53,-26.513 L -52.4861,-26.4845
 L -52.4454,-26.4516 L -52.4084,-26.4146 L -52.3755,-26.3739 L -52.347,-26.33 L -52.3232,-26.2834 L -52.3045,-26.2345
 L -52.291,-26.184 L -52.2828,-26.1323 L -52.28,-26.08 L -52.2828,-26.0277 L -52.291,-25.976 L -52.3045,-25.9255
 L -52.3232,-25.8766 L -52.347,-25.83 L -52.3755,-25.7861 L -52.4084,-25.7454 L -52.4454,-25.7084 L -52.4861,-25.6755
 L -52.53,-25.647 L -52.5767,-25.6232 L -52.6255,-25.6045 L -52.6761,-25.5909 L -52.7278,-25.5827 L -52.78,-25.58
 z
M 15.8432,-22.0082 L 15.6881,-22.0328 L 15.5365,-22.0734 L 15.3899,-22.1297 L 15.25,-22.201 L 15.1183,-22.2865
 L 14.9963,-22.3853 L 14.8853,-22.4963 L 14.7865,-22.6183 L 14.701,-22.75 L 14.6297,-22.8899 L 14.5734,-23.0365
 L 14.5328,-23.1881 L 14.5082,-23.3432 L 14.5,-23.5 L 14.5082,-23.6568 L 14.5328,-23.8119 L 14.5734,-23.9635
 L 14.6297,-24.1101 L 14.701,-24.25 L 14.7865,-24.3817 L 14.8853,-24.5037 L 14.9963,-24.6147 L 15.1183,-24.7135
 L 15.25,-24.799 L 15.3899,-24.8703 L 15.5365,-24.9266 L 15.6881,-24.9672 L 15.8432,-24.9918 L 16,-25
 L 16.1568,-24.9918 L 16.3119,-24.9672 L 16.4635,-24.9266 L 16.6101,-24.8703 L 16.75,-24.799 L 16.8817,-24.7135
 L 17.0037,-24.6147 L 17.1147,-24.5037 L 17.2135,-24.3817 L 17.299,-24.25 L 17.3703,-24.1101 L 17.4266,-23.9635
 L 17.4672,-23.8119 L 17.4918,-23.6568 L 17.5,-23.5 L 17.4918,-23.3432 L 17.4672,-23.1881 L 17.4266,-23.0365
 L 17.3703,-22.8899 L 17.299,-22.75 L 17.2135,-22.6183 L 17.1147,-22.4963 L 17.0037,-22.3853 L 16.8817,-22.2865
 L 16.75,-22.201 L 16.6101,-22.1297 L 16.4635,-22.0734 L 16.3119,-22.0328 L 16.1568,-22.0082 L 16,-22
 z
M -26.1568,-22.0082 L -26.3119,-22.0328 L -26.4635,-22.0734 L -26.6101,-22.1297 L -26.75,-22.201 L -26.8817,-22.2865
 L -27.0037,-22.3853 L -27.1147,-22.4963 L -27.2135,-22.6183 L -27.299,-22.75 L -27.3703,-22.8899 L -27.4266,-23.0365
 L -27.4672,-23.1881 L -27.4918,-23.3432 L -27.5,-23.5 L -27.4918,-23.6568 L -27.4672,-23.8119 L -27.4266,-23.9635
 L -27.3703,-24.1101 L -27.299,-24.25 L -27.2135,-24.3817 L -27.1147,-24.5037 L -27.0037,-24.6147 L -26.8817,-24.7135
 L -26.75,-24.799 L -26.6101,-24.8703 L -26.4635,-24.9266 L -26.3119,-24.9672 L -26.1568,-24.9918 L -26,-25
 L -25.8432,-24.9918 L -25.6881,-24.9672 L -25.5365,-24.9266 L -25.3899,-24.8703 L -25.25,-24.799 L -25.1183,-24.7135
 L -24.9963,-24.6147 L -24.8853,-24.5037 L -24.7865,-24.3817 L -24.701,-24.25 L -24.6297,-24.1101 L -24.5734,-23.9635
 L -24.5328,-23.8119 L -24.5082,-23.6568 L -24.5,-23.5 L -24.5082,-23.3432 L -24.5328,-23.1881 L -24.5734,-23.0365
 L -24.6297,-22.8899 L -24.701,-22.75 L -24.7865,-22.6183 L -24.8853,-22.4963 L -24.9963,-22.3853 L -25.1183,-22.2865
 L -25.25,-22.201 L -25.3899,-22.1297 L -25.5365,-22.0734 L -25.6881,-22.0328 L -25.8432,-22.0082 L -26,-22
 z
M -21.0523,-24.0027 L -21.1039,-24.0109 L -21.1545,-24.0245 L -21.2034,-24.0432 L -21.25,-24.067 L -21.2939,-24.0955
 L -21.3346,-24.1284 L -21.3716,-24.1654 L -21.4045,-24.2061 L -21.433,-24.25 L -21.4568,-24.2966 L -21.4755,-24.3455
 L -21.4891,-24.3961 L -21.4973,-24.4477 L -21.5,-24.5 L -21.4973,-24.5523 L -21.4891,-24.6039 L -21.4755,-24.6545
 L -21.4568,-24.7034 L -21.433,-24.75 L -21.4045,-24.7939 L -21.3716,-24.8346 L -21.3346,-24.8716 L -21.2939,-24.9045
 L -21.25,-24.933 L -21.2034,-24.9568 L -21.1545,-24.9755 L -21.1039,-24.9891 L -21.0523,-24.9973 L -21,-25
 L -20.9477,-24.9973 L -20.8961,-24.9891 L -20.8455,-24.9755 L -20.7966,-24.9568 L -20.75,-24.933 L -20.7061,-24.9045
 L -20.6654,-24.8716 L -20.6284,-24.8346 L -20.5955,-24.7939 L -20.567,-24.75 L -20.5432,-24.7034 L -20.5245,-24.6545
 L -20.5109,-24.6039 L -20.5027,-24.5523 L -20.5,-24.5 L -20.5027,-24.4477 L -20.5109,-24.3961 L -20.5245,-24.3455
 L -20.5432,-24.2966 L -20.567,-24.25 L -20.5955,-24.2061 L -20.6284,-24.1654 L -20.6654,-24.1284 L -20.7061,-24.0955
 L -20.75,-24.067 L -20.7966,-24.0432 L -20.8455,-24.0245 L -20.8961,-24.0109 L -20.9477,-24.0027 L -21,-24
 z
M -18.4923,-24.0027 L -18.544,-24.0109 L -18.5945,-24.0245 L -18.6434,-24.0432 L -18.69,-24.067 L -18.7339,-24.0955
 L -18.7746,-24.1284 L -18.8116,-24.1654 L -18.8445,-24.2061 L -18.873,-24.25 L -18.8968,-24.2966 L -18.9155,-24.3455
 L -18.9291,-24.3961 L -18.9373,-24.4477 L -18.94,-24.5 L -18.9373,-24.5523 L -18.9291,-24.6039 L -18.9155,-24.6545
 L -18.8968,-24.7034 L -18.873,-24.75 L -18.8445,-24.7939 L -18.8116,-24.8346 L -18.7746,-24.8716 L -18.7339,-24.9045
 L -18.69,-24.933 L -18.6434,-24.9568 L -18.5945,-24.9755 L -18.544,-24.9891 L -18.4923,-24.9973 L -18.44,-25
 L -18.3877,-24.9973 L -18.336,-24.9891 L -18.2855,-24.9755 L -18.2366,-24.9568 L -18.19,-24.933 L -18.1461,-24.9045
 L -18.1054,-24.8716 L -18.0684,-24.8346 L -18.0355,-24.7939 L -18.007,-24.75 L -17.9832,-24.7034 L -17.9645,-24.6545
 L -17.9509,-24.6039 L -17.9427,-24.5523 L -17.94,-24.5 L -17.9427,-24.4477 L -17.9509,-24.3961 L -17.9645,-24.3455
 L -17.9832,-24.2966 L -18.007,-24.25 L -18.0355,-24.2061 L -18.0684,-24.1654 L -18.1054,-24.1284 L -18.1461,-24.0955
 L -18.19,-24.067 L -18.2366,-24.0432 L -18.2855,-24.0245 L -18.336,-24.0109 L -18.3877,-24.0027 L -18.44,-24
 z
M -10.8123,-24.0027 L -10.864,-24.0109 L -10.9145,-24.0245 L -10.9634,-24.0432 L -11.01,-24.067 L -11.0539,-24.0955
 L -11.0946,-24.1284 L -11.1316,-24.1654 L -11.1645,-24.2061 L -11.193,-24.25 L -11.2168,-24.2966 L -11.2355,-24.3455
 L -11.2491,-24.3961 L -11.2573,-24.4477 L -11.26,-24.5 L -11.2573,-24.5523 L -11.2491,-24.6039 L -11.2355,-24.6545
 L -11.2168,-24.7034 L -11.193,-24.75 L -11.1645,-24.7939 L -11.1316,-24.8346 L -11.0946,-24.8716 L -11.0539,-24.9045
 L -11.01,-24.933 L -10.9634,-24.9568 L -10.9145,-24.9755 L -10.864,-24.9891 L -10.8123,-24.9973 L -10.76,-25
 L -10.7077,-24.9973 L -10.6561,-24.9891 L -10.6055,-24.9755 L -10.5566,-24.9568 L -10.51,-24.933 L -10.4661,-24.9045
 L -10.4254,-24.8716 L -10.3884,-24.8346 L -10.3555,-24.7939 L -10.327,-24.75 L -10.3032,-24.7034 L -10.2845,-24.6545
 L -10.2709,-24.6039 L -10.2627,-24.5523 L -10.26,-24.5 L -10.2627,-24.4477 L -10.2709,-24.3961 L -10.2845,-24.3455
 L -10.3032,-24.2966 L -10.327,-24.25 L -10.3555,-24.2061 L -10.3884,-24.1654 L -10.4254,-24.1284 L -10.4661,-24.0955
 L -10.51,-24.067 L -10.5566,-24.0432 L -10.6055,-24.0245 L -10.6561,-24.0109 L -10.7077,-24.0027 L -10.76,-24
 z
M -13.3723,-24.0027 L -13.424,-24.0109 L -13.4745,-24.0245 L -13.5234,-24.0432 L -13.57,-24.067 L -13.6139,-24.0955
 L -13.6546,-24.1284 L -13.6916,-24.1654 L -13.7245,-24.2061 L -13.753,-24.25 L -13.7768,-24.2966 L -13.7955,-24.3455
 L -13.8091,-24.3961 L -13.8173,-24.4477 L -13.82,-24.5 L -13.8173,-24.5523 L -13.8091,-24.6039 L -13.7955,-24.6545
 L -13.7768,-24.7034 L -13.753,-24.75 L -13.7245,-24.7939 L -13.6916,-24.8346 L -13.6546,-24.8716 L -13.6139,-24.9045
 L -13.57,-24.933 L -13.5234,-24.9568 L -13.4745,-24.9755 L -13.424,-24.9891 L -13.3723,-24.9973 L -13.32,-25
 L -13.2677,-24.9973 L -13.216,-24.9891 L -13.1655,-24.9755 L -13.1166,-24.9568 L -13.07,-24.933 L -13.0261,-24.9045
 L -12.9854,-24.8716 L -12.9484,-24.8346 L -12.9155,-24.7939 L -12.887,-24.75 L -12.8632,-24.7034 L -12.8445,-24.6545
 L -12.8309,-24.6039 L -12.8228,-24.5523 L -12.82,-24.5 L -12.8228,-24.4477 L -12.8309,-24.3961 L -12.8445,-24.3455
 L -12.8632,-24.2966 L -12.887,-24.25 L -12.9155,-24.2061 L -12.9484,-24.1654 L -12.9854,-24.1284 L -13.0261,-24.0955
 L -13.07,-24.067 L -13.1166,-24.0432 L -13.1655,-24.0245 L -13.216,-24.0109 L -13.2677,-24.0027 L -13.32,-24
 z
M -15.9323,-24.0027 L -15.984,-24.0109 L -16.0345,-24.0245 L -16.0834,-24.0432 L -16.13,-24.067 L -16.1739,-24.0955
 L -16.2146,-24.1284 L -16.2516,-24.1654 L -16.2845,-24.2061 L -16.313,-24.25 L -16.3368,-24.2966 L -16.3555,-24.3455
 L -16.3691,-24.3961 L -16.3773,-24.4477 L -16.38,-24.5 L -16.3773,-24.5523 L -16.3691,-24.6039 L -16.3555,-24.6545
 L -16.3368,-24.7034 L -16.313,-24.75 L -16.2845,-24.7939 L -16.2516,-24.8346 L -16.2146,-24.8716 L -16.1739,-24.9045
 L -16.13,-24.933 L -16.0834,-24.9568 L -16.0345,-24.9755 L -15.984,-24.9891 L -15.9323,-24.9973 L -15.88,-25
 L -15.8277,-24.9973 L -15.776,-24.9891 L -15.7255,-24.9755 L -15.6766,-24.9568 L -15.63,-24.933 L -15.5861,-24.9045
 L -15.5454,-24.8716 L -15.5084,-24.8346 L -15.4755,-24.7939 L -15.447,-24.75 L -15.4232,-24.7034 L -15.4045,-24.6545
 L -15.3909,-24.6039 L -15.3828,-24.5523 L -15.38,-24.5 L -15.3828,-24.4477 L -15.3909,-24.3961 L -15.4045,-24.3455
 L -15.4232,-24.2966 L -15.447,-24.25 L -15.4755,-24.2061 L -15.5084,-24.1654 L -15.5454,-24.1284 L -15.5861,-24.0955
 L -15.63,-24.067 L -15.6766,-24.0432 L -15.7255,-24.0245 L -15.776,-24.0109 L -15.8277,-24.0027 L -15.88,-24
 z
M -52.8323,-23.0227 L -52.884,-23.0309 L -52.9345,-23.0445 L -52.9834,-23.0632 L -53.03,-23.087 L -53.0739,-23.1155
 L -53.1146,-23.1484 L -53.1516,-23.1854 L -53.1845,-23.2261 L -53.213,-23.27 L -53.2368,-23.3166 L -53.2555,-23.3655
 L -53.2691,-23.416 L -53.2773,-23.4677 L -53.28,-23.52 L -53.2773,-23.5723 L -53.2691,-23.624 L -53.2555,-23.6745
 L -53.2368,-23.7234 L -53.213,-23.77 L -53.1845,-23.8139 L -53.1516,-23.8546 L -53.1146,-23.8916 L -53.0739,-23.9245
 L -53.03,-23.953 L -52.9834,-23.9768 L -52.9345,-23.9955 L -52.884,-24.0091 L -52.8323,-24.0173 L -52.78,-24.02
 L -52.7278,-24.0173 L -52.6761,-24.0091 L -52.6255,-23.9955 L -52.5767,-23.9768 L -52.53,-23.953 L -52.4861,-23.9245
 L -52.4454,-23.8916 L -52.4084,-23.8546 L -52.3755,-23.8139 L -52.347,-23.77 L -52.3232,-23.7234 L -52.3045,-23.6745
 L -52.291,-23.624 L -52.2828,-23.5723 L -52.28,-23.52 L -52.2828,-23.4677 L -52.291,-23.416 L -52.3045,-23.3655
 L -52.3232,-23.3166 L -52.347,-23.27 L -52.3755,-23.2261 L -52.4084,-23.1854 L -52.4454,-23.1484 L -52.4861,-23.1155
 L -52.53,-23.087 L -52.5767,-23.0632 L -52.6255,-23.0445 L -52.6761,-23.0309 L -52.7278,-23.0227 L -52.78,-23.02
 z
M -50.2723,-23.0227 L -50.3239,-23.0309 L -50.3745,-23.0445 L -50.4234,-23.0632 L -50.47,-23.087 L -50.5139,-23.1155
 L -50.5546,-23.1484 L -50.5916,-23.1854 L -50.6245,-23.2261 L -50.653,-23.27 L -50.6768,-23.3166 L -50.6955,-23.3655
 L -50.7091,-23.416 L -50.7173,-23.4677 L -50.72,-23.52 L -50.7173,-23.5723 L -50.7091,-23.624 L -50.6955,-23.6745
 L -50.6768,-23.7234 L -50.653,-23.77 L -50.6245,-23.8139 L -50.5916,-23.8546 L -50.5546,-23.8916 L -50.5139,-23.9245
 L -50.47,-23.953 L -50.4234,-23.9768 L -50.3745,-23.9955 L -50.3239,-24.0091 L -50.2723,-24.0173 L -50.22,-24.02
 L -50.1677,-24.0173 L -50.1161,-24.0091 L -50.0655,-23.9955 L -50.0166,-23.9768 L -49.97,-23.953 L -49.9261,-23.9245
 L -49.8854,-23.8916 L -49.8484,-23.8546 L -49.8155,-23.8139 L -49.787,-23.77 L -49.7632,-23.7234 L -49.7445,-23.6745
 L -49.7309,-23.624 L -49.7227,-23.5723 L -49.72,-23.52 L -49.7227,-23.4677 L -49.7309,-23.416 L -49.7445,-23.3655
 L -49.7632,-23.3166 L -49.787,-23.27 L -49.8155,-23.2261 L -49.8484,-23.1854 L -49.8854,-23.1484 L -49.9261,-23.1155
 L -49.97,-23.087 L -50.0166,-23.0632 L -50.0655,-23.0445 L -50.1161,-23.0309 L -50.1677,-23.0227 L -50.22,-23.02
 z
M -52.8323,-20.4627 L -52.884,-20.4709 L -52.9345,-20.4845 L -52.9834,-20.5032 L -53.03,-20.527 L -53.0739,-20.5555
 L -53.1146,-20.5884 L -53.1516,-20.6254 L -53.1845,-20.6661 L -53.213,-20.71 L -53.2368,-20.7566 L -53.2555,-20.8055
 L -53.2691,-20.856 L -53.2773,-20.9077 L -53.28,-20.96 L -53.2773,-21.0123 L -53.2691,-21.0639 L -53.2555,-21.1145
 L -53.2368,-21.1634 L -53.213,-21.21 L -53.1845,-21.2539 L -53.1516,-21.2946 L -53.1146,-21.3316 L -53.0739,-21.3645
 L -53.03,-21.393 L -52.9834,-21.4168 L -52.9345,-21.4355 L -52.884,-21.4491 L -52.8323,-21.4573 L -52.78,-21.46
 L -52.7278,-21.4573 L -52.6761,-21.4491 L -52.6255,-21.4355 L -52.5767,-21.4168 L -52.53,-21.393 L -52.4861,-21.3645
 L -52.4454,-21.3316 L -52.4084,-21.2946 L -52.3755,-21.2539 L -52.347,-21.21 L -52.3232,-21.1634 L -52.3045,-21.1145
 L -52.291,-21.0639 L -52.2828,-21.0123 L -52.28,-20.96 L -52.2828,-20.9077 L -52.291,-20.856 L -52.3045,-20.8055
 L -52.3232,-20.7566 L -52.347,-20.71 L -52.3755,-20.6661 L -52.4084,-20.6254 L -52.4454,-20.5884 L -52.4861,-20.5555
 L -52.53,-20.527 L -52.5767,-20.5032 L -52.6255,-20.4845 L -52.6761,-20.4709 L -52.7278,-20.4627 L -52.78,-20.46
 z
M -50.2723,-20.4627 L -50.3239,-20.4709 L -50.3745,-20.4845 L -50.4234,-20.5032 L -50.47,-20.527 L -50.5139,-20.5555
 L -50.5546,-20.5884 L -50.5916,-20.6254 L -50.6245,-20.6661 L -50.653,-20.71 L -50.6768,-20.7566 L -50.6955,-20.8055
 L -50.7091,-20.856 L -50.7173,-20.9077 L -50.72,-20.96 L -50.7173,-21.0123 L -50.7091,-21.0639 L -50.6955,-21.1145
 L -50.6768,-21.1634 L -50.653,-21.21 L -50.6245,-21.2539 L -50.5916,-21.2946 L -50.5546,-21.3316 L -50.5139,-21.3645
 L -50.47,-21.393 L -50.4234,-21.4168 L -50.3745,-21.4355 L -50.3239,-21.4491 L -50.2723,-21.4573 L -50.22,-21.46
 L -50.1677,-21.4573 L -50.1161,-21.4491 L -50.0655,-21.4355 L -50.0166,-21.4168 L -49.97,-21.393 L -49.9261,-21.3645
 L -49.8854,-21.3316 L -49.8484,-21.2946 L -49.8155,-21.2539 L -49.787,-21.21 L -49.7632,-21.1634 L -49.7445,-21.1145
 L -49.7309,-21.0639 L -49.7227,-21.0123 L -49.72,-20.96 L -49.7227,-20.9077 L -49.7309,-20.856 L -49.7445,-20.8055
 L -49.7632,-20.7566 L -49.787,-20.71 L -49.8155,-20.6661 L -49.8484,-20.6254 L -49.8854,-20.5884 L -49.9261,-20.5555
 L -49.97,-20.527 L -50.0166,-20.5032 L -50.0655,-20.4845 L -50.1161,-20.4709 L -50.1677,-20.4627 L -50.22,-20.46
 z
M -28,31 L -28,-21 L 18,-21 L 18,31 z
M -50.2723,-17.9027 L -50.3239,-17.9109 L -50.3745,-17.9245 L -50.4234,-17.9432 L -50.47,-17.967 L -50.5139,-17.9955
 L -50.5546,-18.0284 L -50.5916,-18.0654 L -50.6245,-18.1061 L -50.653,-18.15 L -50.6768,-18.1966 L -50.6955,-18.2455
 L -50.7091,-18.2961 L -50.7173,-18.3477 L -50.72,-18.4 L -50.7173,-18.4523 L -50.7091,-18.504 L -50.6955,-18.5545
 L -50.6768,-18.6034 L -50.653,-18.65 L -50.6245,-18.6939 L -50.5916,-18.7346 L -50.5546,-18.7716 L -50.5139,-18.8045
 L -50.47,-18.833 L -50.4234,-18.8568 L -50.3745,-18.8755 L -50.3239,-18.8891 L -50.2723,-18.8973 L -50.22,-18.9
 L -50.1677,-18.8973 L -50.1161,-18.8891 L -50.0655,-18.8755 L -50.0166,-18.8568 L -49.97,-18.833 L -49.9261,-18.8045
 L -49.8854,-18.7716 L -49.8484,-18.7346 L -49.8155,-18.6939 L -49.787,-18.65 L -49.7632,-18.6034 L -49.7445,-18.5545
 L -49.7309,-18.504 L -49.7227,-18.4523 L -49.72,-18.4 L -49.7227,-18.3477 L -49.7309,-18.2961 L -49.7445,-18.2455
 L -49.7632,-18.1966 L -49.787,-18.15 L -49.8155,-18.1061 L -49.8484,-18.0654 L -49.8854,-18.0284 L -49.9261,-17.9955
 L -49.97,-17.967 L -50.0166,-17.9432 L -50.0655,-17.9245 L -50.1161,-17.9109 L -50.1677,-17.9027 L -50.22,-17.9
 z
M -52.8323,-17.9027 L -52.884,-17.9109 L -52.9345,-17.9245 L -52.9834,-17.9432 L -53.03,-17.967 L -53.0739,-17.9955
 L -53.1146,-18.0284 L -53.1516,-18.0654 L -53.1845,-18.1061 L -53.213,-18.15 L -53.2368,-18.1966 L -53.2555,-18.2455
 L -53.2691,-18.2961 L -53.2773,-18.3477 L -53.28,-18.4 L -53.2773,-18.4523 L -53.2691,-18.504 L -53.2555,-18.5545
 L -53.2368,-18.6034 L -53.213,-18.65 L -53.1845,-18.6939 L -53.1516,-18.7346 L -53.1146,-18.7716 L -53.0739,-18.8045
 L -53.03,-18.833 L -52.9834,-18.8568 L -52.9345,-18.8755 L -52.884,-18.8891 L -52.8323,-18.8973 L -52.78,-18.9
 L -52.7278,-18.8973 L -52.6761,-18.8891 L -52.6255,-18.8755 L -52.5767,-18.8568 L -52.53,-18.833 L -52.4861,-18.8045
 L -52.4454,-18.7716 L -52.4084,-18.7346 L -52.3755,-18.6939 L -52.347,-18.65 L -52.3232,-18.6034 L -52.3045,-18.5545
 L -52.291,-18.504 L -52.2828,-18.4523 L -52.28,-18.4 L -52.2828,-18.3477 L -52.291,-18.2961 L -52.3045,-18.2455
 L -52.3232,-18.1966 L -52.347,-18.15 L -52.3755,-18.1061 L -52.4084,-18.0654 L -52.4454,-18.0284 L -52.4861,-17.9955
 L -52.53,-17.967 L -52.5767,-17.9432 L -52.6255,-17.9245 L -52.6761,-17.9109 L -52.7278,-17.9027 L -52.78,-17.9
 z
M -52.8323,-15.3427 L -52.884,-15.3509 L -52.9345,-15.3645 L -52.9834,-15.3832 L -53.03,-15.407 L -53.0739,-15.4355
 L -53.1146,-15.4684 L -53.1516,-15.5054 L -53.1845,-15.5461 L -53.213,-15.59 L -53.2368,-15.6366 L -53.2555,-15.6855
 L -53.2691,-15.736 L -53.2773,-15.7877 L -53.28,-15.84 L -53.2773,-15.8923 L -53.2691,-15.944 L -53.2555,-15.9945
 L -53.2368,-16.0434 L -53.213,-16.09 L -53.1845,-16.1339 L -53.1516,-16.1746 L -53.1146,-16.2116 L -53.0739,-16.2445
 L -53.03,-16.273 L -52.9834,-16.2968 L -52.9345,-16.3155 L -52.884,-16.3291 L -52.8323,-16.3373 L -52.78,-16.34
 L -52.7278,-16.3373 L -52.6761,-16.3291 L -52.6255,-16.3155 L -52.5767,-16.2968 L -52.53,-16.273 L -52.4861,-16.2445
 L -52.4454,-16.2116 L -52.4084,-16.1746 L -52.3755,-16.1339 L -52.347,-16.09 L -52.3232,-16.0434 L -52.3045,-15.9945
 L -52.291,-15.944 L -52.2828,-15.8923 L -52.28,-15.84 L -52.2828,-15.7877 L -52.291,-15.736 L -52.3045,-15.6855
 L -52.3232,-15.6366 L -52.347,-15.59 L -52.3755,-15.5461 L -52.4084,-15.5054 L -52.4454,-15.4684 L -52.4861,-15.4355
 L -52.53,-15.407 L -52.5767,-15.3832 L -52.6255,-15.3645 L -52.6761,-15.3509 L -52.7278,-15.3427 L -52.78,-15.34
 z
M -50.2723,-15.3427 L -50.3239,-15.3509 L -50.3745,-15.3645 L -50.4234,-15.3832 L -50.47,-15.407 L -50.5139,-15.4355
 L -50.5546,-15.4684 L -50.5916,-15.5054 L -50.6245,-15.5461 L -50.653,-15.59 L -50.6768,-15.6366 L -50.6955,-15.6855
 L -50.7091,-15.736 L -50.7173,-15.7877 L -50.72,-15.84 L -50.7173,-15.8923 L -50.7091,-15.944 L -50.6955,-15.9945
 L -50.6768,-16.0434 L -50.653,-16.09 L -50.6245,-16.1339 L -50.5916,-16.1746 L -50.5546,-16.2116 L -50.5139,-16.2445
 L -50.47,-16.273 L -50.4234,-16.2968 L -50.3745,-16.3155 L -50.3239,-16.3291 L -50.2723,-16.3373 L -50.22,-16.34
 L -50.1677,-16.3373 L -50.1161,-16.3291 L -50.0655,-16.3155 L -50.0166,-16.2968 L -49.97,-16.273 L -49.9261,-16.2445
 L -49.8854,-16.2116 L -49.8484,-16.1746 L -49.8155,-16.1339 L -49.787,-16.09 L -49.7632,-16.0434 L -49.7445,-15.9945
 L -49.7309,-15.944 L -49.7227,-15.8923 L -49.72,-15.84 L -49.7227,-15.7877 L -49.7309,-15.736 L -49.7445,-15.6855
 L -49.7632,-15.6366 L -49.787,-15.59 L -49.8155,-15.5461 L -49.8484,-15.5054 L -49.8854,-15.4684 L -49.9261,-15.4355
 L -49.97,-15.407 L -50.0166,-15.3832 L -50.0655,-15.3645 L -50.1161,-15.3509 L -50.1677,-15.3427 L -50.22,-15.34
 z
M -52.8323,-12.7827 L -52.884,-12.7909 L -52.9345,-12.8045 L -52.9834,-12.8232 L -53.03,-12.847 L -53.0739,-12.8755
 L -53.1146,-12.9084 L -53.1516,-12.9454 L -53.1845,-12.9861 L -53.213,-13.03 L -53.2368,-13.0766 L -53.2555,-13.1255
 L -53.2691,-13.176 L -53.2773,-13.2277 L -53.28,-13.28 L -53.2773,-13.3323 L -53.2691,-13.384 L -53.2555,-13.4345
 L -53.2368,-13.4834 L -53.213,-13.53 L -53.1845,-13.5739 L -53.1516,-13.6146 L -53.1146,-13.6516 L -53.0739,-13.6845
 L -53.03,-13.713 L -52.9834,-13.7368 L -52.9345,-13.7555 L -52.884,-13.7691 L -52.8323,-13.7773 L -52.78,-13.78
 L -52.7278,-13.7773 L -52.6761,-13.7691 L -52.6255,-13.7555 L -52.5767,-13.7368 L -52.53,-13.713 L -52.4861,-13.6845
 L -52.4454,-13.6516 L -52.4084,-13.6146 L -52.3755,-13.5739 L -52.347,-13.53 L -52.3232,-13.4834 L -52.3045,-13.4345
 L -52.291,-13.384 L -52.2828,-13.3323 L -52.28,-13.28 L -52.2828,-13.2277 L -52.291,-13.176 L -52.3045,-13.1255
 L -52.3232,-13.0766 L -52.347,-13.03 L -52.3755,-12.9861 L -52.4084,-12.9454 L -52.4454,-12.9084 L -52.4861,-12.8755
 L -52.53,-12.847 L -52.5767,-12.8232 L -52.6255,-12.8045 L -52.6761,-12.7909 L -52.7278,-12.7827 L -52.78,-12.78
 z
M -50.2723,-12.7827 L -50.3239,-12.7909 L -50.3745,-12.8045 L -50.4234,-12.8232 L -50.47,-12.847 L -50.5139,-12.8755
 L -50.5546,-12.9084 L -50.5916,-12.9454 L -50.6245,-12.9861 L -50.653,-13.03 L -50.6768,-13.0766 L -50.6955,-13.1255
 L -50.7091,-13.176 L -50.7173,-13.2277 L -50.72,-13.28 L -50.7173,-13.3323 L -50.7091,-13.384 L -50.6955,-13.4345
 L -50.6768,-13.4834 L -50.653,-13.53 L -50.6245,-13.5739 L -50.5916,-13.6146 L -50.5546,-13.6516 L -50.5139,-13.6845
 L -50.47,-13.713 L -50.4234,-13.7368 L -50.3745,-13.7555 L -50.3239,-13.7691 L -50.2723,-13.7773 L -50.22,-13.78
 L -50.1677,-13.7773 L -50.1161,-13.7691 L -50.0655,-13.7555 L -50.0166,-13.7368 L -49.97,-13.713 L -49.9261,-13.6845
 L -49.8854,-13.6516 L -49.8484,-13.6146 L -49.8155,-13.5739 L -49.787,-13.53 L -49.7632,-13.4834 L -49.7445,-13.4345
 L -49.7309,-13.384 L -49.7227,-13.3323 L -49.72,-13.28 L -49.7227,-13.2277 L -49.7309,-13.176 L -49.7445,-13.1255
 L -49.7632,-13.0766 L -49.787,-13.03 L -49.8155,-12.9861 L -49.8484,-12.9454 L -49.8854,-12.9084 L -49.9261,-12.8755
 L -49.97,-12.847 L -50.0166,-12.8232 L -50.0655,-12.8045 L -50.1161,-12.7909 L -50.1677,-12.7827 L -50.22,-12.78
 z
M 45.8432,-9.75822 L 45.6881,-9.78279 L 45.5365,-9.82343 L 45.3899,-9.87968 L 45.25,-9.95097 L 45.1183,-10.0365
 L 44.9963,-10.1353 L 44.8853,-10.2463 L 44.7865,-10.3683 L 44.701,-10.5 L 44.6297,-10.6399 L 44.5734,-10.7865
 L 44.5328,-10.9381 L 44.5082,-11.0932 L 44.5,-11.25 L 44.5082,-11.4068 L 44.5328,-11.5619 L 44.5734,-11.7135
 L 44.6297,-11.8601 L 44.701,-12 L 44.7865,-12.1317 L 44.8853,-12.2537 L 44.9963,-12.3647 L 45.1183,-12.4635
 L 45.25,-12.549 L 45.3899,-12.6203 L 45.5365,-12.6766 L 45.6881,-12.7172 L 45.8432,-12.7418 L 46,-12.75
 L 46.1568,-12.7418 L 46.3119,-12.7172 L 46.4635,-12.6766 L 46.6101,-12.6203 L 46.75,-12.549 L 46.8817,-12.4635
 L 47.0037,-12.3647 L 47.1147,-12.2537 L 47.2135,-12.1317 L 47.299,-12 L 47.3703,-11.8601 L 47.4266,-11.7135
 L 47.4672,-11.5619 L 47.4918,-11.4068 L 47.5,-11.25 L 47.4918,-11.0932 L 47.4672,-10.9381 L 47.4266,-10.7865
 L 47.3703,-10.6399 L 47.299,-10.5 L 47.2135,-10.3683 L 47.1147,-10.2463 L 47.0037,-10.1353 L 46.8817,-10.0365
 L 46.75,-9.95097 L 46.6101,-9.87968 L 46.4635,-9.82343 L 46.3119,-9.78279 L 46.1568,-9.75822 L 46,-9.75
 z
M 93.8432,-9.75822 L 93.6881,-9.78279 L 93.5365,-9.82343 L 93.3899,-9.87968 L 93.25,-9.95097 L 93.1183,-10.0365
 L 92.9963,-10.1353 L 92.8853,-10.2463 L 92.7865,-10.3683 L 92.701,-10.5 L 92.6297,-10.6399 L 92.5734,-10.7865
 L 92.5328,-10.9381 L 92.5082,-11.0932 L 92.5,-11.25 L 92.5082,-11.4068 L 92.5328,-11.5619 L 92.5734,-11.7135
 L 92.6297,-11.8601 L 92.701,-12 L 92.7865,-12.1317 L 92.8853,-12.2537 L 92.9963,-12.3647 L 93.1183,-12.4635
 L 93.25,-12.549 L 93.3899,-12.6203 L 93.5365,-12.6766 L 93.6881,-12.7172 L 93.8432,-12.7418 L 94,-12.75
 L 94.1568,-12.7418 L 94.3119,-12.7172 L 94.4635,-12.6766 L 94.6101,-12.6203 L 94.75,-12.549 L 94.8817,-12.4635
 L 95.0037,-12.3647 L 95.1147,-12.2537 L 95.2135,-12.1317 L 95.299,-12 L 95.3703,-11.8601 L 95.4266,-11.7135
 L 95.4672,-11.5619 L 95.4918,-11.4068 L 95.5,-11.25 L 95.4918,-11.0932 L 95.4672,-10.9381 L 95.4266,-10.7865
 L 95.3703,-10.6399 L 95.299,-10.5 L 95.2135,-10.3683 L 95.1147,-10.2463 L 95.0037,-10.1353 L 94.8817,-10.0365
 L 94.75,-9.95097 L 94.6101,-9.87968 L 94.4635,-9.82343 L 94.3119,-9.78279 L 94.1568,-9.75822 L 94,-9.75
 z
M -50.2723,-10.2227 L -50.3239,-10.2309 L -50.3745,-10.2445 L -50.4234,-10.2632 L -50.47,-10.287 L -50.5139,-10.3155
 L -50.5546,-10.3484 L -50.5916,-10.3855 L -50.6245,-10.4261 L -50.653,-10.47 L -50.6768,-10.5166 L -50.6955,-10.5655
 L -50.7091,-10.6161 L -50.7173,-10.6678 L -50.72,-10.72 L -50.7173,-10.7723 L -50.7091,-10.824 L -50.6955,-10.8745
 L -50.6768,-10.9234 L -50.653,-10.97 L -50.6245,-11.0139 L -50.5916,-11.0546 L -50.5546,-11.0916 L -50.5139,-11.1245
 L -50.47,-11.153 L -50.4234,-11.1768 L -50.3745,-11.1955 L -50.3239,-11.2091 L -50.2723,-11.2173 L -50.22,-11.22
 L -50.1677,-11.2173 L -50.1161,-11.2091 L -50.0655,-11.1955 L -50.0166,-11.1768 L -49.97,-11.153 L -49.9261,-11.1245
 L -49.8854,-11.0916 L -49.8484,-11.0546 L -49.8155,-11.0139 L -49.787,-10.97 L -49.7632,-10.9234 L -49.7445,-10.8745
 L -49.7309,-10.824 L -49.7227,-10.7723 L -49.72,-10.72 L -49.7227,-10.6678 L -49.7309,-10.6161 L -49.7445,-10.5655
 L -49.7632,-10.5166 L -49.787,-10.47 L -49.8155,-10.4261 L -49.8484,-10.3855 L -49.8854,-10.3484 L -49.9261,-10.3155
 L -49.97,-10.287 L -50.0166,-10.2632 L -50.0655,-10.2445 L -50.1161,-10.2309 L -50.1677,-10.2227 L -50.22,-10.22
 z
M -52.8323,-10.2227 L -52.884,-10.2309 L -52.9345,-10.2445 L -52.9834,-10.2632 L -53.03,-10.287 L -53.0739,-10.3155
 L -53.1146,-10.3484 L -53.1516,-10.3855 L -53.1845,-10.4261 L -53.213,-10.47 L -53.2368,-10.5166 L -53.2555,-10.5655
 L -53.2691,-10.6161 L -53.2773,-10.6678 L -53.28,-10.72 L -53.2773,-10.7723 L -53.2691,-10.824 L -53.2555,-10.8745
 L -53.2368,-10.9234 L -53.213,-10.97 L -53.1845,-11.0139 L -53.1516,-11.0546 L -53.1146,-11.0916 L -53.0739,-11.1245
 L -53.03,-11.153 L -52.9834,-11.1768 L -52.9345,-11.1955 L -52.884,-11.2091 L -52.8323,-11.2173 L -52.78,-11.22
 L -52.7278,-11.2173 L -52.6761,-11.2091 L -52.6255,-11.1955 L -52.5767,-11.1768 L -52.53,-11.153 L -52.4861,-11.1245
 L -52.4454,-11.0916 L -52.4084,-11.0546 L -52.3755,-11.0139 L -52.347,-10.97 L -52.3232,-10.9234 L -52.3045,-10.8745
 L -52.291,-10.824 L -52.2828,-10.7723 L -52.28,-10.72 L -52.2828,-10.6678 L -52.291,-10.6161 L -52.3045,-10.5655
 L -52.3232,-10.5166 L -52.347,-10.47 L -52.3755,-10.4261 L -52.4084,-10.3855 L -52.4454,-10.3484 L -52.4861,-10.3155
 L -52.53,-10.287 L -52.5767,-10.2632 L -52.6255,-10.2445 L -52.6761,-10.2309 L -52.7278,-10.2227 L -52.78,-10.22
 z
M -52.8323,-7.66275 L -52.884,-7.67094 L -52.9345,-7.68449 L -52.9834,-7.70325 L -53.03,-7.72701 L -53.0739,-7.75551
 L -53.1146,-7.78844 L -53.1516,-7.82545 L -53.1845,-7.86612 L -53.213,-7.91002 L -53.2368,-7.95665 L -53.2555,-8.00551
 L -53.2691,-8.05606 L -53.2773,-8.10776 L -53.28,-8.16002 L -53.2773,-8.21228 L -53.2691,-8.26398 L -53.2555,-8.31453
 L -53.2368,-8.36339 L -53.213,-8.41002 L -53.1845,-8.4539 L -53.1516,-8.49458 L -53.1146,-8.53159 L -53.0739,-8.56453
 L -53.03,-8.59303 L -52.9834,-8.61679 L -52.9345,-8.63554 L -52.884,-8.64909 L -52.8323,-8.65727 L -52.78,-8.66002
 L -52.7278,-8.65727 L -52.6761,-8.64909 L -52.6255,-8.63554 L -52.5767,-8.61679 L -52.53,-8.59303 L -52.4861,-8.56453
 L -52.4454,-8.53159 L -52.4084,-8.49458 L -52.3755,-8.4539 L -52.347,-8.41002 L -52.3232,-8.36339 L -52.3045,-8.31453
 L -52.291,-8.26398 L -52.2828,-8.21228 L -52.28,-8.16002 L -52.2828,-8.10776 L -52.291,-8.05606 L -52.3045,-8.00551
 L -52.3232,-7.95665 L -52.347,-7.91002 L -52.3755,-7.86612 L -52.4084,-7.82545 L -52.4454,-7.78844 L -52.4861,-7.75551
 L -52.53,-7.72701 L -52.5767,-7.70325 L -52.6255,-7.68449 L -52.6761,-7.67094 L -52.7278,-7.66275 L -52.78,-7.66002
 z
M -50.2723,-7.66275 L -50.3239,-7.67094 L -50.3745,-7.68449 L -50.4234,-7.70325 L -50.47,-7.72701 L -50.5139,-7.75551
 L -50.5546,-7.78844 L -50.5916,-7.82545 L -50.6245,-7.86612 L -50.653,-7.91002 L -50.6768,-7.95665 L -50.6955,-8.00551
 L -50.7091,-8.05606 L -50.7173,-8.10776 L -50.72,-8.16002 L -50.7173,-8.21228 L -50.7091,-8.26398 L -50.6955,-8.31453
 L -50.6768,-8.36339 L -50.653,-8.41002 L -50.6245,-8.4539 L -50.5916,-8.49458 L -50.5546,-8.53159 L -50.5139,-8.56453
 L -50.47,-8.59303 L -50.4234,-8.61679 L -50.3745,-8.63554 L -50.3239,-8.64909 L -50.2723,-8.65727 L -50.22,-8.66002
 L -50.1677,-8.65727 L -50.1161,-8.64909 L -50.0655,-8.63554 L -50.0166,-8.61679 L -49.97,-8.59303 L -49.9261,-8.56453
 L -49.8854,-8.53159 L -49.8484,-8.49458 L -49.8155,-8.4539 L -49.787,-8.41002 L -49.7632,-8.36339 L -49.7445,-8.31453
 L -49.7309,-8.26398 L -49.7227,-8.21228 L -49.72,-8.16002 L -49.7227,-8.10776 L -49.7309,-8.05606 L -49.7445,-8.00551
 L -49.7632,-7.95665 L -49.787,-7.91002 L -49.8155,-7.86612 L -49.8484,-7.82545 L -49.8854,-7.78844 L -49.9261,-7.75551
 L -49.97,-7.72701 L -50.0166,-7.70325 L -50.0655,-7.68449 L -50.1161,-7.67094 L -50.1677,-7.66275 L -50.22,-7.66002
 z
M -52.8323,-5.10275 L -52.884,-5.11095 L -52.9345,-5.12448 L -52.9834,-5.14325 L -53.03,-5.16701 L -53.0739,-5.19551
 L -53.1146,-5.22844 L -53.1516,-5.26546 L -53.1845,-5.30612 L -53.213,-5.35002 L -53.2368,-5.39665 L -53.2555,-5.44551
 L -53.2691,-5.49606 L -53.2773,-5.54774 L -53.28,-5.60002 L -53.2773,-5.65228 L -53.2691,-5.70396 L -53.2555,-5.75452
 L -53.2368,-5.80339 L -53.213,-5.85002 L -53.1845,-5.89391 L -53.1516,-5.93459 L -53.1146,-5.97159 L -53.0739,-6.00452
 L -53.03,-6.03304 L -52.9834,-6.05679 L -52.9345,-6.07555 L -52.884,-6.0891 L -52.8323,-6.09727 L -52.78,-6.10002
 L -52.7278,-6.09727 L -52.6761,-6.0891 L -52.6255,-6.07555 L -52.5767,-6.05679 L -52.53,-6.03304 L -52.4861,-6.00452
 L -52.4454,-5.97159 L -52.4084,-5.93459 L -52.3755,-5.89391 L -52.347,-5.85002 L -52.3232,-5.80339 L -52.3045,-5.75452
 L -52.291,-5.70396 L -52.2828,-5.65228 L -52.28,-5.60002 L -52.2828,-5.54774 L -52.291,-5.49606 L -52.3045,-5.44551
 L -52.3232,-5.39665 L -52.347,-5.35002 L -52.3755,-5.30612 L -52.4084,-5.26546 L -52.4454,-5.22844 L -52.4861,-5.19551
 L -52.53,-5.16701 L -52.5767,-5.14325 L -52.6255,-5.12448 L -52.6761,-5.11095 L -52.7278,-5.10275 L -52.78,-5.10002
 z
M -50.2723,-5.10275 L -50.3239,-5.11095 L -50.3745,-5.12448 L -50.4234,-5.14325 L -50.47,-5.16701 L -50.5139,-5.19551
 L -50.5546,-5.22844 L -50.5916,-5.26546 L -50.6245,-5.30612 L -50.653,-5.35002 L -50.6768,-5.39665 L -50.6955,-5.44551
 L -50.7091,-5.49606 L -50.7173,-5.54774 L -50.72,-5.60002 L -50.7173,-5.65228 L -50.7091,-5.70396 L -50.6955,-5.75452
 L -50.6768,-5.80339 L -50.653,-5.85002 L -50.6245,-5.89391 L -50.5916,-5.93459 L -50.5546,-5.97159 L -50.5139,-6.00452
 L -50.47,-6.03304 L -50.4234,-6.05679 L -50.3745,-6.07555 L -50.3239,-6.0891 L -50.2723,-6.09727 L -50.22,-6.10002
 L -50.1677,-6.09727 L -50.1161,-6.0891 L -50.0655,-6.07555 L -50.0166,-6.05679 L -49.97,-6.03304 L -49.9261,-6.00452
 L -49.8854,-5.97159 L -49.8484,-5.93459 L -49.8155,-5.89391 L -49.787,-5.85002 L -49.7632,-5.80339 L -49.7445,-5.75452
 L -49.7309,-5.70396 L -49.7227,-5.65228 L -49.72,-5.60002 L -49.7227,-5.54774 L -49.7309,-5.49606 L -49.7445,-5.44551
 L -49.7632,-5.39665 L -49.787,-5.35002 L -49.8155,-5.30612 L -49.8484,-5.26546 L -49.8854,-5.22844 L -49.9261,-5.19551
 L -49.97,-5.16701 L -50.0166,-5.14325 L -50.0655,-5.12448 L -50.1161,-5.11095 L -50.1677,-5.10275 L -50.22,-5.10002
 z
M -52.8323,-2.54276 L -52.884,-2.55093 L -52.9345,-2.56448 L -52.9834,-2.58324 L -53.03,-2.60699 L -53.0739,-2.63551
 L -53.1146,-2.66844 L -53.1516,-2.70544 L -53.1845,-2.74612 L -53.213,-2.79001 L -53.2368,-2.83664 L -53.2555,-2.88551
 L -53.2691,-2.93607 L -53.2773,-2.98775 L -53.28,-3.04001 L -53.2773,-3.09229 L -53.2691,-3.14397 L -53.2555,-3.19452
 L -53.2368,-3.24338 L -53.213,-3.29001 L -53.1845,-3.33391 L -53.1516,-3.37457 L -53.1146,-3.41159 L -53.0739,-3.44452
 L -53.03,-3.47302 L -52.9834,-3.49678 L -52.9345,-3.51555 L -52.884,-3.52908 L -52.8323,-3.53728 L -52.78,-3.54001
 L -52.7278,-3.53728 L -52.6761,-3.52908 L -52.6255,-3.51555 L -52.5767,-3.49678 L -52.53,-3.47302 L -52.4861,-3.44452
 L -52.4454,-3.41159 L -52.4084,-3.37457 L -52.3755,-3.33391 L -52.347,-3.29001 L -52.3232,-3.24338 L -52.3045,-3.19452
 L -52.291,-3.14397 L -52.2828,-3.09229 L -52.28,-3.04001 L -52.2828,-2.98775 L -52.291,-2.93607 L -52.3045,-2.88551
 L -52.3232,-2.83664 L -52.347,-2.79001 L -52.3755,-2.74612 L -52.4084,-2.70544 L -52.4454,-2.66844 L -52.4861,-2.63551
 L -52.53,-2.60699 L -52.5767,-2.58324 L -52.6255,-2.56448 L -52.6761,-2.55093 L -52.7278,-2.54276 L -52.78,-2.54001
 z
M -50.2723,-2.54276 L -50.3239,-2.55093 L -50.3745,-2.56448 L -50.4234,-2.58324 L -50.47,-2.60699 L -50.5139,-2.63551
 L -50.5546,-2.66844 L -50.5916,-2.70544 L -50.6245,-2.74612 L -50.653,-2.79001 L -50.6768,-2.83664 L -50.6955,-2.88551
 L -50.7091,-2.93607 L -50.7173,-2.98775 L -50.72,-3.04001 L -50.7173,-3.09229 L -50.7091,-3.14397 L -50.6955,-3.19452
 L -50.6768,-3.24338 L -50.653,-3.29001 L -50.6245,-3.33391 L -50.5916,-3.37457 L -50.5546,-3.41159 L -50.5139,-3.44452
 L -50.47,-3.47302 L -50.4234,-3.49678 L -50.3745,-3.51555 L -50.3239,-3.52908 L -50.2723,-3.53728 L -50.22,-3.54001
 L -50.1677,-3.53728 L -50.1161,-3.52908 L -50.0655,-3.51555 L -50.0166,-3.49678 L -49.97,-3.47302 L -49.9261,-3.44452
 L -49.8854,-3.41159 L -49.8484,-3.37457 L -49.8155,-3.33391 L -49.787,-3.29001 L -49.7632,-3.24338 L -49.7445,-3.19452
 L -49.7309,-3.14397 L -49.7227,-3.09229 L -49.72,-3.04001 L -49.7227,-2.98775 L -49.7309,-2.93607 L -49.7445,-2.88551
 L -49.7632,-2.83664 L -49.787,-2.79001 L -49.8155,-2.74612 L -49.8484,-2.70544 L -49.8854,-2.66844 L -49.9261,-2.63551
 L -49.97,-2.60699 L -50.0166,-2.58324 L -50.0655,-2.56448 L -50.1161,-2.55093 L -50.1677,-2.54276 L -50.22,-2.54001
 z
M -90.1568,1.99178 L -90.3119,1.96721 L -90.4635,1.92657 L -90.6101,1.87032 L -90.75,1.79903 L -90.8817,1.71352
 L -91.0037,1.61472 L -91.1147,1.50369 L -91.2135,1.38167 L -91.299,1.25 L -91.3703,1.11009 L -91.4266,0.963516
 L -91.4672,0.811859 L -91.4918,0.656784 L -91.5,0.5 L -91.4918,0.343201 L -91.4672,0.188126 L -91.4266,0.0364685
 L -91.3703,-0.110107 L -91.299,-0.25 L -91.2135,-0.381683 L -91.1147,-0.503708 L -91.0037,-0.614731 L -90.8817,-0.713531
 L -90.75,-0.799042 L -90.6101,-0.870331 L -90.4635,-0.92659 L -90.3119,-0.967224 L -90.1568,-0.991791 L -90,-1
 L -89.8432,-0.991791 L -89.6881,-0.967224 L -89.5365,-0.92659 L -89.3899,-0.870331 L -89.25,-0.799042 L -89.1183,-0.713531
 L -88.9963,-0.614731 L -88.8853,-0.503708 L -88.7865,-0.381683 L -88.701,-0.25 L -88.6297,-0.110107 L -88.5734,0.0364685
 L -88.5328,0.188126 L -88.5082,0.343201 L -88.5,0.5 L -88.5082,0.656784 L -88.5328,0.811859 L -88.5734,0.963516
 L -88.6297,1.11009 L -88.701,1.25 L -88.7865,1.38167 L -88.8853,1.50369 L -88.9963,1.61472 L -89.1183,1.71352
 L -89.25,1.79903 L -89.3899,1.87032 L -89.5365,1.92657 L -89.6881,1.96721 L -89.8432,1.99178 L -90,2
 z
M -58.1568,1.99178 L -58.3119,1.96721 L -58.4635,1.92657 L -58.6101,1.87032 L -58.75,1.79903 L -58.8817,1.71352
 L -59.0037,1.61472 L -59.1147,1.50369 L -59.2135,1.38167 L -59.299,1.25 L -59.3703,1.11009 L -59.4266,0.963516
 L -59.4672,0.811859 L -59.4918,0.656784 L -59.5,0.5 L -59.4918,0.343201 L -59.4672,0.188126 L -59.4266,0.0364685
 L -59.3703,-0.110107 L -59.299,-0.25 L -59.2135,-0.381683 L -59.1147,-0.503708 L -59.0037,-0.614731 L -58.8817,-0.713531
 L -58.75,-0.799042 L -58.6101,-0.870331 L -58.4635,-0.92659 L -58.3119,-0.967224 L -58.1568,-0.991791 L -58,-1
 L -57.8432,-0.991791 L -57.6881,-0.967224 L -57.5365,-0.92659 L -57.3899,-0.870331 L -57.25,-0.799042 L -57.1183,-0.713531
 L -56.9963,-0.614731 L -56.8853,-0.503708 L -56.7865,-0.381683 L -56.701,-0.25 L -56.6297,-0.110107 L -56.5734,0.0364685
 L -56.5328,0.188126 L -56.5082,0.343201 L -56.5,0.5 L -56.5082,0.656784 L -56.5328,0.811859 L -56.5734,0.963516
 L -56.6297,1.11009 L -56.701,1.25 L -56.7865,1.38167 L -56.8853,1.50369 L -56.9963,1.61472 L -57.1183,1.71352
 L -57.25,1.79903 L -57.3899,1.87032 L -57.5365,1.92657 L -57.6881,1.96721 L -57.8432,1.99178 L -58,2
 z
M -50.2723,0.0172424 L -50.3239,0.00906372 L -50.3745,-0.00448608 L -50.4234,-0.0232391 L -50.47,-0.0469971 L -50.5139,-0.0755005
 L -50.5546,-0.108444 L -50.5916,-0.145447 L -50.6245,-0.186127 L -50.653,-0.230011 L -50.6768,-0.276642 L -50.6955,-0.3255
 L -50.7091,-0.376053 L -50.7173,-0.42775 L -50.72,-0.480011 L -50.7173,-0.532272 L -50.7091,-0.583969 L -50.6955,-0.634521
 L -50.6768,-0.68338 L -50.653,-0.730011 L -50.6245,-0.773911 L -50.5916,-0.814575 L -50.5546,-0.851593 L -50.5139,-0.884521
 L -50.47,-0.913025 L -50.4234,-0.936783 L -50.3745,-0.955536 L -50.3239,-0.969086 L -50.2723,-0.97728 L -50.22,-0.980011
 L -50.1677,-0.97728 L -50.1161,-0.969086 L -50.0655,-0.955536 L -50.0166,-0.936783 L -49.97,-0.913025 L -49.9261,-0.884521
 L -49.8854,-0.851593 L -49.8484,-0.814575 L -49.8155,-0.773911 L -49.787,-0.730011 L -49.7632,-0.68338 L -49.7445,-0.634521
 L -49.7309,-0.583969 L -49.7227,-0.532272 L -49.72,-0.480011 L -49.7227,-0.42775 L -49.7309,-0.376053 L -49.7445,-0.3255
 L -49.7632,-0.276642 L -49.787,-0.230011 L -49.8155,-0.186127 L -49.8484,-0.145447 L -49.8854,-0.108444 L -49.9261,-0.0755005
 L -49.97,-0.0469971 L -50.0166,-0.0232391 L -50.0655,-0.00448608 L -50.1161,0.00906372 L -50.1677,0.0172424 L -50.22,0.019989
 z
M -52.8323,0.0172424 L -52.884,0.00906372 L -52.9345,-0.00448608 L -52.9834,-0.0232391 L -53.03,-0.0469971 L -53.0739,-0.0755005
 L -53.1146,-0.108444 L -53.1516,-0.145447 L -53.1845,-0.186127 L -53.213,-0.230011 L -53.2368,-0.276642 L -53.2555,-0.3255
 L -53.2691,-0.376053 L -53.2773,-0.42775 L -53.28,-0.480011 L -53.2773,-0.532272 L -53.2691,-0.583969 L -53.2555,-0.634521
 L -53.2368,-0.68338 L -53.213,-0.730011 L -53.1845,-0.773911 L -53.1516,-0.814575 L -53.1146,-0.851593 L -53.0739,-0.884521
 L -53.03,-0.913025 L -52.9834,-0.936783 L -52.9345,-0.955536 L -52.884,-0.969086 L -52.8323,-0.97728 L -52.78,-0.980011
 L -52.7278,-0.97728 L -52.6761,-0.969086 L -52.6255,-0.955536 L -52.5767,-0.936783 L -52.53,-0.913025 L -52.4861,-0.884521
 L -52.4454,-0.851593 L -52.4084,-0.814575 L -52.3755,-0.773911 L -52.347,-0.730011 L -52.3232,-0.68338 L -52.3045,-0.634521
 L -52.291,-0.583969 L -52.2828,-0.532272 L -52.28,-0.480011 L -52.2828,-0.42775 L -52.291,-0.376053 L -52.3045,-0.3255
 L -52.3232,-0.276642 L -52.347,-0.230011 L -52.3755,-0.186127 L -52.4084,-0.145447 L -52.4454,-0.108444 L -52.4861,-0.0755005
 L -52.53,-0.0469971 L -52.5767,-0.0232391 L -52.6255,-0.00448608 L -52.6761,0.00906372 L -52.7278,0.0172424 L -52.78,0.019989
 z
M -52.8323,2.57724 L -52.884,2.56906 L -52.9345,2.55551 L -52.9834,2.53676 L -53.03,2.513 L -53.0739,2.4845
 L -53.1146,2.45155 L -53.1516,2.41455 L -53.1845,2.37387 L -53.213,2.32999 L -53.2368,2.28336 L -53.2555,2.2345
 L -53.2691,2.18394 L -53.2773,2.13225 L -53.28,2.07999 L -53.2773,2.02773 L -53.2691,1.97603 L -53.2555,1.92548
 L -53.2368,1.87662 L -53.213,1.82999 L -53.1845,1.78609 L -53.1516,1.74542 L -53.1146,1.70842 L -53.0739,1.67548
 L -53.03,1.64697 L -52.9834,1.62321 L -52.9345,1.60446 L -52.884,1.59091 L -52.8323,1.58272 L -52.78,1.57999
 L -52.7278,1.58272 L -52.6761,1.59091 L -52.6255,1.60446 L -52.5767,1.62321 L -52.53,1.64697 L -52.4861,1.67548
 L -52.4454,1.70842 L -52.4084,1.74542 L -52.3755,1.78609 L -52.347,1.82999 L -52.3232,1.87662 L -52.3045,1.92548
 L -52.291,1.97603 L -52.2828,2.02773 L -52.28,2.07999 L -52.2828,2.13225 L -52.291,2.18394 L -52.3045,2.2345
 L -52.3232,2.28336 L -52.347,2.32999 L -52.3755,2.37387 L -52.4084,2.41455 L -52.4454,2.45155 L -52.4861,2.4845
 L -52.53,2.513 L -52.5767,2.53676 L -52.6255,2.55551 L -52.6761,2.56906 L -52.7278,2.57724 L -52.78,2.57999
 z
M -50.2723,2.57724 L -50.3239,2.56906 L -50.3745,2.55551 L -50.4234,2.53676 L -50.47,2.513 L -50.5139,2.4845
 L -50.5546,2.45155 L -50.5916,2.41455 L -50.6245,2.37387 L -50.653,2.32999 L -50.6768,2.28336 L -50.6955,2.2345
 L -50.7091,2.18394 L -50.7173,2.13225 L -50.72,2.07999 L -50.7173,2.02773 L -50.7091,1.97603 L -50.6955,1.92548
 L -50.6768,1.87662 L -50.653,1.82999 L -50.6245,1.78609 L -50.5916,1.74542 L -50.5546,1.70842 L -50.5139,1.67548
 L -50.47,1.64697 L -50.4234,1.62321 L -50.3745,1.60446 L -50.3239,1.59091 L -50.2723,1.58272 L -50.22,1.57999
 L -50.1677,1.58272 L -50.1161,1.59091 L -50.0655,1.60446 L -50.0166,1.62321 L -49.97,1.64697 L -49.9261,1.67548
 L -49.8854,1.70842 L -49.8484,1.74542 L -49.8155,1.78609 L -49.787,1.82999 L -49.7632,1.87662 L -49.7445,1.92548
 L -49.7309,1.97603 L -49.7227,2.02773 L -49.72,2.07999 L -49.7227,2.13225 L -49.7309,2.18394 L -49.7445,2.2345
 L -49.7632,2.28336 L -49.787,2.32999 L -49.8155,2.37387 L -49.8484,2.41455 L -49.8854,2.45155 L -49.9261,2.4845
 L -49.97,2.513 L -50.0166,2.53676 L -50.0655,2.55551 L -50.1161,2.56906 L -50.1677,2.57724 L -50.22,2.57999
 z
M -52.8323,5.13725 L -52.884,5.12906 L -52.9345,5.11551 L -52.9834,5.09676 L -53.03,5.073 L -53.0739,5.04449
 L -53.1146,5.01155 L -53.1516,4.97455 L -53.1845,4.93388 L -53.213,4.88998 L -53.2368,4.84335 L -53.2555,4.79449
 L -53.2691,4.74394 L -53.2773,4.69225 L -53.28,4.63998 L -53.2773,4.58772 L -53.2691,4.53603 L -53.2555,4.48547
 L -53.2368,4.43661 L -53.213,4.38998 L -53.1845,4.3461 L -53.1516,4.30542 L -53.1146,4.26842 L -53.0739,4.23547
 L -53.03,4.20697 L -52.9834,4.18321 L -52.9345,4.16446 L -52.884,4.15091 L -52.8323,4.14273 L -52.78,4.13998
 L -52.7278,4.14273 L -52.6761,4.15091 L -52.6255,4.16446 L -52.5767,4.18321 L -52.53,4.20697 L -52.4861,4.23547
 L -52.4454,4.26842 L -52.4084,4.30542 L -52.3755,4.3461 L -52.347,4.38998 L -52.3232,4.43661 L -52.3045,4.48547
 L -52.291,4.53603 L -52.2828,4.58772 L -52.28,4.63998 L -52.2828,4.69225 L -52.291,4.74394 L -52.3045,4.79449
 L -52.3232,4.84335 L -52.347,4.88998 L -52.3755,4.93388 L -52.4084,4.97455 L -52.4454,5.01155 L -52.4861,5.04449
 L -52.53,5.073 L -52.5767,5.09676 L -52.6255,5.11551 L -52.6761,5.12906 L -52.7278,5.13725 L -52.78,5.13998
 z
M -50.2723,5.13725 L -50.3239,5.12906 L -50.3745,5.11551 L -50.4234,5.09676 L -50.47,5.073 L -50.5139,5.04449
 L -50.5546,5.01155 L -50.5916,4.97455 L -50.6245,4.93388 L -50.653,4.88998 L -50.6768,4.84335 L -50.6955,4.79449
 L -50.7091,4.74394 L -50.7173,4.69225 L -50.72,4.63998 L -50.7173,4.58772 L -50.7091,4.53603 L -50.6955,4.48547
 L -50.6768,4.43661 L -50.653,4.38998 L -50.6245,4.3461 L -50.5916,4.30542 L -50.5546,4.26842 L -50.5139,4.23547
 L -50.47,4.20697 L -50.4234,4.18321 L -50.3745,4.16446 L -50.3239,4.15091 L -50.2723,4.14273 L -50.22,4.13998
 L -50.1677,4.14273 L -50.1161,4.15091 L -50.0655,4.16446 L -50.0166,4.18321 L -49.97,4.20697 L -49.9261,4.23547
 L -49.8854,4.26842 L -49.8484,4.30542 L -49.8155,4.3461 L -49.787,4.38998 L -49.7632,4.43661 L -49.7445,4.48547
 L -49.7309,4.53603 L -49.7227,4.58772 L -49.72,4.63998 L -49.7227,4.69225 L -49.7309,4.74394 L -49.7445,4.79449
 L -49.7632,4.84335 L -49.787,4.88998 L -49.8155,4.93388 L -49.8484,4.97455 L -49.8854,5.01155 L -49.9261,5.04449
 L -49.97,5.073 L -50.0166,5.09676 L -50.0655,5.11551 L -50.1161,5.12906 L -50.1677,5.13725 L -50.22,5.13998
 z
M -52.8323,7.69725 L -52.884,7.68906 L -52.9345,7.67551 L -52.9834,7.65675 L -53.03,7.633 L -53.0739,7.60449
 L -53.1146,7.57156 L -53.1516,7.53455 L -53.1845,7.49388 L -53.213,7.44998 L -53.2368,7.40335 L -53.2555,7.35449
 L -53.2691,7.30394 L -53.2773,7.25224 L -53.28,7.19998 L -53.2773,7.14772 L -53.2691,7.09602 L -53.2555,7.04547
 L -53.2368,6.99661 L -53.213,6.94998 L -53.1845,6.9061 L -53.1516,6.86542 L -53.1146,6.82841 L -53.0739,6.79547
 L -53.03,6.76697 L -52.9834,6.74321 L -52.9345,6.72446 L -52.884,6.71091 L -52.8323,6.70273 L -52.78,6.69998
 L -52.7278,6.70273 L -52.6761,6.71091 L -52.6255,6.72446 L -52.5767,6.74321 L -52.53,6.76697 L -52.4861,6.79547
 L -52.4454,6.82841 L -52.4084,6.86542 L -52.3755,6.9061 L -52.347,6.94998 L -52.3232,6.99661 L -52.3045,7.04547
 L -52.291,7.09602 L -52.2828,7.14772 L -52.28,7.19998 L -52.2828,7.25224 L -52.291,7.30394 L -52.3045,7.35449
 L -52.3232,7.40335 L -52.347,7.44998 L -52.3755,7.49388 L -52.4084,7.53455 L -52.4454,7.57156 L -52.4861,7.60449
 L -52.53,7.633 L -52.5767,7.65675 L -52.6255,7.67551 L -52.6761,7.68906 L -52.7278,7.69725 L -52.78,7.69998
 z
M -50.2723,7.69725 L -50.3239,7.68906 L -50.3745,7.67551 L -50.4234,7.65675 L -50.47,7.633 L -50.5139,7.60449
 L -50.5546,7.57156 L -50.5916,7.53455 L -50.6245,7.49388 L -50.653,7.44998 L -50.6768,7.40335 L -50.6955,7.35449
 L -50.7091,7.30394 L -50.7173,7.25224 L -50.72,7.19998 L -50.7173,7.14772 L -50.7091,7.09602 L -50.6955,7.04547
 L -50.6768,6.99661 L -50.653,6.94998 L -50.6245,6.9061 L -50.5916,6.86542 L -50.5546,6.82841 L -50.5139,6.79547
 L -50.47,6.76697 L -50.4234,6.74321 L -50.3745,6.72446 L -50.3239,6.71091 L -50.2723,6.70273 L -50.22,6.69998
 L -50.1677,6.70273 L -50.1161,6.71091 L -50.0655,6.72446 L -50.0166,6.74321 L -49.97,6.76697 L -49.9261,6.79547
 L -49.8854,6.82841 L -49.8484,6.86542 L -49.8155,6.9061 L -49.787,6.94998 L -49.7632,6.99661 L -49.7445,7.04547
 L -49.7309,7.09602 L -49.7227,7.14772 L -49.72,7.19998 L -49.7227,7.25224 L -49.7309,7.30394 L -49.7445,7.35449
 L -49.7632,7.40335 L -49.787,7.44998 L -49.8155,7.49388 L -49.8484,7.53455 L -49.8854,7.57156 L -49.9261,7.60449
 L -49.97,7.633 L -50.0166,7.65675 L -50.0655,7.67551 L -50.1161,7.68906 L -50.1677,7.69725 L -50.22,7.69998
 z
M -50.2723,10.2572 L -50.3239,10.2491 L -50.3745,10.2355 L -50.4234,10.2168 L -50.47,10.193 L -50.5139,10.1645
 L -50.5546,10.1316 L -50.5916,10.0945 L -50.6245,10.0539 L -50.653,10.01 L -50.6768,9.96335 L -50.6955,9.91449
 L -50.7091,9.86394 L -50.7173,9.81226 L -50.72,9.75998 L -50.7173,9.70772 L -50.7091,9.65604 L -50.6955,9.60548
 L -50.6768,9.55661 L -50.653,9.50998 L -50.6245,9.46609 L -50.5916,9.42542 L -50.5546,9.38841 L -50.5139,9.35548
 L -50.47,9.32697 L -50.4234,9.30321 L -50.3745,9.28445 L -50.3239,9.2709 L -50.2723,9.26273 L -50.22,9.25998
 L -50.1677,9.26273 L -50.1161,9.2709 L -50.0655,9.28445 L -50.0166,9.30321 L -49.97,9.32697 L -49.9261,9.35548
 L -49.8854,9.38841 L -49.8484,9.42542 L -49.8155,9.46609 L -49.787,9.50998 L -49.7632,9.55661 L -49.7445,9.60548
 L -49.7309,9.65604 L -49.7227,9.70772 L -49.72,9.75998 L -49.7227,9.81226 L -49.7309,9.86394 L -49.7445,9.91449
 L -49.7632,9.96335 L -49.787,10.01 L -49.8155,10.0539 L -49.8484,10.0945 L -49.8854,10.1316 L -49.9261,10.1645
 L -49.97,10.193 L -50.0166,10.2168 L -50.0655,10.2355 L -50.1161,10.2491 L -50.1677,10.2572 L -50.22,10.26
 z
M -52.8323,10.2572 L -52.884,10.2491 L -52.9345,10.2355 L -52.9834,10.2168 L -53.03,10.193 L -53.0739,10.1645
 L -53.1146,10.1316 L -53.1516,10.0945 L -53.1845,10.0539 L -53.213,10.01 L -53.2368,9.96335 L -53.2555,9.91449
 L -53.2691,9.86394 L -53.2773,9.81226 L -53.28,9.75998 L -53.2773,9.70772 L -53.2691,9.65604 L -53.2555,9.60548
 L -53.2368,9.55661 L -53.213,9.50998 L -53.1845,9.46609 L -53.1516,9.42542 L -53.1146,9.38841 L -53.0739,9.35548
 L -53.03,9.32697 L -52.9834,9.30321 L -52.9345,9.28445 L -52.884,9.2709 L -52.8323,9.26273 L -52.78,9.25998
 L -52.7278,9.26273 L -52.6761,9.2709 L -52.6255,9.28445 L -52.5767,9.30321 L -52.53,9.32697 L -52.4861,9.35548
 L -52.4454,9.38841 L -52.4084,9.42542 L -52.3755,9.46609 L -52.347,9.50998 L -52.3232,9.55661 L -52.3045,9.60548
 L -52.291,9.65604 L -52.2828,9.70772 L -52.28,9.75998 L -52.2828,9.81226 L -52.291,9.86394 L -52.3045,9.91449
 L -52.3232,9.96335 L -52.347,10.01 L -52.3755,10.0539 L -52.4084,10.0945 L -52.4454,10.1316 L -52.4861,10.1645
 L -52.53,10.193 L -52.5767,10.2168 L -52.6255,10.2355 L -52.6761,10.2491 L -52.7278,10.2572 L -52.78,10.26
 z
M 45.8432,12.7418 L 45.6881,12.7172 L 45.5365,12.6766 L 45.3899,12.6203 L 45.25,12.549 L 45.1183,12.4635
 L 44.9963,12.3647 L 44.8853,12.2537 L 44.7865,12.1317 L 44.701,12 L 44.6297,11.8601 L 44.5734,11.7135
 L 44.5328,11.5619 L 44.5082,11.4068 L 44.5,11.25 L 44.5082,11.0932 L 44.5328,10.9381 L 44.5734,10.7865
 L 44.6297,10.6399 L 44.701,10.5 L 44.7865,10.3683 L 44.8853,10.2463 L 44.9963,10.1353 L 45.1183,10.0365
 L 45.25,9.95097 L 45.3899,9.87968 L 45.5365,9.82343 L 45.6881,9.78279 L 45.8432,9.75822 L 46,9.75
 L 46.1568,9.75822 L 46.3119,9.78279 L 46.4635,9.82343 L 46.6101,9.87968 L 46.75,9.95097 L 46.8817,10.0365
 L 47.0037,10.1353 L 47.1147,10.2463 L 47.2135,10.3683 L 47.299,10.5 L 47.3703,10.6399 L 47.4266,10.7865
 L 47.4672,10.9381 L 47.4918,11.0932 L 47.5,11.25 L 47.4918,11.4068 L 47.4672,11.5619 L 47.4266,11.7135
 L 47.3703,11.8601 L 47.299,12 L 47.2135,12.1317 L 47.1147,12.2537 L 47.0037,12.3647 L 46.8817,12.4635
 L 46.75,12.549 L 46.6101,12.6203 L 46.4635,12.6766 L 46.3119,12.7172 L 46.1568,12.7418 L 46,12.75
 z
M 93.8432,12.7418 L 93.6881,12.7172 L 93.5365,12.6766 L 93.3899,12.6203 L 93.25,12.549 L 93.1183,12.4635
 L 92.9963,12.3647 L 92.8853,12.2537 L 92.7865,12.1317 L 92.701,12 L 92.6297,11.8601 L 92.5734,11.7135
 L 92.5328,11.5619 L 92.5082,11.4068 L 92.5,11.25 L 92.5082,11.0932 L 92.5328,10.9381 L 92.5734,10.7865
 L 92.6297,10.6399 L 92.701,10.5 L 92.7865,10.3683 L 92.8853,10.2463 L 92.9963,10.1353 L 93.1183,10.0365
 L 93.25,9.95097 L 93.3899,9.87968 L 93.5365,9.82343 L 93.6881,9.78279 L 93.8432,9.75822 L 94,9.75
 L 94.1568,9.75822 L 94.3119,9.78279 L 94.4635,9.82343 L 94.6101,9.87968 L 94.75,9.95097 L 94.8817,10.0365
 L 95.0037,10.1353 L 95.1147,10.2463 L 95.2135,10.3683 L 95.299,10.5 L 95.3703,10.6399 L 95.4266,10.7865
 L 95.4672,10.9381 L 95.4918,11.0932 L 95.5,11.25 L 95.4918,11.4068 L 95.4672,11.5619 L 95.4266,11.7135
 L 95.3703,11.8601 L 95.299,12 L 95.2135,12.1317 L 95.1147,12.2537 L 95.0037,12.3647 L 94.8817,12.4635
 L 94.75,12.549 L 94.6101,12.6203 L 94.4635,12.6766 L 94.3119,12.7172 L 94.1568,12.7418 L 94,12.75
 z
M 49,40.25 L 49,9.75 L 91,9.75 L 91,40.25 z
M -50.2723,12.8172 L -50.3239,12.8091 L -50.3745,12.7955 L -50.4234,12.7768 L -50.47,12.753 L -50.5139,12.7245
 L -50.5546,12.6916 L -50.5916,12.6546 L -50.6245,12.6139 L -50.653,12.57 L -50.6768,12.5233 L -50.6955,12.4745
 L -50.7091,12.4239 L -50.7173,12.3723 L -50.72,12.32 L -50.7173,12.2677 L -50.7091,12.216 L -50.6955,12.1655
 L -50.6768,12.1166 L -50.653,12.07 L -50.6245,12.0261 L -50.5916,11.9854 L -50.5546,11.9484 L -50.5139,11.9155
 L -50.47,11.887 L -50.4234,11.8632 L -50.3745,11.8445 L -50.3239,11.8309 L -50.2723,11.8227 L -50.22,11.82
 L -50.1677,11.8227 L -50.1161,11.8309 L -50.0655,11.8445 L -50.0166,11.8632 L -49.97,11.887 L -49.9261,11.9155
 L -49.8854,11.9484 L -49.8484,11.9854 L -49.8155,12.0261 L -49.787,12.07 L -49.7632,12.1166 L -49.7445,12.1655
 L -49.7309,12.216 L -49.7227,12.2677 L -49.72,12.32 L -49.7227,12.3723 L -49.7309,12.4239 L -49.7445,12.4745
 L -49.7632,12.5233 L -49.787,12.57 L -49.8155,12.6139 L -49.8484,12.6546 L -49.8854,12.6916 L -49.9261,12.7245
 L -49.97,12.753 L -50.0166,12.7768 L -50.0655,12.7955 L -50.1161,12.8091 L -50.1677,12.8172 L -50.22,12.82
 z
M -52.8323,12.8172 L -52.884,12.8091 L -52.9345,12.7955 L -52.9834,12.7768 L -53.03,12.753 L -53.0739,12.7245
 L -53.1146,12.6916 L -53.1516,12.6546 L -53.1845,12.6139 L -53.213,12.57 L -53.2368,12.5233 L -53.2555,12.4745
 L -53.2691,12.4239 L -53.2773,12.3723 L -53.28,12.32 L -53.2773,12.2677 L -53.2691,12.216 L -53.2555,12.1655
 L -53.2368,12.1166 L -53.213,12.07 L -53.1845,12.0261 L -53.1516,11.9854 L -53.1146,11.9484 L -53.0739,11.9155
 L -53.03,11.887 L -52.9834,11.8632 L -52.9345,11.8445 L -52.884,11.8309 L -52.8323,11.8227 L -52.78,11.82
 L -52.7278,11.8227 L -52.6761,11.8309 L -52.6255,11.8445 L -52.5767,11.8632 L -52.53,11.887 L -52.4861,11.9155
 L -52.4454,11.9484 L -52.4084,11.9854 L -52.3755,12.0261 L -52.347,12.07 L -52.3232,12.1166 L -52.3045,12.1655
 L -52.291,12.216 L -52.2828,12.2677 L -52.28,12.32 L -52.2828,12.3723 L -52.291,12.4239 L -52.3045,12.4745
 L -52.3232,12.5233 L -52.347,12.57 L -52.3755,12.6139 L -52.4084,12.6546 L -52.4454,12.6916 L -52.4861,12.7245
 L -52.53,12.753 L -52.5767,12.7768 L -52.6255,12.7955 L -52.6761,12.8091 L -52.7278,12.8172 L -52.78,12.82
 z
M -51.6568,18.4918 L -51.8119,18.4672 L -51.9635,18.4266 L -52.1101,18.3703 L -52.25,18.299 L -52.3817,18.2135
 L -52.5037,18.1147 L -52.6147,18.0037 L -52.7135,17.8817 L -52.799,17.75 L -52.8703,17.6101 L -52.9266,17.4635
 L -52.9672,17.3119 L -52.9918,17.1568 L -53,17 L -52.9918,16.8432 L -52.9672,16.6881 L -52.9266,16.5365
 L -52.8703,16.3899 L -52.799,16.25 L -52.7135,16.1183 L -52.6147,15.9963 L -52.5037,15.8853 L -52.3817,15.7865
 L -52.25,15.701 L -52.1101,15.6297 L -51.9635,15.5734 L -51.8119,15.5328 L -51.6568,15.5082 L -51.5,15.5
 L -51.3432,15.5082 L -51.1881,15.5328 L -51.0365,15.5734 L -50.8899,15.6297 L -50.75,15.701 L -50.6183,15.7865
 L -50.4963,15.8853 L -50.3853,15.9963 L -50.2865,16.1183 L -50.201,16.25 L -50.1297,16.3899 L -50.0734,16.5365
 L -50.0328,16.6881 L -50.0082,16.8432 L -50,17 L -50.0082,17.1568 L -50.0328,17.3119 L -50.0734,17.4635
 L -50.1297,17.6101 L -50.201,17.75 L -50.2865,17.8817 L -50.3853,18.0037 L -50.4963,18.1147 L -50.6183,18.2135
 L -50.75,18.299 L -50.8899,18.3703 L -51.0365,18.4266 L -51.1881,18.4672 L -51.3432,18.4918 L -51.5,18.5
 z
M -100.657,18.4918 L -100.812,18.4672 L -100.964,18.4266 L -101.11,18.3703 L -101.25,18.299 L -101.382,18.2135
 L -101.504,18.1147 L -101.615,18.0037 L -101.714,17.8817 L -101.799,17.75 L -101.87,17.6101 L -101.927,17.4635
 L -101.967,17.3119 L -101.992,17.1568 L -102,17 L -101.992,16.8432 L -101.967,16.6881 L -101.927,16.5365
 L -101.87,16.3899 L -101.799,16.25 L -101.714,16.1183 L -101.615,15.9963 L -101.504,15.8853 L -101.382,15.7865
 L -101.25,15.701 L -101.11,15.6297 L -100.964,15.5734 L -100.812,15.5328 L -100.657,15.5082 L -100.5,15.5
 L -100.343,15.5082 L -100.188,15.5328 L -100.036,15.5734 L -99.8899,15.6297 L -99.75,15.701 L -99.6183,15.7865
 L -99.4963,15.8853 L -99.3853,15.9963 L -99.2865,16.1183 L -99.201,16.25 L -99.1297,16.3899 L -99.0734,16.5365
 L -99.0328,16.6881 L -99.0082,16.8432 L -99,17 L -99.0082,17.1568 L -99.0328,17.3119 L -99.0734,17.4635
 L -99.1297,17.6101 L -99.201,17.75 L -99.2865,17.8817 L -99.3853,18.0037 L -99.4963,18.1147 L -99.6183,18.2135
 L -99.75,18.299 L -99.8899,18.3703 L -100.036,18.4266 L -100.188,18.4672 L -100.343,18.4918 L -100.5,18.5
 z
M 15.8432,34.9918 L 15.6881,34.9672 L 15.5365,34.9266 L 15.3899,34.8703 L 15.25,34.799 L 15.1183,34.7135
 L 14.9963,34.6147 L 14.8853,34.5037 L 14.7865,34.3817 L 14.701,34.25 L 14.6297,34.1101 L 14.5734,33.9635
 L 14.5328,33.8119 L 14.5082,33.6568 L 14.5,33.5 L 14.5082,33.3432 L 14.5328,33.1881 L 14.5734,33.0365
 L 14.6297,32.8899 L 14.701,32.75 L 14.7865,32.6183 L 14.8853,32.4963 L 14.9963,32.3853 L 15.1183,32.2865
 L 15.25,32.201 L 15.3899,32.1297 L 15.5365,32.0734 L 15.6881,32.0328 L 15.8432,32.0082 L 16,32
 L 16.1568,32.0082 L 16.3119,32.0328 L 16.4635,32.0734 L 16.6101,32.1297 L 16.75,32.201 L 16.8817,32.2865
 L 17.0037,32.3853 L 17.1147,32.4963 L 17.2135,32.6183 L 17.299,32.75 L 17.3703,32.8899 L 17.4266,33.0365
 L 17.4672,33.1881 L 17.4918,33.3432 L 17.5,33.5 L 17.4918,33.6568 L 17.4672,33.8119 L 17.4266,33.9635
 L 17.3703,34.1101 L 17.299,34.25 L 17.2135,34.3817 L 17.1147,34.5037 L 17.0037,34.6147 L 16.8817,34.7135
 L 16.75,34.799 L 16.6101,34.8703 L 16.4635,34.9266 L 16.3119,34.9672 L 16.1568,34.9918 L 16,35
 z
M -26.1568,34.9918 L -26.3119,34.9672 L -26.4635,34.9266 L -26.6101,34.8703 L -26.75,34.799 L -26.8817,34.7135
 L -27.0037,34.6147 L -27.1147,34.5037 L -27.2135,34.3817 L -27.299,34.25 L -27.3703,34.1101 L -27.4266,33.9635
 L -27.4672,33.8119 L -27.4918,33.6568 L -27.5,33.5 L -27.4918,33.3432 L -27.4672,33.1881 L -27.4266,33.0365
 L -27.3703,32.8899 L -27.299,32.75 L -27.2135,32.6183 L -27.1147,32.4963 L -27.0037,32.3853 L -26.8817,32.2865
 L -26.75,32.201 L -26.6101,32.1297 L -26.4635,32.0734 L -26.3119,32.0328 L -26.1568,32.0082 L -26,32
 L -25.8432,32.0082 L -25.6881,32.0328 L -25.5365,32.0734 L -25.3899,32.1297 L -25.25,32.201 L -25.1183,32.2865
 L -24.9963,32.3853 L -24.8853,32.4963 L -24.7865,32.6183 L -24.701,32.75 L -24.6297,32.8899 L -24.5734,33.0365
 L -24.5328,33.1881 L -24.5082,33.3432 L -24.5,33.5 L -24.5082,33.6568 L -24.5328,33.8119 L -24.5734,33.9635
 L -24.6297,34.1101 L -24.701,34.25 L -24.7865,34.3817 L -24.8853,34.5037 L -24.9963,34.6147 L -25.1183,34.7135
 L -25.25,34.799 L -25.3899,34.8703 L -25.5365,34.9266 L -25.6881,34.9672 L -25.8432,34.9918 L -26,35
 z
M 1.94774,33.9973 L 1.89606,33.9891 L 1.8455,33.9755 L 1.79665,33.9568 L 1.75,33.933 L 1.70612,33.9045
 L 1.66544,33.8716 L 1.62843,33.8346 L 1.5955,33.7939 L 1.567,33.75 L 1.54323,33.7034 L 1.52448,33.6545
 L 1.51094,33.6039 L 1.50275,33.5523 L 1.5,33.5 L 1.50275,33.4477 L 1.51094,33.3961 L 1.52448,33.3455
 L 1.54323,33.2966 L 1.567,33.25 L 1.5955,33.2061 L 1.62843,33.1654 L 1.66544,33.1284 L 1.70612,33.0955
 L 1.75,33.067 L 1.79665,33.0432 L 1.8455,33.0245 L 1.89606,33.0109 L 1.94774,33.0027 L 2,33
 L 2.05226,33.0027 L 2.10394,33.0109 L 2.1545,33.0245 L 2.20335,33.0432 L 2.25,33.067 L 2.29388,33.0955
 L 2.33456,33.1284 L 2.37157,33.1654 L 2.4045,33.2061 L 2.433,33.25 L 2.45677,33.2966 L 2.47552,33.3455
 L 2.48906,33.3961 L 2.49725,33.4477 L 2.5,33.5 L 2.49725,33.5523 L 2.48906,33.6039 L 2.47552,33.6545
 L 2.45677,33.7034 L 2.433,33.75 L 2.4045,33.7939 L 2.37157,33.8346 L 2.33456,33.8716 L 2.29388,33.9045
 L 2.25,33.933 L 2.20335,33.9568 L 2.1545,33.9755 L 2.10394,33.9891 L 2.05226,33.9973 L 2,34
 z
M -1.55226,33.9973 L -1.60394,33.9891 L -1.6545,33.9755 L -1.70335,33.9568 L -1.75,33.933 L -1.79388,33.9045
 L -1.83456,33.8716 L -1.87157,33.8346 L -1.9045,33.7939 L -1.933,33.75 L -1.95677,33.7034 L -1.97552,33.6545
 L -1.98906,33.6039 L -1.99725,33.5523 L -2,33.5 L -1.99725,33.4477 L -1.98906,33.3961 L -1.97552,33.3455
 L -1.95677,33.2966 L -1.933,33.25 L -1.9045,33.2061 L -1.87157,33.1654 L -1.83456,33.1284 L -1.79388,33.0955
 L -1.75,33.067 L -1.70335,33.0432 L -1.6545,33.0245 L -1.60394,33.0109 L -1.55226,33.0027 L -1.5,33
 L -1.44772,33.0027 L -1.39604,33.0109 L -1.34549,33.0245 L -1.29663,33.0432 L -1.25,33.067 L -1.2061,33.0955
 L -1.16542,33.1284 L -1.12842,33.1654 L -1.09549,33.2061 L -1.06699,33.25 L -1.04321,33.2966 L -1.02446,33.3455
 L -1.01093,33.3961 L -1.00273,33.4477 L -1,33.5 L -1.00273,33.5523 L -1.01093,33.6039 L -1.02446,33.6545
 L -1.04321,33.7034 L -1.06699,33.75 L -1.09549,33.7939 L -1.12842,33.8346 L -1.16542,33.8716 L -1.2061,33.9045
 L -1.25,33.933 L -1.29663,33.9568 L -1.34549,33.9755 L -1.39604,33.9891 L -1.44772,33.9973 L -1.5,34
 z
M -5.05226,33.9973 L -5.10394,33.9891 L -5.1545,33.9755 L -5.20335,33.9568 L -5.25,33.933 L -5.29388,33.9045
 L -5.33456,33.8716 L -5.37157,33.8346 L -5.4045,33.7939 L -5.433,33.75 L -5.45677,33.7034 L -5.47552,33.6545
 L -5.48906,33.6039 L -5.49725,33.5523 L -5.5,33.5 L -5.49725,33.4477 L -5.48906,33.3961 L -5.47552,33.3455
 L -5.45677,33.2966 L -5.433,33.25 L -5.4045,33.2061 L -5.37157,33.1654 L -5.33456,33.1284 L -5.29388,33.0955
 L -5.25,33.067 L -5.20335,33.0432 L -5.1545,33.0245 L -5.10394,33.0109 L -5.05226,33.0027 L -5,33
 L -4.94772,33.0027 L -4.89604,33.0109 L -4.84549,33.0245 L -4.79663,33.0432 L -4.75,33.067 L -4.7061,33.0955
 L -4.66542,33.1284 L -4.62842,33.1654 L -4.59549,33.2061 L -4.56699,33.25 L -4.54321,33.2966 L -4.52446,33.3455
 L -4.51093,33.3961 L -4.50273,33.4477 L -4.5,33.5 L -4.50273,33.5523 L -4.51093,33.6039 L -4.52446,33.6545
 L -4.54321,33.7034 L -4.56699,33.75 L -4.59549,33.7939 L -4.62842,33.8346 L -4.66542,33.8716 L -4.7061,33.9045
 L -4.75,33.933 L -4.79663,33.9568 L -4.84549,33.9755 L -4.89604,33.9891 L -4.94772,33.9973 L -5,34
 z
M -8.55226,33.9973 L -8.60394,33.9891 L -8.6545,33.9755 L -8.70335,33.9568 L -8.75,33.933 L -8.79388,33.9045
 L -8.83456,33.8716 L -8.87157,33.8346 L -8.9045,33.7939 L -8.933,33.75 L -8.95677,33.7034 L -8.97552,33.6545
 L -8.98906,33.6039 L -8.99725,33.5523 L -9,33.5 L -8.99725,33.4477 L -8.98906,33.3961 L -8.97552,33.3455
 L -8.95677,33.2966 L -8.933,33.25 L -8.9045,33.2061 L -8.87157,33.1654 L -8.83456,33.1284 L -8.79388,33.0955
 L -8.75,33.067 L -8.70335,33.0432 L -8.6545,33.0245 L -8.60394,33.0109 L -8.55226,33.0027 L -8.5,33
 L -8.44772,33.0027 L -8.39604,33.0109 L -8.34549,33.0245 L -8.29663,33.0432 L -8.25,33.067 L -8.2061,33.0955
 L -8.16542,33.1284 L -8.12842,33.1654 L -8.09549,33.2061 L -8.06699,33.25 L -8.04321,33.2966 L -8.02446,33.3455
 L -8.01093,33.3961 L -8.00273,33.4477 L -8,33.5 L -8.00273,33.5523 L -8.01093,33.6039 L -8.02446,33.6545
 L -8.04321,33.7034 L -8.06699,33.75 L -8.09549,33.7939 L -8.12842,33.8346 L -8.16542,33.8716 L -8.2061,33.9045
 L -8.25,33.933 L -8.29663,33.9568 L -8.34549,33.9755 L -8.39604,33.9891 L -8.44772,33.9973 L -8.5,34
 z
M -12.0523,33.9973 L -12.1039,33.9891 L -12.1545,33.9755 L -12.2034,33.9568 L -12.25,33.933 L -12.2939,33.9045
 L -12.3346,33.8716 L -12.3716,33.8346 L -12.4045,33.7939 L -12.433,33.75 L -12.4568,33.7034 L -12.4755,33.6545
 L -12.4891,33.6039 L -12.4973,33.5523 L -12.5,33.5 L -12.4973,33.4477 L -12.4891,33.3961 L -12.4755,33.3455
 L -12.4568,33.2966 L -12.433,33.25 L -12.4045,33.2061 L -12.3716,33.1654 L -12.3346,33.1284 L -12.2939,33.0955
 L -12.25,33.067 L -12.2034,33.0432 L -12.1545,33.0245 L -12.1039,33.0109 L -12.0523,33.0027 L -12,33
 L -11.9477,33.0027 L -11.896,33.0109 L -11.8455,33.0245 L -11.7966,33.0432 L -11.75,33.067 L -11.7061,33.0955
 L -11.6654,33.1284 L -11.6284,33.1654 L -11.5955,33.2061 L -11.567,33.25 L -11.5432,33.2966 L -11.5245,33.3455
 L -11.5109,33.3961 L -11.5027,33.4477 L -11.5,33.5 L -11.5027,33.5523 L -11.5109,33.6039 L -11.5245,33.6545
 L -11.5432,33.7034 L -11.567,33.75 L -11.5955,33.7939 L -11.6284,33.8346 L -11.6654,33.8716 L -11.7061,33.9045
 L -11.75,33.933 L -11.7966,33.9568 L -11.8455,33.9755 L -11.896,33.9891 L -11.9477,33.9973 L -12,34
 z
M 93.8432,40.2418 L 93.6881,40.2172 L 93.5365,40.1766 L 93.3899,40.1203 L 93.25,40.049 L 93.1183,39.9635
 L 92.9963,39.8647 L 92.8853,39.7537 L 92.7865,39.6317 L 92.701,39.5 L 92.6297,39.3601 L 92.5734,39.2135
 L 92.5328,39.0619 L 92.5082,38.9068 L 92.5,38.75 L 92.5082,38.5932 L 92.5328,38.4381 L 92.5734,38.2865
 L 92.6297,38.1399 L 92.701,38 L 92.7865,37.8683 L 92.8853,37.7463 L 92.9963,37.6353 L 93.1183,37.5365
 L 93.25,37.451 L 93.3899,37.3797 L 93.5365,37.3234 L 93.6881,37.2828 L 93.8432,37.2582 L 94,37.25
 L 94.1568,37.2582 L 94.3119,37.2828 L 94.4635,37.3234 L 94.6101,37.3797 L 94.75,37.451 L 94.8817,37.5365
 L 95.0037,37.6353 L 95.1147,37.7463 L 95.2135,37.8683 L 95.299,38 L 95.3703,38.1399 L 95.4266,38.2865
 L 95.4672,38.4381 L 95.4918,38.5932 L 95.5,38.75 L 95.4918,38.9068 L 95.4672,39.0619 L 95.4266,39.2135
 L 95.3703,39.3601 L 95.299,39.5 L 95.2135,39.6317 L 95.1147,39.7537 L 95.0037,39.8647 L 94.8817,39.9635
 L 94.75,40.049 L 94.6101,40.1203 L 94.4635,40.1766 L 94.3119,40.2172 L 94.1568,40.2418 L 94,40.25
 z
M 45.8432,40.2418 L 45.6881,40.2172 L 45.5365,40.1766 L 45.3899,40.1203 L 45.25,40.049 L 45.1183,39.9635
 L 44.9963,39.8647 L 44.8853,39.7537 L 44.7865,39.6317 L 44.701,39.5 L 44.6297,39.3601 L 44.5734,39.2135
 L 44.5328,39.0619 L 44.5082,38.9068 L 44.5,38.75 L 44.5082,38.5932 L 44.5328,38.4381 L 44.5734,38.2865
 L 44.6297,38.1399 L 44.701,38 L 44.7865,37.8683 L 44.8853,37.7463 L 44.9963,37.6353 L 45.1183,37.5365
 L 45.25,37.451 L 45.3899,37.3797 L 45.5365,37.3234 L 45.6881,37.2828 L 45.8432,37.2582 L 46,37.25
 L 46.1568,37.2582 L 46.3119,37.2828 L 46.4635,37.3234 L 46.6101,37.3797 L 46.75,37.451 L 46.8817,37.5365
 L 47.0037,37.6353 L 47.1147,37.7463 L 47.2135,37.8683 L 47.299,38 L 47.3703,38.1399 L 47.4266,38.2865
 L 47.4672,38.4381 L 47.4918,38.5932 L 47.5,38.75 L 47.4918,38.9068 L 47.4672,39.0619 L 47.4266,39.2135
 L 47.3703,39.3601 L 47.299,39.5 L 47.2135,39.6317 L 47.1147,39.7537 L 47.0037,39.8647 L 46.8817,39.9635
 L 46.75,40.049 L 46.6101,40.1203 L 46.4635,40.1766 L 46.3119,40.2172 L 46.1568,40.2418 L 46,40.25
 z
" stroke="black" fill="lightgray" stroke-width="0.5"/>
</svg>
