<?xml version="1.0" standalone="no"?>
 <!DOCTYPE svg PUBLIC "-//W3C//DTD SVG 1.1//EN" 
 "http://www.w3.org/Graphics/SVG/1.1/DTD/svg11.dtd"> 
<svg xmlns="http://www.w3.org/2000/svg" version="1.1" 
    width="41.9989cm" height="29.7002cm" viewBox="0 0 165350 116930 ">
<title>SVG Picture created as motherboard-Edge_Cuts.svg date 2020/10/29 15:28:08 </title>
  <desc>Picture generated by PCBNEW </desc>
<g style="fill:#000000; fill-opacity:1;stroke:#000000; stroke-opacity:1;
stroke-linecap:round; stroke-linejoin:round; "
 transform="translate(0 0) scale(1 1)">
</g>
<g style="fill:#000000; fill-opacity:0.0; 
stroke:#000000; stroke-width:-0.000393701; stroke-opacity:1; 
stroke-linecap:round; stroke-linejoin:round;">
</g>
<g style="fill:#000000; fill-opacity:0.0; 
stroke:#000000; stroke-width:78.7402; stroke-opacity:1; 
stroke-linecap:round; stroke-linejoin:round;">
<path d="M60236 64566
L60195 63785
" />
<path d="M40354 78346
L40292 78343
" />
<path d="M40416 78343
L40354 78346
" />
<path d="M40477 78333
L40416 78343
" />
<path d="M40536 78317
L40477 78333
" />
<path d="M40594 78295
L40536 78317
" />
<path d="M40649 78267
L40594 78295
" />
<path d="M40701 78233
L40649 78267
" />
<path d="M40749 78194
L40701 78233
" />
<path d="M40793 78151
L40749 78194
" />
<path d="M40832 78103
L40793 78151
" />
<path d="M40865 78051
L40832 78103
" />
<path d="M40893 77996
L40865 78051
" />
<path d="M40915 77938
L40893 77996
" />
<path d="M40931 77878
L40915 77938
" />
<path d="M40941 77817
L40931 77878
" />
<path d="M40944 77755
L40941 77817
" />
<path d="M40941 77694
L40944 77755
" />
<path d="M40931 77633
L40941 77694
" />
<path d="M40915 77573
L40931 77633
" />
<path d="M40893 77515
L40915 77573
" />
<path d="M40865 77460
L40893 77515
" />
<path d="M40832 77408
L40865 77460
" />
<path d="M40793 77360
L40832 77408
" />
<path d="M40749 77317
L40793 77360
" />
<path d="M40701 77278
L40749 77317
" />
<path d="M40649 77244
L40701 77278
" />
<path d="M40594 77216
L40649 77244
" />
<path d="M40536 77194
L40594 77216
" />
<path d="M40477 77178
L40536 77194
" />
<path d="M40416 77168
L40477 77178
" />
<path d="M40354 77165
L40416 77168
" />
<path d="M40292 77168
L40354 77165
" />
<path d="M40231 77178
L40292 77168
" />
<path d="M40171 77194
L40231 77178
" />
<path d="M40114 77216
L40171 77194
" />
<path d="M40059 77244
L40114 77216
" />
<path d="M40007 77278
L40059 77244
" />
<path d="M39959 77317
L40007 77278
" />
<path d="M39915 77360
L39959 77317
" />
<path d="M39876 77408
L39915 77360
" />
<path d="M39842 77460
L39876 77408
" />
<path d="M39814 77515
L39842 77460
" />
<path d="M39792 77573
L39814 77515
" />
<path d="M39776 77633
L39792 77573
" />
<path d="M39767 77694
L39776 77633
" />
<path d="M39763 77755
L39767 77694
" />
<path d="M39767 77817
L39763 77755
" />
<path d="M39776 77878
L39767 77817
" />
<path d="M39792 77938
L39776 77878
" />
<path d="M39814 77996
L39792 77938
" />
<path d="M39842 78051
L39814 77996
" />
<path d="M39876 78103
L39842 78051
" />
<path d="M39915 78151
L39876 78103
" />
<path d="M39959 78194
L39915 78151
" />
<path d="M40007 78233
L39959 78194
" />
<path d="M40059 78267
L40007 78233
" />
<path d="M40114 78295
L40059 78267
" />
<path d="M40171 78317
L40114 78295
" />
<path d="M40231 78333
L40171 78317
" />
<path d="M40292 78343
L40231 78333
" />
<path d="M101377 78346
L101316 78343
" />
<path d="M101439 78343
L101377 78346
" />
<path d="M101500 78333
L101439 78343
" />
<path d="M101560 78317
L101500 78333
" />
<path d="M101618 78295
L101560 78317
" />
<path d="M101673 78267
L101618 78295
" />
<path d="M101725 78233
L101673 78267
" />
<path d="M101773 78194
L101725 78233
" />
<path d="M101816 78151
L101773 78194
" />
<path d="M101855 78103
L101816 78151
" />
<path d="M101889 78051
L101855 78103
" />
<path d="M101917 77996
L101889 78051
" />
<path d="M101939 77938
L101917 77996
" />
<path d="M101955 77878
L101939 77938
" />
<path d="M101965 77817
L101955 77878
" />
<path d="M101968 77755
L101965 77817
" />
<path d="M101965 77694
L101968 77755
" />
<path d="M101955 77633
L101965 77694
" />
<path d="M101939 77573
L101955 77633
" />
<path d="M101917 77515
L101939 77573
" />
<path d="M101889 77460
L101917 77515
" />
<path d="M101855 77408
L101889 77460
" />
<path d="M101816 77360
L101855 77408
" />
<path d="M101773 77317
L101816 77360
" />
<path d="M101725 77278
L101773 77317
" />
<path d="M101673 77244
L101725 77278
" />
<path d="M101618 77216
L101673 77244
" />
<path d="M101560 77194
L101618 77216
" />
<path d="M101500 77178
L101560 77194
" />
<path d="M101439 77168
L101500 77178
" />
<path d="M101377 77165
L101439 77168
" />
<path d="M101316 77168
L101377 77165
" />
<path d="M101255 77178
L101316 77168
" />
<path d="M101195 77194
L101255 77178
" />
<path d="M101137 77216
L101195 77194
" />
<path d="M101082 77244
L101137 77216
" />
<path d="M101030 77278
L101082 77244
" />
<path d="M100982 77317
L101030 77278
" />
<path d="M100939 77360
L100982 77317
" />
<path d="M100900 77408
L100939 77360
" />
<path d="M100866 77460
L100900 77408
" />
<path d="M100838 77515
L100866 77460
" />
<path d="M100816 77573
L100838 77515
" />
<path d="M100800 77633
L100816 77573
" />
<path d="M100790 77694
L100800 77633
" />
<path d="M100787 77755
L100790 77694
" />
<path d="M100790 77817
L100787 77755
" />
<path d="M100800 77878
L100790 77817
" />
<path d="M100816 77938
L100800 77878
" />
<path d="M100838 77996
L100816 77938
" />
<path d="M100866 78051
L100838 77996
" />
<path d="M100900 78103
L100866 78051
" />
<path d="M100939 78151
L100900 78103
" />
<path d="M100982 78194
L100939 78151
" />
<path d="M101030 78233
L100982 78194
" />
<path d="M101082 78267
L101030 78233
" />
<path d="M101137 78295
L101082 78267
" />
<path d="M101195 78317
L101137 78295
" />
<path d="M101255 78333
L101195 78317
" />
<path d="M101316 78343
L101255 78333
" />
<path d="M43897 77952
L43835 77949
" />
<path d="M43959 77949
L43897 77952
" />
<path d="M44020 77939
L43959 77949
" />
<path d="M44080 77923
L44020 77939
" />
<path d="M44137 77901
L44080 77923
" />
<path d="M44192 77873
L44137 77901
" />
<path d="M44244 77839
L44192 77873
" />
<path d="M44292 77801
L44244 77839
" />
<path d="M44336 77757
L44292 77801
" />
<path d="M44375 77709
L44336 77757
" />
<path d="M44409 77657
L44375 77709
" />
<path d="M44437 77602
L44409 77657
" />
<path d="M44459 77544
L44437 77602
" />
<path d="M44475 77485
L44459 77544
" />
<path d="M44484 77423
L44475 77485
" />
<path d="M44488 77362
L44484 77423
" />
<path d="M44484 77300
L44488 77362
" />
<path d="M44475 77239
L44484 77300
" />
<path d="M44459 77179
L44475 77239
" />
<path d="M44437 77122
L44459 77179
" />
<path d="M44409 77066
L44437 77122
" />
<path d="M44375 77015
L44409 77066
" />
<path d="M44336 76967
L44375 77015
" />
<path d="M44292 76923
L44336 76967
" />
<path d="M44244 76884
L44292 76923
" />
<path d="M44192 76850
L44244 76884
" />
<path d="M44137 76822
L44192 76850
" />
<path d="M44080 76800
L44137 76822
" />
<path d="M44020 76784
L44080 76800
" />
<path d="M43959 76774
L44020 76784
" />
<path d="M43897 76771
L43959 76774
" />
<path d="M43835 76774
L43897 76771
" />
<path d="M43774 76784
L43835 76774
" />
<path d="M43715 76800
L43774 76784
" />
<path d="M43657 76822
L43715 76800
" />
<path d="M43602 76850
L43657 76822
" />
<path d="M43550 76884
L43602 76850
" />
<path d="M43502 76923
L43550 76884
" />
<path d="M43458 76967
L43502 76923
" />
<path d="M43419 77015
L43458 76967
" />
<path d="M43386 77066
L43419 77015
" />
<path d="M43358 77122
L43386 77066
" />
<path d="M43335 77179
L43358 77122
" />
<path d="M43320 77239
L43335 77179
" />
<path d="M43310 77300
L43320 77239
" />
<path d="M43307 77362
L43310 77300
" />
<path d="M43310 77423
L43307 77362
" />
<path d="M43320 77485
L43310 77423
" />
<path d="M43335 77544
L43320 77485
" />
<path d="M43358 77602
L43335 77544
" />
<path d="M43386 77657
L43358 77602
" />
<path d="M43419 77709
L43386 77657
" />
<path d="M43458 77757
L43419 77709
" />
<path d="M43502 77801
L43458 77757
" />
<path d="M43550 77839
L43502 77801
" />
<path d="M43602 77873
L43550 77839
" />
<path d="M43657 77901
L43602 77873
" />
<path d="M43715 77923
L43657 77901
" />
<path d="M43774 77939
L43715 77923
" />
<path d="M43835 77949
L43774 77939
" />
<path d="M63188 77952
L63127 77949
" />
<path d="M63250 77949
L63188 77952
" />
<path d="M63311 77939
L63250 77949
" />
<path d="M63371 77923
L63311 77939
" />
<path d="M63429 77901
L63371 77923
" />
<path d="M63484 77873
L63429 77901
" />
<path d="M63536 77839
L63484 77873
" />
<path d="M63584 77801
L63536 77839
" />
<path d="M63627 77757
L63584 77801
" />
<path d="M63666 77709
L63627 77757
" />
<path d="M63700 77657
L63666 77709
" />
<path d="M63728 77602
L63700 77657
" />
<path d="M63750 77544
L63728 77602
" />
<path d="M63766 77485
L63750 77544
" />
<path d="M63776 77423
L63766 77485
" />
<path d="M63779 77362
L63776 77423
" />
<path d="M63776 77300
L63779 77362
" />
<path d="M63766 77239
L63776 77300
" />
<path d="M63750 77179
L63766 77239
" />
<path d="M63728 77122
L63750 77179
" />
<path d="M63700 77066
L63728 77122
" />
<path d="M63666 77015
L63700 77066
" />
<path d="M63627 76967
L63666 77015
" />
<path d="M63584 76923
L63627 76967
" />
<path d="M63536 76884
L63584 76923
" />
<path d="M63484 76850
L63536 76884
" />
<path d="M63429 76822
L63484 76850
" />
<path d="M63371 76800
L63429 76822
" />
<path d="M63311 76784
L63371 76800
" />
<path d="M63250 76774
L63311 76784
" />
<path d="M63188 76771
L63250 76774
" />
<path d="M63127 76774
L63188 76771
" />
<path d="M63066 76784
L63127 76774
" />
<path d="M63006 76800
L63066 76784
" />
<path d="M62948 76822
L63006 76800
" />
<path d="M62893 76850
L62948 76822
" />
<path d="M62841 76884
L62893 76850
" />
<path d="M62793 76923
L62841 76884
" />
<path d="M62750 76967
L62793 76923
" />
<path d="M62711 77015
L62750 76967
" />
<path d="M62677 77066
L62711 77015
" />
<path d="M62649 77122
L62677 77066
" />
<path d="M62627 77179
L62649 77122
" />
<path d="M62611 77239
L62627 77179
" />
<path d="M62601 77300
L62611 77239
" />
<path d="M62598 77362
L62601 77300
" />
<path d="M62601 77423
L62598 77362
" />
<path d="M62611 77485
L62601 77423
" />
<path d="M62627 77544
L62611 77485
" />
<path d="M62649 77602
L62627 77544
" />
<path d="M62677 77657
L62649 77602
" />
<path d="M62711 77709
L62677 77657
" />
<path d="M62750 77757
L62711 77709
" />
<path d="M62793 77801
L62750 77757
" />
<path d="M62841 77839
L62793 77801
" />
<path d="M62893 77873
L62841 77839
" />
<path d="M62948 77901
L62893 77873
" />
<path d="M63006 77923
L62948 77901
" />
<path d="M63066 77939
L63006 77923
" />
<path d="M63127 77949
L63066 77939
" />
<path d="M46456 71456
L46394 71453
" />
<path d="M46518 71453
L46456 71456
" />
<path d="M46579 71443
L46518 71453
" />
<path d="M46639 71427
L46579 71443
" />
<path d="M46696 71405
L46639 71427
" />
<path d="M46751 71377
L46696 71405
" />
<path d="M46803 71343
L46751 71377
" />
<path d="M46851 71305
L46803 71343
" />
<path d="M46895 71261
L46851 71305
" />
<path d="M46934 71213
L46895 71261
" />
<path d="M46968 71161
L46934 71213
" />
<path d="M46996 71106
L46968 71161
" />
<path d="M47018 71048
L46996 71106
" />
<path d="M47034 70988
L47018 71048
" />
<path d="M47044 70927
L47034 70988
" />
<path d="M47047 70866
L47044 70927
" />
<path d="M47044 70804
L47047 70866
" />
<path d="M47034 70743
L47044 70804
" />
<path d="M47018 70683
L47034 70743
" />
<path d="M46996 70625
L47018 70683
" />
<path d="M46968 70570
L46996 70625
" />
<path d="M46934 70519
L46968 70570
" />
<path d="M46895 70470
L46934 70519
" />
<path d="M46851 70427
L46895 70470
" />
<path d="M46803 70388
L46851 70427
" />
<path d="M46751 70354
L46803 70388
" />
<path d="M46696 70326
L46751 70354
" />
<path d="M46639 70304
L46696 70326
" />
<path d="M46579 70288
L46639 70304
" />
<path d="M46518 70278
L46579 70288
" />
<path d="M46456 70275
L46518 70278
" />
<path d="M46394 70278
L46456 70275
" />
<path d="M46333 70288
L46394 70278
" />
<path d="M46274 70304
L46333 70288
" />
<path d="M46216 70326
L46274 70304
" />
<path d="M46161 70354
L46216 70326
" />
<path d="M46109 70388
L46161 70354
" />
<path d="M46061 70427
L46109 70388
" />
<path d="M46017 70470
L46061 70427
" />
<path d="M45978 70519
L46017 70470
" />
<path d="M45945 70570
L45978 70519
" />
<path d="M45917 70625
L45945 70570
" />
<path d="M45895 70683
L45917 70625
" />
<path d="M45879 70743
L45895 70683
" />
<path d="M45869 70804
L45879 70743
" />
<path d="M45866 70866
L45869 70804
" />
<path d="M45869 70927
L45866 70866
" />
<path d="M45879 70988
L45869 70927
" />
<path d="M45895 71048
L45879 70988
" />
<path d="M45917 71106
L45895 71048
" />
<path d="M45945 71161
L45917 71106
" />
<path d="M45978 71213
L45945 71161
" />
<path d="M46017 71261
L45978 71213
" />
<path d="M46061 71305
L46017 71261
" />
<path d="M46109 71343
L46061 71305
" />
<path d="M46161 71377
L46109 71343
" />
<path d="M46216 71405
L46161 71377
" />
<path d="M46274 71427
L46216 71405
" />
<path d="M46333 71443
L46274 71427
" />
<path d="M46394 71453
L46333 71443
" />
<path d="M59055 71456
L58993 71453
" />
<path d="M59116 71453
L59055 71456
" />
<path d="M59177 71443
L59116 71453
" />
<path d="M59237 71427
L59177 71443
" />
<path d="M59295 71405
L59237 71427
" />
<path d="M59350 71377
L59295 71405
" />
<path d="M59402 71343
L59350 71377
" />
<path d="M59450 71305
L59402 71343
" />
<path d="M59493 71261
L59450 71305
" />
<path d="M59532 71213
L59493 71261
" />
<path d="M59566 71161
L59532 71213
" />
<path d="M59594 71106
L59566 71161
" />
<path d="M59616 71048
L59594 71106
" />
<path d="M59632 70988
L59616 71048
" />
<path d="M59642 70927
L59632 70988
" />
<path d="M59645 70866
L59642 70927
" />
<path d="M59642 70804
L59645 70866
" />
<path d="M59632 70743
L59642 70804
" />
<path d="M59616 70683
L59632 70743
" />
<path d="M59594 70625
L59616 70683
" />
<path d="M59566 70570
L59594 70625
" />
<path d="M59532 70519
L59566 70570
" />
<path d="M59493 70470
L59532 70519
" />
<path d="M59450 70427
L59493 70470
" />
<path d="M59402 70388
L59450 70427
" />
<path d="M59350 70354
L59402 70388
" />
<path d="M59295 70326
L59350 70354
" />
<path d="M59237 70304
L59295 70326
" />
<path d="M59177 70288
L59237 70304
" />
<path d="M59116 70278
L59177 70288
" />
<path d="M59055 70275
L59116 70278
" />
<path d="M58993 70278
L59055 70275
" />
<path d="M58932 70288
L58993 70278
" />
<path d="M58872 70304
L58932 70288
" />
<path d="M58814 70326
L58872 70304
" />
<path d="M58759 70354
L58814 70326
" />
<path d="M58707 70388
L58759 70354
" />
<path d="M58659 70427
L58707 70388
" />
<path d="M58616 70470
L58659 70427
" />
<path d="M58577 70519
L58616 70470
" />
<path d="M58543 70570
L58577 70519
" />
<path d="M58515 70625
L58543 70570
" />
<path d="M58493 70683
L58515 70625
" />
<path d="M58477 70743
L58493 70683
" />
<path d="M58467 70804
L58477 70743
" />
<path d="M58464 70866
L58467 70804
" />
<path d="M58467 70927
L58464 70866
" />
<path d="M58477 70988
L58467 70927
" />
<path d="M58493 71048
L58477 70988
" />
<path d="M58515 71106
L58493 71048
" />
<path d="M58543 71161
L58515 71106
" />
<path d="M58577 71213
L58543 71161
" />
<path d="M58616 71261
L58577 71213
" />
<path d="M58659 71305
L58616 71261
" />
<path d="M58707 71343
L58659 71305
" />
<path d="M58759 71377
L58707 71343
" />
<path d="M58814 71405
L58759 71377
" />
<path d="M58872 71427
L58814 71405
" />
<path d="M58932 71443
L58872 71427
" />
<path d="M58993 71453
L58932 71443
" />
<path d="M98523 64960
L98461 64957
" />
<path d="M98585 64957
L98523 64960
" />
<path d="M98646 64947
L98585 64957
" />
<path d="M98706 64931
L98646 64947
" />
<path d="M98763 64909
L98706 64931
" />
<path d="M98818 64881
L98763 64909
" />
<path d="M98870 64847
L98818 64881
" />
<path d="M98918 64808
L98870 64847
" />
<path d="M98962 64765
L98918 64808
" />
<path d="M99001 64717
L98962 64765
" />
<path d="M99035 64665
L99001 64717
" />
<path d="M99063 64610
L99035 64665
" />
<path d="M99085 64552
L99063 64610
" />
<path d="M99101 64492
L99085 64552
" />
<path d="M99110 64431
L99101 64492
" />
<path d="M99114 64370
L99110 64431
" />
<path d="M99110 64308
L99114 64370
" />
<path d="M99101 64247
L99110 64308
" />
<path d="M99085 64187
L99101 64247
" />
<path d="M99063 64129
L99085 64187
" />
<path d="M99035 64074
L99063 64129
" />
<path d="M99001 64022
L99035 64074
" />
<path d="M98962 63974
L99001 64022
" />
<path d="M98918 63931
L98962 63974
" />
<path d="M98870 63892
L98918 63931
" />
<path d="M98818 63858
L98870 63892
" />
<path d="M98763 63830
L98818 63858
" />
<path d="M98706 63808
L98763 63830
" />
<path d="M98646 63792
L98706 63808
" />
<path d="M98585 63782
L98646 63792
" />
<path d="M98523 63779
L98585 63782
" />
<path d="M98461 63782
L98523 63779
" />
<path d="M98400 63792
L98461 63782
" />
<path d="M98341 63808
L98400 63792
" />
<path d="M98283 63830
L98341 63808
" />
<path d="M98228 63858
L98283 63830
" />
<path d="M98176 63892
L98228 63858
" />
<path d="M98128 63931
L98176 63892
" />
<path d="M98084 63974
L98128 63931
" />
<path d="M98045 64022
L98084 63974
" />
<path d="M98012 64074
L98045 64022
" />
<path d="M97984 64129
L98012 64074
" />
<path d="M97961 64187
L97984 64129
" />
<path d="M97945 64247
L97961 64187
" />
<path d="M97936 64308
L97945 64247
" />
<path d="M97933 64370
L97936 64308
" />
<path d="M97936 64431
L97933 64370
" />
<path d="M97945 64492
L97936 64431
" />
<path d="M97961 64552
L97945 64492
" />
<path d="M97984 64610
L97961 64552
" />
<path d="M98012 64665
L97984 64610
" />
<path d="M98045 64717
L98012 64665
" />
<path d="M98084 64765
L98045 64717
" />
<path d="M98128 64808
L98084 64765
" />
<path d="M98176 64847
L98128 64808
" />
<path d="M98228 64881
L98176 64847
" />
<path d="M98283 64909
L98228 64881
" />
<path d="M98341 64931
L98283 64909
" />
<path d="M98400 64947
L98341 64931
" />
<path d="M98461 64957
L98400 64947
" />
<path d="M84153 64960
L84091 64957
" />
<path d="M84215 64957
L84153 64960
" />
<path d="M84276 64947
L84215 64957
" />
<path d="M84336 64931
L84276 64947
" />
<path d="M84393 64909
L84336 64931
" />
<path d="M84448 64881
L84393 64909
" />
<path d="M84500 64847
L84448 64881
" />
<path d="M84548 64808
L84500 64847
" />
<path d="M84592 64765
L84548 64808
" />
<path d="M84631 64717
L84592 64765
" />
<path d="M84664 64665
L84631 64717
" />
<path d="M84693 64610
L84664 64665
" />
<path d="M84715 64552
L84693 64610
" />
<path d="M84731 64492
L84715 64552
" />
<path d="M84740 64431
L84731 64492
" />
<path d="M84744 64370
L84740 64431
" />
<path d="M84740 64308
L84744 64370
" />
<path d="M84731 64247
L84740 64308
" />
<path d="M84715 64187
L84731 64247
" />
<path d="M84693 64129
L84715 64187
" />
<path d="M84664 64074
L84693 64129
" />
<path d="M84631 64022
L84664 64074
" />
<path d="M84592 63974
L84631 64022
" />
<path d="M84548 63931
L84592 63974
" />
<path d="M84500 63892
L84548 63931
" />
<path d="M84448 63858
L84500 63892
" />
<path d="M84393 63830
L84448 63858
" />
<path d="M84336 63808
L84393 63830
" />
<path d="M84276 63792
L84336 63808
" />
<path d="M84215 63782
L84276 63792
" />
<path d="M84153 63779
L84215 63782
" />
<path d="M84091 63782
L84153 63779
" />
<path d="M84030 63792
L84091 63782
" />
<path d="M83971 63808
L84030 63792
" />
<path d="M83913 63830
L83971 63808
" />
<path d="M83858 63858
L83913 63830
" />
<path d="M83806 63892
L83858 63858
" />
<path d="M83758 63931
L83806 63892
" />
<path d="M83714 63974
L83758 63931
" />
<path d="M83675 64022
L83714 63974
" />
<path d="M83642 64074
L83675 64022
" />
<path d="M83614 64129
L83642 64074
" />
<path d="M83591 64187
L83614 64129
" />
<path d="M83575 64247
L83591 64187
" />
<path d="M83566 64308
L83575 64247
" />
<path d="M83562 64370
L83566 64308
" />
<path d="M83566 64431
L83562 64370
" />
<path d="M83575 64492
L83566 64431
" />
<path d="M83591 64552
L83575 64492
" />
<path d="M83614 64610
L83591 64552
" />
<path d="M83642 64665
L83614 64610
" />
<path d="M83675 64717
L83642 64665
" />
<path d="M83714 64765
L83675 64717
" />
<path d="M83758 64808
L83714 64765
" />
<path d="M83806 64847
L83758 64808
" />
<path d="M83858 64881
L83806 64847
" />
<path d="M83913 64909
L83858 64881
" />
<path d="M83971 64931
L83913 64909
" />
<path d="M84030 64947
L83971 64931
" />
<path d="M84091 64957
L84030 64947
" />
<path d="M59055 58858
L58993 58855
" />
<path d="M59116 58855
L59055 58858
" />
<path d="M59177 58845
L59116 58855
" />
<path d="M59237 58829
L59177 58845
" />
<path d="M59295 58807
L59237 58829
" />
<path d="M59350 58779
L59295 58807
" />
<path d="M59402 58745
L59350 58779
" />
<path d="M59450 58706
L59402 58745
" />
<path d="M59493 58662
L59450 58706
" />
<path d="M59532 58614
L59493 58662
" />
<path d="M59566 58562
L59532 58614
" />
<path d="M59594 58507
L59566 58562
" />
<path d="M59616 58450
L59594 58507
" />
<path d="M59632 58390
L59616 58450
" />
<path d="M59642 58329
L59632 58390
" />
<path d="M59645 58267
L59642 58329
" />
<path d="M59642 58205
L59645 58267
" />
<path d="M59632 58144
L59642 58205
" />
<path d="M59616 58085
L59632 58144
" />
<path d="M59594 58027
L59616 58085
" />
<path d="M59566 57972
L59594 58027
" />
<path d="M59532 57920
L59566 57972
" />
<path d="M59493 57872
L59532 57920
" />
<path d="M59450 57828
L59493 57872
" />
<path d="M59402 57789
L59450 57828
" />
<path d="M59350 57756
L59402 57789
" />
<path d="M59295 57728
L59350 57756
" />
<path d="M59237 57706
L59295 57728
" />
<path d="M59177 57690
L59237 57706
" />
<path d="M59116 57680
L59177 57690
" />
<path d="M59055 57677
L59116 57680
" />
<path d="M58993 57680
L59055 57677
" />
<path d="M58932 57690
L58993 57680
" />
<path d="M58872 57706
L58932 57690
" />
<path d="M58814 57728
L58872 57706
" />
<path d="M58759 57756
L58814 57728
" />
<path d="M58707 57789
L58759 57756
" />
<path d="M58659 57828
L58707 57789
" />
<path d="M58616 57872
L58659 57828
" />
<path d="M58577 57920
L58616 57872
" />
<path d="M58543 57972
L58577 57920
" />
<path d="M58515 58027
L58543 57972
" />
<path d="M58493 58085
L58515 58027
" />
<path d="M58477 58144
L58493 58085
" />
<path d="M58467 58205
L58477 58144
" />
<path d="M58464 58267
L58467 58205
" />
<path d="M58467 58329
L58464 58267
" />
<path d="M58477 58390
L58467 58329
" />
<path d="M58493 58450
L58477 58390
" />
<path d="M58515 58507
L58493 58450
" />
<path d="M58543 58562
L58515 58507
" />
<path d="M58577 58614
L58543 58562
" />
<path d="M58616 58662
L58577 58614
" />
<path d="M58659 58706
L58616 58662
" />
<path d="M58707 58745
L58659 58706
" />
<path d="M58759 58779
L58707 58745
" />
<path d="M58814 58807
L58759 58779
" />
<path d="M58872 58829
L58814 58807
" />
<path d="M58932 58845
L58872 58829
" />
<path d="M58993 58855
L58932 58845
" />
<path d="M46456 58858
L46394 58855
" />
<path d="M46518 58855
L46456 58858
" />
<path d="M46579 58845
L46518 58855
" />
<path d="M46639 58829
L46579 58845
" />
<path d="M46696 58807
L46639 58829
" />
<path d="M46751 58779
L46696 58807
" />
<path d="M46803 58745
L46751 58779
" />
<path d="M46851 58706
L46803 58745
" />
<path d="M46895 58662
L46851 58706
" />
<path d="M46934 58614
L46895 58662
" />
<path d="M46968 58562
L46934 58614
" />
<path d="M46996 58507
L46968 58562
" />
<path d="M47018 58450
L46996 58507
" />
<path d="M47034 58390
L47018 58450
" />
<path d="M47044 58329
L47034 58390
" />
<path d="M47047 58267
L47044 58329
" />
<path d="M47044 58205
L47047 58267
" />
<path d="M47034 58144
L47044 58205
" />
<path d="M47018 58085
L47034 58144
" />
<path d="M46996 58027
L47018 58085
" />
<path d="M46968 57972
L46996 58027
" />
<path d="M46934 57920
L46968 57972
" />
<path d="M46895 57872
L46934 57920
" />
<path d="M46851 57828
L46895 57872
" />
<path d="M46803 57789
L46851 57828
" />
<path d="M46751 57756
L46803 57789
" />
<path d="M46696 57728
L46751 57756
" />
<path d="M46639 57706
L46696 57728
" />
<path d="M46579 57690
L46639 57706
" />
<path d="M46518 57680
L46579 57690
" />
<path d="M46456 57677
L46518 57680
" />
<path d="M46394 57680
L46456 57677
" />
<path d="M46333 57690
L46394 57680
" />
<path d="M46274 57706
L46333 57690
" />
<path d="M46216 57728
L46274 57706
" />
<path d="M46161 57756
L46216 57728
" />
<path d="M46109 57789
L46161 57756
" />
<path d="M46061 57828
L46109 57789
" />
<path d="M46017 57872
L46061 57828
" />
<path d="M45978 57920
L46017 57872
" />
<path d="M45945 57972
L45978 57920
" />
<path d="M45917 58027
L45945 57972
" />
<path d="M45895 58085
L45917 58027
" />
<path d="M45879 58144
L45895 58085
" />
<path d="M45869 58205
L45879 58144
" />
<path d="M45866 58267
L45869 58205
" />
<path d="M45869 58329
L45866 58267
" />
<path d="M45879 58390
L45869 58329
" />
<path d="M45895 58450
L45879 58390
" />
<path d="M45917 58507
L45895 58450
" />
<path d="M45945 58562
L45917 58507
" />
<path d="M45978 58614
L45945 58562
" />
<path d="M46017 58662
L45978 58614
" />
<path d="M46061 58706
L46017 58662
" />
<path d="M46109 58745
L46061 58706
" />
<path d="M46161 58779
L46109 58745
" />
<path d="M46216 58807
L46161 58779
" />
<path d="M46274 58829
L46216 58807
" />
<path d="M46333 58845
L46274 58829
" />
<path d="M46394 58855
L46333 58845
" />
<path d="M52755 72047
L51974 72006
" />
<path d="M53537 72006
L52755 72047
" />
<path d="M54311 71883
L53537 72006
" />
<path d="M55067 71681
L54311 71883
" />
<path d="M55798 71400
L55067 71681
" />
<path d="M56496 71045
L55798 71400
" />
<path d="M57152 70618
L56496 71045
" />
<path d="M57761 70125
L57152 70618
" />
<path d="M58314 69572
L57761 70125
" />
<path d="M58807 68963
L58314 69572
" />
<path d="M59234 68307
L58807 68963
" />
<path d="M59589 67609
L59234 68307
" />
<path d="M59870 66878
L59589 67609
" />
<path d="M60072 66122
L59870 66878
" />
<path d="M60195 65348
L60072 66122
" />
<path d="M60236 64566
L60195 65348
" />
<path d="M60072 63011
L60195 63785
" />
<path d="M59870 62255
L60072 63011
" />
<path d="M59589 61524
L59870 62255
" />
<path d="M59234 60826
L59589 61524
" />
<path d="M58807 60170
L59234 60826
" />
<path d="M58314 59561
L58807 60170
" />
<path d="M57761 59007
L58314 59561
" />
<path d="M57152 58515
L57761 59007
" />
<path d="M56496 58088
L57152 58515
" />
<path d="M55798 57733
L56496 58088
" />
<path d="M55067 57452
L55798 57733
" />
<path d="M54311 57250
L55067 57452
" />
<path d="M53537 57127
L54311 57250
" />
<path d="M52755 57086
L53537 57127
" />
<path d="M51974 57127
L52755 57086
" />
<path d="M51200 57250
L51974 57127
" />
<path d="M50444 57452
L51200 57250
" />
<path d="M49713 57733
L50444 57452
" />
<path d="M49015 58088
L49713 57733
" />
<path d="M48359 58515
L49015 58088
" />
<path d="M47750 59007
L48359 58515
" />
<path d="M47196 59561
L47750 59007
" />
<path d="M46704 60170
L47196 59561
" />
<path d="M46277 60826
L46704 60170
" />
<path d="M45922 61524
L46277 60826
" />
<path d="M45641 62255
L45922 61524
" />
<path d="M45439 63011
L45641 62255
" />
<path d="M45316 63785
L45439 63011
" />
<path d="M45275 64566
L45316 63785
" />
<path d="M45316 65348
L45275 64566
" />
<path d="M45439 66122
L45316 65348
" />
<path d="M45641 66878
L45439 66122
" />
<path d="M45922 67609
L45641 66878
" />
<path d="M46277 68307
L45922 67609
" />
<path d="M46704 68963
L46277 68307
" />
<path d="M47196 69572
L46704 68963
" />
<path d="M47750 70125
L47196 69572
" />
<path d="M48359 70618
L47750 70125
" />
<path d="M49015 71045
L48359 70618
" />
<path d="M49713 71400
L49015 71045
" />
<path d="M50444 71681
L49713 71400
" />
<path d="M51200 71883
L50444 71681
" />
<path d="M51974 72006
L51200 71883
" />
<path d="M43897 55118
L43835 55114
" />
<path d="M43959 55114
L43897 55118
" />
<path d="M44020 55105
L43959 55114
" />
<path d="M44080 55089
L44020 55105
" />
<path d="M44137 55067
L44080 55089
" />
<path d="M44192 55038
L44137 55067
" />
<path d="M44244 55005
L44192 55038
" />
<path d="M44292 54966
L44244 55005
" />
<path d="M44336 54922
L44292 54966
" />
<path d="M44375 54874
L44336 54922
" />
<path d="M44409 54822
L44375 54874
" />
<path d="M44437 54767
L44409 54822
" />
<path d="M44459 54710
L44437 54767
" />
<path d="M44475 54650
L44459 54710
" />
<path d="M44484 54589
L44475 54650
" />
<path d="M44488 54527
L44484 54589
" />
<path d="M44484 54465
L44488 54527
" />
<path d="M44475 54404
L44484 54465
" />
<path d="M44459 54345
L44475 54404
" />
<path d="M44437 54287
L44459 54345
" />
<path d="M44409 54232
L44437 54287
" />
<path d="M44375 54180
L44409 54232
" />
<path d="M44336 54132
L44375 54180
" />
<path d="M44292 54088
L44336 54132
" />
<path d="M44244 54049
L44292 54088
" />
<path d="M44192 54016
L44244 54049
" />
<path d="M44137 53988
L44192 54016
" />
<path d="M44080 53965
L44137 53988
" />
<path d="M44020 53949
L44080 53965
" />
<path d="M43959 53940
L44020 53949
" />
<path d="M43897 53937
L43959 53940
" />
<path d="M43835 53940
L43897 53937
" />
<path d="M43774 53949
L43835 53940
" />
<path d="M43715 53965
L43774 53949
" />
<path d="M43657 53988
L43715 53965
" />
<path d="M43602 54016
L43657 53988
" />
<path d="M43550 54049
L43602 54016
" />
<path d="M43502 54088
L43550 54049
" />
<path d="M43458 54132
L43502 54088
" />
<path d="M43419 54180
L43458 54132
" />
<path d="M43386 54232
L43419 54180
" />
<path d="M43358 54287
L43386 54232
" />
<path d="M43335 54345
L43358 54287
" />
<path d="M43320 54404
L43335 54345
" />
<path d="M43310 54465
L43320 54404
" />
<path d="M43307 54527
L43310 54465
" />
<path d="M43310 54589
L43307 54527
" />
<path d="M43320 54650
L43310 54589
" />
<path d="M43335 54710
L43320 54650
" />
<path d="M43358 54767
L43335 54710
" />
<path d="M43386 54822
L43358 54767
" />
<path d="M43419 54874
L43386 54822
" />
<path d="M43458 54922
L43419 54874
" />
<path d="M43502 54966
L43458 54922
" />
<path d="M43550 55005
L43502 54966
" />
<path d="M43602 55038
L43550 55005
" />
<path d="M43657 55067
L43602 55038
" />
<path d="M43715 55089
L43657 55067
" />
<path d="M43774 55105
L43715 55089
" />
<path d="M43835 55114
L43774 55105
" />
<path d="M63188 55118
L63127 55114
" />
<path d="M63250 55114
L63188 55118
" />
<path d="M63311 55105
L63250 55114
" />
<path d="M63371 55089
L63311 55105
" />
<path d="M63429 55067
L63371 55089
" />
<path d="M63484 55038
L63429 55067
" />
<path d="M63536 55005
L63484 55038
" />
<path d="M63584 54966
L63536 55005
" />
<path d="M63627 54922
L63584 54966
" />
<path d="M63666 54874
L63627 54922
" />
<path d="M63700 54822
L63666 54874
" />
<path d="M63728 54767
L63700 54822
" />
<path d="M63750 54710
L63728 54767
" />
<path d="M63766 54650
L63750 54710
" />
<path d="M63776 54589
L63766 54650
" />
<path d="M63779 54527
L63776 54589
" />
<path d="M63776 54465
L63779 54527
" />
<path d="M63766 54404
L63776 54465
" />
<path d="M63750 54345
L63766 54404
" />
<path d="M63728 54287
L63750 54345
" />
<path d="M63700 54232
L63728 54287
" />
<path d="M63666 54180
L63700 54232
" />
<path d="M63627 54132
L63666 54180
" />
<path d="M63584 54088
L63627 54132
" />
<path d="M63536 54049
L63584 54088
" />
<path d="M63484 54016
L63536 54049
" />
<path d="M63429 53988
L63484 54016
" />
<path d="M63371 53965
L63429 53988
" />
<path d="M63311 53949
L63371 53965
" />
<path d="M63250 53940
L63311 53949
" />
<path d="M63188 53937
L63250 53940
" />
<path d="M63127 53940
L63188 53937
" />
<path d="M63066 53949
L63127 53940
" />
<path d="M63006 53965
L63066 53949
" />
<path d="M62948 53988
L63006 53965
" />
<path d="M62893 54016
L62948 53988
" />
<path d="M62841 54049
L62893 54016
" />
<path d="M62793 54088
L62841 54049
" />
<path d="M62750 54132
L62793 54088
" />
<path d="M62711 54180
L62750 54132
" />
<path d="M62677 54232
L62711 54180
" />
<path d="M62649 54287
L62677 54232
" />
<path d="M62627 54345
L62649 54287
" />
<path d="M62611 54404
L62627 54345
" />
<path d="M62601 54465
L62611 54404
" />
<path d="M62598 54527
L62601 54465
" />
<path d="M62601 54589
L62598 54527
" />
<path d="M62611 54650
L62601 54589
" />
<path d="M62627 54710
L62611 54650
" />
<path d="M62649 54767
L62627 54710
" />
<path d="M62677 54822
L62649 54767
" />
<path d="M62711 54874
L62677 54822
" />
<path d="M62750 54922
L62711 54874
" />
<path d="M62793 54966
L62750 54922
" />
<path d="M62841 55005
L62793 54966
" />
<path d="M62893 55038
L62841 55005
" />
<path d="M62948 55067
L62893 55038
" />
<path d="M63006 55089
L62948 55067
" />
<path d="M63066 55105
L63006 55089
" />
<path d="M63127 55114
L63066 55105
" />
<path d="M98523 42519
L98461 42516
" />
<path d="M98585 42516
L98523 42519
" />
<path d="M98646 42506
L98585 42516
" />
<path d="M98706 42490
L98646 42506
" />
<path d="M98763 42468
L98706 42490
" />
<path d="M98818 42440
L98763 42468
" />
<path d="M98870 42406
L98818 42440
" />
<path d="M98918 42367
L98870 42406
" />
<path d="M98962 42324
L98918 42367
" />
<path d="M99001 42276
L98962 42324
" />
<path d="M99035 42224
L99001 42276
" />
<path d="M99063 42169
L99035 42224
" />
<path d="M99085 42111
L99063 42169
" />
<path d="M99101 42051
L99085 42111
" />
<path d="M99110 41990
L99101 42051
" />
<path d="M99114 41929
L99110 41990
" />
<path d="M99110 41867
L99114 41929
" />
<path d="M99101 41806
L99110 41867
" />
<path d="M99085 41746
L99101 41806
" />
<path d="M99063 41688
L99085 41746
" />
<path d="M99035 41633
L99063 41688
" />
<path d="M99001 41582
L99035 41633
" />
<path d="M98962 41533
L99001 41582
" />
<path d="M98918 41490
L98962 41533
" />
<path d="M98870 41451
L98918 41490
" />
<path d="M98818 41417
L98870 41451
" />
<path d="M98763 41389
L98818 41417
" />
<path d="M98706 41367
L98763 41389
" />
<path d="M98646 41351
L98706 41367
" />
<path d="M98585 41341
L98646 41351
" />
<path d="M98523 41338
L98585 41341
" />
<path d="M98461 41341
L98523 41338
" />
<path d="M98400 41351
L98461 41341
" />
<path d="M98341 41367
L98400 41351
" />
<path d="M98283 41389
L98341 41367
" />
<path d="M98228 41417
L98283 41389
" />
<path d="M98176 41451
L98228 41417
" />
<path d="M98128 41490
L98176 41451
" />
<path d="M98084 41533
L98128 41490
" />
<path d="M98045 41582
L98084 41533
" />
<path d="M98012 41633
L98045 41582
" />
<path d="M97984 41688
L98012 41633
" />
<path d="M97961 41746
L97984 41688
" />
<path d="M97945 41806
L97961 41746
" />
<path d="M97936 41867
L97945 41806
" />
<path d="M97933 41929
L97936 41867
" />
<path d="M97936 41990
L97933 41929
" />
<path d="M97945 42051
L97936 41990
" />
<path d="M97961 42111
L97945 42051
" />
<path d="M97984 42169
L97961 42111
" />
<path d="M98012 42224
L97984 42169
" />
<path d="M98045 42276
L98012 42224
" />
<path d="M98084 42324
L98045 42276
" />
<path d="M98128 42367
L98084 42324
" />
<path d="M98176 42406
L98128 42367
" />
<path d="M98228 42440
L98176 42406
" />
<path d="M98283 42468
L98228 42440
" />
<path d="M98341 42490
L98283 42468
" />
<path d="M98400 42506
L98341 42490
" />
<path d="M98461 42516
L98400 42506
" />
<path d="M84153 42519
L84091 42516
" />
<path d="M84215 42516
L84153 42519
" />
<path d="M84276 42506
L84215 42516
" />
<path d="M84336 42490
L84276 42506
" />
<path d="M84393 42468
L84336 42490
" />
<path d="M84448 42440
L84393 42468
" />
<path d="M84500 42406
L84448 42440
" />
<path d="M84548 42367
L84500 42406
" />
<path d="M84592 42324
L84548 42367
" />
<path d="M84631 42276
L84592 42324
" />
<path d="M84664 42224
L84631 42276
" />
<path d="M84693 42169
L84664 42224
" />
<path d="M84715 42111
L84693 42169
" />
<path d="M84731 42051
L84715 42111
" />
<path d="M84740 41990
L84731 42051
" />
<path d="M84744 41929
L84740 41990
" />
<path d="M84740 41867
L84744 41929
" />
<path d="M84731 41806
L84740 41867
" />
<path d="M84715 41746
L84731 41806
" />
<path d="M84693 41688
L84715 41746
" />
<path d="M84664 41633
L84693 41688
" />
<path d="M84631 41582
L84664 41633
" />
<path d="M84592 41533
L84631 41582
" />
<path d="M84548 41490
L84592 41533
" />
<path d="M84500 41451
L84548 41490
" />
<path d="M84448 41417
L84500 41451
" />
<path d="M84393 41389
L84448 41417
" />
<path d="M84336 41367
L84393 41389
" />
<path d="M84276 41351
L84336 41367
" />
<path d="M84215 41341
L84276 41351
" />
<path d="M84153 41338
L84215 41341
" />
<path d="M84091 41341
L84153 41338
" />
<path d="M84030 41351
L84091 41341
" />
<path d="M83971 41367
L84030 41351
" />
<path d="M83913 41389
L83971 41367
" />
<path d="M83858 41417
L83913 41389
" />
<path d="M83806 41451
L83858 41417
" />
<path d="M83758 41490
L83806 41451
" />
<path d="M83714 41533
L83758 41490
" />
<path d="M83675 41582
L83714 41533
" />
<path d="M83642 41633
L83675 41582
" />
<path d="M83614 41688
L83642 41633
" />
<path d="M83591 41746
L83614 41688
" />
<path d="M83575 41806
L83591 41746
" />
<path d="M83566 41867
L83575 41806
" />
<path d="M83562 41929
L83566 41867
" />
<path d="M83566 41990
L83562 41929
" />
<path d="M83575 42051
L83566 41990
" />
<path d="M83591 42111
L83575 42051
" />
<path d="M83614 42169
L83591 42111
" />
<path d="M83642 42224
L83614 42169
" />
<path d="M83675 42276
L83642 42224
" />
<path d="M83714 42324
L83675 42276
" />
<path d="M83758 42367
L83714 42324
" />
<path d="M83806 42406
L83758 42367
" />
<path d="M83858 42440
L83806 42406
" />
<path d="M83913 42468
L83858 42440
" />
<path d="M83971 42490
L83913 42468
" />
<path d="M84030 42506
L83971 42490
" />
<path d="M84091 42516
L84030 42506
" />
<path d="M40354 40944
L40292 40941
" />
<path d="M40416 40941
L40354 40944
" />
<path d="M40477 40931
L40416 40941
" />
<path d="M40536 40915
L40477 40931
" />
<path d="M40594 40893
L40536 40915
" />
<path d="M40649 40865
L40594 40893
" />
<path d="M40701 40832
L40649 40865
" />
<path d="M40749 40793
L40701 40832
" />
<path d="M40793 40749
L40749 40793
" />
<path d="M40832 40701
L40793 40749
" />
<path d="M40865 40649
L40832 40701
" />
<path d="M40893 40594
L40865 40649
" />
<path d="M40915 40536
L40893 40594
" />
<path d="M40931 40477
L40915 40536
" />
<path d="M40941 40416
L40931 40477
" />
<path d="M40944 40354
L40941 40416
" />
<path d="M40941 40292
L40944 40354
" />
<path d="M40931 40231
L40941 40292
" />
<path d="M40915 40171
L40931 40231
" />
<path d="M40893 40114
L40915 40171
" />
<path d="M40865 40059
L40893 40114
" />
<path d="M40832 40007
L40865 40059
" />
<path d="M40793 39959
L40832 40007
" />
<path d="M40749 39915
L40793 39959
" />
<path d="M40701 39876
L40749 39915
" />
<path d="M40649 39842
L40701 39876
" />
<path d="M40594 39814
L40649 39842
" />
<path d="M40536 39792
L40594 39814
" />
<path d="M40477 39776
L40536 39792
" />
<path d="M40416 39767
L40477 39776
" />
<path d="M40354 39763
L40416 39767
" />
<path d="M40292 39767
L40354 39763
" />
<path d="M40231 39776
L40292 39767
" />
<path d="M40171 39792
L40231 39776
" />
<path d="M40114 39814
L40171 39792
" />
<path d="M40059 39842
L40114 39814
" />
<path d="M40007 39876
L40059 39842
" />
<path d="M39959 39915
L40007 39876
" />
<path d="M39915 39959
L39959 39915
" />
<path d="M39876 40007
L39915 39959
" />
<path d="M39842 40059
L39876 40007
" />
<path d="M39814 40114
L39842 40059
" />
<path d="M39792 40171
L39814 40114
" />
<path d="M39776 40231
L39792 40171
" />
<path d="M39767 40292
L39776 40231
" />
<path d="M39763 40354
L39767 40292
" />
<path d="M39767 40416
L39763 40354
" />
<path d="M39776 40477
L39767 40416
" />
<path d="M39792 40536
L39776 40477
" />
<path d="M39814 40594
L39792 40536
" />
<path d="M39842 40649
L39814 40594
" />
<path d="M39876 40701
L39842 40649
" />
<path d="M39915 40749
L39876 40701
" />
<path d="M39959 40793
L39915 40749
" />
<path d="M40007 40832
L39959 40793
" />
<path d="M40059 40865
L40007 40832
" />
<path d="M40114 40893
L40059 40865
" />
<path d="M40171 40915
L40114 40893
" />
<path d="M40231 40931
L40171 40915
" />
<path d="M40292 40941
L40231 40931
" />
<path d="M101377 40944
L101316 40941
" />
<path d="M101439 40941
L101377 40944
" />
<path d="M101500 40931
L101439 40941
" />
<path d="M101560 40915
L101500 40931
" />
<path d="M101618 40893
L101560 40915
" />
<path d="M101673 40865
L101618 40893
" />
<path d="M101725 40832
L101673 40865
" />
<path d="M101773 40793
L101725 40832
" />
<path d="M101816 40749
L101773 40793
" />
<path d="M101855 40701
L101816 40749
" />
<path d="M101889 40649
L101855 40701
" />
<path d="M101917 40594
L101889 40649
" />
<path d="M101939 40536
L101917 40594
" />
<path d="M101955 40477
L101939 40536
" />
<path d="M101965 40416
L101955 40477
" />
<path d="M101968 40354
L101965 40416
" />
<path d="M101965 40292
L101968 40354
" />
<path d="M101955 40231
L101965 40292
" />
<path d="M101939 40171
L101955 40231
" />
<path d="M101917 40114
L101939 40171
" />
<path d="M101889 40059
L101917 40114
" />
<path d="M101855 40007
L101889 40059
" />
<path d="M101816 39959
L101855 40007
" />
<path d="M101773 39915
L101816 39959
" />
<path d="M101725 39876
L101773 39915
" />
<path d="M101673 39842
L101725 39876
" />
<path d="M101618 39814
L101673 39842
" />
<path d="M101560 39792
L101618 39814
" />
<path d="M101500 39776
L101560 39792
" />
<path d="M101439 39767
L101500 39776
" />
<path d="M101377 39763
L101439 39767
" />
<path d="M101316 39767
L101377 39763
" />
<path d="M101255 39776
L101316 39767
" />
<path d="M101195 39792
L101255 39776
" />
<path d="M101137 39814
L101195 39792
" />
<path d="M101082 39842
L101137 39814
" />
<path d="M101030 39876
L101082 39842
" />
<path d="M100982 39915
L101030 39876
" />
<path d="M100939 39959
L100982 39915
" />
<path d="M100900 40007
L100939 39959
" />
<path d="M100866 40059
L100900 40007
" />
<path d="M100838 40114
L100866 40059
" />
<path d="M100816 40171
L100838 40114
" />
<path d="M100800 40231
L100816 40171
" />
<path d="M100790 40292
L100800 40231
" />
<path d="M100787 40354
L100790 40292
" />
<path d="M100790 40416
L100787 40354
" />
<path d="M100800 40477
L100790 40416
" />
<path d="M100816 40536
L100800 40477
" />
<path d="M100838 40594
L100816 40536
" />
<path d="M100866 40649
L100838 40594
" />
<path d="M100900 40701
L100866 40649
" />
<path d="M100939 40749
L100900 40701
" />
<path d="M100982 40793
L100939 40749
" />
<path d="M101030 40832
L100982 40793
" />
<path d="M101082 40865
L101030 40832
" />
<path d="M101137 40893
L101082 40865
" />
<path d="M101195 40915
L101137 40893
" />
<path d="M101255 40931
L101195 40915
" />
<path d="M101316 40941
L101255 40931
" />
<path d="M102362 78740
L102362 39370
" />
<path d="M39370 78740
L102362 78740
" />
<path d="M39370 39370
L39370 78740
" />
<path d="M102362 39370
L39370 39370
" />
<g >
</g>
<g >
</g>
<g >
</g>
<g >
</g>
<g >
</g>
<g >
</g>
<g >
</g>
<g >
</g>
<g >
</g>
<g >
</g>
<g >
</g>
<g >
</g>
<g >
</g>
<g >
</g>
<g >
</g>
<g >
</g>
<g >
</g>
<g >
</g>
<g >
</g>
<g >
</g>
<g >
</g>
<g >
</g>
<g >
</g>
<g >
</g>
<g >
</g>
<g >
</g>
<g >
</g>
<g >
</g>
<g >
</g>
<g >
</g>
<g >
</g>
<g >
</g>
<g >
</g>
<g >
</g>
<g >
</g>
<g >
</g>
<g >
</g>
<g >
</g>
<g >
</g>
<g >
</g>
<g >
</g>
<g >
</g>
<g >
</g>
<g >
</g>
<g >
</g>
<g >
</g>
<g >
</g>
<g >
</g>
<g >
</g>
<g >
</g>
<g >
</g>
<g >
</g>
<g >
</g>
<g >
</g>
<g >
</g>
</g> 
</svg>
