<?xml version="1.0" standalone="no"?>
 <!DOCTYPE svg PUBLIC "-//W3C//DTD SVG 1.1//EN" 
 "http://www.w3.org/Graphics/SVG/1.1/DTD/svg11.dtd"> 
<svg xmlns="http://www.w3.org/2000/svg" version="1.1" 
    width="41.9989cm" height="29.7002cm" viewBox="0 0 165350 116930 ">
<title>SVG Picture created as motherboard-B_SilkS.svg date 2020/11/02 16:45:24 </title>
  <desc>Picture generated by PCBNEW </desc>
<g style="fill:#000000; fill-opacity:1;stroke:#000000; stroke-opacity:1;
stroke-linecap:round; stroke-linejoin:round; "
 transform="translate(0 0) scale(1 1)">
</g>
<g style="fill:#000000; fill-opacity:0.0; 
stroke:#000000; stroke-width:-0.000393701; stroke-opacity:1; 
stroke-linecap:round; stroke-linejoin:round;">
</g>
<g style="fill:#000000; fill-opacity:0.0; 
stroke:#000000; stroke-width:47.2441; stroke-opacity:1; 
stroke-linecap:round; stroke-linejoin:round;">
<path d="M25440 38972
L25440 39547
" />
<path d="M26685 38972
L26685 40216
" />
<path d="M26685 38972
L26318 38972
" />
<path d="M25440 38972
L25807 38972
" />
<path d="M22074 38972
L22074 39547
" />
<path d="M23318 38972
L23318 40216
" />
<path d="M23318 38972
L22952 38972
" />
<path d="M22074 38972
L22440 38972
" />
<path d="M18677 38972
L18677 39547
" />
<path d="M19922 38972
L19922 40216
" />
<path d="M19922 38972
L19555 38972
" />
<path d="M18677 38972
L19044 38972
" />
<path d="M19039 41800
L19039 42274
" />
<path d="M17968 41800
L17968 42274
" />
<path d="M20614 41790
L20614 42264
" />
<path d="M19543 41790
L19543 42264
" />
<path d="M21374 42264
L21374 41790
" />
<path d="M22444 42264
L22444 41790
" />
<path d="M27385 41790
L27385 42264
" />
<path d="M26314 41790
L26314 42264
" />
<path d="M25811 41790
L25811 42264
" />
<path d="M24740 41790
L24740 42264
" />
</g>
<g style="fill:#000000; fill-opacity:0.0; 
stroke:#000000; stroke-width:59.0551; stroke-opacity:1; 
stroke-linecap:round; stroke-linejoin:round;">
<g transform="rotate(-90 27047.2 39271.7)">
<text x="27047.2" y="39468.5"
textLength="-710.63" font-size="-524.934" lengthAdjust="spacingAndGlyphs"
text-anchor="middle" opacity="0">Q3</text>
</g>
<path d="M27262 39234
L27244 39196
L27206 39159
L27150 39102
L27131 39065
L27131 39027
" />
<path d="M27225 39046
L27206 39009
L27169 38971
L27094 38952
L26962 38952
L26887 38971
L26850 39009
L26831 39046
L26831 39121
L26850 39159
L26887 39196
L26962 39215
L27094 39215
L27169 39196
L27206 39159
L27225 39121
L27225 39046
" />
<path d="M26831 39346
L26831 39590
L26981 39459
L26981 39515
L27000 39552
L27019 39571
L27056 39590
L27150 39590
L27187 39571
L27206 39552
L27225 39515
L27225 39402
L27206 39365
L27187 39346
" />
<g transform="rotate(-90 23681.1 39271.7)">
<text x="23681.1" y="39468.5"
textLength="-710.63" font-size="-524.934" lengthAdjust="spacingAndGlyphs"
text-anchor="middle" opacity="0">Q2</text>
</g>
<path d="M23896 39234
L23877 39196
L23840 39159
L23784 39102
L23765 39065
L23765 39027
" />
<path d="M23859 39046
L23840 39009
L23802 38971
L23727 38952
L23596 38952
L23521 38971
L23484 39009
L23465 39046
L23465 39121
L23484 39159
L23521 39196
L23596 39215
L23727 39215
L23802 39196
L23840 39159
L23859 39121
L23859 39046
" />
<path d="M23502 39365
L23484 39384
L23465 39421
L23465 39515
L23484 39552
L23502 39571
L23540 39590
L23577 39590
L23634 39571
L23859 39346
L23859 39590
" />
<g transform="rotate(-90 20284.3 39271.7)">
<text x="20284.3" y="39468.5"
textLength="-710.63" font-size="-524.934" lengthAdjust="spacingAndGlyphs"
text-anchor="middle" opacity="0">Q1</text>
</g>
<path d="M20499 39234
L20481 39196
L20443 39159
L20387 39102
L20368 39065
L20368 39027
" />
<path d="M20462 39046
L20443 39009
L20406 38971
L20331 38952
L20199 38952
L20124 38971
L20087 39009
L20068 39046
L20068 39121
L20087 39159
L20124 39196
L20199 39215
L20331 39215
L20406 39196
L20443 39159
L20462 39121
L20462 39046
" />
<path d="M20462 39590
L20462 39365
" />
<path d="M20462 39477
L20068 39477
L20124 39440
L20162 39402
L20181 39365
" />
<text x="18503.9" y="43503.9"
textLength="-1066.84" font-size="-524.934" lengthAdjust="spacingAndGlyphs"
text-anchor="middle" opacity="0">R19</text>
<path d="M18757 43485
L18888 43297
" />
<path d="M18982 43485
L18982 43091
L18832 43091
L18794 43110
L18775 43128
L18757 43166
L18757 43222
L18775 43260
L18794 43278
L18832 43297
L18982 43297
" />
<path d="M18382 43485
L18607 43485
" />
<path d="M18494 43485
L18494 43091
L18532 43147
L18569 43185
L18607 43203
" />
<path d="M18194 43485
L18119 43485
L18082 43466
L18063 43447
L18025 43391
L18007 43316
L18007 43166
L18025 43128
L18044 43110
L18082 43091
L18157 43091
L18194 43110
L18213 43128
L18232 43166
L18232 43260
L18213 43297
L18194 43316
L18157 43335
L18082 43335
L18044 43316
L18025 43297
L18007 43260
" />
<text x="20078.7" y="43503.9"
textLength="-1066.84" font-size="-524.934" lengthAdjust="spacingAndGlyphs"
text-anchor="middle" opacity="0">R16</text>
<path d="M20331 43485
L20463 43297
" />
<path d="M20556 43485
L20556 43091
L20406 43091
L20369 43110
L20350 43128
L20331 43166
L20331 43222
L20350 43260
L20369 43278
L20406 43297
L20556 43297
" />
<path d="M19956 43485
L20181 43485
" />
<path d="M20069 43485
L20069 43091
L20106 43147
L20144 43185
L20181 43203
" />
<path d="M19619 43091
L19694 43091
L19731 43110
L19750 43128
L19788 43185
L19806 43260
L19806 43410
L19788 43447
L19769 43466
L19731 43485
L19656 43485
L19619 43466
L19600 43447
L19581 43410
L19581 43316
L19600 43278
L19619 43260
L19656 43241
L19731 43241
L19769 43260
L19788 43278
L19806 43316
" />
<text x="21909.4" y="43503.9"
textLength="-1066.84" font-size="-524.934" lengthAdjust="spacingAndGlyphs"
text-anchor="middle" opacity="0">R15</text>
<path d="M22162 43485
L22293 43297
" />
<path d="M22387 43485
L22387 43091
L22237 43091
L22200 43110
L22181 43128
L22162 43166
L22162 43222
L22181 43260
L22200 43278
L22237 43297
L22387 43297
" />
<path d="M21787 43485
L22012 43485
" />
<path d="M21900 43485
L21900 43091
L21937 43147
L21975 43185
L22012 43203
" />
<path d="M21431 43091
L21618 43091
L21637 43278
L21618 43260
L21581 43241
L21487 43241
L21450 43260
L21431 43278
L21412 43316
L21412 43410
L21431 43447
L21450 43466
L21487 43485
L21581 43485
L21618 43466
L21637 43447
" />
<text x="26850.4" y="43503.9"
textLength="-691.882" font-size="-524.934" lengthAdjust="spacingAndGlyphs"
text-anchor="middle" opacity="0">R6</text>
<path d="M26916 43485
L27047 43297
" />
<path d="M27140 43485
L27140 43091
L26991 43091
L26953 43110
L26934 43128
L26916 43166
L26916 43222
L26934 43260
L26953 43278
L26991 43297
L27140 43297
" />
<path d="M26578 43091
L26653 43091
L26691 43110
L26709 43128
L26747 43185
L26766 43260
L26766 43410
L26747 43447
L26728 43466
L26691 43485
L26616 43485
L26578 43466
L26559 43447
L26541 43410
L26541 43316
L26559 43278
L26578 43260
L26616 43241
L26691 43241
L26728 43260
L26747 43278
L26766 43316
" />
<text x="25275.6" y="43503.9"
textLength="-691.882" font-size="-524.934" lengthAdjust="spacingAndGlyphs"
text-anchor="middle" opacity="0">R3</text>
<path d="M25341 43485
L25472 43297
" />
<path d="M25566 43485
L25566 43091
L25416 43091
L25378 43110
L25359 43128
L25341 43166
L25341 43222
L25359 43260
L25378 43278
L25416 43297
L25566 43297
" />
<path d="M25209 43091
L24966 43091
L25097 43241
L25041 43241
L25003 43260
L24985 43278
L24966 43316
L24966 43410
L24985 43447
L25003 43466
L25041 43485
L25153 43485
L25191 43466
L25209 43447
" />
<g >
</g>
</g> 
</svg>
