M48
; DRILL file {KiCad 5.1.5+dfsg1-2build2} date Thu 12 Nov 2020 04:29:46 PM CET
; FORMAT={-:-/ absolute / inch / decimal}
; #@! TF.CreationDate,2020-11-12T16:29:46+01:00
; #@! TF.GenerationSoftware,Kicad,Pcbnew,5.1.5+dfsg1-2build2
; #@! TF.FileFunction,Plated,1,2,PTH
FMAT,2
INCH
T1C0.0236
T2C0.0315
T3C0.0394
T4C0.0402
T5C0.0433
T6C0.0551
T7C0.0598
T8C0.0984
%
G90
G05
T1
X1.0276Y-2.3976
X1.0276Y-2.6732
X1.0394Y-3.4852
X1.0413Y-2.9557
X1.0443Y-3.2087
X1.0748Y-2.0512
X1.0974Y-3.877
X1.1171Y-4.0374
X1.1437Y-3.2874
X1.1447Y-3.5541
X1.1457Y-3.0197
X1.1476Y-2.75
X1.2992Y-1.9843
X1.3671Y-4.2953
X1.4331Y-1.8661
X1.5669Y-4.2992
X1.5807Y-3.0315
X1.5827Y-2.5866
X1.6417Y-2.0669
X1.6654Y-3.4331
X1.6919Y-3.8258
X1.7057Y-4.0866
X1.7274Y-4.2156
X1.815Y-2.189
X1.8169Y-3.9016
X1.8553Y-4.1033
X1.9006Y-3.7254
X1.9606Y-2.2992
X1.9685Y-1.937
X2.0094Y-4.1029
X2.0433Y-3.8396
X2.0591Y-1.7126
X2.063Y-1.3268
X2.1614Y-4.1033
X2.2441Y-2.0669
X2.2441Y-3.8071
X2.3179Y-4.1029
X2.4636Y-3.814
X2.4685Y-1.6575
X2.4961Y-2.0266
X2.5069Y-4.2146
X2.5079Y-1.0866
X2.5394Y-1.4134
X2.626Y-4.1063
X2.7175Y-2.0443
X2.7244Y-1.3189
X2.7293Y-3.8317
X2.7766Y-4.1939
X2.8976Y-1.6535
X2.9803Y-4.1594
X2.9843Y-3.8504
X3.0295Y-2.0581
X3.0453Y-1.0866
X3.1378Y-4.3504
X3.252Y-1.2283
X3.2726Y-3.5128
X3.2805Y-3.0463
X3.2844Y-3.7726
X3.2923Y-3.2648
X3.313Y-2.7431
X3.3209Y-2.4656
X3.3228Y-1.5236
X3.3396Y-2.2116
X3.3858Y-1.685
X3.4055Y-1.0866
X3.4055Y-1.4291
X3.5738Y-2.3317
X3.5738Y-2.6486
X3.5778Y-1.9892
X3.5787Y-5.7244
X3.6063Y-4.1654
X3.6102Y-3.1841
X3.6171Y-3.5285
X3.6181Y-3.878
X3.626Y-4.4252
X3.7717Y-5.7795
X3.7717Y-5.9094
X3.8543Y-4.685
X3.8583Y-1.1083
X3.8661Y-3.9724
X3.8661Y-4.2087
X3.8691Y-1.7293
X3.8898Y-1.4193
X3.9183Y-2.0433
X3.9528Y-5.2047
X3.9646Y-4.9055
X3.9764Y-2.7362
X3.9793Y-2.9459
X4.0236Y-4.2008
X4.0344Y-2.3907
X4.0591Y-5.374
X4.1378Y-3.9685
X4.1417Y-1.7126
X4.1575Y-4.6378
X4.1742Y-1.3642
X4.1772Y-2.0669
X4.1831Y-1.1142
X4.2598Y-5.374
X4.2854Y-2.7963
X4.311Y-2.5463
X4.311Y-4.8504
X4.3248Y-2.2904
X4.3346Y-5.122
X4.3593Y-2.8976
X4.3701Y-4.1811
X4.4547Y-1.1024
X4.4567Y-3.9331
X4.4606Y-5.374
X4.5443Y-2.7766
X4.5561Y-2.4852
X4.561Y-2.2785
X4.5827Y-5.2283
X4.6299Y-4.7638
X4.6339Y-3.0768
X4.6841Y-1.2953
X4.7008Y-4.1693
X4.7244Y-3.7835
X4.7549Y-3.0591
X4.8406Y-2.8425
X4.8425Y-4.8307
X4.8425Y-5.0748
X4.9104Y-1.6378
X4.9134Y-1.4144
X4.9134Y-4.5906
X4.94Y-1.935
X4.9409Y-5.315
X5.0108Y-2.6053
X5.0394Y-5.6772
X5.0551Y-5.9094
X5.0591Y-4.0197
X5.0669Y-4.8937
X5.0906Y-5.122
X5.1033Y-2.8248
X5.1112Y-2.2904
X5.1191Y-1.7175
X5.1191Y-2.064
X5.125Y-1.3819
X5.1486Y-2.4449
X5.1496Y-1.1201
X5.1732Y-4.6496
X5.2598Y-4.3465
X5.2992Y-5.4331
X5.3661Y-2.8307
X5.5285Y-3.5344
X5.5295Y-3.1181
X5.5486Y-4.6667
X5.564Y-1.3406
X5.6762Y-1.1496
X5.6772Y-5.063
X5.689Y-4.6575
X5.6949Y-2.8445
X5.8553Y-3.5167
X5.874Y-5.063
X5.8819Y-5.2717
X5.9006Y-3.1191
X5.9173Y-5.563
X6.0581Y-2.8701
X6.0945Y-4.6417
X6.0984Y-4.7756
X6.1063Y-4.3622
X6.1299Y-5.0669
X6.1339Y-3.7559
X6.1388Y-1.0965
X6.1614Y-5.9173
X6.1654Y-5.2441
X6.1654Y-5.6299
X6.1654Y-5.7598
X6.1693Y-3.5344
X6.1693Y-5.4291
X6.1772Y-4.9606
X6.1959Y-3.1083
X6.2638Y-4.1673
X6.2638Y-5.0591
X6.2648Y-1.311
X6.2677Y-4.752
X6.2953Y-4.4173
X6.3071Y-4.622
X6.374Y-3.7362
X6.4075Y-2.8297
X6.4252Y-3.1161
X6.4547Y-1.1112
X6.4734Y-3.5512
X6.4793Y-1.2835
X6.4921Y-4.2677
X6.5453Y-3.1004
X6.5866Y-5.1417
X6.622Y-3.7244
X6.6614Y-4.6063
X6.6634Y-1.123
X6.6654Y-4.6811
X6.6969Y-4.252
X6.7037Y-1.5768
X6.752Y-3.9409
X6.7549Y-1.7264
X6.7559Y-2.8219
X6.7707Y-3.5285
X6.7805Y-2.5531
X6.7815Y-1.8878
X6.7825Y-1.313
X6.815Y-5.1181
X6.8189Y-4.2224
X6.9104Y-1.1181
X6.9154Y-3.625
X6.9321Y-1.5482
X6.9724Y-5.126
X7.0689Y-1.8839
X7.1033Y-2.6102
X7.1506Y-1.5482
X7.1545Y-1.3396
X7.1663Y-1.128
X7.1969Y-4.4843
X7.2008Y-5.1339
X7.3386Y-4.5157
X7.3425Y-4.7008
X7.3425Y-5.7402
X7.3465Y-5.1102
X7.3504Y-5.5276
X7.3583Y-1.5866
X7.3583Y-4.9173
X7.3652Y-1.4065
X7.3671Y-1.2293
X7.377Y-2.6378
X7.3819Y-4.063
X7.3819Y-5.3661
X7.3937Y-3.3898
X7.3937Y-3.7185
X7.3996Y-2.9961
X7.4055Y-4.3543
T2
X4.4961Y-4.3701
X4.5945Y-4.3701
X1.122Y-2.4902
X1.122Y-2.5886
X5.9823Y-4.7776
X5.9823Y-4.9744
X4.7953Y-4.3701
X4.8937Y-4.3701
X3.8976Y-4.368
X3.9961Y-4.368
X7.0925Y-4.7746
X7.0925Y-4.9715
X5.8327Y-4.7776
X5.8327Y-4.9744
X5.6831Y-4.7776
X5.6831Y-4.9744
X6.7933Y-4.7736
X6.7933Y-4.9705
X1.122Y-2.2047
X1.122Y-2.3031
X4.1969Y-4.368
X4.2953Y-4.368
X3.8691Y-2.3563
X3.8691Y-2.4563
X3.8691Y-2.5563
X3.8691Y-2.6563
X3.8691Y-2.7563
X3.8691Y-2.8563
X3.8691Y-2.9563
X4.1691Y-2.3563
X4.1691Y-2.4563
X4.1691Y-2.5563
X4.1691Y-2.6563
X4.1691Y-2.7563
X4.1691Y-2.8563
X4.1691Y-2.9563
X6.9429Y-4.7756
X6.9429Y-4.9724
T3
X6.3917Y-4.0276
X6.5886Y-4.0276
X4.685Y-2.1083
X4.685Y-2.2083
X4.685Y-2.3083
X4.685Y-2.4083
X4.685Y-2.5083
X4.685Y-2.6083
X2.2835Y-1.1673
X2.2835Y-1.2673
X2.2835Y-1.3673
X2.2835Y-1.4673
X2.2835Y-1.5673
X2.2835Y-1.6673
X4.9242Y-2.2077
X4.9242Y-2.3077
X4.9242Y-2.4077
X6.4941Y-4.7756
X6.4941Y-4.9724
X4.685Y-1.4469
X4.685Y-1.5469
X4.685Y-1.6469
X4.685Y-1.7469
X4.685Y-1.8469
X5.3996Y-4.0354
X5.5965Y-4.0354
X5.8957Y-4.0276
X6.0925Y-4.0276
X1.3478Y-2.1998
X1.3478Y-2.2998
X1.3478Y-2.3998
X1.3478Y-2.4998
X1.3478Y-2.5998
X1.3478Y-2.6998
X1.3478Y-2.7998
X1.3478Y-2.8998
X1.3478Y-2.9998
X1.3478Y-3.0998
X1.3478Y-3.1998
X1.3478Y-3.2998
X1.3478Y-3.3998
X1.3478Y-3.4998
X1.3478Y-3.5998
X1.3478Y-3.6998
X1.3478Y-3.7998
X1.3478Y-3.8998
X1.3478Y-3.9998
X1.3478Y-4.0998
X1.4478Y-2.1998
X1.4478Y-2.2998
X1.4478Y-2.3998
X1.4478Y-2.4998
X1.4478Y-2.5998
X1.4478Y-2.6998
X1.4478Y-2.7998
X1.4478Y-2.8998
X1.4478Y-2.9998
X1.4478Y-3.0998
X1.4478Y-3.1998
X1.4478Y-3.2998
X1.4478Y-3.3998
X1.4478Y-3.4998
X1.4478Y-3.5998
X1.4478Y-3.6998
X1.4478Y-3.7998
X1.4478Y-3.8998
X1.4478Y-3.9998
X1.4478Y-4.0998
X4.7717Y-3.4055
X4.7717Y-3.5055
X4.7717Y-3.6055
X5.3602Y-4.7815
X5.3602Y-4.9783
X6.8957Y-4.0276
X7.0925Y-4.0276
X4.3957Y-1.5469
X4.3957Y-1.6469
X4.3957Y-1.7469
X4.3957Y-1.8469
X4.3957Y-1.9469
X3.622Y-1.2667
X3.622Y-1.3667
X3.622Y-1.4667
X3.622Y-1.5667
T4
X3.626Y-5.0118
X3.626Y-5.1118
X3.626Y-5.2118
X3.626Y-5.3937
X3.626Y-5.4937
X3.626Y-5.5937
X3.626Y-4.6299
X3.626Y-4.7299
X3.626Y-4.8299
T5
X6.5984Y-5.2756
X6.6654Y-5.4213
X6.7323Y-5.2756
X6.7992Y-5.4213
X6.8661Y-5.2756
X5.4743Y-5.2746
X5.5412Y-5.4203
X5.6081Y-5.2746
X5.675Y-5.4203
X5.742Y-5.2746
T6
X6.9094Y-1.7323
X6.9094Y-1.8882
X6.9094Y-2.0441
X6.9094Y-2.2
X6.9094Y-2.3559
X5.2502Y-5.7313
X5.9667Y-5.7313
X6.3743Y-5.7322
X7.0909Y-5.7322
T7
X5.1378Y-3.0984
X5.1378Y-3.2984
X7.3061Y-2.002
X7.3061Y-2.202
X7.3061Y-2.402
X5.1378Y-3.5
X5.1378Y-3.7
X7.3071Y-3.2783
X7.3071Y-3.4783
X4.0622Y-5.815
X4.2622Y-5.815
X4.4622Y-5.815
X4.6622Y-5.815
X4.8622Y-5.815
X7.3071Y-2.8789
X7.3071Y-3.0789
T8
X7.3081Y-1.7343
X4.7677Y-5.4134
T0
M30
