G04 #@! TF.GenerationSoftware,KiCad,Pcbnew,5.1.5+dfsg1-2build2*
G04 #@! TF.CreationDate,2020-11-12T16:29:49+01:00*
G04 #@! TF.ProjectId,motherboard,6d6f7468-6572-4626-9f61-72642e6b6963,v0.3*
G04 #@! TF.SameCoordinates,Original*
G04 #@! TF.FileFunction,Soldermask,Top*
G04 #@! TF.FilePolarity,Negative*
%FSLAX46Y46*%
G04 Gerber Fmt 4.6, Leading zero omitted, Abs format (unit mm)*
G04 Created by KiCad (PCBNEW 5.1.5+dfsg1-2build2) date 2020-11-12 16:29:49*
%MOMM*%
%LPD*%
G04 APERTURE LIST*
%ADD10O,2.400000X1.600000*%
%ADD11R,2.400000X1.600000*%
%ADD12C,0.150000*%
%ADD13C,2.400000*%
%ADD14O,1.700000X1.700000*%
%ADD15R,1.700000X1.700000*%
%ADD16C,3.000000*%
%ADD17R,3.000000X3.000000*%
%ADD18O,2.030000X1.730000*%
%ADD19R,2.030000X1.730000*%
%ADD20C,5.999480*%
%ADD21R,1.200000X1.800000*%
%ADD22C,1.600000*%
%ADD23R,1.600000X1.600000*%
%ADD24R,2.000000X1.300000*%
%ADD25R,2.000000X2.000000*%
%ADD26O,1.800000X1.800000*%
%ADD27R,1.800000X1.800000*%
%ADD28C,2.000000*%
G04 APERTURE END LIST*
D10*
X105895000Y-59850000D03*
X98275000Y-75090000D03*
X105895000Y-62390000D03*
X98275000Y-72550000D03*
X105895000Y-64930000D03*
X98275000Y-70010000D03*
X105895000Y-67470000D03*
X98275000Y-67470000D03*
X105895000Y-70010000D03*
X98275000Y-64930000D03*
X105895000Y-72550000D03*
X98275000Y-62390000D03*
X105895000Y-75090000D03*
D11*
X98275000Y-59850000D03*
D12*
G36*
X176474504Y-42801204D02*
G01*
X176498773Y-42804804D01*
X176522571Y-42810765D01*
X176545671Y-42819030D01*
X176567849Y-42829520D01*
X176588893Y-42842133D01*
X176608598Y-42856747D01*
X176626777Y-42873223D01*
X176643253Y-42891402D01*
X176657867Y-42911107D01*
X176670480Y-42932151D01*
X176680970Y-42954329D01*
X176689235Y-42977429D01*
X176695196Y-43001227D01*
X176698796Y-43025496D01*
X176700000Y-43050000D01*
X176700000Y-44950000D01*
X176698796Y-44974504D01*
X176695196Y-44998773D01*
X176689235Y-45022571D01*
X176680970Y-45045671D01*
X176670480Y-45067849D01*
X176657867Y-45088893D01*
X176643253Y-45108598D01*
X176626777Y-45126777D01*
X176608598Y-45143253D01*
X176588893Y-45157867D01*
X176567849Y-45170480D01*
X176545671Y-45180970D01*
X176522571Y-45189235D01*
X176498773Y-45195196D01*
X176474504Y-45198796D01*
X176450000Y-45200000D01*
X174550000Y-45200000D01*
X174525496Y-45198796D01*
X174501227Y-45195196D01*
X174477429Y-45189235D01*
X174454329Y-45180970D01*
X174432151Y-45170480D01*
X174411107Y-45157867D01*
X174391402Y-45143253D01*
X174373223Y-45126777D01*
X174356747Y-45108598D01*
X174342133Y-45088893D01*
X174329520Y-45067849D01*
X174319030Y-45045671D01*
X174310765Y-45022571D01*
X174304804Y-44998773D01*
X174301204Y-44974504D01*
X174300000Y-44950000D01*
X174300000Y-43050000D01*
X174301204Y-43025496D01*
X174304804Y-43001227D01*
X174310765Y-42977429D01*
X174319030Y-42954329D01*
X174329520Y-42932151D01*
X174342133Y-42911107D01*
X174356747Y-42891402D01*
X174373223Y-42873223D01*
X174391402Y-42856747D01*
X174411107Y-42842133D01*
X174432151Y-42829520D01*
X174454329Y-42819030D01*
X174477429Y-42810765D01*
X174501227Y-42804804D01*
X174525496Y-42801204D01*
X174550000Y-42800000D01*
X176450000Y-42800000D01*
X176474504Y-42801204D01*
G37*
D13*
X175500000Y-47960000D03*
X175500000Y-51920000D03*
X175500000Y-55880000D03*
X175500000Y-59840000D03*
D14*
X111650000Y-39290000D03*
X111650000Y-41830000D03*
X111650000Y-44370000D03*
X111650000Y-46910000D03*
D15*
X111650000Y-49450000D03*
D16*
X180108000Y-145598000D03*
X161908000Y-145598000D03*
X151554000Y-145574000D03*
X133354000Y-145574000D03*
D12*
G36*
X123574504Y-64851204D02*
G01*
X123598773Y-64854804D01*
X123622571Y-64860765D01*
X123645671Y-64869030D01*
X123667849Y-64879520D01*
X123688893Y-64892133D01*
X123708598Y-64906747D01*
X123726777Y-64923223D01*
X123743253Y-64941402D01*
X123757867Y-64961107D01*
X123770480Y-64982151D01*
X123780970Y-65004329D01*
X123789235Y-65027429D01*
X123795196Y-65051227D01*
X123798796Y-65075496D01*
X123800000Y-65100000D01*
X123800000Y-67250000D01*
X123798796Y-67274504D01*
X123795196Y-67298773D01*
X123789235Y-67322571D01*
X123780970Y-67345671D01*
X123770480Y-67367849D01*
X123757867Y-67388893D01*
X123743253Y-67408598D01*
X123726777Y-67426777D01*
X123708598Y-67443253D01*
X123688893Y-67457867D01*
X123667849Y-67470480D01*
X123645671Y-67480970D01*
X123622571Y-67489235D01*
X123598773Y-67495196D01*
X123574504Y-67498796D01*
X123550000Y-67500000D01*
X122625000Y-67500000D01*
X122600496Y-67498796D01*
X122576227Y-67495196D01*
X122552429Y-67489235D01*
X122529329Y-67480970D01*
X122507151Y-67470480D01*
X122486107Y-67457867D01*
X122466402Y-67443253D01*
X122448223Y-67426777D01*
X122431747Y-67408598D01*
X122417133Y-67388893D01*
X122404520Y-67367849D01*
X122394030Y-67345671D01*
X122385765Y-67322571D01*
X122379804Y-67298773D01*
X122376204Y-67274504D01*
X122375000Y-67250000D01*
X122375000Y-65100000D01*
X122376204Y-65075496D01*
X122379804Y-65051227D01*
X122385765Y-65027429D01*
X122394030Y-65004329D01*
X122404520Y-64982151D01*
X122417133Y-64961107D01*
X122431747Y-64941402D01*
X122448223Y-64923223D01*
X122466402Y-64906747D01*
X122486107Y-64892133D01*
X122507151Y-64879520D01*
X122529329Y-64869030D01*
X122552429Y-64860765D01*
X122576227Y-64854804D01*
X122600496Y-64851204D01*
X122625000Y-64850000D01*
X123550000Y-64850000D01*
X123574504Y-64851204D01*
G37*
G36*
X126549504Y-64851204D02*
G01*
X126573773Y-64854804D01*
X126597571Y-64860765D01*
X126620671Y-64869030D01*
X126642849Y-64879520D01*
X126663893Y-64892133D01*
X126683598Y-64906747D01*
X126701777Y-64923223D01*
X126718253Y-64941402D01*
X126732867Y-64961107D01*
X126745480Y-64982151D01*
X126755970Y-65004329D01*
X126764235Y-65027429D01*
X126770196Y-65051227D01*
X126773796Y-65075496D01*
X126775000Y-65100000D01*
X126775000Y-67250000D01*
X126773796Y-67274504D01*
X126770196Y-67298773D01*
X126764235Y-67322571D01*
X126755970Y-67345671D01*
X126745480Y-67367849D01*
X126732867Y-67388893D01*
X126718253Y-67408598D01*
X126701777Y-67426777D01*
X126683598Y-67443253D01*
X126663893Y-67457867D01*
X126642849Y-67470480D01*
X126620671Y-67480970D01*
X126597571Y-67489235D01*
X126573773Y-67495196D01*
X126549504Y-67498796D01*
X126525000Y-67500000D01*
X125600000Y-67500000D01*
X125575496Y-67498796D01*
X125551227Y-67495196D01*
X125527429Y-67489235D01*
X125504329Y-67480970D01*
X125482151Y-67470480D01*
X125461107Y-67457867D01*
X125441402Y-67443253D01*
X125423223Y-67426777D01*
X125406747Y-67408598D01*
X125392133Y-67388893D01*
X125379520Y-67367849D01*
X125369030Y-67345671D01*
X125360765Y-67322571D01*
X125354804Y-67298773D01*
X125351204Y-67274504D01*
X125350000Y-67250000D01*
X125350000Y-65100000D01*
X125351204Y-65075496D01*
X125354804Y-65051227D01*
X125360765Y-65027429D01*
X125369030Y-65004329D01*
X125379520Y-64982151D01*
X125392133Y-64961107D01*
X125406747Y-64941402D01*
X125423223Y-64923223D01*
X125441402Y-64906747D01*
X125461107Y-64892133D01*
X125482151Y-64879520D01*
X125504329Y-64869030D01*
X125527429Y-64860765D01*
X125551227Y-64854804D01*
X125575496Y-64851204D01*
X125600000Y-64850000D01*
X126525000Y-64850000D01*
X126549504Y-64851204D01*
G37*
G36*
X131999504Y-64851204D02*
G01*
X132023773Y-64854804D01*
X132047571Y-64860765D01*
X132070671Y-64869030D01*
X132092849Y-64879520D01*
X132113893Y-64892133D01*
X132133598Y-64906747D01*
X132151777Y-64923223D01*
X132168253Y-64941402D01*
X132182867Y-64961107D01*
X132195480Y-64982151D01*
X132205970Y-65004329D01*
X132214235Y-65027429D01*
X132220196Y-65051227D01*
X132223796Y-65075496D01*
X132225000Y-65100000D01*
X132225000Y-67250000D01*
X132223796Y-67274504D01*
X132220196Y-67298773D01*
X132214235Y-67322571D01*
X132205970Y-67345671D01*
X132195480Y-67367849D01*
X132182867Y-67388893D01*
X132168253Y-67408598D01*
X132151777Y-67426777D01*
X132133598Y-67443253D01*
X132113893Y-67457867D01*
X132092849Y-67470480D01*
X132070671Y-67480970D01*
X132047571Y-67489235D01*
X132023773Y-67495196D01*
X131999504Y-67498796D01*
X131975000Y-67500000D01*
X131050000Y-67500000D01*
X131025496Y-67498796D01*
X131001227Y-67495196D01*
X130977429Y-67489235D01*
X130954329Y-67480970D01*
X130932151Y-67470480D01*
X130911107Y-67457867D01*
X130891402Y-67443253D01*
X130873223Y-67426777D01*
X130856747Y-67408598D01*
X130842133Y-67388893D01*
X130829520Y-67367849D01*
X130819030Y-67345671D01*
X130810765Y-67322571D01*
X130804804Y-67298773D01*
X130801204Y-67274504D01*
X130800000Y-67250000D01*
X130800000Y-65100000D01*
X130801204Y-65075496D01*
X130804804Y-65051227D01*
X130810765Y-65027429D01*
X130819030Y-65004329D01*
X130829520Y-64982151D01*
X130842133Y-64961107D01*
X130856747Y-64941402D01*
X130873223Y-64923223D01*
X130891402Y-64906747D01*
X130911107Y-64892133D01*
X130932151Y-64879520D01*
X130954329Y-64869030D01*
X130977429Y-64860765D01*
X131001227Y-64854804D01*
X131025496Y-64851204D01*
X131050000Y-64850000D01*
X131975000Y-64850000D01*
X131999504Y-64851204D01*
G37*
G36*
X129024504Y-64851204D02*
G01*
X129048773Y-64854804D01*
X129072571Y-64860765D01*
X129095671Y-64869030D01*
X129117849Y-64879520D01*
X129138893Y-64892133D01*
X129158598Y-64906747D01*
X129176777Y-64923223D01*
X129193253Y-64941402D01*
X129207867Y-64961107D01*
X129220480Y-64982151D01*
X129230970Y-65004329D01*
X129239235Y-65027429D01*
X129245196Y-65051227D01*
X129248796Y-65075496D01*
X129250000Y-65100000D01*
X129250000Y-67250000D01*
X129248796Y-67274504D01*
X129245196Y-67298773D01*
X129239235Y-67322571D01*
X129230970Y-67345671D01*
X129220480Y-67367849D01*
X129207867Y-67388893D01*
X129193253Y-67408598D01*
X129176777Y-67426777D01*
X129158598Y-67443253D01*
X129138893Y-67457867D01*
X129117849Y-67470480D01*
X129095671Y-67480970D01*
X129072571Y-67489235D01*
X129048773Y-67495196D01*
X129024504Y-67498796D01*
X129000000Y-67500000D01*
X128075000Y-67500000D01*
X128050496Y-67498796D01*
X128026227Y-67495196D01*
X128002429Y-67489235D01*
X127979329Y-67480970D01*
X127957151Y-67470480D01*
X127936107Y-67457867D01*
X127916402Y-67443253D01*
X127898223Y-67426777D01*
X127881747Y-67408598D01*
X127867133Y-67388893D01*
X127854520Y-67367849D01*
X127844030Y-67345671D01*
X127835765Y-67322571D01*
X127829804Y-67298773D01*
X127826204Y-67274504D01*
X127825000Y-67250000D01*
X127825000Y-65100000D01*
X127826204Y-65075496D01*
X127829804Y-65051227D01*
X127835765Y-65027429D01*
X127844030Y-65004329D01*
X127854520Y-64982151D01*
X127867133Y-64961107D01*
X127881747Y-64941402D01*
X127898223Y-64923223D01*
X127916402Y-64906747D01*
X127936107Y-64892133D01*
X127957151Y-64879520D01*
X127979329Y-64869030D01*
X128002429Y-64860765D01*
X128026227Y-64854804D01*
X128050496Y-64851204D01*
X128075000Y-64850000D01*
X129000000Y-64850000D01*
X129024504Y-64851204D01*
G37*
D16*
X185600000Y-88350000D03*
D17*
X185600000Y-83270000D03*
D18*
X92100000Y-122680000D03*
X92100000Y-120140000D03*
D19*
X92100000Y-117600000D03*
D20*
X121100000Y-137500000D03*
X185625000Y-44050000D03*
D14*
X125075000Y-61155000D03*
X125075000Y-58615000D03*
D15*
X125075000Y-56075000D03*
D12*
G36*
X30249504Y-76001204D02*
G01*
X30273773Y-76004804D01*
X30297571Y-76010765D01*
X30320671Y-76019030D01*
X30342849Y-76029520D01*
X30363893Y-76042133D01*
X30383598Y-76056747D01*
X30401777Y-76073223D01*
X30418253Y-76091402D01*
X30432867Y-76111107D01*
X30445480Y-76132151D01*
X30455970Y-76154329D01*
X30464235Y-76177429D01*
X30470196Y-76201227D01*
X30473796Y-76225496D01*
X30475000Y-76250000D01*
X30475000Y-77175000D01*
X30473796Y-77199504D01*
X30470196Y-77223773D01*
X30464235Y-77247571D01*
X30455970Y-77270671D01*
X30445480Y-77292849D01*
X30432867Y-77313893D01*
X30418253Y-77333598D01*
X30401777Y-77351777D01*
X30383598Y-77368253D01*
X30363893Y-77382867D01*
X30342849Y-77395480D01*
X30320671Y-77405970D01*
X30297571Y-77414235D01*
X30273773Y-77420196D01*
X30249504Y-77423796D01*
X30225000Y-77425000D01*
X28075000Y-77425000D01*
X28050496Y-77423796D01*
X28026227Y-77420196D01*
X28002429Y-77414235D01*
X27979329Y-77405970D01*
X27957151Y-77395480D01*
X27936107Y-77382867D01*
X27916402Y-77368253D01*
X27898223Y-77351777D01*
X27881747Y-77333598D01*
X27867133Y-77313893D01*
X27854520Y-77292849D01*
X27844030Y-77270671D01*
X27835765Y-77247571D01*
X27829804Y-77223773D01*
X27826204Y-77199504D01*
X27825000Y-77175000D01*
X27825000Y-76250000D01*
X27826204Y-76225496D01*
X27829804Y-76201227D01*
X27835765Y-76177429D01*
X27844030Y-76154329D01*
X27854520Y-76132151D01*
X27867133Y-76111107D01*
X27881747Y-76091402D01*
X27898223Y-76073223D01*
X27916402Y-76056747D01*
X27936107Y-76042133D01*
X27957151Y-76029520D01*
X27979329Y-76019030D01*
X28002429Y-76010765D01*
X28026227Y-76004804D01*
X28050496Y-76001204D01*
X28075000Y-76000000D01*
X30225000Y-76000000D01*
X30249504Y-76001204D01*
G37*
G36*
X30249504Y-78976204D02*
G01*
X30273773Y-78979804D01*
X30297571Y-78985765D01*
X30320671Y-78994030D01*
X30342849Y-79004520D01*
X30363893Y-79017133D01*
X30383598Y-79031747D01*
X30401777Y-79048223D01*
X30418253Y-79066402D01*
X30432867Y-79086107D01*
X30445480Y-79107151D01*
X30455970Y-79129329D01*
X30464235Y-79152429D01*
X30470196Y-79176227D01*
X30473796Y-79200496D01*
X30475000Y-79225000D01*
X30475000Y-80150000D01*
X30473796Y-80174504D01*
X30470196Y-80198773D01*
X30464235Y-80222571D01*
X30455970Y-80245671D01*
X30445480Y-80267849D01*
X30432867Y-80288893D01*
X30418253Y-80308598D01*
X30401777Y-80326777D01*
X30383598Y-80343253D01*
X30363893Y-80357867D01*
X30342849Y-80370480D01*
X30320671Y-80380970D01*
X30297571Y-80389235D01*
X30273773Y-80395196D01*
X30249504Y-80398796D01*
X30225000Y-80400000D01*
X28075000Y-80400000D01*
X28050496Y-80398796D01*
X28026227Y-80395196D01*
X28002429Y-80389235D01*
X27979329Y-80380970D01*
X27957151Y-80370480D01*
X27936107Y-80357867D01*
X27916402Y-80343253D01*
X27898223Y-80326777D01*
X27881747Y-80308598D01*
X27867133Y-80288893D01*
X27854520Y-80267849D01*
X27844030Y-80245671D01*
X27835765Y-80222571D01*
X27829804Y-80198773D01*
X27826204Y-80174504D01*
X27825000Y-80150000D01*
X27825000Y-79225000D01*
X27826204Y-79200496D01*
X27829804Y-79176227D01*
X27835765Y-79152429D01*
X27844030Y-79129329D01*
X27854520Y-79107151D01*
X27867133Y-79086107D01*
X27881747Y-79066402D01*
X27898223Y-79048223D01*
X27916402Y-79031747D01*
X27936107Y-79017133D01*
X27957151Y-79004520D01*
X27979329Y-78994030D01*
X28002429Y-78985765D01*
X28026227Y-78979804D01*
X28050496Y-78976204D01*
X28075000Y-78975000D01*
X30225000Y-78975000D01*
X30249504Y-78976204D01*
G37*
G36*
X30174504Y-89576204D02*
G01*
X30198773Y-89579804D01*
X30222571Y-89585765D01*
X30245671Y-89594030D01*
X30267849Y-89604520D01*
X30288893Y-89617133D01*
X30308598Y-89631747D01*
X30326777Y-89648223D01*
X30343253Y-89666402D01*
X30357867Y-89686107D01*
X30370480Y-89707151D01*
X30380970Y-89729329D01*
X30389235Y-89752429D01*
X30395196Y-89776227D01*
X30398796Y-89800496D01*
X30400000Y-89825000D01*
X30400000Y-90750000D01*
X30398796Y-90774504D01*
X30395196Y-90798773D01*
X30389235Y-90822571D01*
X30380970Y-90845671D01*
X30370480Y-90867849D01*
X30357867Y-90888893D01*
X30343253Y-90908598D01*
X30326777Y-90926777D01*
X30308598Y-90943253D01*
X30288893Y-90957867D01*
X30267849Y-90970480D01*
X30245671Y-90980970D01*
X30222571Y-90989235D01*
X30198773Y-90995196D01*
X30174504Y-90998796D01*
X30150000Y-91000000D01*
X28000000Y-91000000D01*
X27975496Y-90998796D01*
X27951227Y-90995196D01*
X27927429Y-90989235D01*
X27904329Y-90980970D01*
X27882151Y-90970480D01*
X27861107Y-90957867D01*
X27841402Y-90943253D01*
X27823223Y-90926777D01*
X27806747Y-90908598D01*
X27792133Y-90888893D01*
X27779520Y-90867849D01*
X27769030Y-90845671D01*
X27760765Y-90822571D01*
X27754804Y-90798773D01*
X27751204Y-90774504D01*
X27750000Y-90750000D01*
X27750000Y-89825000D01*
X27751204Y-89800496D01*
X27754804Y-89776227D01*
X27760765Y-89752429D01*
X27769030Y-89729329D01*
X27779520Y-89707151D01*
X27792133Y-89686107D01*
X27806747Y-89666402D01*
X27823223Y-89648223D01*
X27841402Y-89631747D01*
X27861107Y-89617133D01*
X27882151Y-89604520D01*
X27904329Y-89594030D01*
X27927429Y-89585765D01*
X27951227Y-89579804D01*
X27975496Y-89576204D01*
X28000000Y-89575000D01*
X30150000Y-89575000D01*
X30174504Y-89576204D01*
G37*
G36*
X30174504Y-92551204D02*
G01*
X30198773Y-92554804D01*
X30222571Y-92560765D01*
X30245671Y-92569030D01*
X30267849Y-92579520D01*
X30288893Y-92592133D01*
X30308598Y-92606747D01*
X30326777Y-92623223D01*
X30343253Y-92641402D01*
X30357867Y-92661107D01*
X30370480Y-92682151D01*
X30380970Y-92704329D01*
X30389235Y-92727429D01*
X30395196Y-92751227D01*
X30398796Y-92775496D01*
X30400000Y-92800000D01*
X30400000Y-93725000D01*
X30398796Y-93749504D01*
X30395196Y-93773773D01*
X30389235Y-93797571D01*
X30380970Y-93820671D01*
X30370480Y-93842849D01*
X30357867Y-93863893D01*
X30343253Y-93883598D01*
X30326777Y-93901777D01*
X30308598Y-93918253D01*
X30288893Y-93932867D01*
X30267849Y-93945480D01*
X30245671Y-93955970D01*
X30222571Y-93964235D01*
X30198773Y-93970196D01*
X30174504Y-93973796D01*
X30150000Y-93975000D01*
X28000000Y-93975000D01*
X27975496Y-93973796D01*
X27951227Y-93970196D01*
X27927429Y-93964235D01*
X27904329Y-93955970D01*
X27882151Y-93945480D01*
X27861107Y-93932867D01*
X27841402Y-93918253D01*
X27823223Y-93901777D01*
X27806747Y-93883598D01*
X27792133Y-93863893D01*
X27779520Y-93842849D01*
X27769030Y-93820671D01*
X27760765Y-93797571D01*
X27754804Y-93773773D01*
X27751204Y-93749504D01*
X27750000Y-93725000D01*
X27750000Y-92800000D01*
X27751204Y-92775496D01*
X27754804Y-92751227D01*
X27760765Y-92727429D01*
X27769030Y-92704329D01*
X27779520Y-92682151D01*
X27792133Y-92661107D01*
X27806747Y-92641402D01*
X27823223Y-92623223D01*
X27841402Y-92606747D01*
X27861107Y-92592133D01*
X27882151Y-92579520D01*
X27904329Y-92569030D01*
X27927429Y-92560765D01*
X27951227Y-92554804D01*
X27975496Y-92551204D01*
X28000000Y-92550000D01*
X30150000Y-92550000D01*
X30174504Y-92551204D01*
G37*
G36*
X30249504Y-69101204D02*
G01*
X30273773Y-69104804D01*
X30297571Y-69110765D01*
X30320671Y-69119030D01*
X30342849Y-69129520D01*
X30363893Y-69142133D01*
X30383598Y-69156747D01*
X30401777Y-69173223D01*
X30418253Y-69191402D01*
X30432867Y-69211107D01*
X30445480Y-69232151D01*
X30455970Y-69254329D01*
X30464235Y-69277429D01*
X30470196Y-69301227D01*
X30473796Y-69325496D01*
X30475000Y-69350000D01*
X30475000Y-70275000D01*
X30473796Y-70299504D01*
X30470196Y-70323773D01*
X30464235Y-70347571D01*
X30455970Y-70370671D01*
X30445480Y-70392849D01*
X30432867Y-70413893D01*
X30418253Y-70433598D01*
X30401777Y-70451777D01*
X30383598Y-70468253D01*
X30363893Y-70482867D01*
X30342849Y-70495480D01*
X30320671Y-70505970D01*
X30297571Y-70514235D01*
X30273773Y-70520196D01*
X30249504Y-70523796D01*
X30225000Y-70525000D01*
X28075000Y-70525000D01*
X28050496Y-70523796D01*
X28026227Y-70520196D01*
X28002429Y-70514235D01*
X27979329Y-70505970D01*
X27957151Y-70495480D01*
X27936107Y-70482867D01*
X27916402Y-70468253D01*
X27898223Y-70451777D01*
X27881747Y-70433598D01*
X27867133Y-70413893D01*
X27854520Y-70392849D01*
X27844030Y-70370671D01*
X27835765Y-70347571D01*
X27829804Y-70323773D01*
X27826204Y-70299504D01*
X27825000Y-70275000D01*
X27825000Y-69350000D01*
X27826204Y-69325496D01*
X27829804Y-69301227D01*
X27835765Y-69277429D01*
X27844030Y-69254329D01*
X27854520Y-69232151D01*
X27867133Y-69211107D01*
X27881747Y-69191402D01*
X27898223Y-69173223D01*
X27916402Y-69156747D01*
X27936107Y-69142133D01*
X27957151Y-69129520D01*
X27979329Y-69119030D01*
X28002429Y-69110765D01*
X28026227Y-69104804D01*
X28050496Y-69101204D01*
X28075000Y-69100000D01*
X30225000Y-69100000D01*
X30249504Y-69101204D01*
G37*
G36*
X30249504Y-72076204D02*
G01*
X30273773Y-72079804D01*
X30297571Y-72085765D01*
X30320671Y-72094030D01*
X30342849Y-72104520D01*
X30363893Y-72117133D01*
X30383598Y-72131747D01*
X30401777Y-72148223D01*
X30418253Y-72166402D01*
X30432867Y-72186107D01*
X30445480Y-72207151D01*
X30455970Y-72229329D01*
X30464235Y-72252429D01*
X30470196Y-72276227D01*
X30473796Y-72300496D01*
X30475000Y-72325000D01*
X30475000Y-73250000D01*
X30473796Y-73274504D01*
X30470196Y-73298773D01*
X30464235Y-73322571D01*
X30455970Y-73345671D01*
X30445480Y-73367849D01*
X30432867Y-73388893D01*
X30418253Y-73408598D01*
X30401777Y-73426777D01*
X30383598Y-73443253D01*
X30363893Y-73457867D01*
X30342849Y-73470480D01*
X30320671Y-73480970D01*
X30297571Y-73489235D01*
X30273773Y-73495196D01*
X30249504Y-73498796D01*
X30225000Y-73500000D01*
X28075000Y-73500000D01*
X28050496Y-73498796D01*
X28026227Y-73495196D01*
X28002429Y-73489235D01*
X27979329Y-73480970D01*
X27957151Y-73470480D01*
X27936107Y-73457867D01*
X27916402Y-73443253D01*
X27898223Y-73426777D01*
X27881747Y-73408598D01*
X27867133Y-73388893D01*
X27854520Y-73367849D01*
X27844030Y-73345671D01*
X27835765Y-73322571D01*
X27829804Y-73298773D01*
X27826204Y-73274504D01*
X27825000Y-73250000D01*
X27825000Y-72325000D01*
X27826204Y-72300496D01*
X27829804Y-72276227D01*
X27835765Y-72252429D01*
X27844030Y-72229329D01*
X27854520Y-72207151D01*
X27867133Y-72186107D01*
X27881747Y-72166402D01*
X27898223Y-72148223D01*
X27916402Y-72131747D01*
X27936107Y-72117133D01*
X27957151Y-72104520D01*
X27979329Y-72094030D01*
X28002429Y-72085765D01*
X28026227Y-72079804D01*
X28050496Y-72076204D01*
X28075000Y-72075000D01*
X30225000Y-72075000D01*
X30249504Y-72076204D01*
G37*
G36*
X30199504Y-82801204D02*
G01*
X30223773Y-82804804D01*
X30247571Y-82810765D01*
X30270671Y-82819030D01*
X30292849Y-82829520D01*
X30313893Y-82842133D01*
X30333598Y-82856747D01*
X30351777Y-82873223D01*
X30368253Y-82891402D01*
X30382867Y-82911107D01*
X30395480Y-82932151D01*
X30405970Y-82954329D01*
X30414235Y-82977429D01*
X30420196Y-83001227D01*
X30423796Y-83025496D01*
X30425000Y-83050000D01*
X30425000Y-83975000D01*
X30423796Y-83999504D01*
X30420196Y-84023773D01*
X30414235Y-84047571D01*
X30405970Y-84070671D01*
X30395480Y-84092849D01*
X30382867Y-84113893D01*
X30368253Y-84133598D01*
X30351777Y-84151777D01*
X30333598Y-84168253D01*
X30313893Y-84182867D01*
X30292849Y-84195480D01*
X30270671Y-84205970D01*
X30247571Y-84214235D01*
X30223773Y-84220196D01*
X30199504Y-84223796D01*
X30175000Y-84225000D01*
X28025000Y-84225000D01*
X28000496Y-84223796D01*
X27976227Y-84220196D01*
X27952429Y-84214235D01*
X27929329Y-84205970D01*
X27907151Y-84195480D01*
X27886107Y-84182867D01*
X27866402Y-84168253D01*
X27848223Y-84151777D01*
X27831747Y-84133598D01*
X27817133Y-84113893D01*
X27804520Y-84092849D01*
X27794030Y-84070671D01*
X27785765Y-84047571D01*
X27779804Y-84023773D01*
X27776204Y-83999504D01*
X27775000Y-83975000D01*
X27775000Y-83050000D01*
X27776204Y-83025496D01*
X27779804Y-83001227D01*
X27785765Y-82977429D01*
X27794030Y-82954329D01*
X27804520Y-82932151D01*
X27817133Y-82911107D01*
X27831747Y-82891402D01*
X27848223Y-82873223D01*
X27866402Y-82856747D01*
X27886107Y-82842133D01*
X27907151Y-82829520D01*
X27929329Y-82819030D01*
X27952429Y-82810765D01*
X27976227Y-82804804D01*
X28000496Y-82801204D01*
X28025000Y-82800000D01*
X30175000Y-82800000D01*
X30199504Y-82801204D01*
G37*
G36*
X30199504Y-85776204D02*
G01*
X30223773Y-85779804D01*
X30247571Y-85785765D01*
X30270671Y-85794030D01*
X30292849Y-85804520D01*
X30313893Y-85817133D01*
X30333598Y-85831747D01*
X30351777Y-85848223D01*
X30368253Y-85866402D01*
X30382867Y-85886107D01*
X30395480Y-85907151D01*
X30405970Y-85929329D01*
X30414235Y-85952429D01*
X30420196Y-85976227D01*
X30423796Y-86000496D01*
X30425000Y-86025000D01*
X30425000Y-86950000D01*
X30423796Y-86974504D01*
X30420196Y-86998773D01*
X30414235Y-87022571D01*
X30405970Y-87045671D01*
X30395480Y-87067849D01*
X30382867Y-87088893D01*
X30368253Y-87108598D01*
X30351777Y-87126777D01*
X30333598Y-87143253D01*
X30313893Y-87157867D01*
X30292849Y-87170480D01*
X30270671Y-87180970D01*
X30247571Y-87189235D01*
X30223773Y-87195196D01*
X30199504Y-87198796D01*
X30175000Y-87200000D01*
X28025000Y-87200000D01*
X28000496Y-87198796D01*
X27976227Y-87195196D01*
X27952429Y-87189235D01*
X27929329Y-87180970D01*
X27907151Y-87170480D01*
X27886107Y-87157867D01*
X27866402Y-87143253D01*
X27848223Y-87126777D01*
X27831747Y-87108598D01*
X27817133Y-87088893D01*
X27804520Y-87067849D01*
X27794030Y-87045671D01*
X27785765Y-87022571D01*
X27779804Y-86998773D01*
X27776204Y-86974504D01*
X27775000Y-86950000D01*
X27775000Y-86025000D01*
X27776204Y-86000496D01*
X27779804Y-85976227D01*
X27785765Y-85952429D01*
X27794030Y-85929329D01*
X27804520Y-85907151D01*
X27817133Y-85886107D01*
X27831747Y-85866402D01*
X27848223Y-85848223D01*
X27866402Y-85831747D01*
X27886107Y-85817133D01*
X27907151Y-85804520D01*
X27929329Y-85794030D01*
X27952429Y-85785765D01*
X27976227Y-85779804D01*
X28000496Y-85776204D01*
X28025000Y-85775000D01*
X30175000Y-85775000D01*
X30199504Y-85776204D01*
G37*
D16*
X185600000Y-78205000D03*
D17*
X185600000Y-73125000D03*
D21*
X104140000Y-80800000D03*
X101600000Y-80800000D03*
X99060000Y-80800000D03*
X104140000Y-92300000D03*
X101600000Y-92300000D03*
X99060000Y-92300000D03*
X115940000Y-80750000D03*
X113400000Y-80750000D03*
X110860000Y-80750000D03*
X115940000Y-92250000D03*
X113400000Y-92250000D03*
X110860000Y-92250000D03*
D14*
X58000000Y-42350000D03*
X58000000Y-39810000D03*
X58000000Y-37270000D03*
X58000000Y-34730000D03*
X58000000Y-32190000D03*
D15*
X58000000Y-29650000D03*
D22*
X28500000Y-56000000D03*
D23*
X28500000Y-58500000D03*
D22*
X28500000Y-65750000D03*
D23*
X28500000Y-63250000D03*
D12*
G36*
X148049504Y-113826204D02*
G01*
X148073773Y-113829804D01*
X148097571Y-113835765D01*
X148120671Y-113844030D01*
X148142849Y-113854520D01*
X148163893Y-113867133D01*
X148183598Y-113881747D01*
X148201777Y-113898223D01*
X148218253Y-113916402D01*
X148232867Y-113936107D01*
X148245480Y-113957151D01*
X148255970Y-113979329D01*
X148264235Y-114002429D01*
X148270196Y-114026227D01*
X148273796Y-114050496D01*
X148275000Y-114075000D01*
X148275000Y-115000000D01*
X148273796Y-115024504D01*
X148270196Y-115048773D01*
X148264235Y-115072571D01*
X148255970Y-115095671D01*
X148245480Y-115117849D01*
X148232867Y-115138893D01*
X148218253Y-115158598D01*
X148201777Y-115176777D01*
X148183598Y-115193253D01*
X148163893Y-115207867D01*
X148142849Y-115220480D01*
X148120671Y-115230970D01*
X148097571Y-115239235D01*
X148073773Y-115245196D01*
X148049504Y-115248796D01*
X148025000Y-115250000D01*
X145875000Y-115250000D01*
X145850496Y-115248796D01*
X145826227Y-115245196D01*
X145802429Y-115239235D01*
X145779329Y-115230970D01*
X145757151Y-115220480D01*
X145736107Y-115207867D01*
X145716402Y-115193253D01*
X145698223Y-115176777D01*
X145681747Y-115158598D01*
X145667133Y-115138893D01*
X145654520Y-115117849D01*
X145644030Y-115095671D01*
X145635765Y-115072571D01*
X145629804Y-115048773D01*
X145626204Y-115024504D01*
X145625000Y-115000000D01*
X145625000Y-114075000D01*
X145626204Y-114050496D01*
X145629804Y-114026227D01*
X145635765Y-114002429D01*
X145644030Y-113979329D01*
X145654520Y-113957151D01*
X145667133Y-113936107D01*
X145681747Y-113916402D01*
X145698223Y-113898223D01*
X145716402Y-113881747D01*
X145736107Y-113867133D01*
X145757151Y-113854520D01*
X145779329Y-113844030D01*
X145802429Y-113835765D01*
X145826227Y-113829804D01*
X145850496Y-113826204D01*
X145875000Y-113825000D01*
X148025000Y-113825000D01*
X148049504Y-113826204D01*
G37*
G36*
X148049504Y-110851204D02*
G01*
X148073773Y-110854804D01*
X148097571Y-110860765D01*
X148120671Y-110869030D01*
X148142849Y-110879520D01*
X148163893Y-110892133D01*
X148183598Y-110906747D01*
X148201777Y-110923223D01*
X148218253Y-110941402D01*
X148232867Y-110961107D01*
X148245480Y-110982151D01*
X148255970Y-111004329D01*
X148264235Y-111027429D01*
X148270196Y-111051227D01*
X148273796Y-111075496D01*
X148275000Y-111100000D01*
X148275000Y-112025000D01*
X148273796Y-112049504D01*
X148270196Y-112073773D01*
X148264235Y-112097571D01*
X148255970Y-112120671D01*
X148245480Y-112142849D01*
X148232867Y-112163893D01*
X148218253Y-112183598D01*
X148201777Y-112201777D01*
X148183598Y-112218253D01*
X148163893Y-112232867D01*
X148142849Y-112245480D01*
X148120671Y-112255970D01*
X148097571Y-112264235D01*
X148073773Y-112270196D01*
X148049504Y-112273796D01*
X148025000Y-112275000D01*
X145875000Y-112275000D01*
X145850496Y-112273796D01*
X145826227Y-112270196D01*
X145802429Y-112264235D01*
X145779329Y-112255970D01*
X145757151Y-112245480D01*
X145736107Y-112232867D01*
X145716402Y-112218253D01*
X145698223Y-112201777D01*
X145681747Y-112183598D01*
X145667133Y-112163893D01*
X145654520Y-112142849D01*
X145644030Y-112120671D01*
X145635765Y-112097571D01*
X145629804Y-112073773D01*
X145626204Y-112049504D01*
X145625000Y-112025000D01*
X145625000Y-111100000D01*
X145626204Y-111075496D01*
X145629804Y-111051227D01*
X145635765Y-111027429D01*
X145644030Y-111004329D01*
X145654520Y-110982151D01*
X145667133Y-110961107D01*
X145681747Y-110941402D01*
X145698223Y-110923223D01*
X145716402Y-110906747D01*
X145736107Y-110892133D01*
X145757151Y-110879520D01*
X145779329Y-110869030D01*
X145802429Y-110860765D01*
X145826227Y-110854804D01*
X145850496Y-110851204D01*
X145875000Y-110850000D01*
X148025000Y-110850000D01*
X148049504Y-110851204D01*
G37*
G36*
X176249504Y-113826204D02*
G01*
X176273773Y-113829804D01*
X176297571Y-113835765D01*
X176320671Y-113844030D01*
X176342849Y-113854520D01*
X176363893Y-113867133D01*
X176383598Y-113881747D01*
X176401777Y-113898223D01*
X176418253Y-113916402D01*
X176432867Y-113936107D01*
X176445480Y-113957151D01*
X176455970Y-113979329D01*
X176464235Y-114002429D01*
X176470196Y-114026227D01*
X176473796Y-114050496D01*
X176475000Y-114075000D01*
X176475000Y-115000000D01*
X176473796Y-115024504D01*
X176470196Y-115048773D01*
X176464235Y-115072571D01*
X176455970Y-115095671D01*
X176445480Y-115117849D01*
X176432867Y-115138893D01*
X176418253Y-115158598D01*
X176401777Y-115176777D01*
X176383598Y-115193253D01*
X176363893Y-115207867D01*
X176342849Y-115220480D01*
X176320671Y-115230970D01*
X176297571Y-115239235D01*
X176273773Y-115245196D01*
X176249504Y-115248796D01*
X176225000Y-115250000D01*
X174075000Y-115250000D01*
X174050496Y-115248796D01*
X174026227Y-115245196D01*
X174002429Y-115239235D01*
X173979329Y-115230970D01*
X173957151Y-115220480D01*
X173936107Y-115207867D01*
X173916402Y-115193253D01*
X173898223Y-115176777D01*
X173881747Y-115158598D01*
X173867133Y-115138893D01*
X173854520Y-115117849D01*
X173844030Y-115095671D01*
X173835765Y-115072571D01*
X173829804Y-115048773D01*
X173826204Y-115024504D01*
X173825000Y-115000000D01*
X173825000Y-114075000D01*
X173826204Y-114050496D01*
X173829804Y-114026227D01*
X173835765Y-114002429D01*
X173844030Y-113979329D01*
X173854520Y-113957151D01*
X173867133Y-113936107D01*
X173881747Y-113916402D01*
X173898223Y-113898223D01*
X173916402Y-113881747D01*
X173936107Y-113867133D01*
X173957151Y-113854520D01*
X173979329Y-113844030D01*
X174002429Y-113835765D01*
X174026227Y-113829804D01*
X174050496Y-113826204D01*
X174075000Y-113825000D01*
X176225000Y-113825000D01*
X176249504Y-113826204D01*
G37*
G36*
X176249504Y-110851204D02*
G01*
X176273773Y-110854804D01*
X176297571Y-110860765D01*
X176320671Y-110869030D01*
X176342849Y-110879520D01*
X176363893Y-110892133D01*
X176383598Y-110906747D01*
X176401777Y-110923223D01*
X176418253Y-110941402D01*
X176432867Y-110961107D01*
X176445480Y-110982151D01*
X176455970Y-111004329D01*
X176464235Y-111027429D01*
X176470196Y-111051227D01*
X176473796Y-111075496D01*
X176475000Y-111100000D01*
X176475000Y-112025000D01*
X176473796Y-112049504D01*
X176470196Y-112073773D01*
X176464235Y-112097571D01*
X176455970Y-112120671D01*
X176445480Y-112142849D01*
X176432867Y-112163893D01*
X176418253Y-112183598D01*
X176401777Y-112201777D01*
X176383598Y-112218253D01*
X176363893Y-112232867D01*
X176342849Y-112245480D01*
X176320671Y-112255970D01*
X176297571Y-112264235D01*
X176273773Y-112270196D01*
X176249504Y-112273796D01*
X176225000Y-112275000D01*
X174075000Y-112275000D01*
X174050496Y-112273796D01*
X174026227Y-112270196D01*
X174002429Y-112264235D01*
X173979329Y-112255970D01*
X173957151Y-112245480D01*
X173936107Y-112232867D01*
X173916402Y-112218253D01*
X173898223Y-112201777D01*
X173881747Y-112183598D01*
X173867133Y-112163893D01*
X173854520Y-112142849D01*
X173844030Y-112120671D01*
X173835765Y-112097571D01*
X173829804Y-112073773D01*
X173826204Y-112049504D01*
X173825000Y-112025000D01*
X173825000Y-111100000D01*
X173826204Y-111075496D01*
X173829804Y-111051227D01*
X173835765Y-111027429D01*
X173844030Y-111004329D01*
X173854520Y-110982151D01*
X173867133Y-110961107D01*
X173881747Y-110941402D01*
X173898223Y-110923223D01*
X173916402Y-110906747D01*
X173936107Y-110892133D01*
X173957151Y-110879520D01*
X173979329Y-110869030D01*
X174002429Y-110860765D01*
X174026227Y-110854804D01*
X174050496Y-110851204D01*
X174075000Y-110850000D01*
X176225000Y-110850000D01*
X176249504Y-110851204D01*
G37*
G36*
X143049504Y-110851204D02*
G01*
X143073773Y-110854804D01*
X143097571Y-110860765D01*
X143120671Y-110869030D01*
X143142849Y-110879520D01*
X143163893Y-110892133D01*
X143183598Y-110906747D01*
X143201777Y-110923223D01*
X143218253Y-110941402D01*
X143232867Y-110961107D01*
X143245480Y-110982151D01*
X143255970Y-111004329D01*
X143264235Y-111027429D01*
X143270196Y-111051227D01*
X143273796Y-111075496D01*
X143275000Y-111100000D01*
X143275000Y-112025000D01*
X143273796Y-112049504D01*
X143270196Y-112073773D01*
X143264235Y-112097571D01*
X143255970Y-112120671D01*
X143245480Y-112142849D01*
X143232867Y-112163893D01*
X143218253Y-112183598D01*
X143201777Y-112201777D01*
X143183598Y-112218253D01*
X143163893Y-112232867D01*
X143142849Y-112245480D01*
X143120671Y-112255970D01*
X143097571Y-112264235D01*
X143073773Y-112270196D01*
X143049504Y-112273796D01*
X143025000Y-112275000D01*
X140875000Y-112275000D01*
X140850496Y-112273796D01*
X140826227Y-112270196D01*
X140802429Y-112264235D01*
X140779329Y-112255970D01*
X140757151Y-112245480D01*
X140736107Y-112232867D01*
X140716402Y-112218253D01*
X140698223Y-112201777D01*
X140681747Y-112183598D01*
X140667133Y-112163893D01*
X140654520Y-112142849D01*
X140644030Y-112120671D01*
X140635765Y-112097571D01*
X140629804Y-112073773D01*
X140626204Y-112049504D01*
X140625000Y-112025000D01*
X140625000Y-111100000D01*
X140626204Y-111075496D01*
X140629804Y-111051227D01*
X140635765Y-111027429D01*
X140644030Y-111004329D01*
X140654520Y-110982151D01*
X140667133Y-110961107D01*
X140681747Y-110941402D01*
X140698223Y-110923223D01*
X140716402Y-110906747D01*
X140736107Y-110892133D01*
X140757151Y-110879520D01*
X140779329Y-110869030D01*
X140802429Y-110860765D01*
X140826227Y-110854804D01*
X140850496Y-110851204D01*
X140875000Y-110850000D01*
X143025000Y-110850000D01*
X143049504Y-110851204D01*
G37*
G36*
X143049504Y-113826204D02*
G01*
X143073773Y-113829804D01*
X143097571Y-113835765D01*
X143120671Y-113844030D01*
X143142849Y-113854520D01*
X143163893Y-113867133D01*
X143183598Y-113881747D01*
X143201777Y-113898223D01*
X143218253Y-113916402D01*
X143232867Y-113936107D01*
X143245480Y-113957151D01*
X143255970Y-113979329D01*
X143264235Y-114002429D01*
X143270196Y-114026227D01*
X143273796Y-114050496D01*
X143275000Y-114075000D01*
X143275000Y-115000000D01*
X143273796Y-115024504D01*
X143270196Y-115048773D01*
X143264235Y-115072571D01*
X143255970Y-115095671D01*
X143245480Y-115117849D01*
X143232867Y-115138893D01*
X143218253Y-115158598D01*
X143201777Y-115176777D01*
X143183598Y-115193253D01*
X143163893Y-115207867D01*
X143142849Y-115220480D01*
X143120671Y-115230970D01*
X143097571Y-115239235D01*
X143073773Y-115245196D01*
X143049504Y-115248796D01*
X143025000Y-115250000D01*
X140875000Y-115250000D01*
X140850496Y-115248796D01*
X140826227Y-115245196D01*
X140802429Y-115239235D01*
X140779329Y-115230970D01*
X140757151Y-115220480D01*
X140736107Y-115207867D01*
X140716402Y-115193253D01*
X140698223Y-115176777D01*
X140681747Y-115158598D01*
X140667133Y-115138893D01*
X140654520Y-115117849D01*
X140644030Y-115095671D01*
X140635765Y-115072571D01*
X140629804Y-115048773D01*
X140626204Y-115024504D01*
X140625000Y-115000000D01*
X140625000Y-114075000D01*
X140626204Y-114050496D01*
X140629804Y-114026227D01*
X140635765Y-114002429D01*
X140644030Y-113979329D01*
X140654520Y-113957151D01*
X140667133Y-113936107D01*
X140681747Y-113916402D01*
X140698223Y-113898223D01*
X140716402Y-113881747D01*
X140736107Y-113867133D01*
X140757151Y-113854520D01*
X140779329Y-113844030D01*
X140802429Y-113835765D01*
X140826227Y-113829804D01*
X140850496Y-113826204D01*
X140875000Y-113825000D01*
X143025000Y-113825000D01*
X143049504Y-113826204D01*
G37*
G36*
X137849504Y-113826204D02*
G01*
X137873773Y-113829804D01*
X137897571Y-113835765D01*
X137920671Y-113844030D01*
X137942849Y-113854520D01*
X137963893Y-113867133D01*
X137983598Y-113881747D01*
X138001777Y-113898223D01*
X138018253Y-113916402D01*
X138032867Y-113936107D01*
X138045480Y-113957151D01*
X138055970Y-113979329D01*
X138064235Y-114002429D01*
X138070196Y-114026227D01*
X138073796Y-114050496D01*
X138075000Y-114075000D01*
X138075000Y-115000000D01*
X138073796Y-115024504D01*
X138070196Y-115048773D01*
X138064235Y-115072571D01*
X138055970Y-115095671D01*
X138045480Y-115117849D01*
X138032867Y-115138893D01*
X138018253Y-115158598D01*
X138001777Y-115176777D01*
X137983598Y-115193253D01*
X137963893Y-115207867D01*
X137942849Y-115220480D01*
X137920671Y-115230970D01*
X137897571Y-115239235D01*
X137873773Y-115245196D01*
X137849504Y-115248796D01*
X137825000Y-115250000D01*
X135675000Y-115250000D01*
X135650496Y-115248796D01*
X135626227Y-115245196D01*
X135602429Y-115239235D01*
X135579329Y-115230970D01*
X135557151Y-115220480D01*
X135536107Y-115207867D01*
X135516402Y-115193253D01*
X135498223Y-115176777D01*
X135481747Y-115158598D01*
X135467133Y-115138893D01*
X135454520Y-115117849D01*
X135444030Y-115095671D01*
X135435765Y-115072571D01*
X135429804Y-115048773D01*
X135426204Y-115024504D01*
X135425000Y-115000000D01*
X135425000Y-114075000D01*
X135426204Y-114050496D01*
X135429804Y-114026227D01*
X135435765Y-114002429D01*
X135444030Y-113979329D01*
X135454520Y-113957151D01*
X135467133Y-113936107D01*
X135481747Y-113916402D01*
X135498223Y-113898223D01*
X135516402Y-113881747D01*
X135536107Y-113867133D01*
X135557151Y-113854520D01*
X135579329Y-113844030D01*
X135602429Y-113835765D01*
X135626227Y-113829804D01*
X135650496Y-113826204D01*
X135675000Y-113825000D01*
X137825000Y-113825000D01*
X137849504Y-113826204D01*
G37*
G36*
X137849504Y-110851204D02*
G01*
X137873773Y-110854804D01*
X137897571Y-110860765D01*
X137920671Y-110869030D01*
X137942849Y-110879520D01*
X137963893Y-110892133D01*
X137983598Y-110906747D01*
X138001777Y-110923223D01*
X138018253Y-110941402D01*
X138032867Y-110961107D01*
X138045480Y-110982151D01*
X138055970Y-111004329D01*
X138064235Y-111027429D01*
X138070196Y-111051227D01*
X138073796Y-111075496D01*
X138075000Y-111100000D01*
X138075000Y-112025000D01*
X138073796Y-112049504D01*
X138070196Y-112073773D01*
X138064235Y-112097571D01*
X138055970Y-112120671D01*
X138045480Y-112142849D01*
X138032867Y-112163893D01*
X138018253Y-112183598D01*
X138001777Y-112201777D01*
X137983598Y-112218253D01*
X137963893Y-112232867D01*
X137942849Y-112245480D01*
X137920671Y-112255970D01*
X137897571Y-112264235D01*
X137873773Y-112270196D01*
X137849504Y-112273796D01*
X137825000Y-112275000D01*
X135675000Y-112275000D01*
X135650496Y-112273796D01*
X135626227Y-112270196D01*
X135602429Y-112264235D01*
X135579329Y-112255970D01*
X135557151Y-112245480D01*
X135536107Y-112232867D01*
X135516402Y-112218253D01*
X135498223Y-112201777D01*
X135481747Y-112183598D01*
X135467133Y-112163893D01*
X135454520Y-112142849D01*
X135444030Y-112120671D01*
X135435765Y-112097571D01*
X135429804Y-112073773D01*
X135426204Y-112049504D01*
X135425000Y-112025000D01*
X135425000Y-111100000D01*
X135426204Y-111075496D01*
X135429804Y-111051227D01*
X135435765Y-111027429D01*
X135444030Y-111004329D01*
X135454520Y-110982151D01*
X135467133Y-110961107D01*
X135481747Y-110941402D01*
X135498223Y-110923223D01*
X135516402Y-110906747D01*
X135536107Y-110892133D01*
X135557151Y-110879520D01*
X135579329Y-110869030D01*
X135602429Y-110860765D01*
X135626227Y-110854804D01*
X135650496Y-110851204D01*
X135675000Y-110850000D01*
X137825000Y-110850000D01*
X137849504Y-110851204D01*
G37*
G36*
X171249504Y-110851204D02*
G01*
X171273773Y-110854804D01*
X171297571Y-110860765D01*
X171320671Y-110869030D01*
X171342849Y-110879520D01*
X171363893Y-110892133D01*
X171383598Y-110906747D01*
X171401777Y-110923223D01*
X171418253Y-110941402D01*
X171432867Y-110961107D01*
X171445480Y-110982151D01*
X171455970Y-111004329D01*
X171464235Y-111027429D01*
X171470196Y-111051227D01*
X171473796Y-111075496D01*
X171475000Y-111100000D01*
X171475000Y-112025000D01*
X171473796Y-112049504D01*
X171470196Y-112073773D01*
X171464235Y-112097571D01*
X171455970Y-112120671D01*
X171445480Y-112142849D01*
X171432867Y-112163893D01*
X171418253Y-112183598D01*
X171401777Y-112201777D01*
X171383598Y-112218253D01*
X171363893Y-112232867D01*
X171342849Y-112245480D01*
X171320671Y-112255970D01*
X171297571Y-112264235D01*
X171273773Y-112270196D01*
X171249504Y-112273796D01*
X171225000Y-112275000D01*
X169075000Y-112275000D01*
X169050496Y-112273796D01*
X169026227Y-112270196D01*
X169002429Y-112264235D01*
X168979329Y-112255970D01*
X168957151Y-112245480D01*
X168936107Y-112232867D01*
X168916402Y-112218253D01*
X168898223Y-112201777D01*
X168881747Y-112183598D01*
X168867133Y-112163893D01*
X168854520Y-112142849D01*
X168844030Y-112120671D01*
X168835765Y-112097571D01*
X168829804Y-112073773D01*
X168826204Y-112049504D01*
X168825000Y-112025000D01*
X168825000Y-111100000D01*
X168826204Y-111075496D01*
X168829804Y-111051227D01*
X168835765Y-111027429D01*
X168844030Y-111004329D01*
X168854520Y-110982151D01*
X168867133Y-110961107D01*
X168881747Y-110941402D01*
X168898223Y-110923223D01*
X168916402Y-110906747D01*
X168936107Y-110892133D01*
X168957151Y-110879520D01*
X168979329Y-110869030D01*
X169002429Y-110860765D01*
X169026227Y-110854804D01*
X169050496Y-110851204D01*
X169075000Y-110850000D01*
X171225000Y-110850000D01*
X171249504Y-110851204D01*
G37*
G36*
X171249504Y-113826204D02*
G01*
X171273773Y-113829804D01*
X171297571Y-113835765D01*
X171320671Y-113844030D01*
X171342849Y-113854520D01*
X171363893Y-113867133D01*
X171383598Y-113881747D01*
X171401777Y-113898223D01*
X171418253Y-113916402D01*
X171432867Y-113936107D01*
X171445480Y-113957151D01*
X171455970Y-113979329D01*
X171464235Y-114002429D01*
X171470196Y-114026227D01*
X171473796Y-114050496D01*
X171475000Y-114075000D01*
X171475000Y-115000000D01*
X171473796Y-115024504D01*
X171470196Y-115048773D01*
X171464235Y-115072571D01*
X171455970Y-115095671D01*
X171445480Y-115117849D01*
X171432867Y-115138893D01*
X171418253Y-115158598D01*
X171401777Y-115176777D01*
X171383598Y-115193253D01*
X171363893Y-115207867D01*
X171342849Y-115220480D01*
X171320671Y-115230970D01*
X171297571Y-115239235D01*
X171273773Y-115245196D01*
X171249504Y-115248796D01*
X171225000Y-115250000D01*
X169075000Y-115250000D01*
X169050496Y-115248796D01*
X169026227Y-115245196D01*
X169002429Y-115239235D01*
X168979329Y-115230970D01*
X168957151Y-115220480D01*
X168936107Y-115207867D01*
X168916402Y-115193253D01*
X168898223Y-115176777D01*
X168881747Y-115158598D01*
X168867133Y-115138893D01*
X168854520Y-115117849D01*
X168844030Y-115095671D01*
X168835765Y-115072571D01*
X168829804Y-115048773D01*
X168826204Y-115024504D01*
X168825000Y-115000000D01*
X168825000Y-114075000D01*
X168826204Y-114050496D01*
X168829804Y-114026227D01*
X168835765Y-114002429D01*
X168844030Y-113979329D01*
X168854520Y-113957151D01*
X168867133Y-113936107D01*
X168881747Y-113916402D01*
X168898223Y-113898223D01*
X168916402Y-113881747D01*
X168936107Y-113867133D01*
X168957151Y-113854520D01*
X168979329Y-113844030D01*
X169002429Y-113835765D01*
X169026227Y-113829804D01*
X169050496Y-113826204D01*
X169075000Y-113825000D01*
X171225000Y-113825000D01*
X171249504Y-113826204D01*
G37*
G36*
X166049504Y-113826204D02*
G01*
X166073773Y-113829804D01*
X166097571Y-113835765D01*
X166120671Y-113844030D01*
X166142849Y-113854520D01*
X166163893Y-113867133D01*
X166183598Y-113881747D01*
X166201777Y-113898223D01*
X166218253Y-113916402D01*
X166232867Y-113936107D01*
X166245480Y-113957151D01*
X166255970Y-113979329D01*
X166264235Y-114002429D01*
X166270196Y-114026227D01*
X166273796Y-114050496D01*
X166275000Y-114075000D01*
X166275000Y-115000000D01*
X166273796Y-115024504D01*
X166270196Y-115048773D01*
X166264235Y-115072571D01*
X166255970Y-115095671D01*
X166245480Y-115117849D01*
X166232867Y-115138893D01*
X166218253Y-115158598D01*
X166201777Y-115176777D01*
X166183598Y-115193253D01*
X166163893Y-115207867D01*
X166142849Y-115220480D01*
X166120671Y-115230970D01*
X166097571Y-115239235D01*
X166073773Y-115245196D01*
X166049504Y-115248796D01*
X166025000Y-115250000D01*
X163875000Y-115250000D01*
X163850496Y-115248796D01*
X163826227Y-115245196D01*
X163802429Y-115239235D01*
X163779329Y-115230970D01*
X163757151Y-115220480D01*
X163736107Y-115207867D01*
X163716402Y-115193253D01*
X163698223Y-115176777D01*
X163681747Y-115158598D01*
X163667133Y-115138893D01*
X163654520Y-115117849D01*
X163644030Y-115095671D01*
X163635765Y-115072571D01*
X163629804Y-115048773D01*
X163626204Y-115024504D01*
X163625000Y-115000000D01*
X163625000Y-114075000D01*
X163626204Y-114050496D01*
X163629804Y-114026227D01*
X163635765Y-114002429D01*
X163644030Y-113979329D01*
X163654520Y-113957151D01*
X163667133Y-113936107D01*
X163681747Y-113916402D01*
X163698223Y-113898223D01*
X163716402Y-113881747D01*
X163736107Y-113867133D01*
X163757151Y-113854520D01*
X163779329Y-113844030D01*
X163802429Y-113835765D01*
X163826227Y-113829804D01*
X163850496Y-113826204D01*
X163875000Y-113825000D01*
X166025000Y-113825000D01*
X166049504Y-113826204D01*
G37*
G36*
X166049504Y-110851204D02*
G01*
X166073773Y-110854804D01*
X166097571Y-110860765D01*
X166120671Y-110869030D01*
X166142849Y-110879520D01*
X166163893Y-110892133D01*
X166183598Y-110906747D01*
X166201777Y-110923223D01*
X166218253Y-110941402D01*
X166232867Y-110961107D01*
X166245480Y-110982151D01*
X166255970Y-111004329D01*
X166264235Y-111027429D01*
X166270196Y-111051227D01*
X166273796Y-111075496D01*
X166275000Y-111100000D01*
X166275000Y-112025000D01*
X166273796Y-112049504D01*
X166270196Y-112073773D01*
X166264235Y-112097571D01*
X166255970Y-112120671D01*
X166245480Y-112142849D01*
X166232867Y-112163893D01*
X166218253Y-112183598D01*
X166201777Y-112201777D01*
X166183598Y-112218253D01*
X166163893Y-112232867D01*
X166142849Y-112245480D01*
X166120671Y-112255970D01*
X166097571Y-112264235D01*
X166073773Y-112270196D01*
X166049504Y-112273796D01*
X166025000Y-112275000D01*
X163875000Y-112275000D01*
X163850496Y-112273796D01*
X163826227Y-112270196D01*
X163802429Y-112264235D01*
X163779329Y-112255970D01*
X163757151Y-112245480D01*
X163736107Y-112232867D01*
X163716402Y-112218253D01*
X163698223Y-112201777D01*
X163681747Y-112183598D01*
X163667133Y-112163893D01*
X163654520Y-112142849D01*
X163644030Y-112120671D01*
X163635765Y-112097571D01*
X163629804Y-112073773D01*
X163626204Y-112049504D01*
X163625000Y-112025000D01*
X163625000Y-111100000D01*
X163626204Y-111075496D01*
X163629804Y-111051227D01*
X163635765Y-111027429D01*
X163644030Y-111004329D01*
X163654520Y-110982151D01*
X163667133Y-110961107D01*
X163681747Y-110941402D01*
X163698223Y-110923223D01*
X163716402Y-110906747D01*
X163736107Y-110892133D01*
X163757151Y-110879520D01*
X163779329Y-110869030D01*
X163802429Y-110860765D01*
X163826227Y-110854804D01*
X163850496Y-110851204D01*
X163875000Y-110850000D01*
X166025000Y-110850000D01*
X166049504Y-110851204D01*
G37*
G36*
X153049504Y-113826204D02*
G01*
X153073773Y-113829804D01*
X153097571Y-113835765D01*
X153120671Y-113844030D01*
X153142849Y-113854520D01*
X153163893Y-113867133D01*
X153183598Y-113881747D01*
X153201777Y-113898223D01*
X153218253Y-113916402D01*
X153232867Y-113936107D01*
X153245480Y-113957151D01*
X153255970Y-113979329D01*
X153264235Y-114002429D01*
X153270196Y-114026227D01*
X153273796Y-114050496D01*
X153275000Y-114075000D01*
X153275000Y-115000000D01*
X153273796Y-115024504D01*
X153270196Y-115048773D01*
X153264235Y-115072571D01*
X153255970Y-115095671D01*
X153245480Y-115117849D01*
X153232867Y-115138893D01*
X153218253Y-115158598D01*
X153201777Y-115176777D01*
X153183598Y-115193253D01*
X153163893Y-115207867D01*
X153142849Y-115220480D01*
X153120671Y-115230970D01*
X153097571Y-115239235D01*
X153073773Y-115245196D01*
X153049504Y-115248796D01*
X153025000Y-115250000D01*
X150875000Y-115250000D01*
X150850496Y-115248796D01*
X150826227Y-115245196D01*
X150802429Y-115239235D01*
X150779329Y-115230970D01*
X150757151Y-115220480D01*
X150736107Y-115207867D01*
X150716402Y-115193253D01*
X150698223Y-115176777D01*
X150681747Y-115158598D01*
X150667133Y-115138893D01*
X150654520Y-115117849D01*
X150644030Y-115095671D01*
X150635765Y-115072571D01*
X150629804Y-115048773D01*
X150626204Y-115024504D01*
X150625000Y-115000000D01*
X150625000Y-114075000D01*
X150626204Y-114050496D01*
X150629804Y-114026227D01*
X150635765Y-114002429D01*
X150644030Y-113979329D01*
X150654520Y-113957151D01*
X150667133Y-113936107D01*
X150681747Y-113916402D01*
X150698223Y-113898223D01*
X150716402Y-113881747D01*
X150736107Y-113867133D01*
X150757151Y-113854520D01*
X150779329Y-113844030D01*
X150802429Y-113835765D01*
X150826227Y-113829804D01*
X150850496Y-113826204D01*
X150875000Y-113825000D01*
X153025000Y-113825000D01*
X153049504Y-113826204D01*
G37*
G36*
X153049504Y-110851204D02*
G01*
X153073773Y-110854804D01*
X153097571Y-110860765D01*
X153120671Y-110869030D01*
X153142849Y-110879520D01*
X153163893Y-110892133D01*
X153183598Y-110906747D01*
X153201777Y-110923223D01*
X153218253Y-110941402D01*
X153232867Y-110961107D01*
X153245480Y-110982151D01*
X153255970Y-111004329D01*
X153264235Y-111027429D01*
X153270196Y-111051227D01*
X153273796Y-111075496D01*
X153275000Y-111100000D01*
X153275000Y-112025000D01*
X153273796Y-112049504D01*
X153270196Y-112073773D01*
X153264235Y-112097571D01*
X153255970Y-112120671D01*
X153245480Y-112142849D01*
X153232867Y-112163893D01*
X153218253Y-112183598D01*
X153201777Y-112201777D01*
X153183598Y-112218253D01*
X153163893Y-112232867D01*
X153142849Y-112245480D01*
X153120671Y-112255970D01*
X153097571Y-112264235D01*
X153073773Y-112270196D01*
X153049504Y-112273796D01*
X153025000Y-112275000D01*
X150875000Y-112275000D01*
X150850496Y-112273796D01*
X150826227Y-112270196D01*
X150802429Y-112264235D01*
X150779329Y-112255970D01*
X150757151Y-112245480D01*
X150736107Y-112232867D01*
X150716402Y-112218253D01*
X150698223Y-112201777D01*
X150681747Y-112183598D01*
X150667133Y-112163893D01*
X150654520Y-112142849D01*
X150644030Y-112120671D01*
X150635765Y-112097571D01*
X150629804Y-112073773D01*
X150626204Y-112049504D01*
X150625000Y-112025000D01*
X150625000Y-111100000D01*
X150626204Y-111075496D01*
X150629804Y-111051227D01*
X150635765Y-111027429D01*
X150644030Y-111004329D01*
X150654520Y-110982151D01*
X150667133Y-110961107D01*
X150681747Y-110941402D01*
X150698223Y-110923223D01*
X150716402Y-110906747D01*
X150736107Y-110892133D01*
X150757151Y-110879520D01*
X150779329Y-110869030D01*
X150802429Y-110860765D01*
X150826227Y-110854804D01*
X150850496Y-110851204D01*
X150875000Y-110850000D01*
X153025000Y-110850000D01*
X153049504Y-110851204D01*
G37*
G36*
X181249504Y-113826204D02*
G01*
X181273773Y-113829804D01*
X181297571Y-113835765D01*
X181320671Y-113844030D01*
X181342849Y-113854520D01*
X181363893Y-113867133D01*
X181383598Y-113881747D01*
X181401777Y-113898223D01*
X181418253Y-113916402D01*
X181432867Y-113936107D01*
X181445480Y-113957151D01*
X181455970Y-113979329D01*
X181464235Y-114002429D01*
X181470196Y-114026227D01*
X181473796Y-114050496D01*
X181475000Y-114075000D01*
X181475000Y-115000000D01*
X181473796Y-115024504D01*
X181470196Y-115048773D01*
X181464235Y-115072571D01*
X181455970Y-115095671D01*
X181445480Y-115117849D01*
X181432867Y-115138893D01*
X181418253Y-115158598D01*
X181401777Y-115176777D01*
X181383598Y-115193253D01*
X181363893Y-115207867D01*
X181342849Y-115220480D01*
X181320671Y-115230970D01*
X181297571Y-115239235D01*
X181273773Y-115245196D01*
X181249504Y-115248796D01*
X181225000Y-115250000D01*
X179075000Y-115250000D01*
X179050496Y-115248796D01*
X179026227Y-115245196D01*
X179002429Y-115239235D01*
X178979329Y-115230970D01*
X178957151Y-115220480D01*
X178936107Y-115207867D01*
X178916402Y-115193253D01*
X178898223Y-115176777D01*
X178881747Y-115158598D01*
X178867133Y-115138893D01*
X178854520Y-115117849D01*
X178844030Y-115095671D01*
X178835765Y-115072571D01*
X178829804Y-115048773D01*
X178826204Y-115024504D01*
X178825000Y-115000000D01*
X178825000Y-114075000D01*
X178826204Y-114050496D01*
X178829804Y-114026227D01*
X178835765Y-114002429D01*
X178844030Y-113979329D01*
X178854520Y-113957151D01*
X178867133Y-113936107D01*
X178881747Y-113916402D01*
X178898223Y-113898223D01*
X178916402Y-113881747D01*
X178936107Y-113867133D01*
X178957151Y-113854520D01*
X178979329Y-113844030D01*
X179002429Y-113835765D01*
X179026227Y-113829804D01*
X179050496Y-113826204D01*
X179075000Y-113825000D01*
X181225000Y-113825000D01*
X181249504Y-113826204D01*
G37*
G36*
X181249504Y-110851204D02*
G01*
X181273773Y-110854804D01*
X181297571Y-110860765D01*
X181320671Y-110869030D01*
X181342849Y-110879520D01*
X181363893Y-110892133D01*
X181383598Y-110906747D01*
X181401777Y-110923223D01*
X181418253Y-110941402D01*
X181432867Y-110961107D01*
X181445480Y-110982151D01*
X181455970Y-111004329D01*
X181464235Y-111027429D01*
X181470196Y-111051227D01*
X181473796Y-111075496D01*
X181475000Y-111100000D01*
X181475000Y-112025000D01*
X181473796Y-112049504D01*
X181470196Y-112073773D01*
X181464235Y-112097571D01*
X181455970Y-112120671D01*
X181445480Y-112142849D01*
X181432867Y-112163893D01*
X181418253Y-112183598D01*
X181401777Y-112201777D01*
X181383598Y-112218253D01*
X181363893Y-112232867D01*
X181342849Y-112245480D01*
X181320671Y-112255970D01*
X181297571Y-112264235D01*
X181273773Y-112270196D01*
X181249504Y-112273796D01*
X181225000Y-112275000D01*
X179075000Y-112275000D01*
X179050496Y-112273796D01*
X179026227Y-112270196D01*
X179002429Y-112264235D01*
X178979329Y-112255970D01*
X178957151Y-112245480D01*
X178936107Y-112232867D01*
X178916402Y-112218253D01*
X178898223Y-112201777D01*
X178881747Y-112183598D01*
X178867133Y-112163893D01*
X178854520Y-112142849D01*
X178844030Y-112120671D01*
X178835765Y-112097571D01*
X178829804Y-112073773D01*
X178826204Y-112049504D01*
X178825000Y-112025000D01*
X178825000Y-111100000D01*
X178826204Y-111075496D01*
X178829804Y-111051227D01*
X178835765Y-111027429D01*
X178844030Y-111004329D01*
X178854520Y-110982151D01*
X178867133Y-110961107D01*
X178881747Y-110941402D01*
X178898223Y-110923223D01*
X178916402Y-110906747D01*
X178936107Y-110892133D01*
X178957151Y-110879520D01*
X178979329Y-110869030D01*
X179002429Y-110860765D01*
X179026227Y-110854804D01*
X179050496Y-110851204D01*
X179075000Y-110850000D01*
X181225000Y-110850000D01*
X181249504Y-110851204D01*
G37*
D18*
X92100000Y-142080000D03*
X92100000Y-139540000D03*
D19*
X92100000Y-137000000D03*
D18*
X92100000Y-132380000D03*
X92100000Y-129840000D03*
D19*
X92100000Y-127300000D03*
D12*
G36*
X114399504Y-135801204D02*
G01*
X114423773Y-135804804D01*
X114447571Y-135810765D01*
X114470671Y-135819030D01*
X114492849Y-135829520D01*
X114513893Y-135842133D01*
X114533598Y-135856747D01*
X114551777Y-135873223D01*
X114568253Y-135891402D01*
X114582867Y-135911107D01*
X114595480Y-135932151D01*
X114605970Y-135954329D01*
X114614235Y-135977429D01*
X114620196Y-136001227D01*
X114623796Y-136025496D01*
X114625000Y-136050000D01*
X114625000Y-136975000D01*
X114623796Y-136999504D01*
X114620196Y-137023773D01*
X114614235Y-137047571D01*
X114605970Y-137070671D01*
X114595480Y-137092849D01*
X114582867Y-137113893D01*
X114568253Y-137133598D01*
X114551777Y-137151777D01*
X114533598Y-137168253D01*
X114513893Y-137182867D01*
X114492849Y-137195480D01*
X114470671Y-137205970D01*
X114447571Y-137214235D01*
X114423773Y-137220196D01*
X114399504Y-137223796D01*
X114375000Y-137225000D01*
X112225000Y-137225000D01*
X112200496Y-137223796D01*
X112176227Y-137220196D01*
X112152429Y-137214235D01*
X112129329Y-137205970D01*
X112107151Y-137195480D01*
X112086107Y-137182867D01*
X112066402Y-137168253D01*
X112048223Y-137151777D01*
X112031747Y-137133598D01*
X112017133Y-137113893D01*
X112004520Y-137092849D01*
X111994030Y-137070671D01*
X111985765Y-137047571D01*
X111979804Y-137023773D01*
X111976204Y-136999504D01*
X111975000Y-136975000D01*
X111975000Y-136050000D01*
X111976204Y-136025496D01*
X111979804Y-136001227D01*
X111985765Y-135977429D01*
X111994030Y-135954329D01*
X112004520Y-135932151D01*
X112017133Y-135911107D01*
X112031747Y-135891402D01*
X112048223Y-135873223D01*
X112066402Y-135856747D01*
X112086107Y-135842133D01*
X112107151Y-135829520D01*
X112129329Y-135819030D01*
X112152429Y-135810765D01*
X112176227Y-135804804D01*
X112200496Y-135801204D01*
X112225000Y-135800000D01*
X114375000Y-135800000D01*
X114399504Y-135801204D01*
G37*
G36*
X114399504Y-138776204D02*
G01*
X114423773Y-138779804D01*
X114447571Y-138785765D01*
X114470671Y-138794030D01*
X114492849Y-138804520D01*
X114513893Y-138817133D01*
X114533598Y-138831747D01*
X114551777Y-138848223D01*
X114568253Y-138866402D01*
X114582867Y-138886107D01*
X114595480Y-138907151D01*
X114605970Y-138929329D01*
X114614235Y-138952429D01*
X114620196Y-138976227D01*
X114623796Y-139000496D01*
X114625000Y-139025000D01*
X114625000Y-139950000D01*
X114623796Y-139974504D01*
X114620196Y-139998773D01*
X114614235Y-140022571D01*
X114605970Y-140045671D01*
X114595480Y-140067849D01*
X114582867Y-140088893D01*
X114568253Y-140108598D01*
X114551777Y-140126777D01*
X114533598Y-140143253D01*
X114513893Y-140157867D01*
X114492849Y-140170480D01*
X114470671Y-140180970D01*
X114447571Y-140189235D01*
X114423773Y-140195196D01*
X114399504Y-140198796D01*
X114375000Y-140200000D01*
X112225000Y-140200000D01*
X112200496Y-140198796D01*
X112176227Y-140195196D01*
X112152429Y-140189235D01*
X112129329Y-140180970D01*
X112107151Y-140170480D01*
X112086107Y-140157867D01*
X112066402Y-140143253D01*
X112048223Y-140126777D01*
X112031747Y-140108598D01*
X112017133Y-140088893D01*
X112004520Y-140067849D01*
X111994030Y-140045671D01*
X111985765Y-140022571D01*
X111979804Y-139998773D01*
X111976204Y-139974504D01*
X111975000Y-139950000D01*
X111975000Y-139025000D01*
X111976204Y-139000496D01*
X111979804Y-138976227D01*
X111985765Y-138952429D01*
X111994030Y-138929329D01*
X112004520Y-138907151D01*
X112017133Y-138886107D01*
X112031747Y-138866402D01*
X112048223Y-138848223D01*
X112066402Y-138831747D01*
X112086107Y-138817133D01*
X112107151Y-138804520D01*
X112129329Y-138794030D01*
X112152429Y-138785765D01*
X112176227Y-138779804D01*
X112200496Y-138776204D01*
X112225000Y-138775000D01*
X114375000Y-138775000D01*
X114399504Y-138776204D01*
G37*
G36*
X109299504Y-135801204D02*
G01*
X109323773Y-135804804D01*
X109347571Y-135810765D01*
X109370671Y-135819030D01*
X109392849Y-135829520D01*
X109413893Y-135842133D01*
X109433598Y-135856747D01*
X109451777Y-135873223D01*
X109468253Y-135891402D01*
X109482867Y-135911107D01*
X109495480Y-135932151D01*
X109505970Y-135954329D01*
X109514235Y-135977429D01*
X109520196Y-136001227D01*
X109523796Y-136025496D01*
X109525000Y-136050000D01*
X109525000Y-136975000D01*
X109523796Y-136999504D01*
X109520196Y-137023773D01*
X109514235Y-137047571D01*
X109505970Y-137070671D01*
X109495480Y-137092849D01*
X109482867Y-137113893D01*
X109468253Y-137133598D01*
X109451777Y-137151777D01*
X109433598Y-137168253D01*
X109413893Y-137182867D01*
X109392849Y-137195480D01*
X109370671Y-137205970D01*
X109347571Y-137214235D01*
X109323773Y-137220196D01*
X109299504Y-137223796D01*
X109275000Y-137225000D01*
X107125000Y-137225000D01*
X107100496Y-137223796D01*
X107076227Y-137220196D01*
X107052429Y-137214235D01*
X107029329Y-137205970D01*
X107007151Y-137195480D01*
X106986107Y-137182867D01*
X106966402Y-137168253D01*
X106948223Y-137151777D01*
X106931747Y-137133598D01*
X106917133Y-137113893D01*
X106904520Y-137092849D01*
X106894030Y-137070671D01*
X106885765Y-137047571D01*
X106879804Y-137023773D01*
X106876204Y-136999504D01*
X106875000Y-136975000D01*
X106875000Y-136050000D01*
X106876204Y-136025496D01*
X106879804Y-136001227D01*
X106885765Y-135977429D01*
X106894030Y-135954329D01*
X106904520Y-135932151D01*
X106917133Y-135911107D01*
X106931747Y-135891402D01*
X106948223Y-135873223D01*
X106966402Y-135856747D01*
X106986107Y-135842133D01*
X107007151Y-135829520D01*
X107029329Y-135819030D01*
X107052429Y-135810765D01*
X107076227Y-135804804D01*
X107100496Y-135801204D01*
X107125000Y-135800000D01*
X109275000Y-135800000D01*
X109299504Y-135801204D01*
G37*
G36*
X109299504Y-138776204D02*
G01*
X109323773Y-138779804D01*
X109347571Y-138785765D01*
X109370671Y-138794030D01*
X109392849Y-138804520D01*
X109413893Y-138817133D01*
X109433598Y-138831747D01*
X109451777Y-138848223D01*
X109468253Y-138866402D01*
X109482867Y-138886107D01*
X109495480Y-138907151D01*
X109505970Y-138929329D01*
X109514235Y-138952429D01*
X109520196Y-138976227D01*
X109523796Y-139000496D01*
X109525000Y-139025000D01*
X109525000Y-139950000D01*
X109523796Y-139974504D01*
X109520196Y-139998773D01*
X109514235Y-140022571D01*
X109505970Y-140045671D01*
X109495480Y-140067849D01*
X109482867Y-140088893D01*
X109468253Y-140108598D01*
X109451777Y-140126777D01*
X109433598Y-140143253D01*
X109413893Y-140157867D01*
X109392849Y-140170480D01*
X109370671Y-140180970D01*
X109347571Y-140189235D01*
X109323773Y-140195196D01*
X109299504Y-140198796D01*
X109275000Y-140200000D01*
X107125000Y-140200000D01*
X107100496Y-140198796D01*
X107076227Y-140195196D01*
X107052429Y-140189235D01*
X107029329Y-140180970D01*
X107007151Y-140170480D01*
X106986107Y-140157867D01*
X106966402Y-140143253D01*
X106948223Y-140126777D01*
X106931747Y-140108598D01*
X106917133Y-140088893D01*
X106904520Y-140067849D01*
X106894030Y-140045671D01*
X106885765Y-140022571D01*
X106879804Y-139998773D01*
X106876204Y-139974504D01*
X106875000Y-139950000D01*
X106875000Y-139025000D01*
X106876204Y-139000496D01*
X106879804Y-138976227D01*
X106885765Y-138952429D01*
X106894030Y-138929329D01*
X106904520Y-138907151D01*
X106917133Y-138886107D01*
X106931747Y-138866402D01*
X106948223Y-138848223D01*
X106966402Y-138831747D01*
X106986107Y-138817133D01*
X107007151Y-138804520D01*
X107029329Y-138794030D01*
X107052429Y-138785765D01*
X107076227Y-138779804D01*
X107100496Y-138776204D01*
X107125000Y-138775000D01*
X109275000Y-138775000D01*
X109299504Y-138776204D01*
G37*
G36*
X104199504Y-135801204D02*
G01*
X104223773Y-135804804D01*
X104247571Y-135810765D01*
X104270671Y-135819030D01*
X104292849Y-135829520D01*
X104313893Y-135842133D01*
X104333598Y-135856747D01*
X104351777Y-135873223D01*
X104368253Y-135891402D01*
X104382867Y-135911107D01*
X104395480Y-135932151D01*
X104405970Y-135954329D01*
X104414235Y-135977429D01*
X104420196Y-136001227D01*
X104423796Y-136025496D01*
X104425000Y-136050000D01*
X104425000Y-136975000D01*
X104423796Y-136999504D01*
X104420196Y-137023773D01*
X104414235Y-137047571D01*
X104405970Y-137070671D01*
X104395480Y-137092849D01*
X104382867Y-137113893D01*
X104368253Y-137133598D01*
X104351777Y-137151777D01*
X104333598Y-137168253D01*
X104313893Y-137182867D01*
X104292849Y-137195480D01*
X104270671Y-137205970D01*
X104247571Y-137214235D01*
X104223773Y-137220196D01*
X104199504Y-137223796D01*
X104175000Y-137225000D01*
X102025000Y-137225000D01*
X102000496Y-137223796D01*
X101976227Y-137220196D01*
X101952429Y-137214235D01*
X101929329Y-137205970D01*
X101907151Y-137195480D01*
X101886107Y-137182867D01*
X101866402Y-137168253D01*
X101848223Y-137151777D01*
X101831747Y-137133598D01*
X101817133Y-137113893D01*
X101804520Y-137092849D01*
X101794030Y-137070671D01*
X101785765Y-137047571D01*
X101779804Y-137023773D01*
X101776204Y-136999504D01*
X101775000Y-136975000D01*
X101775000Y-136050000D01*
X101776204Y-136025496D01*
X101779804Y-136001227D01*
X101785765Y-135977429D01*
X101794030Y-135954329D01*
X101804520Y-135932151D01*
X101817133Y-135911107D01*
X101831747Y-135891402D01*
X101848223Y-135873223D01*
X101866402Y-135856747D01*
X101886107Y-135842133D01*
X101907151Y-135829520D01*
X101929329Y-135819030D01*
X101952429Y-135810765D01*
X101976227Y-135804804D01*
X102000496Y-135801204D01*
X102025000Y-135800000D01*
X104175000Y-135800000D01*
X104199504Y-135801204D01*
G37*
G36*
X104199504Y-138776204D02*
G01*
X104223773Y-138779804D01*
X104247571Y-138785765D01*
X104270671Y-138794030D01*
X104292849Y-138804520D01*
X104313893Y-138817133D01*
X104333598Y-138831747D01*
X104351777Y-138848223D01*
X104368253Y-138866402D01*
X104382867Y-138886107D01*
X104395480Y-138907151D01*
X104405970Y-138929329D01*
X104414235Y-138952429D01*
X104420196Y-138976227D01*
X104423796Y-139000496D01*
X104425000Y-139025000D01*
X104425000Y-139950000D01*
X104423796Y-139974504D01*
X104420196Y-139998773D01*
X104414235Y-140022571D01*
X104405970Y-140045671D01*
X104395480Y-140067849D01*
X104382867Y-140088893D01*
X104368253Y-140108598D01*
X104351777Y-140126777D01*
X104333598Y-140143253D01*
X104313893Y-140157867D01*
X104292849Y-140170480D01*
X104270671Y-140180970D01*
X104247571Y-140189235D01*
X104223773Y-140195196D01*
X104199504Y-140198796D01*
X104175000Y-140200000D01*
X102025000Y-140200000D01*
X102000496Y-140198796D01*
X101976227Y-140195196D01*
X101952429Y-140189235D01*
X101929329Y-140180970D01*
X101907151Y-140170480D01*
X101886107Y-140157867D01*
X101866402Y-140143253D01*
X101848223Y-140126777D01*
X101831747Y-140108598D01*
X101817133Y-140088893D01*
X101804520Y-140067849D01*
X101794030Y-140045671D01*
X101785765Y-140022571D01*
X101779804Y-139998773D01*
X101776204Y-139974504D01*
X101775000Y-139950000D01*
X101775000Y-139025000D01*
X101776204Y-139000496D01*
X101779804Y-138976227D01*
X101785765Y-138952429D01*
X101794030Y-138929329D01*
X101804520Y-138907151D01*
X101817133Y-138886107D01*
X101831747Y-138866402D01*
X101848223Y-138848223D01*
X101866402Y-138831747D01*
X101886107Y-138817133D01*
X101907151Y-138804520D01*
X101929329Y-138794030D01*
X101952429Y-138785765D01*
X101976227Y-138779804D01*
X102000496Y-138776204D01*
X102025000Y-138775000D01*
X104175000Y-138775000D01*
X104199504Y-138776204D01*
G37*
D24*
X106600000Y-97550000D03*
D25*
X110600000Y-96400000D03*
D24*
X106600000Y-95250000D03*
D22*
X121800000Y-111000000D03*
D23*
X124300000Y-111000000D03*
D16*
X185575000Y-61010000D03*
X185575000Y-55930000D03*
D17*
X185575000Y-50850000D03*
D14*
X119000000Y-66250000D03*
X119000000Y-63710000D03*
X119000000Y-61170000D03*
X119000000Y-58630000D03*
X119000000Y-56090000D03*
D15*
X119000000Y-53550000D03*
D14*
X119000000Y-46910000D03*
X119000000Y-44370000D03*
X119000000Y-41830000D03*
X119000000Y-39290000D03*
D15*
X119000000Y-36750000D03*
D14*
X92000000Y-39795000D03*
X92000000Y-37255000D03*
X92000000Y-34715000D03*
D15*
X92000000Y-32175000D03*
D14*
X121200000Y-91580000D03*
X121200000Y-89040000D03*
D15*
X121200000Y-86500000D03*
D16*
X130500000Y-93980000D03*
D17*
X130500000Y-88900000D03*
D16*
X130500000Y-83780000D03*
D17*
X130500000Y-78700000D03*
D16*
X103180000Y-147700000D03*
X108260000Y-147700000D03*
D17*
X123500000Y-147700000D03*
D16*
X113340000Y-147700000D03*
X118420000Y-147700000D03*
D26*
X139046000Y-133976000D03*
X140746000Y-137676000D03*
X142446000Y-133976000D03*
X144146000Y-137676000D03*
D27*
X145846000Y-133976000D03*
D26*
X167600000Y-134000000D03*
X169300000Y-137700000D03*
X171000000Y-134000000D03*
X172700000Y-137700000D03*
D27*
X174400000Y-134000000D03*
D24*
X98100000Y-97650000D03*
D25*
X102100000Y-96500000D03*
D24*
X98100000Y-95350000D03*
D22*
X148150000Y-121350000D03*
X148150000Y-126350000D03*
X176350000Y-121300000D03*
X176350000Y-126300000D03*
D28*
X149750000Y-102300000D03*
D25*
X154750000Y-102300000D03*
D28*
X175150000Y-102300000D03*
D25*
X180150000Y-102300000D03*
D28*
X136150000Y-121450000D03*
D25*
X136150000Y-126450000D03*
D22*
X144350000Y-126350000D03*
X144350000Y-121350000D03*
D28*
X164950000Y-121300000D03*
D25*
X164950000Y-126300000D03*
D22*
X172550000Y-126250000D03*
X172550000Y-121250000D03*
D28*
X137150000Y-102500000D03*
D25*
X142150000Y-102500000D03*
D22*
X151950000Y-126350000D03*
X151950000Y-121350000D03*
D28*
X162350000Y-102300000D03*
D25*
X167350000Y-102300000D03*
D22*
X180150000Y-126275000D03*
X180150000Y-121275000D03*
X109100000Y-110947200D03*
D23*
X106600000Y-110947200D03*
D22*
X116700000Y-111000000D03*
D23*
X114200000Y-111000000D03*
D22*
X101500000Y-110947200D03*
D23*
X99000000Y-110947200D03*
D14*
X34235000Y-104135000D03*
X36775000Y-104135000D03*
X34235000Y-101595000D03*
X36775000Y-101595000D03*
X34235000Y-99055000D03*
X36775000Y-99055000D03*
X34235000Y-96515000D03*
X36775000Y-96515000D03*
X34235000Y-93975000D03*
X36775000Y-93975000D03*
X34235000Y-91435000D03*
X36775000Y-91435000D03*
X34235000Y-88895000D03*
X36775000Y-88895000D03*
X34235000Y-86355000D03*
X36775000Y-86355000D03*
X34235000Y-83815000D03*
X36775000Y-83815000D03*
X34235000Y-81275000D03*
X36775000Y-81275000D03*
X34235000Y-78735000D03*
X36775000Y-78735000D03*
X34235000Y-76195000D03*
X36775000Y-76195000D03*
X34235000Y-73655000D03*
X36775000Y-73655000D03*
X34235000Y-71115000D03*
X36775000Y-71115000D03*
X34235000Y-68575000D03*
X36775000Y-68575000D03*
X34235000Y-66035000D03*
X36775000Y-66035000D03*
X34235000Y-63495000D03*
X36775000Y-63495000D03*
X34235000Y-60955000D03*
X36775000Y-60955000D03*
X34235000Y-58415000D03*
X36775000Y-58415000D03*
X34235000Y-55875000D03*
D15*
X36775000Y-55875000D03*
M02*
