G04 #@! TF.GenerationSoftware,KiCad,Pcbnew,5.1.5+dfsg1-2build2*
G04 #@! TF.CreationDate,2020-11-12T16:29:49+01:00*
G04 #@! TF.ProjectId,motherboard,6d6f7468-6572-4626-9f61-72642e6b6963,v0.3*
G04 #@! TF.SameCoordinates,Original*
G04 #@! TF.FileFunction,Legend,Bot*
G04 #@! TF.FilePolarity,Positive*
%FSLAX46Y46*%
G04 Gerber Fmt 4.6, Leading zero omitted, Abs format (unit mm)*
G04 Created by KiCad (PCBNEW 5.1.5+dfsg1-2build2) date 2020-11-12 16:29:49*
%MOMM*%
%LPD*%
G04 APERTURE LIST*
%ADD10C,0.120000*%
%ADD11C,0.150000*%
G04 APERTURE END LIST*
D10*
X60235000Y-105097936D02*
X60235000Y-106302064D01*
X57515000Y-105097936D02*
X57515000Y-106302064D01*
X48485000Y-105110436D02*
X48485000Y-106314564D01*
X45765000Y-105110436D02*
X45765000Y-106314564D01*
X56260000Y-105097936D02*
X56260000Y-106302064D01*
X53540000Y-105097936D02*
X53540000Y-106302064D01*
X52410000Y-105097936D02*
X52410000Y-106302064D01*
X49690000Y-105097936D02*
X49690000Y-106302064D01*
X30460000Y-84397936D02*
X30460000Y-85602064D01*
X27740000Y-84397936D02*
X27740000Y-85602064D01*
X30510000Y-77597936D02*
X30510000Y-78802064D01*
X27790000Y-77597936D02*
X27790000Y-78802064D01*
X30435000Y-91172936D02*
X30435000Y-92377064D01*
X27715000Y-91172936D02*
X27715000Y-92377064D01*
X30510000Y-70697936D02*
X30510000Y-71902064D01*
X27790000Y-70697936D02*
X27790000Y-71902064D01*
X114660000Y-137397936D02*
X114660000Y-138602064D01*
X111940000Y-137397936D02*
X111940000Y-138602064D01*
X109560000Y-137397936D02*
X109560000Y-138602064D01*
X106840000Y-137397936D02*
X106840000Y-138602064D01*
X104460000Y-137397936D02*
X104460000Y-138602064D01*
X101740000Y-137397936D02*
X101740000Y-138602064D01*
D11*
X59492857Y-102802380D02*
X59826190Y-102326190D01*
X60064285Y-102802380D02*
X60064285Y-101802380D01*
X59683333Y-101802380D01*
X59588095Y-101850000D01*
X59540476Y-101897619D01*
X59492857Y-101992857D01*
X59492857Y-102135714D01*
X59540476Y-102230952D01*
X59588095Y-102278571D01*
X59683333Y-102326190D01*
X60064285Y-102326190D01*
X59111904Y-101897619D02*
X59064285Y-101850000D01*
X58969047Y-101802380D01*
X58730952Y-101802380D01*
X58635714Y-101850000D01*
X58588095Y-101897619D01*
X58540476Y-101992857D01*
X58540476Y-102088095D01*
X58588095Y-102230952D01*
X59159523Y-102802380D01*
X58540476Y-102802380D01*
X58159523Y-101897619D02*
X58111904Y-101850000D01*
X58016666Y-101802380D01*
X57778571Y-101802380D01*
X57683333Y-101850000D01*
X57635714Y-101897619D01*
X57588095Y-101992857D01*
X57588095Y-102088095D01*
X57635714Y-102230952D01*
X58207142Y-102802380D01*
X57588095Y-102802380D01*
X47792857Y-102789880D02*
X48126190Y-102313690D01*
X48364285Y-102789880D02*
X48364285Y-101789880D01*
X47983333Y-101789880D01*
X47888095Y-101837500D01*
X47840476Y-101885119D01*
X47792857Y-101980357D01*
X47792857Y-102123214D01*
X47840476Y-102218452D01*
X47888095Y-102266071D01*
X47983333Y-102313690D01*
X48364285Y-102313690D01*
X46840476Y-102789880D02*
X47411904Y-102789880D01*
X47126190Y-102789880D02*
X47126190Y-101789880D01*
X47221428Y-101932738D01*
X47316666Y-102027976D01*
X47411904Y-102075595D01*
X46364285Y-102789880D02*
X46173809Y-102789880D01*
X46078571Y-102742261D01*
X46030952Y-102694642D01*
X45935714Y-102551785D01*
X45888095Y-102361309D01*
X45888095Y-101980357D01*
X45935714Y-101885119D01*
X45983333Y-101837500D01*
X46078571Y-101789880D01*
X46269047Y-101789880D01*
X46364285Y-101837500D01*
X46411904Y-101885119D01*
X46459523Y-101980357D01*
X46459523Y-102218452D01*
X46411904Y-102313690D01*
X46364285Y-102361309D01*
X46269047Y-102408928D01*
X46078571Y-102408928D01*
X45983333Y-102361309D01*
X45935714Y-102313690D01*
X45888095Y-102218452D01*
X55542857Y-102827380D02*
X55876190Y-102351190D01*
X56114285Y-102827380D02*
X56114285Y-101827380D01*
X55733333Y-101827380D01*
X55638095Y-101875000D01*
X55590476Y-101922619D01*
X55542857Y-102017857D01*
X55542857Y-102160714D01*
X55590476Y-102255952D01*
X55638095Y-102303571D01*
X55733333Y-102351190D01*
X56114285Y-102351190D01*
X54590476Y-102827380D02*
X55161904Y-102827380D01*
X54876190Y-102827380D02*
X54876190Y-101827380D01*
X54971428Y-101970238D01*
X55066666Y-102065476D01*
X55161904Y-102113095D01*
X53733333Y-101827380D02*
X53923809Y-101827380D01*
X54019047Y-101875000D01*
X54066666Y-101922619D01*
X54161904Y-102065476D01*
X54209523Y-102255952D01*
X54209523Y-102636904D01*
X54161904Y-102732142D01*
X54114285Y-102779761D01*
X54019047Y-102827380D01*
X53828571Y-102827380D01*
X53733333Y-102779761D01*
X53685714Y-102732142D01*
X53638095Y-102636904D01*
X53638095Y-102398809D01*
X53685714Y-102303571D01*
X53733333Y-102255952D01*
X53828571Y-102208333D01*
X54019047Y-102208333D01*
X54114285Y-102255952D01*
X54161904Y-102303571D01*
X54209523Y-102398809D01*
X51191666Y-102752380D02*
X51525000Y-102276190D01*
X51763095Y-102752380D02*
X51763095Y-101752380D01*
X51382142Y-101752380D01*
X51286904Y-101800000D01*
X51239285Y-101847619D01*
X51191666Y-101942857D01*
X51191666Y-102085714D01*
X51239285Y-102180952D01*
X51286904Y-102228571D01*
X51382142Y-102276190D01*
X51763095Y-102276190D01*
X50334523Y-101752380D02*
X50525000Y-101752380D01*
X50620238Y-101800000D01*
X50667857Y-101847619D01*
X50763095Y-101990476D01*
X50810714Y-102180952D01*
X50810714Y-102561904D01*
X50763095Y-102657142D01*
X50715476Y-102704761D01*
X50620238Y-102752380D01*
X50429761Y-102752380D01*
X50334523Y-102704761D01*
X50286904Y-102657142D01*
X50239285Y-102561904D01*
X50239285Y-102323809D01*
X50286904Y-102228571D01*
X50334523Y-102180952D01*
X50429761Y-102133333D01*
X50620238Y-102133333D01*
X50715476Y-102180952D01*
X50763095Y-102228571D01*
X50810714Y-102323809D01*
X29742857Y-88802380D02*
X30076190Y-88326190D01*
X30314285Y-88802380D02*
X30314285Y-87802380D01*
X29933333Y-87802380D01*
X29838095Y-87850000D01*
X29790476Y-87897619D01*
X29742857Y-87992857D01*
X29742857Y-88135714D01*
X29790476Y-88230952D01*
X29838095Y-88278571D01*
X29933333Y-88326190D01*
X30314285Y-88326190D01*
X29361904Y-87897619D02*
X29314285Y-87850000D01*
X29219047Y-87802380D01*
X28980952Y-87802380D01*
X28885714Y-87850000D01*
X28838095Y-87897619D01*
X28790476Y-87992857D01*
X28790476Y-88088095D01*
X28838095Y-88230952D01*
X29409523Y-88802380D01*
X28790476Y-88802380D01*
X27838095Y-88802380D02*
X28409523Y-88802380D01*
X28123809Y-88802380D02*
X28123809Y-87802380D01*
X28219047Y-87945238D01*
X28314285Y-88040476D01*
X28409523Y-88088095D01*
X29742857Y-81952380D02*
X30076190Y-81476190D01*
X30314285Y-81952380D02*
X30314285Y-80952380D01*
X29933333Y-80952380D01*
X29838095Y-81000000D01*
X29790476Y-81047619D01*
X29742857Y-81142857D01*
X29742857Y-81285714D01*
X29790476Y-81380952D01*
X29838095Y-81428571D01*
X29933333Y-81476190D01*
X30314285Y-81476190D01*
X28790476Y-81952380D02*
X29361904Y-81952380D01*
X29076190Y-81952380D02*
X29076190Y-80952380D01*
X29171428Y-81095238D01*
X29266666Y-81190476D01*
X29361904Y-81238095D01*
X28219047Y-81380952D02*
X28314285Y-81333333D01*
X28361904Y-81285714D01*
X28409523Y-81190476D01*
X28409523Y-81142857D01*
X28361904Y-81047619D01*
X28314285Y-81000000D01*
X28219047Y-80952380D01*
X28028571Y-80952380D01*
X27933333Y-81000000D01*
X27885714Y-81047619D01*
X27838095Y-81142857D01*
X27838095Y-81190476D01*
X27885714Y-81285714D01*
X27933333Y-81333333D01*
X28028571Y-81380952D01*
X28219047Y-81380952D01*
X28314285Y-81428571D01*
X28361904Y-81476190D01*
X28409523Y-81571428D01*
X28409523Y-81761904D01*
X28361904Y-81857142D01*
X28314285Y-81904761D01*
X28219047Y-81952380D01*
X28028571Y-81952380D01*
X27933333Y-81904761D01*
X27885714Y-81857142D01*
X27838095Y-81761904D01*
X27838095Y-81571428D01*
X27885714Y-81476190D01*
X27933333Y-81428571D01*
X28028571Y-81380952D01*
X29717857Y-95527380D02*
X30051190Y-95051190D01*
X30289285Y-95527380D02*
X30289285Y-94527380D01*
X29908333Y-94527380D01*
X29813095Y-94575000D01*
X29765476Y-94622619D01*
X29717857Y-94717857D01*
X29717857Y-94860714D01*
X29765476Y-94955952D01*
X29813095Y-95003571D01*
X29908333Y-95051190D01*
X30289285Y-95051190D01*
X29336904Y-94622619D02*
X29289285Y-94575000D01*
X29194047Y-94527380D01*
X28955952Y-94527380D01*
X28860714Y-94575000D01*
X28813095Y-94622619D01*
X28765476Y-94717857D01*
X28765476Y-94813095D01*
X28813095Y-94955952D01*
X29384523Y-95527380D01*
X28765476Y-95527380D01*
X27908333Y-94860714D02*
X27908333Y-95527380D01*
X28146428Y-94479761D02*
X28384523Y-95194047D01*
X27765476Y-95194047D01*
X29792857Y-75102380D02*
X30126190Y-74626190D01*
X30364285Y-75102380D02*
X30364285Y-74102380D01*
X29983333Y-74102380D01*
X29888095Y-74150000D01*
X29840476Y-74197619D01*
X29792857Y-74292857D01*
X29792857Y-74435714D01*
X29840476Y-74530952D01*
X29888095Y-74578571D01*
X29983333Y-74626190D01*
X30364285Y-74626190D01*
X29411904Y-74197619D02*
X29364285Y-74150000D01*
X29269047Y-74102380D01*
X29030952Y-74102380D01*
X28935714Y-74150000D01*
X28888095Y-74197619D01*
X28840476Y-74292857D01*
X28840476Y-74388095D01*
X28888095Y-74530952D01*
X29459523Y-75102380D01*
X28840476Y-75102380D01*
X27935714Y-74102380D02*
X28411904Y-74102380D01*
X28459523Y-74578571D01*
X28411904Y-74530952D01*
X28316666Y-74483333D01*
X28078571Y-74483333D01*
X27983333Y-74530952D01*
X27935714Y-74578571D01*
X27888095Y-74673809D01*
X27888095Y-74911904D01*
X27935714Y-75007142D01*
X27983333Y-75054761D01*
X28078571Y-75102380D01*
X28316666Y-75102380D01*
X28411904Y-75054761D01*
X28459523Y-75007142D01*
X113466666Y-135252380D02*
X113800000Y-134776190D01*
X114038095Y-135252380D02*
X114038095Y-134252380D01*
X113657142Y-134252380D01*
X113561904Y-134300000D01*
X113514285Y-134347619D01*
X113466666Y-134442857D01*
X113466666Y-134585714D01*
X113514285Y-134680952D01*
X113561904Y-134728571D01*
X113657142Y-134776190D01*
X114038095Y-134776190D01*
X112609523Y-134585714D02*
X112609523Y-135252380D01*
X112847619Y-134204761D02*
X113085714Y-134919047D01*
X112466666Y-134919047D01*
X108366666Y-135252380D02*
X108700000Y-134776190D01*
X108938095Y-135252380D02*
X108938095Y-134252380D01*
X108557142Y-134252380D01*
X108461904Y-134300000D01*
X108414285Y-134347619D01*
X108366666Y-134442857D01*
X108366666Y-134585714D01*
X108414285Y-134680952D01*
X108461904Y-134728571D01*
X108557142Y-134776190D01*
X108938095Y-134776190D01*
X107985714Y-134347619D02*
X107938095Y-134300000D01*
X107842857Y-134252380D01*
X107604761Y-134252380D01*
X107509523Y-134300000D01*
X107461904Y-134347619D01*
X107414285Y-134442857D01*
X107414285Y-134538095D01*
X107461904Y-134680952D01*
X108033333Y-135252380D01*
X107414285Y-135252380D01*
X103266666Y-135077380D02*
X103600000Y-134601190D01*
X103838095Y-135077380D02*
X103838095Y-134077380D01*
X103457142Y-134077380D01*
X103361904Y-134125000D01*
X103314285Y-134172619D01*
X103266666Y-134267857D01*
X103266666Y-134410714D01*
X103314285Y-134505952D01*
X103361904Y-134553571D01*
X103457142Y-134601190D01*
X103838095Y-134601190D01*
X102314285Y-135077380D02*
X102885714Y-135077380D01*
X102600000Y-135077380D02*
X102600000Y-134077380D01*
X102695238Y-134220238D01*
X102790476Y-134315476D01*
X102885714Y-134363095D01*
M02*
