<?xml version="1.0" standalone="no"?>
 <!DOCTYPE svg PUBLIC "-//W3C//DTD SVG 1.1//EN" 
 "http://www.w3.org/Graphics/SVG/1.1/DTD/svg11.dtd"> 
<svg xmlns="http://www.w3.org/2000/svg" version="1.1" 
    width="22.9997cm" height="21.9989cm" viewBox="0 0 90550 86610 ">
<title>SVG Picture created as motherboard-B_SilkS.svg date 2020/11/10 10:06:40 </title>
  <desc>Picture generated by PCBNEW </desc>
<g style="fill:#000000; fill-opacity:1;stroke:#000000; stroke-opacity:1;
stroke-linecap:round; stroke-linejoin:round; "
 transform="translate(0 0) scale(1 1)">
</g>
<g style="fill:#000000; fill-opacity:0.0; 
stroke:#000000; stroke-width:-0.000393701; stroke-opacity:1; 
stroke-linecap:round; stroke-linejoin:round;">
</g>
<g style="fill:#000000; fill-opacity:0.0; 
stroke:#000000; stroke-width:47.2441; stroke-opacity:1; 
stroke-linecap:round; stroke-linejoin:round;">
<path d="M10963 27692
L11437 27692
" />
<path d="M10963 28763
L11437 28763
" />
<path d="M10944 33342
L11418 33342
" />
<path d="M10944 34413
L11418 34413
" />
<path d="M10944 31472
L11418 31472
" />
<path d="M10944 32543
L11418 32543
" />
<path d="M10963 29582
L11437 29582
" />
<path d="M10963 30653
L11437 30653
" />
<path d="M19134 40692
L18660 40692
" />
<path d="M19134 39622
L18660 39622
" />
<path d="M18660 41885
L19134 41885
" />
<path d="M18660 42956
L19134 42956
" />
<path d="M21121 41885
L21595 41885
" />
<path d="M21121 42956
L21595 42956
" />
<path d="M21121 39622
L21595 39622
" />
<path d="M21121 40692
L21595 40692
" />
<path d="M72078 14110
L70118 14110
" />
<path d="M72078 15181
L70118 15181
" />
<path d="M72078 14110
L72078 15181
" />
<path d="M65355 11716
L64881 11716
" />
<path d="M65355 10645
L64881 10645
" />
<path d="M26062 39622
L26536 39622
" />
<path d="M26062 40692
L26536 40692
" />
<path d="M26062 41885
L26536 41885
" />
<path d="M26062 42956
L26536 42956
" />
<path d="M23581 39622
L24055 39622
" />
<path d="M23581 40692
L24055 40692
" />
<path d="M28562 41885
L29036 41885
" />
<path d="M28562 42956
L29036 42956
" />
<path d="M45141 54093
L45141 54567
" />
<path d="M44070 54093
L44070 54567
" />
<path d="M28562 39622
L29036 39622
" />
<path d="M28562 40692
L29036 40692
" />
<path d="M43133 54093
L43133 54567
" />
<path d="M42062 54093
L42062 54567
" />
<path d="M41125 54093
L41125 54567
" />
<path d="M40055 54093
L40055 54567
" />
</g>
<g style="fill:#000000; fill-opacity:0.0; 
stroke:#000000; stroke-width:59.0551; stroke-opacity:1; 
stroke-linecap:round; stroke-linejoin:round;">
<g transform="rotate(-90 12519.7 28228.3)">
<text x="12519.7" y="28425.2"
textLength="-1066.84" font-size="-524.934" lengthAdjust="spacingAndGlyphs"
text-anchor="middle" opacity="0">R21</text>
</g>
<path d="M12697 27975
L12510 27844
" />
<path d="M12697 27750
L12304 27750
L12304 27900
L12322 27937
L12341 27956
L12379 27975
L12435 27975
L12472 27956
L12491 27937
L12510 27900
L12510 27750
" />
<path d="M12341 28125
L12322 28143
L12304 28181
L12304 28275
L12322 28312
L12341 28331
L12379 28350
L12416 28350
L12472 28331
L12697 28106
L12697 28350
" />
<path d="M12697 28725
L12697 28500
" />
<path d="M12697 28612
L12304 28612
L12360 28575
L12397 28537
L12416 28500
" />
<g transform="rotate(-90 12480.3 33897.6)">
<text x="12480.3" y="34094.5"
textLength="-1066.84" font-size="-524.934" lengthAdjust="spacingAndGlyphs"
text-anchor="middle" opacity="0">R18</text>
</g>
<path d="M12658 33644
L12470 33513
" />
<path d="M12658 33419
L12264 33419
L12264 33569
L12283 33607
L12302 33625
L12339 33644
L12395 33644
L12433 33625
L12452 33607
L12470 33569
L12470 33419
" />
<path d="M12658 34019
L12658 33794
" />
<path d="M12658 33907
L12264 33907
L12320 33869
L12358 33832
L12377 33794
" />
<path d="M12433 34244
L12414 34206
L12395 34188
L12358 34169
L12339 34169
L12302 34188
L12283 34206
L12264 34244
L12264 34319
L12283 34356
L12302 34375
L12339 34394
L12358 34394
L12395 34375
L12414 34356
L12433 34319
L12433 34244
L12452 34206
L12470 34188
L12508 34169
L12583 34169
L12620 34188
L12639 34206
L12658 34244
L12658 34319
L12639 34356
L12620 34375
L12583 34394
L12508 34394
L12470 34375
L12452 34356
L12433 34319
" />
<g transform="rotate(-90 12480.3 32007.9)">
<text x="12480.3" y="32204.7"
textLength="-1066.84" font-size="-524.934" lengthAdjust="spacingAndGlyphs"
text-anchor="middle" opacity="0">R24</text>
</g>
<path d="M12658 31754
L12470 31623
" />
<path d="M12658 31529
L12264 31529
L12264 31679
L12283 31717
L12302 31736
L12339 31754
L12395 31754
L12433 31736
L12452 31717
L12470 31679
L12470 31529
" />
<path d="M12302 31904
L12283 31923
L12264 31961
L12264 32054
L12283 32092
L12302 32110
L12339 32129
L12377 32129
L12433 32110
L12658 31886
L12658 32129
" />
<path d="M12395 32467
L12658 32467
" />
<path d="M12245 32373
L12527 32279
L12527 32523
" />
<g transform="rotate(-90 12519.7 30118.1)">
<text x="12519.7" y="30315"
textLength="-1066.84" font-size="-524.934" lengthAdjust="spacingAndGlyphs"
text-anchor="middle" opacity="0">R25</text>
</g>
<path d="M12697 29865
L12510 29733
" />
<path d="M12697 29640
L12304 29640
L12304 29790
L12322 29827
L12341 29846
L12379 29865
L12435 29865
L12472 29846
L12491 29827
L12510 29790
L12510 29640
" />
<path d="M12341 30014
L12322 30033
L12304 30071
L12304 30164
L12322 30202
L12341 30221
L12379 30239
L12416 30239
L12472 30221
L12697 29996
L12697 30239
" />
<path d="M12304 30596
L12304 30408
L12491 30389
L12472 30408
L12454 30446
L12454 30539
L12472 30577
L12491 30596
L12529 30614
L12622 30614
L12660 30596
L12679 30577
L12697 30539
L12697 30446
L12679 30408
L12660 30389
" />
<text x="18897.6" y="39456.7"
textLength="-1066.84" font-size="-524.934" lengthAdjust="spacingAndGlyphs"
text-anchor="middle" opacity="0">R17</text>
<path d="M19150 39437
L19281 39250
" />
<path d="M19375 39437
L19375 39044
L19225 39044
L19188 39062
L19169 39081
L19150 39119
L19150 39175
L19169 39212
L19188 39231
L19225 39250
L19375 39250
" />
<path d="M18775 39437
L19000 39437
" />
<path d="M18888 39437
L18888 39044
L18925 39100
L18963 39137
L19000 39156
" />
<path d="M18644 39044
L18382 39044
L18550 39437
" />
<text x="18897.6" y="41732.3"
textLength="-691.882" font-size="-524.934" lengthAdjust="spacingAndGlyphs"
text-anchor="middle" opacity="0">R5</text>
<path d="M18963 41713
L19094 41526
" />
<path d="M19188 41713
L19188 41319
L19038 41319
L19000 41338
L18982 41357
L18963 41394
L18963 41451
L18982 41488
L19000 41507
L19038 41526
L19188 41526
" />
<path d="M18607 41319
L18794 41319
L18813 41507
L18794 41488
L18757 41469
L18663 41469
L18625 41488
L18607 41507
L18588 41544
L18588 41638
L18607 41676
L18625 41694
L18663 41713
L18757 41713
L18794 41694
L18813 41676
" />
<text x="21338.6" y="41732.3"
textLength="-1066.84" font-size="-524.934" lengthAdjust="spacingAndGlyphs"
text-anchor="middle" opacity="0">R23</text>
<path d="M21591 41713
L21722 41526
" />
<path d="M21816 41713
L21816 41319
L21666 41319
L21629 41338
L21610 41357
L21591 41394
L21591 41451
L21610 41488
L21629 41507
L21666 41526
L21816 41526
" />
<path d="M21441 41357
L21422 41338
L21385 41319
L21291 41319
L21254 41338
L21235 41357
L21216 41394
L21216 41432
L21235 41488
L21460 41713
L21216 41713
" />
<path d="M21085 41319
L20841 41319
L20973 41469
L20916 41469
L20879 41488
L20860 41507
L20841 41544
L20841 41638
L20860 41676
L20879 41694
L20916 41713
L21029 41713
L21066 41694
L21085 41676
" />
<text x="21338.6" y="39448.8"
textLength="-1066.84" font-size="-524.934" lengthAdjust="spacingAndGlyphs"
text-anchor="middle" opacity="0">R22</text>
<path d="M21591 39430
L21722 39242
" />
<path d="M21816 39430
L21816 39036
L21666 39036
L21629 39055
L21610 39073
L21591 39111
L21591 39167
L21610 39205
L21629 39223
L21666 39242
L21816 39242
" />
<path d="M21441 39073
L21422 39055
L21385 39036
L21291 39036
L21254 39055
L21235 39073
L21216 39111
L21216 39148
L21235 39205
L21460 39430
L21216 39430
" />
<path d="M21066 39073
L21047 39055
L21010 39036
L20916 39036
L20879 39055
L20860 39073
L20841 39111
L20841 39148
L20860 39205
L21085 39430
L20841 39430
" />
<text x="70866.1" y="15748"
textLength="-691.882" font-size="-524.934" lengthAdjust="spacingAndGlyphs"
text-anchor="middle" opacity="0">D1</text>
<path d="M71156 15729
L71156 15335
L71062 15335
L71006 15354
L70969 15391
L70950 15429
L70931 15504
L70931 15560
L70950 15635
L70969 15673
L71006 15710
L71062 15729
L71156 15729
" />
<path d="M70556 15729
L70781 15729
" />
<path d="M70669 15729
L70669 15335
L70706 15391
L70744 15429
L70781 15448
" />
<g transform="rotate(-90 66378 11181.1)">
<text x="66378" y="11378"
textLength="-1066.84" font-size="-524.934" lengthAdjust="spacingAndGlyphs"
text-anchor="middle" opacity="0">R20</text>
</g>
<path d="M66556 10928
L66368 10796
" />
<path d="M66556 10703
L66162 10703
L66162 10853
L66181 10890
L66199 10909
L66237 10928
L66293 10928
L66331 10909
L66349 10890
L66368 10853
L66368 10703
" />
<path d="M66199 11077
L66181 11096
L66162 11134
L66162 11227
L66181 11265
L66199 11284
L66237 11302
L66274 11302
L66331 11284
L66556 11059
L66556 11302
" />
<path d="M66162 11546
L66162 11584
L66181 11621
L66199 11640
L66237 11659
L66312 11677
L66406 11677
L66481 11659
L66518 11640
L66537 11621
L66556 11584
L66556 11546
L66537 11509
L66518 11490
L66481 11471
L66406 11452
L66312 11452
L66237 11471
L66199 11490
L66181 11509
L66162 11546
" />
<text x="26299.2" y="39448.8"
textLength="-1066.84" font-size="-524.934" lengthAdjust="spacingAndGlyphs"
text-anchor="middle" opacity="0">R19</text>
<path d="M26552 39430
L26683 39242
" />
<path d="M26777 39430
L26777 39036
L26627 39036
L26589 39055
L26571 39073
L26552 39111
L26552 39167
L26571 39205
L26589 39223
L26627 39242
L26777 39242
" />
<path d="M26177 39430
L26402 39430
" />
<path d="M26289 39430
L26289 39036
L26327 39092
L26364 39130
L26402 39148
" />
<path d="M25989 39430
L25914 39430
L25877 39411
L25858 39392
L25821 39336
L25802 39261
L25802 39111
L25821 39073
L25839 39055
L25877 39036
L25952 39036
L25989 39055
L26008 39073
L26027 39111
L26027 39205
L26008 39242
L25989 39261
L25952 39280
L25877 39280
L25839 39261
L25821 39242
L25802 39205
" />
<text x="26299.2" y="41732.3"
textLength="-1066.84" font-size="-524.934" lengthAdjust="spacingAndGlyphs"
text-anchor="middle" opacity="0">R16</text>
<path d="M26552 41713
L26683 41526
" />
<path d="M26777 41713
L26777 41319
L26627 41319
L26589 41338
L26571 41357
L26552 41394
L26552 41451
L26571 41488
L26589 41507
L26627 41526
L26777 41526
" />
<path d="M26177 41713
L26402 41713
" />
<path d="M26289 41713
L26289 41319
L26327 41376
L26364 41413
L26402 41432
" />
<path d="M25839 41319
L25914 41319
L25952 41338
L25971 41357
L26008 41413
L26027 41488
L26027 41638
L26008 41676
L25989 41694
L25952 41713
L25877 41713
L25839 41694
L25821 41676
L25802 41638
L25802 41544
L25821 41507
L25839 41488
L25877 41469
L25952 41469
L25989 41488
L26008 41507
L26027 41544
" />
<text x="23779.5" y="39448.8"
textLength="-1066.84" font-size="-524.934" lengthAdjust="spacingAndGlyphs"
text-anchor="middle" opacity="0">R15</text>
<path d="M24032 39430
L24163 39242
" />
<path d="M24257 39430
L24257 39036
L24107 39036
L24070 39055
L24051 39073
L24032 39111
L24032 39167
L24051 39205
L24070 39223
L24107 39242
L24257 39242
" />
<path d="M23657 39430
L23882 39430
" />
<path d="M23770 39430
L23770 39036
L23807 39092
L23845 39130
L23882 39148
" />
<path d="M23301 39036
L23488 39036
L23507 39223
L23488 39205
L23451 39186
L23357 39186
L23320 39205
L23301 39223
L23282 39261
L23282 39355
L23301 39392
L23320 39411
L23357 39430
L23451 39430
L23488 39411
L23507 39392
" />
<text x="28779.5" y="41732.3"
textLength="-691.882" font-size="-524.934" lengthAdjust="spacingAndGlyphs"
text-anchor="middle" opacity="0">R6</text>
<path d="M28845 41713
L28976 41526
" />
<path d="M29070 41713
L29070 41319
L28920 41319
L28882 41338
L28863 41357
L28845 41394
L28845 41451
L28863 41488
L28882 41507
L28920 41526
L29070 41526
" />
<path d="M28507 41319
L28582 41319
L28620 41338
L28638 41357
L28676 41413
L28695 41488
L28695 41638
L28676 41676
L28657 41694
L28620 41713
L28545 41713
L28507 41694
L28488 41676
L28470 41638
L28470 41544
L28488 41507
L28507 41488
L28545 41469
L28620 41469
L28657 41488
L28676 41507
L28695 41544
" />
<g transform="rotate(-90 43661.4 54330.7)">
<text x="43661.4" y="54527.6"
textLength="-691.882" font-size="-524.934" lengthAdjust="spacingAndGlyphs"
text-anchor="middle" opacity="0">R4</text>
</g>
<path d="M43839 54265
L43652 54133
" />
<path d="M43839 54040
L43445 54040
L43445 54190
L43464 54227
L43483 54246
L43520 54265
L43577 54265
L43614 54246
L43633 54227
L43652 54190
L43652 54040
" />
<path d="M43577 54602
L43839 54602
" />
<path d="M43427 54508
L43708 54415
L43708 54658
" />
<text x="28779.5" y="39448.8"
textLength="-691.882" font-size="-524.934" lengthAdjust="spacingAndGlyphs"
text-anchor="middle" opacity="0">R3</text>
<path d="M28845 39430
L28976 39242
" />
<path d="M29070 39430
L29070 39036
L28920 39036
L28882 39055
L28863 39073
L28845 39111
L28845 39167
L28863 39205
L28882 39223
L28920 39242
L29070 39242
" />
<path d="M28713 39036
L28470 39036
L28601 39186
L28545 39186
L28507 39205
L28488 39223
L28470 39261
L28470 39355
L28488 39392
L28507 39411
L28545 39430
L28657 39430
L28695 39411
L28713 39392
" />
<g transform="rotate(-90 41653.5 54330.7)">
<text x="41653.5" y="54527.6"
textLength="-691.882" font-size="-524.934" lengthAdjust="spacingAndGlyphs"
text-anchor="middle" opacity="0">R2</text>
</g>
<path d="M41831 54265
L41644 54133
" />
<path d="M41831 54040
L41437 54040
L41437 54190
L41456 54227
L41475 54246
L41512 54265
L41569 54265
L41606 54246
L41625 54227
L41644 54190
L41644 54040
" />
<path d="M41475 54415
L41456 54433
L41437 54471
L41437 54565
L41456 54602
L41475 54621
L41512 54640
L41550 54640
L41606 54621
L41831 54396
L41831 54640
" />
<g transform="rotate(-90 39645.7 54330.7)">
<text x="39645.7" y="54527.6"
textLength="-691.882" font-size="-524.934" lengthAdjust="spacingAndGlyphs"
text-anchor="middle" opacity="0">R1</text>
</g>
<path d="M39823 54265
L39636 54133
" />
<path d="M39823 54040
L39430 54040
L39430 54190
L39448 54227
L39467 54246
L39505 54265
L39561 54265
L39598 54246
L39617 54227
L39636 54190
L39636 54040
" />
<path d="M39823 54640
L39823 54415
" />
<path d="M39823 54527
L39430 54527
L39486 54490
L39523 54452
L39542 54415
" />
<g >
</g>
</g> 
</svg>
