<?xml version="1.0" standalone="no"?>
 <!DOCTYPE svg PUBLIC "-//W3C//DTD SVG 1.1//EN" 
 "http://www.w3.org/Graphics/SVG/1.1/DTD/svg11.dtd"> 
<svg xmlns="http://www.w3.org/2000/svg" version="1.1" 
    width="22.9997cm" height="21.9989cm" viewBox="0 0 90550 86610 ">
<title>SVG Picture created as motherboard-Edge_Cuts.svg date 2020/11/10 10:06:40 </title>
  <desc>Picture generated by PCBNEW </desc>
<g style="fill:#000000; fill-opacity:1;stroke:#000000; stroke-opacity:1;
stroke-linecap:round; stroke-linejoin:round; "
 transform="translate(0 0) scale(1 1)">
</g>
<g style="fill:#000000; fill-opacity:0.0; 
stroke:#000000; stroke-width:-0.000393701; stroke-opacity:1; 
stroke-linecap:round; stroke-linejoin:round;">
</g>
<g style="fill:#000000; fill-opacity:0.0; 
stroke:#000000; stroke-width:78.7402; stroke-opacity:1; 
stroke-linecap:round; stroke-linejoin:round;">
<path d="M49523 27554
L49442 27541
" />
<path d="M49442 27541
L49362 27520
" />
<path d="M49362 27520
L49286 27490
" />
<path d="M49286 27490
L49212 27453
" />
<path d="M49212 27453
L49143 27408
" />
<path d="M49143 27408
L49079 27356
" />
<path d="M49079 27356
L49021 27298
" />
<path d="M49021 27298
L48969 27234
" />
<path d="M48969 27234
L48924 27165
" />
<path d="M48924 27165
L48886 27091
" />
<path d="M48886 27091
L48857 27014
" />
<path d="M48857 27014
L48836 26935
" />
<path d="M48836 26935
L48823 26853
" />
<path d="M48823 26853
L48818 26771
" />
<path d="M48818 26771
L48823 26689
" />
<path d="M48823 26689
L48836 26607
" />
<path d="M48836 26607
L48857 26528
" />
<path d="M48857 26528
L48886 26451
" />
<path d="M48886 26451
L48924 26377
" />
<path d="M48924 26377
L48969 26308
" />
<path d="M48969 26308
L49021 26244
" />
<path d="M49021 26244
L49079 26186
" />
<path d="M49079 26186
L49143 26134
" />
<path d="M49143 26134
L49212 26089
" />
<path d="M49212 26089
L49286 26052
" />
<path d="M49286 26052
L49362 26022
" />
<path d="M49362 26022
L49442 26001
" />
<path d="M49442 26001
L49523 25988
" />
<path d="M49523 25988
L49606 25984
" />
<path d="M49606 25984
L49688 25988
" />
<path d="M49688 25988
L49770 26001
" />
<path d="M49770 26001
L49849 26022
" />
<path d="M49849 26022
L49926 26052
" />
<path d="M49926 26052
L50000 26089
" />
<path d="M50000 26089
L50069 26134
" />
<path d="M50069 26134
L50133 26186
" />
<path d="M50133 26186
L50191 26244
" />
<path d="M50191 26244
L50243 26308
" />
<path d="M50243 26308
L50288 26377
" />
<path d="M50288 26377
L50325 26451
" />
<path d="M50325 26451
L50355 26528
" />
<path d="M50355 26528
L50376 26607
" />
<path d="M50376 26607
L50389 26689
" />
<path d="M50389 26689
L50393 26771
" />
<path d="M50393 26771
L50389 26853
" />
<path d="M50389 26853
L50376 26935
" />
<path d="M50376 26935
L50355 27014
" />
<path d="M50355 27014
L50325 27091
" />
<path d="M50325 27091
L50288 27165
" />
<path d="M50288 27165
L50243 27234
" />
<path d="M50243 27234
L50191 27298
" />
<path d="M50191 27298
L50133 27356
" />
<path d="M50133 27356
L50069 27408
" />
<path d="M50069 27408
L50000 27453
" />
<path d="M50000 27453
L49926 27490
" />
<path d="M49926 27490
L49849 27520
" />
<path d="M49849 27520
L49770 27541
" />
<path d="M49770 27541
L49688 27554
" />
<path d="M49688 27554
L49606 27559
" />
<path d="M49606 27559
L49523 27554
" />
<path d="M77362 59251
L77300 59248
" />
<path d="M77423 59248
L77362 59251
" />
<path d="M77484 59239
L77423 59248
" />
<path d="M77544 59223
L77484 59239
" />
<path d="M77602 59200
L77544 59223
" />
<path d="M77657 59172
L77602 59200
" />
<path d="M77709 59139
L77657 59172
" />
<path d="M77757 59100
L77709 59139
" />
<path d="M77801 59056
L77757 59100
" />
<path d="M77839 59008
L77801 59056
" />
<path d="M77873 58956
L77839 59008
" />
<path d="M77901 58901
L77873 58956
" />
<path d="M77923 58843
L77901 58901
" />
<path d="M77939 58784
L77923 58843
" />
<path d="M77949 58723
L77939 58784
" />
<path d="M77952 58661
L77949 58723
" />
<path d="M77949 58599
L77952 58661
" />
<path d="M77939 58538
L77949 58599
" />
<path d="M77923 58478
L77939 58538
" />
<path d="M77901 58421
L77923 58478
" />
<path d="M77873 58366
L77901 58421
" />
<path d="M77839 58314
L77873 58366
" />
<path d="M77801 58266
L77839 58314
" />
<path d="M77757 58222
L77801 58266
" />
<path d="M77709 58183
L77757 58222
" />
<path d="M77657 58150
L77709 58183
" />
<path d="M77602 58121
L77657 58150
" />
<path d="M77544 58099
L77602 58121
" />
<path d="M77484 58083
L77544 58099
" />
<path d="M77423 58074
L77484 58083
" />
<path d="M77362 58070
L77423 58074
" />
<path d="M77300 58074
L77362 58070
" />
<path d="M77239 58083
L77300 58074
" />
<path d="M77179 58099
L77239 58083
" />
<path d="M77122 58121
L77179 58099
" />
<path d="M77066 58150
L77122 58121
" />
<path d="M77015 58183
L77066 58150
" />
<path d="M76967 58222
L77015 58183
" />
<path d="M76923 58266
L76967 58222
" />
<path d="M76884 58314
L76923 58266
" />
<path d="M76850 58366
L76884 58314
" />
<path d="M76822 58421
L76850 58366
" />
<path d="M76800 58478
L76822 58421
" />
<path d="M76784 58538
L76800 58478
" />
<path d="M76774 58599
L76784 58538
" />
<path d="M76771 58661
L76774 58599
" />
<path d="M76774 58723
L76771 58661
" />
<path d="M76784 58784
L76774 58723
" />
<path d="M76800 58843
L76784 58784
" />
<path d="M76822 58901
L76800 58843
" />
<path d="M76850 58956
L76822 58901
" />
<path d="M76884 59008
L76850 58956
" />
<path d="M76923 59056
L76884 59008
" />
<path d="M76967 59100
L76923 59056
" />
<path d="M77015 59139
L76967 59100
" />
<path d="M77066 59172
L77015 59139
" />
<path d="M77122 59200
L77066 59172
" />
<path d="M77179 59223
L77122 59200
" />
<path d="M77239 59239
L77179 59223
" />
<path d="M77300 59248
L77239 59239
" />
<path d="M36023 59251
L35961 59248
" />
<path d="M36085 59248
L36023 59251
" />
<path d="M36146 59239
L36085 59248
" />
<path d="M36206 59223
L36146 59239
" />
<path d="M36263 59200
L36206 59223
" />
<path d="M36318 59172
L36263 59200
" />
<path d="M36370 59139
L36318 59172
" />
<path d="M36418 59100
L36370 59139
" />
<path d="M36462 59056
L36418 59100
" />
<path d="M36501 59008
L36462 59056
" />
<path d="M36535 58956
L36501 59008
" />
<path d="M36563 58901
L36535 58956
" />
<path d="M36585 58843
L36563 58901
" />
<path d="M36601 58784
L36585 58843
" />
<path d="M36610 58723
L36601 58784
" />
<path d="M36614 58661
L36610 58723
" />
<path d="M36610 58599
L36614 58661
" />
<path d="M36601 58538
L36610 58599
" />
<path d="M36585 58478
L36601 58538
" />
<path d="M36563 58421
L36585 58478
" />
<path d="M36535 58366
L36563 58421
" />
<path d="M36501 58314
L36535 58366
" />
<path d="M36462 58266
L36501 58314
" />
<path d="M36418 58222
L36462 58266
" />
<path d="M36370 58183
L36418 58222
" />
<path d="M36318 58150
L36370 58183
" />
<path d="M36263 58121
L36318 58150
" />
<path d="M36206 58099
L36263 58121
" />
<path d="M36146 58083
L36206 58099
" />
<path d="M36085 58074
L36146 58083
" />
<path d="M36023 58070
L36085 58074
" />
<path d="M35961 58074
L36023 58070
" />
<path d="M35900 58083
L35961 58074
" />
<path d="M35841 58099
L35900 58083
" />
<path d="M35783 58121
L35841 58099
" />
<path d="M35728 58150
L35783 58121
" />
<path d="M35676 58183
L35728 58150
" />
<path d="M35628 58222
L35676 58183
" />
<path d="M35584 58266
L35628 58222
" />
<path d="M35545 58314
L35584 58266
" />
<path d="M35512 58366
L35545 58314
" />
<path d="M35484 58421
L35512 58366
" />
<path d="M35461 58478
L35484 58421
" />
<path d="M35445 58538
L35461 58478
" />
<path d="M35436 58599
L35445 58538
" />
<path d="M35433 58661
L35436 58599
" />
<path d="M35436 58723
L35433 58661
" />
<path d="M35445 58784
L35436 58723
" />
<path d="M35461 58843
L35445 58784
" />
<path d="M35484 58901
L35461 58843
" />
<path d="M35512 58956
L35484 58901
" />
<path d="M35545 59008
L35512 58956
" />
<path d="M35584 59056
L35545 59008
" />
<path d="M35628 59100
L35584 59056
" />
<path d="M35676 59139
L35628 59100
" />
<path d="M35728 59172
L35676 59139
" />
<path d="M35783 59200
L35728 59172
" />
<path d="M35841 59223
L35783 59200
" />
<path d="M35900 59239
L35841 59223
" />
<path d="M35961 59248
L35900 59239
" />
<path d="M33267 43503
L33205 43500
" />
<path d="M33329 43500
L33267 43503
" />
<path d="M33390 43491
L33329 43500
" />
<path d="M33450 43475
L33390 43491
" />
<path d="M33507 43452
L33450 43475
" />
<path d="M33562 43424
L33507 43452
" />
<path d="M33614 43391
L33562 43424
" />
<path d="M33662 43352
L33614 43391
" />
<path d="M33706 43308
L33662 43352
" />
<path d="M33745 43260
L33706 43308
" />
<path d="M33779 43208
L33745 43260
" />
<path d="M33807 43153
L33779 43208
" />
<path d="M33829 43095
L33807 43153
" />
<path d="M33845 43036
L33829 43095
" />
<path d="M33855 42975
L33845 43036
" />
<path d="M33858 42913
L33855 42975
" />
<path d="M33855 42851
L33858 42913
" />
<path d="M33845 42790
L33855 42851
" />
<path d="M33829 42730
L33845 42790
" />
<path d="M33807 42673
L33829 42730
" />
<path d="M33779 42618
L33807 42673
" />
<path d="M33745 42566
L33779 42618
" />
<path d="M33706 42518
L33745 42566
" />
<path d="M33662 42474
L33706 42518
" />
<path d="M33614 42435
L33662 42474
" />
<path d="M33562 42401
L33614 42435
" />
<path d="M33507 42373
L33562 42401
" />
<path d="M33450 42351
L33507 42373
" />
<path d="M33390 42335
L33450 42351
" />
<path d="M33329 42326
L33390 42335
" />
<path d="M33267 42322
L33329 42326
" />
<path d="M33205 42326
L33267 42322
" />
<path d="M33144 42335
L33205 42326
" />
<path d="M33085 42351
L33144 42335
" />
<path d="M33027 42373
L33085 42351
" />
<path d="M32972 42401
L33027 42373
" />
<path d="M32920 42435
L32972 42401
" />
<path d="M32872 42474
L32920 42435
" />
<path d="M32828 42518
L32872 42474
" />
<path d="M32789 42566
L32828 42518
" />
<path d="M32756 42618
L32789 42566
" />
<path d="M32728 42673
L32756 42618
" />
<path d="M32706 42730
L32728 42673
" />
<path d="M32690 42790
L32706 42730
" />
<path d="M32680 42851
L32690 42790
" />
<path d="M32677 42913
L32680 42851
" />
<path d="M32680 42975
L32677 42913
" />
<path d="M32690 43036
L32680 42975
" />
<path d="M32706 43095
L32690 43036
" />
<path d="M32728 43153
L32706 43095
" />
<path d="M32756 43208
L32728 43153
" />
<path d="M32789 43260
L32756 43208
" />
<path d="M32828 43308
L32789 43260
" />
<path d="M32872 43352
L32828 43308
" />
<path d="M32920 43391
L32872 43352
" />
<path d="M32972 43424
L32920 43391
" />
<path d="M33027 43452
L32972 43424
" />
<path d="M33085 43475
L33027 43452
" />
<path d="M33144 43491
L33085 43475
" />
<path d="M33205 43500
L33144 43491
" />
<path d="M11220 43503
L11158 43500
" />
<path d="M11282 43500
L11220 43503
" />
<path d="M11343 43491
L11282 43500
" />
<path d="M11402 43475
L11343 43491
" />
<path d="M11460 43452
L11402 43475
" />
<path d="M11515 43424
L11460 43452
" />
<path d="M11567 43391
L11515 43424
" />
<path d="M11615 43352
L11567 43391
" />
<path d="M11659 43308
L11615 43352
" />
<path d="M11698 43260
L11659 43308
" />
<path d="M11731 43208
L11698 43260
" />
<path d="M11759 43153
L11731 43208
" />
<path d="M11782 43095
L11759 43153
" />
<path d="M11798 43036
L11782 43095
" />
<path d="M11807 42975
L11798 43036
" />
<path d="M11811 42913
L11807 42975
" />
<path d="M11807 42851
L11811 42913
" />
<path d="M11798 42790
L11807 42851
" />
<path d="M11782 42730
L11798 42790
" />
<path d="M11759 42673
L11782 42730
" />
<path d="M11731 42618
L11759 42673
" />
<path d="M11698 42566
L11731 42618
" />
<path d="M11659 42518
L11698 42566
" />
<path d="M11615 42474
L11659 42518
" />
<path d="M11567 42435
L11615 42474
" />
<path d="M11515 42401
L11567 42435
" />
<path d="M11460 42373
L11515 42401
" />
<path d="M11402 42351
L11460 42373
" />
<path d="M11343 42335
L11402 42351
" />
<path d="M11282 42326
L11343 42335
" />
<path d="M11220 42322
L11282 42326
" />
<path d="M11158 42326
L11220 42322
" />
<path d="M11097 42335
L11158 42326
" />
<path d="M11037 42351
L11097 42335
" />
<path d="M10980 42373
L11037 42351
" />
<path d="M10925 42401
L10980 42373
" />
<path d="M10873 42435
L10925 42401
" />
<path d="M10825 42474
L10873 42435
" />
<path d="M10781 42518
L10825 42474
" />
<path d="M10742 42566
L10781 42518
" />
<path d="M10709 42618
L10742 42566
" />
<path d="M10680 42673
L10709 42618
" />
<path d="M10658 42730
L10680 42673
" />
<path d="M10642 42790
L10658 42730
" />
<path d="M10633 42851
L10642 42790
" />
<path d="M10629 42913
L10633 42851
" />
<path d="M10633 42975
L10629 42913
" />
<path d="M10642 43036
L10633 42975
" />
<path d="M10658 43095
L10642 43036
" />
<path d="M10680 43153
L10658 43095
" />
<path d="M10709 43208
L10680 43153
" />
<path d="M10742 43260
L10709 43208
" />
<path d="M10781 43308
L10742 43260
" />
<path d="M10825 43352
L10781 43308
" />
<path d="M10873 43391
L10825 43352
" />
<path d="M10925 43424
L10873 43391
" />
<path d="M10980 43452
L10925 43424
" />
<path d="M11037 43475
L10980 43452
" />
<path d="M11097 43491
L11037 43475
" />
<path d="M11158 43500
L11097 43491
" />
<path d="M77362 39468
L77300 39465
" />
<path d="M77423 39465
L77362 39468
" />
<path d="M77484 39455
L77423 39465
" />
<path d="M77544 39439
L77484 39455
" />
<path d="M77602 39417
L77544 39439
" />
<path d="M77657 39389
L77602 39417
" />
<path d="M77709 39355
L77657 39389
" />
<path d="M77757 39316
L77709 39355
" />
<path d="M77801 39273
L77757 39316
" />
<path d="M77839 39225
L77801 39273
" />
<path d="M77873 39173
L77839 39225
" />
<path d="M77901 39118
L77873 39173
" />
<path d="M77923 39060
L77901 39118
" />
<path d="M77939 39000
L77923 39060
" />
<path d="M77949 38939
L77939 39000
" />
<path d="M77952 38877
L77949 38939
" />
<path d="M77949 38816
L77952 38877
" />
<path d="M77939 38755
L77949 38816
" />
<path d="M77923 38695
L77939 38755
" />
<path d="M77901 38637
L77923 38695
" />
<path d="M77873 38582
L77901 38637
" />
<path d="M77839 38530
L77873 38582
" />
<path d="M77801 38482
L77839 38530
" />
<path d="M77757 38439
L77801 38482
" />
<path d="M77709 38400
L77757 38439
" />
<path d="M77657 38366
L77709 38400
" />
<path d="M77602 38338
L77657 38366
" />
<path d="M77544 38316
L77602 38338
" />
<path d="M77484 38300
L77544 38316
" />
<path d="M77423 38290
L77484 38300
" />
<path d="M77362 38287
L77423 38290
" />
<path d="M77300 38290
L77362 38287
" />
<path d="M77239 38300
L77300 38290
" />
<path d="M77179 38316
L77239 38300
" />
<path d="M77122 38338
L77179 38316
" />
<path d="M77066 38366
L77122 38338
" />
<path d="M77015 38400
L77066 38366
" />
<path d="M76967 38439
L77015 38400
" />
<path d="M76923 38482
L76967 38439
" />
<path d="M76884 38530
L76923 38482
" />
<path d="M76850 38582
L76884 38530
" />
<path d="M76822 38637
L76850 38582
" />
<path d="M76800 38695
L76822 38637
" />
<path d="M76784 38755
L76800 38695
" />
<path d="M76774 38816
L76784 38755
" />
<path d="M76771 38877
L76774 38816
" />
<path d="M76774 38939
L76771 38877
" />
<path d="M76784 39000
L76774 38939
" />
<path d="M76800 39060
L76784 39000
" />
<path d="M76822 39118
L76800 39060
" />
<path d="M76850 39173
L76822 39118
" />
<path d="M76884 39225
L76850 39173
" />
<path d="M76923 39273
L76884 39225
" />
<path d="M76967 39316
L76923 39273
" />
<path d="M77015 39355
L76967 39316
" />
<path d="M77066 39389
L77015 39355
" />
<path d="M77122 39417
L77066 39389
" />
<path d="M77179 39439
L77122 39417
" />
<path d="M77239 39455
L77179 39439
" />
<path d="M77300 39465
L77239 39455
" />
<path d="M17322 37007
L17240 37003
" />
<path d="M17405 37003
L17322 37007
" />
<path d="M17486 36990
L17405 37003
" />
<path d="M17566 36969
L17486 36990
" />
<path d="M17643 36939
L17566 36969
" />
<path d="M17716 36902
L17643 36939
" />
<path d="M17785 36857
L17716 36902
" />
<path d="M17849 36805
L17785 36857
" />
<path d="M17907 36747
L17849 36805
" />
<path d="M17959 36683
L17907 36747
" />
<path d="M18004 36614
L17959 36683
" />
<path d="M18042 36540
L18004 36614
" />
<path d="M18071 36463
L18042 36540
" />
<path d="M18093 36384
L18071 36463
" />
<path d="M18105 36302
L18093 36384
" />
<path d="M18110 36220
L18105 36302
" />
<path d="M18105 36138
L18110 36220
" />
<path d="M18093 36056
L18105 36138
" />
<path d="M18071 35977
L18093 36056
" />
<path d="M18042 35900
L18071 35977
" />
<path d="M18004 35826
L18042 35900
" />
<path d="M17959 35757
L18004 35826
" />
<path d="M17907 35693
L17959 35757
" />
<path d="M17849 35635
L17907 35693
" />
<path d="M17785 35583
L17849 35635
" />
<path d="M17716 35538
L17785 35583
" />
<path d="M17643 35501
L17716 35538
" />
<path d="M17566 35471
L17643 35501
" />
<path d="M17486 35450
L17566 35471
" />
<path d="M17405 35437
L17486 35450
" />
<path d="M17322 35433
L17405 35437
" />
<path d="M17240 35437
L17322 35433
" />
<path d="M17159 35450
L17240 35437
" />
<path d="M17079 35471
L17159 35450
" />
<path d="M17002 35501
L17079 35471
" />
<path d="M16929 35538
L17002 35501
" />
<path d="M16860 35583
L16929 35538
" />
<path d="M16795 35635
L16860 35583
" />
<path d="M16737 35693
L16795 35635
" />
<path d="M16685 35757
L16737 35693
" />
<path d="M16640 35826
L16685 35757
" />
<path d="M16603 35900
L16640 35826
" />
<path d="M16573 35977
L16603 35900
" />
<path d="M16552 36056
L16573 35977
" />
<path d="M16539 36138
L16552 36056
" />
<path d="M16535 36220
L16539 36138
" />
<path d="M16539 36302
L16535 36220
" />
<path d="M16552 36384
L16539 36302
" />
<path d="M16573 36463
L16552 36384
" />
<path d="M16603 36540
L16573 36463
" />
<path d="M16640 36614
L16603 36540
" />
<path d="M16685 36683
L16640 36614
" />
<path d="M16737 36747
L16685 36683
" />
<path d="M16795 36805
L16737 36747
" />
<path d="M16860 36857
L16795 36805
" />
<path d="M16929 36902
L16860 36857
" />
<path d="M17002 36939
L16929 36902
" />
<path d="M17079 36969
L17002 36939
" />
<path d="M17159 36990
L17079 36969
" />
<path d="M17240 37003
L17159 36990
" />
<path d="M29921 37007
L29838 37003
" />
<path d="M30003 37003
L29921 37007
" />
<path d="M30084 36990
L30003 37003
" />
<path d="M30164 36969
L30084 36990
" />
<path d="M30241 36939
L30164 36969
" />
<path d="M30314 36902
L30241 36939
" />
<path d="M30384 36857
L30314 36902
" />
<path d="M30448 36805
L30384 36857
" />
<path d="M30506 36747
L30448 36805
" />
<path d="M30558 36683
L30506 36747
" />
<path d="M30603 36614
L30558 36683
" />
<path d="M30640 36540
L30603 36614
" />
<path d="M30670 36463
L30640 36540
" />
<path d="M30691 36384
L30670 36463
" />
<path d="M30704 36302
L30691 36384
" />
<path d="M30708 36220
L30704 36302
" />
<path d="M30704 36138
L30708 36220
" />
<path d="M30691 36056
L30704 36138
" />
<path d="M30670 35977
L30691 36056
" />
<path d="M30640 35900
L30670 35977
" />
<path d="M30603 35826
L30640 35900
" />
<path d="M30558 35757
L30603 35826
" />
<path d="M30506 35693
L30558 35757
" />
<path d="M30448 35635
L30506 35693
" />
<path d="M30384 35583
L30448 35635
" />
<path d="M30314 35538
L30384 35583
" />
<path d="M30241 35501
L30314 35538
" />
<path d="M30164 35471
L30241 35501
" />
<path d="M30084 35450
L30164 35471
" />
<path d="M30003 35437
L30084 35450
" />
<path d="M29921 35433
L30003 35437
" />
<path d="M29838 35437
L29921 35433
" />
<path d="M29757 35450
L29838 35437
" />
<path d="M29677 35471
L29757 35450
" />
<path d="M29600 35501
L29677 35471
" />
<path d="M29527 35538
L29600 35501
" />
<path d="M29458 35583
L29527 35538
" />
<path d="M29394 35635
L29458 35583
" />
<path d="M29336 35693
L29394 35635
" />
<path d="M29284 35757
L29336 35693
" />
<path d="M29239 35826
L29284 35757
" />
<path d="M29201 35900
L29239 35826
" />
<path d="M29172 35977
L29201 35900
" />
<path d="M29151 36056
L29172 35977
" />
<path d="M29138 36138
L29151 36056
" />
<path d="M29133 36220
L29138 36138
" />
<path d="M29138 36302
L29133 36220
" />
<path d="M29151 36384
L29138 36302
" />
<path d="M29172 36463
L29151 36384
" />
<path d="M29201 36540
L29172 36463
" />
<path d="M29239 36614
L29201 36540
" />
<path d="M29284 36683
L29239 36614
" />
<path d="M29336 36747
L29284 36683
" />
<path d="M29394 36805
L29336 36747
" />
<path d="M29458 36857
L29394 36805
" />
<path d="M29527 36902
L29458 36857
" />
<path d="M29600 36939
L29527 36902
" />
<path d="M29677 36969
L29600 36939
" />
<path d="M29757 36990
L29677 36969
" />
<path d="M29838 37003
L29757 36990
" />
<path d="M62204 27559
L62122 27554
" />
<path d="M62287 27554
L62204 27559
" />
<path d="M62368 27541
L62287 27554
" />
<path d="M62448 27520
L62368 27541
" />
<path d="M62525 27490
L62448 27520
" />
<path d="M62598 27453
L62525 27490
" />
<path d="M62667 27408
L62598 27453
" />
<path d="M62731 27356
L62667 27408
" />
<path d="M62789 27298
L62731 27356
" />
<path d="M62841 27234
L62789 27298
" />
<path d="M62886 27165
L62841 27234
" />
<path d="M62924 27091
L62886 27165
" />
<path d="M62953 27014
L62924 27091
" />
<path d="M62974 26935
L62953 27014
" />
<path d="M62987 26853
L62974 26935
" />
<path d="M62992 26771
L62987 26853
" />
<path d="M62987 26689
L62992 26771
" />
<path d="M62974 26607
L62987 26689
" />
<path d="M62953 26528
L62974 26607
" />
<path d="M62924 26451
L62953 26528
" />
<path d="M62886 26377
L62924 26451
" />
<path d="M62841 26308
L62886 26377
" />
<path d="M62789 26244
L62841 26308
" />
<path d="M62731 26186
L62789 26244
" />
<path d="M62667 26134
L62731 26186
" />
<path d="M62598 26089
L62667 26134
" />
<path d="M62525 26052
L62598 26089
" />
<path d="M62448 26022
L62525 26052
" />
<path d="M62368 26001
L62448 26022
" />
<path d="M62287 25988
L62368 26001
" />
<path d="M62204 25984
L62287 25988
" />
<path d="M62122 25988
L62204 25984
" />
<path d="M62041 26001
L62122 25988
" />
<path d="M61961 26022
L62041 26001
" />
<path d="M61884 26052
L61961 26022
" />
<path d="M61811 26089
L61884 26052
" />
<path d="M61741 26134
L61811 26089
" />
<path d="M61677 26186
L61741 26134
" />
<path d="M61619 26244
L61677 26186
" />
<path d="M61567 26308
L61619 26244
" />
<path d="M61522 26377
L61567 26308
" />
<path d="M61485 26451
L61522 26377
" />
<path d="M61455 26528
L61485 26451
" />
<path d="M61434 26607
L61455 26528
" />
<path d="M61421 26689
L61434 26607
" />
<path d="M61417 26771
L61421 26689
" />
<path d="M61421 26853
L61417 26771
" />
<path d="M61434 26935
L61421 26853
" />
<path d="M61455 27014
L61434 26935
" />
<path d="M61485 27091
L61455 27014
" />
<path d="M61522 27165
L61485 27091
" />
<path d="M61567 27234
L61522 27165
" />
<path d="M61619 27298
L61567 27234
" />
<path d="M61677 27356
L61619 27298
" />
<path d="M61741 27408
L61677 27356
" />
<path d="M61811 27453
L61741 27408
" />
<path d="M61884 27490
L61811 27453
" />
<path d="M61961 27520
L61884 27490
" />
<path d="M62041 27541
L61961 27520
" />
<path d="M62122 27554
L62041 27541
" />
<path d="M29921 24409
L29838 24405
" />
<path d="M30003 24405
L29921 24409
" />
<path d="M30084 24392
L30003 24405
" />
<path d="M30164 24370
L30084 24392
" />
<path d="M30241 24341
L30164 24370
" />
<path d="M30314 24303
L30241 24341
" />
<path d="M30384 24259
L30314 24303
" />
<path d="M30448 24207
L30384 24259
" />
<path d="M30506 24148
L30448 24207
" />
<path d="M30558 24084
L30506 24148
" />
<path d="M30603 24015
L30558 24084
" />
<path d="M30640 23942
L30603 24015
" />
<path d="M30670 23865
L30640 23942
" />
<path d="M30691 23785
L30670 23865
" />
<path d="M30704 23704
L30691 23785
" />
<path d="M30708 23622
L30704 23704
" />
<path d="M30704 23539
L30708 23622
" />
<path d="M30691 23458
L30704 23539
" />
<path d="M30670 23378
L30691 23458
" />
<path d="M30640 23301
L30670 23378
" />
<path d="M30603 23228
L30640 23301
" />
<path d="M30558 23159
L30603 23228
" />
<path d="M30506 23095
L30558 23159
" />
<path d="M30448 23036
L30506 23095
" />
<path d="M30384 22985
L30448 23036
" />
<path d="M30314 22940
L30384 22985
" />
<path d="M30241 22902
L30314 22940
" />
<path d="M30164 22873
L30241 22902
" />
<path d="M30084 22851
L30164 22873
" />
<path d="M30003 22838
L30084 22851
" />
<path d="M29921 22834
L30003 22838
" />
<path d="M29838 22838
L29921 22834
" />
<path d="M29757 22851
L29838 22838
" />
<path d="M29677 22873
L29757 22851
" />
<path d="M29600 22902
L29677 22873
" />
<path d="M29527 22940
L29600 22902
" />
<path d="M29458 22985
L29527 22940
" />
<path d="M29394 23036
L29458 22985
" />
<path d="M29336 23095
L29394 23036
" />
<path d="M29284 23159
L29336 23095
" />
<path d="M29239 23228
L29284 23159
" />
<path d="M29201 23301
L29239 23228
" />
<path d="M29172 23378
L29201 23301
" />
<path d="M29151 23458
L29172 23378
" />
<path d="M29138 23539
L29151 23458
" />
<path d="M29133 23622
L29138 23539
" />
<path d="M29138 23704
L29133 23622
" />
<path d="M29151 23785
L29138 23704
" />
<path d="M29172 23865
L29151 23785
" />
<path d="M29201 23942
L29172 23865
" />
<path d="M29239 24015
L29201 23942
" />
<path d="M29284 24084
L29239 24015
" />
<path d="M29336 24148
L29284 24084
" />
<path d="M29394 24207
L29336 24148
" />
<path d="M29458 24259
L29394 24207
" />
<path d="M29527 24303
L29458 24259
" />
<path d="M29600 24341
L29527 24303
" />
<path d="M29677 24370
L29600 24341
" />
<path d="M29757 24392
L29677 24370
" />
<path d="M29838 24405
L29757 24392
" />
<path d="M17322 24409
L17240 24405
" />
<path d="M17405 24405
L17322 24409
" />
<path d="M17486 24392
L17405 24405
" />
<path d="M17566 24370
L17486 24392
" />
<path d="M17643 24341
L17566 24370
" />
<path d="M17716 24303
L17643 24341
" />
<path d="M17785 24259
L17716 24303
" />
<path d="M17849 24207
L17785 24259
" />
<path d="M17907 24148
L17849 24207
" />
<path d="M17959 24084
L17907 24148
" />
<path d="M18004 24015
L17959 24084
" />
<path d="M18042 23942
L18004 24015
" />
<path d="M18071 23865
L18042 23942
" />
<path d="M18093 23785
L18071 23865
" />
<path d="M18105 23704
L18093 23785
" />
<path d="M18110 23622
L18105 23704
" />
<path d="M18105 23539
L18110 23622
" />
<path d="M18093 23458
L18105 23539
" />
<path d="M18071 23378
L18093 23458
" />
<path d="M18042 23301
L18071 23378
" />
<path d="M18004 23228
L18042 23301
" />
<path d="M17959 23159
L18004 23228
" />
<path d="M17907 23095
L17959 23159
" />
<path d="M17849 23036
L17907 23095
" />
<path d="M17785 22985
L17849 23036
" />
<path d="M17716 22940
L17785 22985
" />
<path d="M17643 22902
L17716 22940
" />
<path d="M17566 22873
L17643 22902
" />
<path d="M17486 22851
L17566 22873
" />
<path d="M17405 22838
L17486 22851
" />
<path d="M17322 22834
L17405 22838
" />
<path d="M17240 22838
L17322 22834
" />
<path d="M17159 22851
L17240 22838
" />
<path d="M17079 22873
L17159 22851
" />
<path d="M17002 22902
L17079 22873
" />
<path d="M16929 22940
L17002 22902
" />
<path d="M16860 22985
L16929 22940
" />
<path d="M16795 23036
L16860 22985
" />
<path d="M16737 23095
L16795 23036
" />
<path d="M16685 23159
L16737 23095
" />
<path d="M16640 23228
L16685 23159
" />
<path d="M16603 23301
L16640 23228
" />
<path d="M16573 23378
L16603 23301
" />
<path d="M16552 23458
L16573 23378
" />
<path d="M16539 23539
L16552 23458
" />
<path d="M16535 23622
L16539 23539
" />
<path d="M16539 23704
L16535 23622
" />
<path d="M16552 23785
L16539 23704
" />
<path d="M16573 23865
L16552 23785
" />
<path d="M16603 23942
L16573 23865
" />
<path d="M16640 24015
L16603 23942
" />
<path d="M16685 24084
L16640 24015
" />
<path d="M16737 24148
L16685 24084
" />
<path d="M16795 24207
L16737 24148
" />
<path d="M16860 24259
L16795 24207
" />
<path d="M16929 24303
L16860 24259
" />
<path d="M17002 24341
L16929 24303
" />
<path d="M17079 24370
L17002 24341
" />
<path d="M17159 24392
L17079 24370
" />
<path d="M17240 24405
L17159 24392
" />
<path d="M23622 37401
L22840 37360
" />
<path d="M24403 37360
L23622 37401
" />
<path d="M25177 37238
L24403 37360
" />
<path d="M25933 37035
L25177 37238
" />
<path d="M26664 36754
L25933 37035
" />
<path d="M27362 36399
L26664 36754
" />
<path d="M28018 35972
L27362 36399
" />
<path d="M28627 35480
L28018 35972
" />
<path d="M29181 34926
L28627 35480
" />
<path d="M29673 34318
L29181 34926
" />
<path d="M30100 33661
L29673 34318
" />
<path d="M30455 32963
L30100 33661
" />
<path d="M30736 32232
L30455 32963
" />
<path d="M30938 31476
L30736 32232
" />
<path d="M31061 30703
L30938 31476
" />
<path d="M31102 29921
L31061 30703
" />
<path d="M31061 29139
L31102 29921
" />
<path d="M30938 28366
L31061 29139
" />
<path d="M30736 27609
L30938 28366
" />
<path d="M30455 26878
L30736 27609
" />
<path d="M30100 26181
L30455 26878
" />
<path d="M29673 25524
L30100 26181
" />
<path d="M29181 24915
L29673 25524
" />
<path d="M28627 24362
L29181 24915
" />
<path d="M28018 23869
L28627 24362
" />
<path d="M27362 23443
L28018 23869
" />
<path d="M26664 23087
L27362 23443
" />
<path d="M25933 22807
L26664 23087
" />
<path d="M25177 22604
L25933 22807
" />
<path d="M24403 22481
L25177 22604
" />
<path d="M23622 22440
L24403 22481
" />
<path d="M22840 22481
L23622 22440
" />
<path d="M22066 22604
L22840 22481
" />
<path d="M21310 22807
L22066 22604
" />
<path d="M20579 23087
L21310 22807
" />
<path d="M19881 23443
L20579 23087
" />
<path d="M19225 23869
L19881 23443
" />
<path d="M18616 24362
L19225 23869
" />
<path d="M18063 24915
L18616 24362
" />
<path d="M17570 25524
L18063 24915
" />
<path d="M17143 26181
L17570 25524
" />
<path d="M16788 26878
L17143 26181
" />
<path d="M16507 27609
L16788 26878
" />
<path d="M16305 28366
L16507 27609
" />
<path d="M16182 29139
L16305 28366
" />
<path d="M16141 29921
L16182 29139
" />
<path d="M16182 30703
L16141 29921
" />
<path d="M16305 31476
L16182 30703
" />
<path d="M16507 32232
L16305 31476
" />
<path d="M16788 32963
L16507 32232
" />
<path d="M17143 33661
L16788 32963
" />
<path d="M17570 34318
L17143 33661
" />
<path d="M18063 34926
L17570 34318
" />
<path d="M18616 35480
L18063 34926
" />
<path d="M19225 35972
L18616 35480
" />
<path d="M19881 36399
L19225 35972
" />
<path d="M20579 36754
L19881 36399
" />
<path d="M21310 37035
L20579 36754
" />
<path d="M22066 37238
L21310 37035
" />
<path d="M22840 37360
L22066 37238
" />
<path d="M33267 20669
L33205 20666
" />
<path d="M33329 20666
L33267 20669
" />
<path d="M33390 20656
L33329 20666
" />
<path d="M33450 20640
L33390 20656
" />
<path d="M33507 20618
L33450 20640
" />
<path d="M33562 20590
L33507 20618
" />
<path d="M33614 20556
L33562 20590
" />
<path d="M33662 20517
L33614 20556
" />
<path d="M33706 20473
L33662 20517
" />
<path d="M33745 20425
L33706 20473
" />
<path d="M33779 20374
L33745 20425
" />
<path d="M33807 20318
L33779 20374
" />
<path d="M33829 20261
L33807 20318
" />
<path d="M33845 20201
L33829 20261
" />
<path d="M33855 20140
L33845 20201
" />
<path d="M33858 20078
L33855 20140
" />
<path d="M33855 20017
L33858 20078
" />
<path d="M33845 19955
L33855 20017
" />
<path d="M33829 19896
L33845 19955
" />
<path d="M33807 19838
L33829 19896
" />
<path d="M33779 19783
L33807 19838
" />
<path d="M33745 19731
L33779 19783
" />
<path d="M33706 19683
L33745 19731
" />
<path d="M33662 19639
L33706 19683
" />
<path d="M33614 19600
L33662 19639
" />
<path d="M33562 19567
L33614 19600
" />
<path d="M33507 19539
L33562 19567
" />
<path d="M33450 19517
L33507 19539
" />
<path d="M33390 19501
L33450 19517
" />
<path d="M33329 19491
L33390 19501
" />
<path d="M33267 19488
L33329 19491
" />
<path d="M33205 19491
L33267 19488
" />
<path d="M33144 19501
L33205 19491
" />
<path d="M33085 19517
L33144 19501
" />
<path d="M33027 19539
L33085 19517
" />
<path d="M32972 19567
L33027 19539
" />
<path d="M32920 19600
L32972 19567
" />
<path d="M32872 19639
L32920 19600
" />
<path d="M32828 19683
L32872 19639
" />
<path d="M32789 19731
L32828 19683
" />
<path d="M32756 19783
L32789 19731
" />
<path d="M32728 19838
L32756 19783
" />
<path d="M32706 19896
L32728 19838
" />
<path d="M32690 19955
L32706 19896
" />
<path d="M32680 20017
L32690 19955
" />
<path d="M32677 20078
L32680 20017
" />
<path d="M32680 20140
L32677 20078
" />
<path d="M32690 20201
L32680 20140
" />
<path d="M32706 20261
L32690 20201
" />
<path d="M32728 20318
L32706 20261
" />
<path d="M32756 20374
L32728 20318
" />
<path d="M32789 20425
L32756 20374
" />
<path d="M32828 20473
L32789 20425
" />
<path d="M32872 20517
L32828 20473
" />
<path d="M32920 20556
L32872 20517
" />
<path d="M32972 20590
L32920 20556
" />
<path d="M33027 20618
L32972 20590
" />
<path d="M33085 20640
L33027 20618
" />
<path d="M33144 20656
L33085 20640
" />
<path d="M33205 20666
L33144 20656
" />
<path d="M77362 19685
L77300 19681
" />
<path d="M77423 19681
L77362 19685
" />
<path d="M77484 19672
L77423 19681
" />
<path d="M77544 19656
L77484 19672
" />
<path d="M77602 19633
L77544 19656
" />
<path d="M77657 19605
L77602 19633
" />
<path d="M77709 19572
L77657 19605
" />
<path d="M77757 19533
L77709 19572
" />
<path d="M77801 19489
L77757 19533
" />
<path d="M77839 19441
L77801 19489
" />
<path d="M77873 19389
L77839 19441
" />
<path d="M77901 19334
L77873 19389
" />
<path d="M77923 19276
L77901 19334
" />
<path d="M77939 19217
L77923 19276
" />
<path d="M77949 19156
L77939 19217
" />
<path d="M77952 19094
L77949 19156
" />
<path d="M77949 19032
L77952 19094
" />
<path d="M77939 18971
L77949 19032
" />
<path d="M77923 18912
L77939 18971
" />
<path d="M77901 18854
L77923 18912
" />
<path d="M77873 18799
L77901 18854
" />
<path d="M77839 18747
L77873 18799
" />
<path d="M77801 18699
L77839 18747
" />
<path d="M77757 18655
L77801 18699
" />
<path d="M77709 18616
L77757 18655
" />
<path d="M77657 18583
L77709 18616
" />
<path d="M77602 18555
L77657 18583
" />
<path d="M77544 18532
L77602 18555
" />
<path d="M77484 18516
L77544 18532
" />
<path d="M77423 18507
L77484 18516
" />
<path d="M77362 18503
L77423 18507
" />
<path d="M77300 18507
L77362 18503
" />
<path d="M77239 18516
L77300 18507
" />
<path d="M77179 18532
L77239 18516
" />
<path d="M77122 18555
L77179 18532
" />
<path d="M77066 18583
L77122 18555
" />
<path d="M77015 18616
L77066 18583
" />
<path d="M76967 18655
L77015 18616
" />
<path d="M76923 18699
L76967 18655
" />
<path d="M76884 18747
L76923 18699
" />
<path d="M76850 18799
L76884 18747
" />
<path d="M76822 18854
L76850 18799
" />
<path d="M76800 18912
L76822 18854
" />
<path d="M76784 18971
L76800 18912
" />
<path d="M76774 19032
L76784 18971
" />
<path d="M76771 19094
L76774 19032
" />
<path d="M76774 19156
L76771 19094
" />
<path d="M76784 19217
L76774 19156
" />
<path d="M76800 19276
L76784 19217
" />
<path d="M76822 19334
L76800 19276
" />
<path d="M76850 19389
L76822 19334
" />
<path d="M76884 19441
L76850 19389
" />
<path d="M76923 19489
L76884 19441
" />
<path d="M76967 19533
L76923 19489
" />
<path d="M77015 19572
L76967 19533
" />
<path d="M77066 19605
L77015 19572
" />
<path d="M77122 19633
L77066 19605
" />
<path d="M77179 19656
L77122 19633
" />
<path d="M77239 19672
L77179 19656
" />
<path d="M77300 19681
L77239 19672
" />
<path d="M11023 19488
L10961 19484
" />
<path d="M11085 19484
L11023 19488
" />
<path d="M11146 19475
L11085 19484
" />
<path d="M11206 19459
L11146 19475
" />
<path d="M11263 19437
L11206 19459
" />
<path d="M11318 19409
L11263 19437
" />
<path d="M11370 19375
L11318 19409
" />
<path d="M11418 19336
L11370 19375
" />
<path d="M11462 19292
L11418 19336
" />
<path d="M11501 19244
L11462 19292
" />
<path d="M11535 19192
L11501 19244
" />
<path d="M11563 19137
L11535 19192
" />
<path d="M11585 19080
L11563 19137
" />
<path d="M11601 19020
L11585 19080
" />
<path d="M11610 18959
L11601 19020
" />
<path d="M11614 18897
L11610 18959
" />
<path d="M11610 18835
L11614 18897
" />
<path d="M11601 18774
L11610 18835
" />
<path d="M11585 18715
L11601 18774
" />
<path d="M11563 18657
L11585 18715
" />
<path d="M11535 18602
L11563 18657
" />
<path d="M11501 18550
L11535 18602
" />
<path d="M11462 18502
L11501 18550
" />
<path d="M11418 18458
L11462 18502
" />
<path d="M11370 18419
L11418 18458
" />
<path d="M11318 18386
L11370 18419
" />
<path d="M11263 18358
L11318 18386
" />
<path d="M11206 18335
L11263 18358
" />
<path d="M11146 18320
L11206 18335
" />
<path d="M11085 18310
L11146 18320
" />
<path d="M11023 18307
L11085 18310
" />
<path d="M10961 18310
L11023 18307
" />
<path d="M10900 18320
L10961 18310
" />
<path d="M10841 18335
L10900 18320
" />
<path d="M10783 18358
L10841 18335
" />
<path d="M10728 18386
L10783 18358
" />
<path d="M10676 18419
L10728 18386
" />
<path d="M10628 18458
L10676 18419
" />
<path d="M10584 18502
L10628 18458
" />
<path d="M10545 18550
L10584 18502
" />
<path d="M10512 18602
L10545 18550
" />
<path d="M10484 18657
L10512 18602
" />
<path d="M10461 18715
L10484 18657
" />
<path d="M10445 18774
L10461 18715
" />
<path d="M10436 18835
L10445 18774
" />
<path d="M10433 18897
L10436 18835
" />
<path d="M10436 18959
L10433 18897
" />
<path d="M10445 19020
L10436 18959
" />
<path d="M10461 19080
L10445 19020
" />
<path d="M10484 19137
L10461 19080
" />
<path d="M10512 19192
L10484 19137
" />
<path d="M10545 19244
L10512 19192
" />
<path d="M10584 19292
L10545 19244
" />
<path d="M10628 19336
L10584 19292
" />
<path d="M10676 19375
L10628 19336
" />
<path d="M10728 19409
L10676 19375
" />
<path d="M10783 19437
L10728 19409
" />
<path d="M10841 19459
L10783 19437
" />
<path d="M10900 19475
L10841 19459
" />
<path d="M10961 19484
L10900 19475
" />
<path d="M62204 14960
L62122 14956
" />
<path d="M62287 14956
L62204 14960
" />
<path d="M62368 14943
L62287 14956
" />
<path d="M62448 14922
L62368 14943
" />
<path d="M62525 14892
L62448 14922
" />
<path d="M62598 14855
L62525 14892
" />
<path d="M62667 14810
L62598 14855
" />
<path d="M62731 14758
L62667 14810
" />
<path d="M62789 14700
L62731 14758
" />
<path d="M62841 14636
L62789 14700
" />
<path d="M62886 14566
L62841 14636
" />
<path d="M62924 14493
L62886 14566
" />
<path d="M62953 14416
L62924 14493
" />
<path d="M62974 14336
L62953 14416
" />
<path d="M62987 14255
L62974 14336
" />
<path d="M62992 14173
L62987 14255
" />
<path d="M62987 14090
L62992 14173
" />
<path d="M62974 14009
L62987 14090
" />
<path d="M62953 13929
L62974 14009
" />
<path d="M62924 13852
L62953 13929
" />
<path d="M62886 13779
L62924 13852
" />
<path d="M62841 13710
L62886 13779
" />
<path d="M62789 13646
L62841 13710
" />
<path d="M62731 13588
L62789 13646
" />
<path d="M62667 13536
L62731 13588
" />
<path d="M62598 13491
L62667 13536
" />
<path d="M62525 13453
L62598 13491
" />
<path d="M62448 13424
L62525 13453
" />
<path d="M62368 13403
L62448 13424
" />
<path d="M62287 13390
L62368 13403
" />
<path d="M62204 13385
L62287 13390
" />
<path d="M62122 13390
L62204 13385
" />
<path d="M62041 13403
L62122 13390
" />
<path d="M61961 13424
L62041 13403
" />
<path d="M61884 13453
L61961 13424
" />
<path d="M61811 13491
L61884 13453
" />
<path d="M61741 13536
L61811 13491
" />
<path d="M61677 13588
L61741 13536
" />
<path d="M61619 13646
L61677 13588
" />
<path d="M61567 13710
L61619 13646
" />
<path d="M61522 13779
L61567 13710
" />
<path d="M61485 13852
L61522 13779
" />
<path d="M61455 13929
L61485 13852
" />
<path d="M61434 14009
L61455 13929
" />
<path d="M61421 14090
L61434 14009
" />
<path d="M61417 14173
L61421 14090
" />
<path d="M61421 14255
L61417 14173
" />
<path d="M61434 14336
L61421 14255
" />
<path d="M61455 14416
L61434 14336
" />
<path d="M61485 14493
L61455 14416
" />
<path d="M61522 14566
L61485 14493
" />
<path d="M61567 14636
L61522 14566
" />
<path d="M61619 14700
L61567 14636
" />
<path d="M61677 14758
L61619 14700
" />
<path d="M61741 14810
L61677 14758
" />
<path d="M61811 14855
L61741 14810
" />
<path d="M61884 14892
L61811 14855
" />
<path d="M61961 14922
L61884 14892
" />
<path d="M62041 14943
L61961 14922
" />
<path d="M62122 14956
L62041 14943
" />
<path d="M49606 14960
L49523 14956
" />
<path d="M49688 14956
L49606 14960
" />
<path d="M49770 14943
L49688 14956
" />
<path d="M49849 14922
L49770 14943
" />
<path d="M49926 14892
L49849 14922
" />
<path d="M50000 14855
L49926 14892
" />
<path d="M50069 14810
L50000 14855
" />
<path d="M50133 14758
L50069 14810
" />
<path d="M50191 14700
L50133 14758
" />
<path d="M50243 14636
L50191 14700
" />
<path d="M50288 14566
L50243 14636
" />
<path d="M50325 14493
L50288 14566
" />
<path d="M50355 14416
L50325 14493
" />
<path d="M50376 14336
L50355 14416
" />
<path d="M50389 14255
L50376 14336
" />
<path d="M50393 14173
L50389 14255
" />
<path d="M50389 14090
L50393 14173
" />
<path d="M50376 14009
L50389 14090
" />
<path d="M50355 13929
L50376 14009
" />
<path d="M50325 13852
L50355 13929
" />
<path d="M50288 13779
L50325 13852
" />
<path d="M50243 13710
L50288 13779
" />
<path d="M50191 13646
L50243 13710
" />
<path d="M50133 13588
L50191 13646
" />
<path d="M50069 13536
L50133 13588
" />
<path d="M50000 13491
L50069 13536
" />
<path d="M49926 13453
L50000 13491
" />
<path d="M49849 13424
L49926 13453
" />
<path d="M49770 13403
L49849 13424
" />
<path d="M49688 13390
L49770 13403
" />
<path d="M49606 13385
L49688 13390
" />
<path d="M49523 13390
L49606 13385
" />
<path d="M49442 13403
L49523 13390
" />
<path d="M49362 13424
L49442 13403
" />
<path d="M49286 13453
L49362 13424
" />
<path d="M49212 13491
L49286 13453
" />
<path d="M49143 13536
L49212 13491
" />
<path d="M49079 13588
L49143 13536
" />
<path d="M49021 13646
L49079 13588
" />
<path d="M48969 13710
L49021 13646
" />
<path d="M48924 13779
L48969 13710
" />
<path d="M48886 13852
L48924 13779
" />
<path d="M48857 13929
L48886 13852
" />
<path d="M48836 14009
L48857 13929
" />
<path d="M48823 14090
L48836 14009
" />
<path d="M48818 14173
L48823 14090
" />
<path d="M48823 14255
L48818 14173
" />
<path d="M48836 14336
L48823 14255
" />
<path d="M48857 14416
L48836 14336
" />
<path d="M48886 14493
L48857 14416
" />
<path d="M48924 14566
L48886 14493
" />
<path d="M48969 14636
L48924 14566
" />
<path d="M49021 14700
L48969 14636
" />
<path d="M49079 14758
L49021 14700
" />
<path d="M49143 14810
L49079 14758
" />
<path d="M49212 14855
L49143 14810
" />
<path d="M49286 14892
L49212 14855
" />
<path d="M49362 14922
L49286 14892
" />
<path d="M49442 14943
L49362 14922
" />
<path d="M49523 14956
L49442 14943
" />
<path d="M55905 27952
L55123 27911
" />
<path d="M56687 27911
L55905 27952
" />
<path d="M57460 27789
L56687 27911
" />
<path d="M58217 27586
L57460 27789
" />
<path d="M58948 27306
L58217 27586
" />
<path d="M59645 26950
L58948 27306
" />
<path d="M60302 26524
L59645 26950
" />
<path d="M60910 26031
L60302 26524
" />
<path d="M61464 25477
L60910 26031
" />
<path d="M61957 24869
L61464 25477
" />
<path d="M62383 24212
L61957 24869
" />
<path d="M62739 23514
L62383 24212
" />
<path d="M63019 22783
L62739 23514
" />
<path d="M63222 22027
L63019 22783
" />
<path d="M63344 21254
L63222 22027
" />
<path d="M63385 20472
L63344 21254
" />
<path d="M63344 19690
L63385 20472
" />
<path d="M63222 18917
L63344 19690
" />
<path d="M63019 18160
L63222 18917
" />
<path d="M62739 17429
L63019 18160
" />
<path d="M62383 16732
L62739 17429
" />
<path d="M61957 16075
L62383 16732
" />
<path d="M61464 15467
L61957 16075
" />
<path d="M60910 14913
L61464 15467
" />
<path d="M60302 14420
L60910 14913
" />
<path d="M59645 13994
L60302 14420
" />
<path d="M58948 13638
L59645 13994
" />
<path d="M58217 13358
L58948 13638
" />
<path d="M57460 13155
L58217 13358
" />
<path d="M56687 13033
L57460 13155
" />
<path d="M55905 12992
L56687 13033
" />
<path d="M55123 13033
L55905 12992
" />
<path d="M54350 13155
L55123 13033
" />
<path d="M53593 13358
L54350 13155
" />
<path d="M52862 13638
L53593 13358
" />
<path d="M52165 13994
L52862 13638
" />
<path d="M51508 14420
L52165 13994
" />
<path d="M50900 14913
L51508 14420
" />
<path d="M50346 15467
L50900 14913
" />
<path d="M49853 16075
L50346 15467
" />
<path d="M49427 16732
L49853 16075
" />
<path d="M49071 17429
L49427 16732
" />
<path d="M48791 18160
L49071 17429
" />
<path d="M48588 18917
L48791 18160
" />
<path d="M48466 19690
L48588 18917
" />
<path d="M48425 20472
L48466 19690
" />
<path d="M48466 21254
L48425 20472
" />
<path d="M48588 22027
L48466 21254
" />
<path d="M48791 22783
L48588 22027
" />
<path d="M49071 23514
L48791 22783
" />
<path d="M49427 24212
L49071 23514
" />
<path d="M49853 24869
L49427 24212
" />
<path d="M50346 25477
L49853 24869
" />
<path d="M50900 26031
L50346 25477
" />
<path d="M51508 26524
L50900 26031
" />
<path d="M52165 26950
L51508 26524
" />
<path d="M52862 27306
L52165 26950
" />
<path d="M53593 27586
L52862 27306
" />
<path d="M54350 27789
L53593 27586
" />
<path d="M55123 27911
L54350 27789
" />
<path d="M47244 11614
L47182 11610
" />
<path d="M47305 11610
L47244 11614
" />
<path d="M47366 11601
L47305 11610
" />
<path d="M47426 11585
L47366 11601
" />
<path d="M47484 11563
L47426 11585
" />
<path d="M47539 11535
L47484 11563
" />
<path d="M47591 11501
L47539 11535
" />
<path d="M47639 11462
L47591 11501
" />
<path d="M47682 11418
L47639 11462
" />
<path d="M47721 11370
L47682 11418
" />
<path d="M47755 11318
L47721 11370
" />
<path d="M47783 11263
L47755 11318
" />
<path d="M47805 11206
L47783 11263
" />
<path d="M47821 11146
L47805 11206
" />
<path d="M47831 11085
L47821 11146
" />
<path d="M47834 11023
L47831 11085
" />
<path d="M47831 10961
L47834 11023
" />
<path d="M47821 10900
L47831 10961
" />
<path d="M47805 10841
L47821 10900
" />
<path d="M47783 10783
L47805 10841
" />
<path d="M47755 10728
L47783 10783
" />
<path d="M47721 10676
L47755 10728
" />
<path d="M47682 10628
L47721 10676
" />
<path d="M47639 10584
L47682 10628
" />
<path d="M47591 10545
L47639 10584
" />
<path d="M47539 10512
L47591 10545
" />
<path d="M47484 10484
L47539 10512
" />
<path d="M47426 10461
L47484 10484
" />
<path d="M47366 10445
L47426 10461
" />
<path d="M47305 10436
L47366 10445
" />
<path d="M47244 10433
L47305 10436
" />
<path d="M47182 10436
L47244 10433
" />
<path d="M47121 10445
L47182 10436
" />
<path d="M47061 10461
L47121 10445
" />
<path d="M47003 10484
L47061 10461
" />
<path d="M46948 10512
L47003 10484
" />
<path d="M46896 10545
L46948 10512
" />
<path d="M46848 10584
L46896 10545
" />
<path d="M46805 10628
L46848 10584
" />
<path d="M46766 10676
L46805 10628
" />
<path d="M46732 10728
L46766 10676
" />
<path d="M46704 10783
L46732 10728
" />
<path d="M46682 10841
L46704 10783
" />
<path d="M46666 10900
L46682 10841
" />
<path d="M46656 10961
L46666 10900
" />
<path d="M46653 11023
L46656 10961
" />
<path d="M46656 11085
L46653 11023
" />
<path d="M46666 11146
L46656 11085
" />
<path d="M46682 11206
L46666 11146
" />
<path d="M46704 11263
L46682 11206
" />
<path d="M46732 11318
L46704 11263
" />
<path d="M46766 11370
L46732 11318
" />
<path d="M46805 11418
L46766 11370
" />
<path d="M46848 11462
L46805 11418
" />
<path d="M46896 11501
L46848 11462
" />
<path d="M46948 11535
L46896 11501
" />
<path d="M47003 11563
L46948 11535
" />
<path d="M47061 11585
L47003 11563
" />
<path d="M47121 11601
L47061 11585
" />
<path d="M47182 11610
L47121 11601
" />
<path d="M20866 11614
L20804 11610
" />
<path d="M20927 11610
L20866 11614
" />
<path d="M20988 11601
L20927 11610
" />
<path d="M21048 11585
L20988 11601
" />
<path d="M21106 11563
L21048 11585
" />
<path d="M21161 11535
L21106 11563
" />
<path d="M21213 11501
L21161 11535
" />
<path d="M21261 11462
L21213 11501
" />
<path d="M21305 11418
L21261 11462
" />
<path d="M21343 11370
L21305 11418
" />
<path d="M21377 11318
L21343 11370
" />
<path d="M21405 11263
L21377 11318
" />
<path d="M21427 11206
L21405 11263
" />
<path d="M21443 11146
L21427 11206
" />
<path d="M21453 11085
L21443 11146
" />
<path d="M21456 11023
L21453 11085
" />
<path d="M21453 10961
L21456 11023
" />
<path d="M21443 10900
L21453 10961
" />
<path d="M21427 10841
L21443 10900
" />
<path d="M21405 10783
L21427 10841
" />
<path d="M21377 10728
L21405 10783
" />
<path d="M21343 10676
L21377 10728
" />
<path d="M21305 10628
L21343 10676
" />
<path d="M21261 10584
L21305 10628
" />
<path d="M21213 10545
L21261 10584
" />
<path d="M21161 10512
L21213 10545
" />
<path d="M21106 10484
L21161 10512
" />
<path d="M21048 10461
L21106 10484
" />
<path d="M20988 10445
L21048 10461
" />
<path d="M20927 10436
L20988 10445
" />
<path d="M20866 10433
L20927 10436
" />
<path d="M20804 10436
L20866 10433
" />
<path d="M20743 10445
L20804 10436
" />
<path d="M20683 10461
L20743 10445
" />
<path d="M20625 10484
L20683 10461
" />
<path d="M20570 10512
L20625 10484
" />
<path d="M20519 10545
L20570 10512
" />
<path d="M20470 10584
L20519 10545
" />
<path d="M20427 10628
L20470 10584
" />
<path d="M20388 10676
L20427 10628
" />
<path d="M20354 10728
L20388 10676
" />
<path d="M20326 10783
L20354 10728
" />
<path d="M20304 10841
L20326 10783
" />
<path d="M20288 10900
L20304 10841
" />
<path d="M20278 10961
L20288 10900
" />
<path d="M20275 11023
L20278 10961
" />
<path d="M20278 11085
L20275 11023
" />
<path d="M20288 11146
L20278 11085
" />
<path d="M20304 11206
L20288 11146
" />
<path d="M20326 11263
L20304 11206
" />
<path d="M20354 11318
L20326 11263
" />
<path d="M20388 11370
L20354 11318
" />
<path d="M20427 11418
L20388 11370
" />
<path d="M20470 11462
L20427 11418
" />
<path d="M20519 11501
L20470 11462
" />
<path d="M20570 11535
L20519 11501
" />
<path d="M20625 11563
L20570 11535
" />
<path d="M20683 11585
L20625 11563
" />
<path d="M20743 11601
L20683 11585
" />
<path d="M20804 11610
L20743 11601
" />
<path d="M73622 11614
L73560 11610
" />
<path d="M73683 11610
L73622 11614
" />
<path d="M73744 11601
L73683 11610
" />
<path d="M73804 11585
L73744 11601
" />
<path d="M73862 11563
L73804 11585
" />
<path d="M73917 11535
L73862 11563
" />
<path d="M73969 11501
L73917 11535
" />
<path d="M74017 11462
L73969 11501
" />
<path d="M74060 11418
L74017 11462
" />
<path d="M74099 11370
L74060 11418
" />
<path d="M74133 11318
L74099 11370
" />
<path d="M74161 11263
L74133 11318
" />
<path d="M74183 11206
L74161 11263
" />
<path d="M74199 11146
L74183 11206
" />
<path d="M74209 11085
L74199 11146
" />
<path d="M74212 11023
L74209 11085
" />
<path d="M74209 10961
L74212 11023
" />
<path d="M74199 10900
L74209 10961
" />
<path d="M74183 10841
L74199 10900
" />
<path d="M74161 10783
L74183 10841
" />
<path d="M74133 10728
L74161 10783
" />
<path d="M74099 10676
L74133 10728
" />
<path d="M74060 10628
L74099 10676
" />
<path d="M74017 10584
L74060 10628
" />
<path d="M73969 10545
L74017 10584
" />
<path d="M73917 10512
L73969 10545
" />
<path d="M73862 10484
L73917 10512
" />
<path d="M73804 10461
L73862 10484
" />
<path d="M73744 10445
L73804 10461
" />
<path d="M73683 10436
L73744 10445
" />
<path d="M73622 10433
L73683 10436
" />
<path d="M73560 10436
L73622 10433
" />
<path d="M73499 10445
L73560 10436
" />
<path d="M73439 10461
L73499 10445
" />
<path d="M73381 10484
L73439 10461
" />
<path d="M73326 10512
L73381 10484
" />
<path d="M73274 10545
L73326 10512
" />
<path d="M73226 10584
L73274 10545
" />
<path d="M73183 10628
L73226 10584
" />
<path d="M73144 10676
L73183 10628
" />
<path d="M73110 10728
L73144 10676
" />
<path d="M73082 10783
L73110 10728
" />
<path d="M73060 10841
L73082 10783
" />
<path d="M73044 10900
L73060 10841
" />
<path d="M73034 10961
L73044 10900
" />
<path d="M73031 11023
L73034 10961
" />
<path d="M73034 11085
L73031 11023
" />
<path d="M73044 11146
L73034 11085
" />
<path d="M73060 11206
L73044 11146
" />
<path d="M73082 11263
L73060 11206
" />
<path d="M73110 11318
L73082 11263
" />
<path d="M73144 11370
L73110 11318
" />
<path d="M73183 11418
L73144 11370
" />
<path d="M73226 11462
L73183 11418
" />
<path d="M73274 11501
L73226 11462
" />
<path d="M73326 11535
L73274 11501
" />
<path d="M73381 11563
L73326 11535
" />
<path d="M73439 11585
L73381 11563
" />
<path d="M73499 11601
L73439 11585
" />
<path d="M73560 11610
L73499 11601
" />
<path d="M78740 59842
L78740 17716
" />
<path d="M34645 59842
L78740 59842
" />
<path d="M34645 44094
L34645 59842
" />
<path d="M9842 44094
L34645 44094
" />
<path d="M9842 17716
L9842 44094
" />
<path d="M19685 17716
L9842 17716
" />
<path d="M19685 9842
L19685 17716
" />
<path d="M74803 9842
L19685 9842
" />
<path d="M74803 17716
L74803 9842
" />
<path d="M78740 17716
L74803 17716
" />
<g >
</g>
<g >
</g>
<g >
</g>
<g >
</g>
<g >
</g>
<g >
</g>
<g >
</g>
<g >
</g>
<g >
</g>
<g >
</g>
<g >
</g>
<g >
</g>
<g >
</g>
<g >
</g>
<g >
</g>
<g >
</g>
<g >
</g>
<g >
</g>
<g >
</g>
<g >
</g>
<g >
</g>
<g >
</g>
<g >
</g>
<g >
</g>
<g >
</g>
<g >
</g>
<g >
</g>
<g >
</g>
<g >
</g>
<g >
</g>
<g >
</g>
<g >
</g>
<g >
</g>
<g >
</g>
<g >
</g>
<g >
</g>
<g >
</g>
<g >
</g>
<g >
</g>
<g >
</g>
<g >
</g>
<g >
</g>
<g >
</g>
<g >
</g>
<g >
</g>
<g >
</g>
<g >
</g>
<g >
</g>
<g >
</g>
<g >
</g>
<g >
</g>
<g >
</g>
<g >
</g>
<g >
</g>
<g >
</g>
<g >
</g>
<g >
</g>
<g >
</g>
<g >
</g>
<g >
</g>
<g >
</g>
<g >
</g>
<g >
</g>
<g >
</g>
<g >
</g>
<g >
</g>
<g >
</g>
<g >
</g>
<g >
</g>
<g >
</g>
<g >
</g>
<g >
</g>
<g >
</g>
<g >
</g>
<g >
</g>
<g >
</g>
<g >
</g>
<g >
</g>
<g >
</g>
<g >
</g>
<g >
</g>
<g >
</g>
<g >
</g>
<g >
</g>
<g >
</g>
<g >
</g>
<g >
</g>
</g> 
</svg>
