<?xml version="1.0" standalone="no"?>
 <!DOCTYPE svg PUBLIC "-//W3C//DTD SVG 1.1//EN" 
 "http://www.w3.org/Graphics/SVG/1.1/DTD/svg11.dtd"> 
<svg xmlns="http://www.w3.org/2000/svg" version="1.1" 
    width="22.9997cm" height="21.9989cm" viewBox="0 0 90550 86610 ">
<title>SVG Picture created as motherboard-F_Paste.svg date 2020/11/12 16:50:21 </title>
  <desc>Picture generated by PCBNEW </desc>
<g style="fill:#000000; fill-opacity:1;stroke:#000000; stroke-opacity:1;
stroke-linecap:round; stroke-linejoin:round; "
 transform="translate(0 0) scale(1 1)">
</g>
<g style="fill:#000000; fill-opacity:0.0; 
stroke:#000000; stroke-width:-0.000393701; stroke-opacity:1; 
stroke-linecap:round; stroke-linejoin:round;">
<g >
</g>
<g >
</g>
<g >
</g>
<g >
</g>
<g >
</g>
<g >
</g>
<g style="fill:#000000; fill-opacity:0.0; 
stroke:#000000; stroke-width:-0.000393701; stroke-opacity:1; 
stroke-linecap:round; stroke-linejoin:round;">
</g>
<g style="fill:#000000; fill-opacity:0.0; 
stroke:#000000; stroke-width:0; stroke-opacity:1; 
stroke-linecap:round; stroke-linejoin:round;">
</g>
<g style="fill:#000000; fill-opacity:1.0; 
stroke:#000000; stroke-width:0; stroke-opacity:1; 
stroke-linecap:round; stroke-linejoin:round;">
<path style="fill:#000000; fill-opacity:1.0; 
stroke:#000000; stroke-width:0; stroke-opacity:1; 
stroke-linecap:round; stroke-linejoin:round;fill-rule:evenodd;"
d="M 48651.4,25532
48660.9,25533.4
48670.3,25535.7
48679.4,25539
48688.1,25543.1
48696.4,25548.1
48704.2,25553.8
48711.3,25560.3
48717.8,25567.5
48723.6,25575.2
48728.5,25583.5
48732.7,25592.3
48735.9,25601.3
48738.3,25610.7
48739.7,25620.3
48740.2,25629.9
48740.2,26476.4
48739.7,26486
48738.3,26495.6
48735.9,26504.9
48732.7,26514
48728.5,26522.8
48723.6,26531.1
48717.8,26538.8
48711.3,26546
48704.2,26552.5
48696.4,26558.2
48688.1,26563.2
48679.4,26567.3
48670.3,26570.6
48660.9,26572.9
48651.4,26574.3
48641.7,26574.8
48277.6,26574.8
48267.9,26574.3
48258.4,26572.9
48249,26570.6
48239.9,26567.3
48231.2,26563.2
48222.9,26558.2
48215.1,26552.5
48208,26546
48201.5,26538.8
48195.7,26531.1
48190.8,26522.8
48186.6,26514
48183.4,26504.9
48181,26495.6
48179.6,26486
48179.1,26476.4
48179.1,25629.9
48179.6,25620.3
48181,25610.7
48183.4,25601.3
48186.6,25592.3
48190.8,25583.5
48195.7,25575.2
48201.5,25567.5
48208,25560.3
48215.1,25553.8
48222.9,25548.1
48231.2,25543.1
48239.9,25539
48249,25535.7
48258.4,25533.4
48267.9,25532
48277.6,25531.5
48641.7,25531.5
Z" /> 
<path style="fill:#000000; fill-opacity:1.0; 
stroke:#000000; stroke-width:0; stroke-opacity:1; 
stroke-linecap:round; stroke-linejoin:round;fill-rule:evenodd;"
d="M 49822.6,25532
49832.2,25533.4
49841.6,25535.7
49850.7,25539
49859.4,25543.1
49867.7,25548.1
49875.4,25553.8
49882.6,25560.3
49889.1,25567.5
49894.8,25575.2
49899.8,25583.5
49903.9,25592.3
49907.2,25601.3
49909.5,25610.7
49910.9,25620.3
49911.4,25629.9
49911.4,26476.4
49910.9,26486
49909.5,26495.6
49907.2,26504.9
49903.9,26514
49899.8,26522.8
49894.8,26531.1
49889.1,26538.8
49882.6,26546
49875.4,26552.5
49867.7,26558.2
49859.4,26563.2
49850.7,26567.3
49841.6,26570.6
49832.2,26572.9
49822.6,26574.3
49813,26574.8
49448.8,26574.8
49439.2,26574.3
49429.6,26572.9
49420.2,26570.6
49411.2,26567.3
49402.4,26563.2
49394.1,26558.2
49386.4,26552.5
49379.2,26546
49372.7,26538.8
49367,26531.1
49362,26522.8
49357.9,26514
49354.6,26504.9
49352.3,26495.6
49350.9,26486
49350.4,26476.4
49350.4,25629.9
49350.9,25620.3
49352.3,25610.7
49354.6,25601.3
49357.9,25592.3
49362,25583.5
49367,25575.2
49372.7,25567.5
49379.2,25560.3
49386.4,25553.8
49394.1,25548.1
49402.4,25543.1
49411.2,25539
49420.2,25535.7
49429.6,25533.4
49439.2,25532
49448.8,25531.5
49813,25531.5
Z" /> 
</g>
<g >
</g>
<g style="fill:#000000; fill-opacity:1.0; 
stroke:#000000; stroke-width:0; stroke-opacity:1; 
stroke-linecap:round; stroke-linejoin:round;">
<path style="fill:#000000; fill-opacity:1.0; 
stroke:#000000; stroke-width:0; stroke-opacity:1; 
stroke-linecap:round; stroke-linejoin:round;fill-rule:evenodd;"
d="M 51968.3,25532
51977.9,25533.4
51987.2,25535.7
51996.3,25539
52005.1,25543.1
52013.3,25548.1
52021.1,25553.8
52028.3,25560.3
52034.7,25567.5
52040.5,25575.2
52045.5,25583.5
52049.6,25592.3
52052.8,25601.3
52055.2,25610.7
52056.6,25620.3
52057.1,25629.9
52057.1,26476.4
52056.6,26486
52055.2,26495.6
52052.8,26504.9
52049.6,26514
52045.5,26522.8
52040.5,26531.1
52034.7,26538.8
52028.3,26546
52021.1,26552.5
52013.3,26558.2
52005.1,26563.2
51996.3,26567.3
51987.2,26570.6
51977.9,26572.9
51968.3,26574.3
51958.7,26574.8
51594.5,26574.8
51584.8,26574.3
51575.3,26572.9
51565.9,26570.6
51556.8,26567.3
51548.1,26563.2
51539.8,26558.2
51532,26552.5
51524.9,26546
51518.4,26538.8
51512.7,26531.1
51507.7,26522.8
51503.6,26514
51500.3,26504.9
51498,26495.6
51496.5,26486
51496.1,26476.4
51496.1,25629.9
51496.5,25620.3
51498,25610.7
51500.3,25601.3
51503.6,25592.3
51507.7,25583.5
51512.7,25575.2
51518.4,25567.5
51524.9,25560.3
51532,25553.8
51539.8,25548.1
51548.1,25543.1
51556.8,25539
51565.9,25535.7
51575.3,25533.4
51584.8,25532
51594.5,25531.5
51958.7,25531.5
Z" /> 
<path style="fill:#000000; fill-opacity:1.0; 
stroke:#000000; stroke-width:0; stroke-opacity:1; 
stroke-linecap:round; stroke-linejoin:round;fill-rule:evenodd;"
d="M 50797,25532
50806.6,25533.4
50816,25535.7
50825.1,25539
50833.8,25543.1
50842.1,25548.1
50849.8,25553.8
50857,25560.3
50863.5,25567.5
50869.2,25575.2
50874.2,25583.5
50878.3,25592.3
50881.6,25601.3
50883.9,25610.7
50885.4,25620.3
50885.8,25629.9
50885.8,26476.4
50885.4,26486
50883.9,26495.6
50881.6,26504.9
50878.3,26514
50874.2,26522.8
50869.2,26531.1
50863.5,26538.8
50857,26546
50849.8,26552.5
50842.1,26558.2
50833.8,26563.2
50825.1,26567.3
50816,26570.6
50806.6,26572.9
50797,26574.3
50787.4,26574.8
50423.2,26574.8
50413.6,26574.3
50404,26572.9
50394.7,26570.6
50385.6,26567.3
50376.8,26563.2
50368.5,26558.2
50360.8,26552.5
50353.6,26546
50347.1,26538.8
50341.4,26531.1
50336.4,26522.8
50332.3,26514
50329,26504.9
50326.7,26495.6
50325.3,26486
50324.8,26476.4
50324.8,25629.9
50325.3,25620.3
50326.7,25610.7
50329,25601.3
50332.3,25592.3
50336.4,25583.5
50341.4,25575.2
50347.1,25567.5
50353.6,25560.3
50360.8,25553.8
50368.5,25548.1
50376.8,25543.1
50385.6,25539
50394.7,25535.7
50404,25533.4
50413.6,25532
50423.2,25531.5
50787.4,25531.5
Z" /> 
</g>
<g >
</g>
<g >
</g>
<g >
</g>
<g >
</g>
<g >
</g>
<g >
</g>
<g >
</g>
<g >
</g>
<g >
</g>
<g >
</g>
<g style="fill:#000000; fill-opacity:1.0; 
stroke:#000000; stroke-width:0; stroke-opacity:1; 
stroke-linecap:round; stroke-linejoin:round;">
<path style="fill:#000000; fill-opacity:1.0; 
stroke:#000000; stroke-width:0; stroke-opacity:1; 
stroke-linecap:round; stroke-linejoin:round;fill-rule:evenodd;"
d="M 11909.3,29921.7
11918.8,29923.2
11928.2,29925.5
11937.3,29928.8
11946,29932.9
11954.3,29937.8
11962,29943.6
11969.2,29950.1
11975.7,29957.2
11981.4,29965
11986.4,29973.3
11990.5,29982
11993.8,29991.1
11996.1,30000.5
11997.6,30010
11998,30019.7
11998,30383.9
11997.6,30393.5
11996.1,30403.1
11993.8,30412.4
11990.5,30421.5
11986.4,30430.3
11981.4,30438.5
11975.7,30446.3
11969.2,30453.5
11962,30459.9
11954.3,30465.7
11946,30470.7
11937.3,30474.8
11928.2,30478
11918.8,30480.4
11909.3,30481.8
11899.6,30482.3
11053.1,30482.3
11043.5,30481.8
11033.9,30480.4
11024.6,30478
11015.5,30474.8
11006.8,30470.7
10998.5,30465.7
10990.7,30459.9
10983.6,30453.5
10977.1,30446.3
10971.3,30438.5
10966.3,30430.3
10962.2,30421.5
10959,30412.4
10956.6,30403.1
10955.2,30393.5
10954.7,30383.9
10954.7,30019.7
10955.2,30010
10956.6,30000.5
10959,29991.1
10962.2,29982
10966.3,29973.3
10971.3,29965
10977.1,29957.2
10983.6,29950.1
10990.7,29943.6
10998.5,29937.8
11006.8,29932.9
11015.5,29928.8
11024.6,29925.5
11033.9,29923.2
11043.5,29921.7
11053.1,29921.3
11899.6,29921.3
Z" /> 
<path style="fill:#000000; fill-opacity:1.0; 
stroke:#000000; stroke-width:0; stroke-opacity:1; 
stroke-linecap:round; stroke-linejoin:round;fill-rule:evenodd;"
d="M 11909.3,31093
11918.8,31094.4
11928.2,31096.8
11937.3,31100
11946,31104.1
11954.3,31109.1
11962,31114.9
11969.2,31121.3
11975.7,31128.5
11981.4,31136.3
11986.4,31144.5
11990.5,31153.3
11993.8,31162.4
11996.1,31171.7
11997.6,31181.3
11998,31190.9
11998,31555.1
11997.6,31564.8
11996.1,31574.3
11993.8,31583.7
11990.5,31592.8
11986.4,31601.5
11981.4,31609.8
11975.7,31617.6
11969.2,31624.7
11962,31631.2
11954.3,31637
11946,31641.9
11937.3,31646.1
11928.2,31649.3
11918.8,31651.7
11909.3,31653.1
11899.6,31653.5
11053.1,31653.5
11043.5,31653.1
11033.9,31651.7
11024.6,31649.3
11015.5,31646.1
11006.8,31641.9
10998.5,31637
10990.7,31631.2
10983.6,31624.7
10977.1,31617.6
10971.3,31609.8
10966.3,31601.5
10962.2,31592.8
10959,31583.7
10956.6,31574.3
10955.2,31564.8
10954.7,31555.1
10954.7,31190.9
10955.2,31181.3
10956.6,31171.7
10959,31162.4
10962.2,31153.3
10966.3,31144.5
10971.3,31136.3
10977.1,31128.5
10983.6,31121.3
10990.7,31114.9
10998.5,31109.1
11006.8,31104.1
11015.5,31100
11024.6,31096.8
11033.9,31094.4
11043.5,31093
11053.1,31092.5
11899.6,31092.5
Z" /> 
</g>
<g >
</g>
<g style="fill:#000000; fill-opacity:1.0; 
stroke:#000000; stroke-width:0; stroke-opacity:1; 
stroke-linecap:round; stroke-linejoin:round;">
<path style="fill:#000000; fill-opacity:1.0; 
stroke:#000000; stroke-width:0; stroke-opacity:1; 
stroke-linecap:round; stroke-linejoin:round;fill-rule:evenodd;"
d="M 11879.7,35266.2
11889.3,35267.6
11898.6,35270
11907.7,35273.2
11916.5,35277.4
11924.8,35282.3
11932.5,35288.1
11939.7,35294.6
11946.2,35301.7
11951.9,35309.5
11956.9,35317.8
11961,35326.5
11964.3,35335.6
11966.6,35345
11968,35354.5
11968.5,35364.2
11968.5,35728.3
11968,35738
11966.6,35747.5
11964.3,35756.9
11961,35766
11956.9,35774.7
11951.9,35783
11946.2,35790.8
11939.7,35797.9
11932.5,35804.4
11924.8,35810.2
11916.5,35815.1
11907.7,35819.3
11898.6,35822.5
11889.3,35824.9
11879.7,35826.3
11870.1,35826.8
11023.6,35826.8
11014,35826.3
11004.4,35824.9
10995.1,35822.5
10986,35819.3
10977.2,35815.1
10968.9,35810.2
10961.2,35804.4
10954,35797.9
10947.5,35790.8
10941.8,35783
10936.8,35774.7
10932.7,35766
10929.4,35756.9
10927.1,35747.5
10925.7,35738
10925.2,35728.3
10925.2,35364.2
10925.7,35354.5
10927.1,35345
10929.4,35335.6
10932.7,35326.5
10936.8,35317.8
10941.8,35309.5
10947.5,35301.7
10954,35294.6
10961.2,35288.1
10968.9,35282.3
10977.2,35277.4
10986,35273.2
10995.1,35270
11004.4,35267.6
11014,35266.2
11023.6,35265.7
11870.1,35265.7
Z" /> 
<path style="fill:#000000; fill-opacity:1.0; 
stroke:#000000; stroke-width:0; stroke-opacity:1; 
stroke-linecap:round; stroke-linejoin:round;fill-rule:evenodd;"
d="M 11879.7,36437.5
11889.3,36438.9
11898.6,36441.2
11907.7,36444.5
11916.5,36448.6
11924.8,36453.6
11932.5,36459.3
11939.7,36465.8
11946.2,36473
11951.9,36480.8
11956.9,36489
11961,36497.8
11964.3,36506.9
11966.6,36516.2
11968,36525.8
11968.5,36535.4
11968.5,36899.6
11968,36909.3
11966.6,36918.8
11964.3,36928.2
11961,36937.3
11956.9,36946
11951.9,36954.3
11946.2,36962
11939.7,36969.2
11932.5,36975.7
11924.8,36981.4
11916.5,36986.4
11907.7,36990.5
11898.6,36993.8
11889.3,36996.1
11879.7,36997.6
11870.1,36998
11023.6,36998
11014,36997.6
11004.4,36996.1
10995.1,36993.8
10986,36990.5
10977.2,36986.4
10968.9,36981.4
10961.2,36975.7
10954,36969.2
10947.5,36962
10941.8,36954.3
10936.8,36946
10932.7,36937.3
10929.4,36928.2
10927.1,36918.8
10925.7,36909.3
10925.2,36899.6
10925.2,36535.4
10925.7,36525.8
10927.1,36516.2
10929.4,36506.9
10932.7,36497.8
10936.8,36489
10941.8,36480.8
10947.5,36473
10954,36465.8
10961.2,36459.3
10968.9,36453.6
10977.2,36448.6
10986,36444.5
10995.1,36441.2
11004.4,36438.9
11014,36437.5
11023.6,36437
11870.1,36437
Z" /> 
</g>
<g >
</g>
<g >
</g>
<g >
</g>
<g >
</g>
<g style="fill:#000000; fill-opacity:1.0; 
stroke:#000000; stroke-width:0; stroke-opacity:1; 
stroke-linecap:round; stroke-linejoin:round;">
<path style="fill:#000000; fill-opacity:1.0; 
stroke:#000000; stroke-width:0; stroke-opacity:1; 
stroke-linecap:round; stroke-linejoin:round;fill-rule:evenodd;"
d="M 11909.3,27205.2
11918.8,27206.6
11928.2,27209
11937.3,27212.2
11946,27216.3
11954.3,27221.3
11962,27227.1
11969.2,27233.6
11975.7,27240.7
11981.4,27248.5
11986.4,27256.8
11990.5,27265.5
11993.8,27274.6
11996.1,27283.9
11997.6,27293.5
11998,27303.1
11998,27667.3
11997.6,27677
11996.1,27686.5
11993.8,27695.9
11990.5,27705
11986.4,27713.7
11981.4,27722
11975.7,27729.8
11969.2,27736.9
11962,27743.4
11954.3,27749.2
11946,27754.1
11937.3,27758.3
11928.2,27761.5
11918.8,27763.9
11909.3,27765.3
11899.6,27765.7
11053.1,27765.7
11043.5,27765.3
11033.9,27763.9
11024.6,27761.5
11015.5,27758.3
11006.8,27754.1
10998.5,27749.2
10990.7,27743.4
10983.6,27736.9
10977.1,27729.8
10971.3,27722
10966.3,27713.7
10962.2,27705
10959,27695.9
10956.6,27686.5
10955.2,27677
10954.7,27667.3
10954.7,27303.1
10955.2,27293.5
10956.6,27283.9
10959,27274.6
10962.2,27265.5
10966.3,27256.8
10971.3,27248.5
10977.1,27240.7
10983.6,27233.6
10990.7,27227.1
10998.5,27221.3
11006.8,27216.3
11015.5,27212.2
11024.6,27209
11033.9,27206.6
11043.5,27205.2
11053.1,27204.7
11899.6,27204.7
Z" /> 
<path style="fill:#000000; fill-opacity:1.0; 
stroke:#000000; stroke-width:0; stroke-opacity:1; 
stroke-linecap:round; stroke-linejoin:round;fill-rule:evenodd;"
d="M 11909.3,28376.5
11918.8,28377.9
11928.2,28380.2
11937.3,28383.5
11946,28387.6
11954.3,28392.6
11962,28398.3
11969.2,28404.8
11975.7,28412
11981.4,28419.7
11986.4,28428
11990.5,28436.7
11993.8,28445.8
11996.1,28455.2
11997.6,28464.8
11998,28474.4
11998,28838.6
11997.6,28848.2
11996.1,28857.8
11993.8,28867.2
11990.5,28876.2
11986.4,28885
11981.4,28893.3
11975.7,28901
11969.2,28908.2
11962,28914.7
11954.3,28920.4
11946,28925.4
11937.3,28929.5
11928.2,28932.8
11918.8,28935.1
11909.3,28936.5
11899.6,28937
11053.1,28937
11043.5,28936.5
11033.9,28935.1
11024.6,28932.8
11015.5,28929.5
11006.8,28925.4
10998.5,28920.4
10990.7,28914.7
10983.6,28908.2
10977.1,28901
10971.3,28893.3
10966.3,28885
10962.2,28876.2
10959,28867.2
10956.6,28857.8
10955.2,28848.2
10954.7,28838.6
10954.7,28474.4
10955.2,28464.8
10956.6,28455.2
10959,28445.8
10962.2,28436.7
10966.3,28428
10971.3,28419.7
10977.1,28412
10983.6,28404.8
10990.7,28398.3
10998.5,28392.6
11006.8,28387.6
11015.5,28383.5
11024.6,28380.2
11033.9,28377.9
11043.5,28376.5
11053.1,28376
11899.6,28376
Z" /> 
</g>
<g >
</g>
<g style="fill:#000000; fill-opacity:1.0; 
stroke:#000000; stroke-width:0; stroke-opacity:1; 
stroke-linecap:round; stroke-linejoin:round;">
<path style="fill:#000000; fill-opacity:1.0; 
stroke:#000000; stroke-width:0; stroke-opacity:1; 
stroke-linecap:round; stroke-linejoin:round;fill-rule:evenodd;"
d="M 11889.6,32598.9
11899.1,32600.3
11908.5,32602.7
11917.6,32605.9
11926.3,32610
11934.6,32615
11942.4,32620.8
11949.5,32627.3
11956,32634.4
11961.8,32642.2
11966.7,32650.5
11970.9,32659.2
11974.1,32668.3
11976.5,32677.6
11977.9,32687.2
11978.3,32696.9
11978.3,33061
11977.9,33070.7
11976.5,33080.2
11974.1,33089.6
11970.9,33098.7
11966.7,33107.4
11961.8,33115.7
11956,33123.5
11949.5,33130.6
11942.4,33137.1
11934.6,33142.9
11926.3,33147.8
11917.6,33152
11908.5,33155.2
11899.1,33157.6
11889.6,33159
11879.9,33159.4
11033.5,33159.4
11023.8,33159
11014.3,33157.6
11004.9,33155.2
10995.8,33152
10987.1,33147.8
10978.8,33142.9
10971,33137.1
10963.9,33130.6
10957.4,33123.5
10951.6,33115.7
10946.7,33107.4
10942.5,33098.7
10939.3,33089.6
10936.9,33080.2
10935.5,33070.7
10935,33061
10935,32696.9
10935.5,32687.2
10936.9,32677.6
10939.3,32668.3
10942.5,32659.2
10946.7,32650.5
10951.6,32642.2
10957.4,32634.4
10963.9,32627.3
10971,32620.8
10978.8,32615
10987.1,32610
10995.8,32605.9
11004.9,32602.7
11014.3,32600.3
11023.8,32598.9
11033.5,32598.4
11879.9,32598.4
Z" /> 
<path style="fill:#000000; fill-opacity:1.0; 
stroke:#000000; stroke-width:0; stroke-opacity:1; 
stroke-linecap:round; stroke-linejoin:round;fill-rule:evenodd;"
d="M 11889.6,33770.2
11899.1,33771.6
11908.5,33773.9
11917.6,33777.2
11926.3,33781.3
11934.6,33786.3
11942.4,33792
11949.5,33798.5
11956,33805.7
11961.8,33813.4
11966.7,33821.7
11970.9,33830.4
11974.1,33839.5
11976.5,33848.9
11977.9,33858.5
11978.3,33868.1
11978.3,34232.3
11977.9,34241.9
11976.5,34251.5
11974.1,34260.9
11970.9,34269.9
11966.7,34278.7
11961.8,34287
11956,34294.7
11949.5,34301.9
11942.4,34308.4
11934.6,34314.1
11926.3,34319.1
11917.6,34323.2
11908.5,34326.5
11899.1,34328.8
11889.6,34330.2
11879.9,34330.7
11033.5,34330.7
11023.8,34330.2
11014.3,34328.8
11004.9,34326.5
10995.8,34323.2
10987.1,34319.1
10978.8,34314.1
10971,34308.4
10963.9,34301.9
10957.4,34294.7
10951.6,34287
10946.7,34278.7
10942.5,34269.9
10939.3,34260.9
10936.9,34251.5
10935.5,34241.9
10935,34232.3
10935,33868.1
10935.5,33858.5
10936.9,33848.9
10939.3,33839.5
10942.5,33830.4
10946.7,33821.7
10951.6,33813.4
10957.4,33805.7
10963.9,33798.5
10971,33792
10978.8,33786.3
10987.1,33781.3
10995.8,33777.2
11004.9,33773.9
11014.3,33771.6
11023.8,33770.2
11033.5,33769.7
11879.9,33769.7
Z" /> 
</g>
<g >
</g>
<g >
</g>
<g >
</g>
<g style="fill:#000000; fill-opacity:1.0; 
stroke:#000000; stroke-width:0; stroke-opacity:1; 
stroke-linecap:round; stroke-linejoin:round;">
<path style="fill:#000000; fill-opacity:1.0; 
stroke:#000000; stroke-width:0; stroke-opacity:1; 
stroke-linecap:round; stroke-linejoin:round;fill-rule:evenodd;"
d="M 40763.8,31456.7
41236.2,31456.7
41236.2,32165.4
40763.8,32165.4
Z" /> 
<path style="fill:#000000; fill-opacity:1.0; 
stroke:#000000; stroke-width:0; stroke-opacity:1; 
stroke-linecap:round; stroke-linejoin:round;fill-rule:evenodd;"
d="M 39763.8,31456.7
40236.2,31456.7
40236.2,32165.4
39763.8,32165.4
Z" /> 
<path style="fill:#000000; fill-opacity:1.0; 
stroke:#000000; stroke-width:0; stroke-opacity:1; 
stroke-linecap:round; stroke-linejoin:round;fill-rule:evenodd;"
d="M 38763.8,31456.7
39236.2,31456.7
39236.2,32165.4
38763.8,32165.4
Z" /> 
<path style="fill:#000000; fill-opacity:1.0; 
stroke:#000000; stroke-width:0; stroke-opacity:1; 
stroke-linecap:round; stroke-linejoin:round;fill-rule:evenodd;"
d="M 40763.8,35984.3
41236.2,35984.3
41236.2,36692.9
40763.8,36692.9
Z" /> 
<path style="fill:#000000; fill-opacity:1.0; 
stroke:#000000; stroke-width:0; stroke-opacity:1; 
stroke-linecap:round; stroke-linejoin:round;fill-rule:evenodd;"
d="M 39763.8,35984.3
40236.2,35984.3
40236.2,36692.9
39763.8,36692.9
Z" /> 
<path style="fill:#000000; fill-opacity:1.0; 
stroke:#000000; stroke-width:0; stroke-opacity:1; 
stroke-linecap:round; stroke-linejoin:round;fill-rule:evenodd;"
d="M 38763.8,35984.3
39236.2,35984.3
39236.2,36692.9
38763.8,36692.9
Z" /> 
</g>
<g >
</g>
<g style="fill:#000000; fill-opacity:1.0; 
stroke:#000000; stroke-width:0; stroke-opacity:1; 
stroke-linecap:round; stroke-linejoin:round;">
<path style="fill:#000000; fill-opacity:1.0; 
stroke:#000000; stroke-width:0; stroke-opacity:1; 
stroke-linecap:round; stroke-linejoin:round;fill-rule:evenodd;"
d="M 45409.4,31437
45881.9,31437
45881.9,32145.7
45409.4,32145.7
Z" /> 
<path style="fill:#000000; fill-opacity:1.0; 
stroke:#000000; stroke-width:0; stroke-opacity:1; 
stroke-linecap:round; stroke-linejoin:round;fill-rule:evenodd;"
d="M 44409.4,31437
44881.9,31437
44881.9,32145.7
44409.4,32145.7
Z" /> 
<path style="fill:#000000; fill-opacity:1.0; 
stroke:#000000; stroke-width:0; stroke-opacity:1; 
stroke-linecap:round; stroke-linejoin:round;fill-rule:evenodd;"
d="M 43409.4,31437
43881.9,31437
43881.9,32145.7
43409.4,32145.7
Z" /> 
<path style="fill:#000000; fill-opacity:1.0; 
stroke:#000000; stroke-width:0; stroke-opacity:1; 
stroke-linecap:round; stroke-linejoin:round;fill-rule:evenodd;"
d="M 45409.4,35964.6
45881.9,35964.6
45881.9,36673.2
45409.4,36673.2
Z" /> 
<path style="fill:#000000; fill-opacity:1.0; 
stroke:#000000; stroke-width:0; stroke-opacity:1; 
stroke-linecap:round; stroke-linejoin:round;fill-rule:evenodd;"
d="M 44409.4,35964.6
44881.9,35964.6
44881.9,36673.2
44409.4,36673.2
Z" /> 
<path style="fill:#000000; fill-opacity:1.0; 
stroke:#000000; stroke-width:0; stroke-opacity:1; 
stroke-linecap:round; stroke-linejoin:round;fill-rule:evenodd;"
d="M 43409.4,35964.6
43881.9,35964.6
43881.9,36673.2
43409.4,36673.2
Z" /> 
</g>
<g >
</g>
<g >
</g>
<g >
</g>
<g >
</g>
<g style="fill:#000000; fill-opacity:1.0; 
stroke:#000000; stroke-width:0; stroke-opacity:1; 
stroke-linecap:round; stroke-linejoin:round;">
<path style="fill:#000000; fill-opacity:1.0; 
stroke:#000000; stroke-width:0; stroke-opacity:1; 
stroke-linecap:round; stroke-linejoin:round;fill-rule:evenodd;"
d="M 58287.2,44813.5
58296.8,44814.9
58306.1,44817.2
58315.2,44820.5
58324,44824.6
58332.2,44829.6
58340,44835.3
58347.2,44841.8
58353.6,44849
58359.4,44856.7
58364.4,44865
58368.5,44873.8
58371.7,44882.8
58374.1,44892.2
58375.5,44901.8
58376,44911.4
58376,45275.6
58375.5,45285.2
58374.1,45294.8
58371.7,45304.2
58368.5,45313.3
58364.4,45322
58359.4,45330.3
58353.6,45338
58347.2,45345.2
58340,45351.7
58332.2,45357.4
58324,45362.4
58315.2,45366.5
58306.1,45369.8
58296.8,45372.1
58287.2,45373.5
58277.6,45374
57431.1,45374
57421.5,45373.5
57411.9,45372.1
57402.5,45369.8
57393.4,45366.5
57384.7,45362.4
57376.4,45357.4
57368.7,45351.7
57361.5,45345.2
57355,45338
57349.3,45330.3
57344.3,45322
57340.2,45313.3
57336.9,45304.2
57334.6,45294.8
57333.2,45285.2
57332.7,45275.6
57332.7,44911.4
57333.2,44901.8
57334.6,44892.2
57336.9,44882.8
57340.2,44873.8
57344.3,44865
57349.3,44856.7
57355,44849
57361.5,44841.8
57368.7,44835.3
57376.4,44829.6
57384.7,44824.6
57393.4,44820.5
57402.5,44817.2
57411.9,44814.9
57421.5,44813.5
57431.1,44813
58277.6,44813
Z" /> 
<path style="fill:#000000; fill-opacity:1.0; 
stroke:#000000; stroke-width:0; stroke-opacity:1; 
stroke-linecap:round; stroke-linejoin:round;fill-rule:evenodd;"
d="M 58287.2,43642.2
58296.8,43643.6
58306.1,43646
58315.2,43649.2
58324,43653.4
58332.2,43658.3
58340,43664.1
58347.2,43670.6
58353.6,43677.7
58359.4,43685.5
58364.4,43693.8
58368.5,43702.5
58371.7,43711.6
58374.1,43721
58375.5,43730.5
58376,43740.2
58376,44104.3
58375.5,44114
58374.1,44123.5
58371.7,44132.9
58368.5,44142
58364.4,44150.7
58359.4,44159
58353.6,44166.8
58347.2,44173.9
58340,44180.4
58332.2,44186.2
58324,44191.1
58315.2,44195.3
58306.1,44198.5
58296.8,44200.9
58287.2,44202.3
58277.6,44202.8
57431.1,44202.8
57421.5,44202.3
57411.9,44200.9
57402.5,44198.5
57393.4,44195.3
57384.7,44191.1
57376.4,44186.2
57368.7,44180.4
57361.5,44173.9
57355,44166.8
57349.3,44159
57344.3,44150.7
57340.2,44142
57336.9,44132.9
57334.6,44123.5
57333.2,44114
57332.7,44104.3
57332.7,43740.2
57333.2,43730.5
57334.6,43721
57336.9,43711.6
57340.2,43702.5
57344.3,43693.8
57349.3,43685.5
57355,43677.7
57361.5,43670.6
57368.7,43664.1
57376.4,43658.3
57384.7,43653.4
57393.4,43649.2
57402.5,43646
57411.9,43643.6
57421.5,43642.2
57431.1,43641.7
58277.6,43641.7
Z" /> 
</g>
<g >
</g>
<g style="fill:#000000; fill-opacity:1.0; 
stroke:#000000; stroke-width:0; stroke-opacity:1; 
stroke-linecap:round; stroke-linejoin:round;">
<path style="fill:#000000; fill-opacity:1.0; 
stroke:#000000; stroke-width:0; stroke-opacity:1; 
stroke-linecap:round; stroke-linejoin:round;fill-rule:evenodd;"
d="M 69389.6,44813.5
69399.1,44814.9
69408.5,44817.2
69417.6,44820.5
69426.3,44824.6
69434.6,44829.6
69442.4,44835.3
69449.5,44841.8
69456,44849
69461.8,44856.7
69466.7,44865
69470.9,44873.8
69474.1,44882.8
69476.5,44892.2
69477.9,44901.8
69478.3,44911.4
69478.3,45275.6
69477.9,45285.2
69476.5,45294.8
69474.1,45304.2
69470.9,45313.3
69466.7,45322
69461.8,45330.3
69456,45338
69449.5,45345.2
69442.4,45351.7
69434.6,45357.4
69426.3,45362.4
69417.6,45366.5
69408.5,45369.8
69399.1,45372.1
69389.6,45373.5
69379.9,45374
68533.5,45374
68523.8,45373.5
68514.3,45372.1
68504.9,45369.8
68495.8,45366.5
68487.1,45362.4
68478.8,45357.4
68471,45351.7
68463.9,45345.2
68457.4,45338
68451.6,45330.3
68446.7,45322
68442.5,45313.3
68439.3,45304.2
68436.9,45294.8
68435.5,45285.2
68435,45275.6
68435,44911.4
68435.5,44901.8
68436.9,44892.2
68439.3,44882.8
68442.5,44873.8
68446.7,44865
68451.6,44856.7
68457.4,44849
68463.9,44841.8
68471,44835.3
68478.8,44829.6
68487.1,44824.6
68495.8,44820.5
68504.9,44817.2
68514.3,44814.9
68523.8,44813.5
68533.5,44813
69379.9,44813
Z" /> 
<path style="fill:#000000; fill-opacity:1.0; 
stroke:#000000; stroke-width:0; stroke-opacity:1; 
stroke-linecap:round; stroke-linejoin:round;fill-rule:evenodd;"
d="M 69389.6,43642.2
69399.1,43643.6
69408.5,43646
69417.6,43649.2
69426.3,43653.4
69434.6,43658.3
69442.4,43664.1
69449.5,43670.6
69456,43677.7
69461.8,43685.5
69466.7,43693.8
69470.9,43702.5
69474.1,43711.6
69476.5,43721
69477.9,43730.5
69478.3,43740.2
69478.3,44104.3
69477.9,44114
69476.5,44123.5
69474.1,44132.9
69470.9,44142
69466.7,44150.7
69461.8,44159
69456,44166.8
69449.5,44173.9
69442.4,44180.4
69434.6,44186.2
69426.3,44191.1
69417.6,44195.3
69408.5,44198.5
69399.1,44200.9
69389.6,44202.3
69379.9,44202.8
68533.5,44202.8
68523.8,44202.3
68514.3,44200.9
68504.9,44198.5
68495.8,44195.3
68487.1,44191.1
68478.8,44186.2
68471,44180.4
68463.9,44173.9
68457.4,44166.8
68451.6,44159
68446.7,44150.7
68442.5,44142
68439.3,44132.9
68436.9,44123.5
68435.5,44114
68435,44104.3
68435,43740.2
68435.5,43730.5
68436.9,43721
68439.3,43711.6
68442.5,43702.5
68446.7,43693.8
68451.6,43685.5
68457.4,43677.7
68463.9,43670.6
68471,43664.1
68478.8,43658.3
68487.1,43653.4
68495.8,43649.2
68504.9,43646
68514.3,43643.6
68523.8,43642.2
68533.5,43641.7
69379.9,43641.7
Z" /> 
</g>
<g >
</g>
<g style="fill:#000000; fill-opacity:1.0; 
stroke:#000000; stroke-width:0; stroke-opacity:1; 
stroke-linecap:round; stroke-linejoin:round;">
<path style="fill:#000000; fill-opacity:1.0; 
stroke:#000000; stroke-width:0; stroke-opacity:1; 
stroke-linecap:round; stroke-linejoin:round;fill-rule:evenodd;"
d="M 56318.7,43642.2
56328.3,43643.6
56337.6,43646
56346.7,43649.2
56355.5,43653.4
56363.7,43658.3
56371.5,43664.1
56378.7,43670.6
56385.1,43677.7
56390.9,43685.5
56395.9,43693.8
56400,43702.5
56403.2,43711.6
56405.6,43721
56407,43730.5
56407.5,43740.2
56407.5,44104.3
56407,44114
56405.6,44123.5
56403.2,44132.9
56400,44142
56395.9,44150.7
56390.9,44159
56385.1,44166.8
56378.7,44173.9
56371.5,44180.4
56363.7,44186.2
56355.5,44191.1
56346.7,44195.3
56337.6,44198.5
56328.3,44200.9
56318.7,44202.3
56309.1,44202.8
55462.6,44202.8
55453,44202.3
55443.4,44200.9
55434,44198.5
55424.9,44195.3
55416.2,44191.1
55407.9,44186.2
55400.2,44180.4
55393,44173.9
55386.5,44166.8
55380.8,44159
55375.8,44150.7
55371.7,44142
55368.4,44132.9
55366.1,44123.5
55364.6,44114
55364.2,44104.3
55364.2,43740.2
55364.6,43730.5
55366.1,43721
55368.4,43711.6
55371.7,43702.5
55375.8,43693.8
55380.8,43685.5
55386.5,43677.7
55393,43670.6
55400.2,43664.1
55407.9,43658.3
55416.2,43653.4
55424.9,43649.2
55434,43646
55443.4,43643.6
55453,43642.2
55462.6,43641.7
56309.1,43641.7
Z" /> 
<path style="fill:#000000; fill-opacity:1.0; 
stroke:#000000; stroke-width:0; stroke-opacity:1; 
stroke-linecap:round; stroke-linejoin:round;fill-rule:evenodd;"
d="M 56318.7,44813.5
56328.3,44814.9
56337.6,44817.2
56346.7,44820.5
56355.5,44824.6
56363.7,44829.6
56371.5,44835.3
56378.7,44841.8
56385.1,44849
56390.9,44856.7
56395.9,44865
56400,44873.8
56403.2,44882.8
56405.6,44892.2
56407,44901.8
56407.5,44911.4
56407.5,45275.6
56407,45285.2
56405.6,45294.8
56403.2,45304.2
56400,45313.3
56395.9,45322
56390.9,45330.3
56385.1,45338
56378.7,45345.2
56371.5,45351.7
56363.7,45357.4
56355.5,45362.4
56346.7,45366.5
56337.6,45369.8
56328.3,45372.1
56318.7,45373.5
56309.1,45374
55462.6,45374
55453,45373.5
55443.4,45372.1
55434,45369.8
55424.9,45366.5
55416.2,45362.4
55407.9,45357.4
55400.2,45351.7
55393,45345.2
55386.5,45338
55380.8,45330.3
55375.8,45322
55371.7,45313.3
55368.4,45304.2
55366.1,45294.8
55364.6,45285.2
55364.2,45275.6
55364.2,44911.4
55364.6,44901.8
55366.1,44892.2
55368.4,44882.8
55371.7,44873.8
55375.8,44865
55380.8,44856.7
55386.5,44849
55393,44841.8
55400.2,44835.3
55407.9,44829.6
55416.2,44824.6
55424.9,44820.5
55434,44817.2
55443.4,44814.9
55453,44813.5
55462.6,44813
56309.1,44813
Z" /> 
</g>
<g >
</g>
<g style="fill:#000000; fill-opacity:1.0; 
stroke:#000000; stroke-width:0; stroke-opacity:1; 
stroke-linecap:round; stroke-linejoin:round;">
<path style="fill:#000000; fill-opacity:1.0; 
stroke:#000000; stroke-width:0; stroke-opacity:1; 
stroke-linecap:round; stroke-linejoin:round;fill-rule:evenodd;"
d="M 54271.5,44813.5
54281,44814.9
54290.4,44817.2
54299.5,44820.5
54308.2,44824.6
54316.5,44829.6
54324.3,44835.3
54331.4,44841.8
54337.9,44849
54343.6,44856.7
54348.6,44865
54352.7,44873.8
54356,44882.8
54358.3,44892.2
54359.8,44901.8
54360.2,44911.4
54360.2,45275.6
54359.8,45285.2
54358.3,45294.8
54356,45304.2
54352.7,45313.3
54348.6,45322
54343.6,45330.3
54337.9,45338
54331.4,45345.2
54324.3,45351.7
54316.5,45357.4
54308.2,45362.4
54299.5,45366.5
54290.4,45369.8
54281,45372.1
54271.5,45373.5
54261.8,45374
53415.4,45374
53405.7,45373.5
53396.2,45372.1
53386.8,45369.8
53377.7,45366.5
53369,45362.4
53360.7,45357.4
53352.9,45351.7
53345.8,45345.2
53339.3,45338
53333.5,45330.3
53328.6,45322
53324.4,45313.3
53321.2,45304.2
53318.8,45294.8
53317.4,45285.2
53316.9,45275.6
53316.9,44911.4
53317.4,44901.8
53318.8,44892.2
53321.2,44882.8
53324.4,44873.8
53328.6,44865
53333.5,44856.7
53339.3,44849
53345.8,44841.8
53352.9,44835.3
53360.7,44829.6
53369,44824.6
53377.7,44820.5
53386.8,44817.2
53396.2,44814.9
53405.7,44813.5
53415.4,44813
54261.8,44813
Z" /> 
<path style="fill:#000000; fill-opacity:1.0; 
stroke:#000000; stroke-width:0; stroke-opacity:1; 
stroke-linecap:round; stroke-linejoin:round;fill-rule:evenodd;"
d="M 54271.5,43642.2
54281,43643.6
54290.4,43646
54299.5,43649.2
54308.2,43653.4
54316.5,43658.3
54324.3,43664.1
54331.4,43670.6
54337.9,43677.7
54343.6,43685.5
54348.6,43693.8
54352.7,43702.5
54356,43711.6
54358.3,43721
54359.8,43730.5
54360.2,43740.2
54360.2,44104.3
54359.8,44114
54358.3,44123.5
54356,44132.9
54352.7,44142
54348.6,44150.7
54343.6,44159
54337.9,44166.8
54331.4,44173.9
54324.3,44180.4
54316.5,44186.2
54308.2,44191.1
54299.5,44195.3
54290.4,44198.5
54281,44200.9
54271.5,44202.3
54261.8,44202.8
53415.4,44202.8
53405.7,44202.3
53396.2,44200.9
53386.8,44198.5
53377.7,44195.3
53369,44191.1
53360.7,44186.2
53352.9,44180.4
53345.8,44173.9
53339.3,44166.8
53333.5,44159
53328.6,44150.7
53324.4,44142
53321.2,44132.9
53318.8,44123.5
53317.4,44114
53316.9,44104.3
53316.9,43740.2
53317.4,43730.5
53318.8,43721
53321.2,43711.6
53324.4,43702.5
53328.6,43693.8
53333.5,43685.5
53339.3,43677.7
53345.8,43670.6
53352.9,43664.1
53360.7,43658.3
53369,43653.4
53377.7,43649.2
53386.8,43646
53396.2,43643.6
53405.7,43642.2
53415.4,43641.7
54261.8,43641.7
Z" /> 
</g>
<g >
</g>
<g style="fill:#000000; fill-opacity:1.0; 
stroke:#000000; stroke-width:0; stroke-opacity:1; 
stroke-linecap:round; stroke-linejoin:round;">
<path style="fill:#000000; fill-opacity:1.0; 
stroke:#000000; stroke-width:0; stroke-opacity:1; 
stroke-linecap:round; stroke-linejoin:round;fill-rule:evenodd;"
d="M 67421.1,43642.2
67430.6,43643.6
67440,43646
67449.1,43649.2
67457.8,43653.4
67466.1,43658.3
67473.9,43664.1
67481,43670.6
67487.5,43677.7
67493.3,43685.5
67498.2,43693.8
67502.4,43702.5
67505.6,43711.6
67508,43721
67509.4,43730.5
67509.8,43740.2
67509.8,44104.3
67509.4,44114
67508,44123.5
67505.6,44132.9
67502.4,44142
67498.2,44150.7
67493.3,44159
67487.5,44166.8
67481,44173.9
67473.9,44180.4
67466.1,44186.2
67457.8,44191.1
67449.1,44195.3
67440,44198.5
67430.6,44200.9
67421.1,44202.3
67411.4,44202.8
66565,44202.8
66555.3,44202.3
66545.8,44200.9
66536.4,44198.5
66527.3,44195.3
66518.6,44191.1
66510.3,44186.2
66502.5,44180.4
66495.4,44173.9
66488.9,44166.8
66483.1,44159
66478.2,44150.7
66474,44142
66470.8,44132.9
66468.4,44123.5
66467,44114
66466.5,44104.3
66466.5,43740.2
66467,43730.5
66468.4,43721
66470.8,43711.6
66474,43702.5
66478.2,43693.8
66483.1,43685.5
66488.9,43677.7
66495.4,43670.6
66502.5,43664.1
66510.3,43658.3
66518.6,43653.4
66527.3,43649.2
66536.4,43646
66545.8,43643.6
66555.3,43642.2
66565,43641.7
67411.4,43641.7
Z" /> 
<path style="fill:#000000; fill-opacity:1.0; 
stroke:#000000; stroke-width:0; stroke-opacity:1; 
stroke-linecap:round; stroke-linejoin:round;fill-rule:evenodd;"
d="M 67421.1,44813.5
67430.6,44814.9
67440,44817.2
67449.1,44820.5
67457.8,44824.6
67466.1,44829.6
67473.9,44835.3
67481,44841.8
67487.5,44849
67493.3,44856.7
67498.2,44865
67502.4,44873.8
67505.6,44882.8
67508,44892.2
67509.4,44901.8
67509.8,44911.4
67509.8,45275.6
67509.4,45285.2
67508,45294.8
67505.6,45304.2
67502.4,45313.3
67498.2,45322
67493.3,45330.3
67487.5,45338
67481,45345.2
67473.9,45351.7
67466.1,45357.4
67457.8,45362.4
67449.1,45366.5
67440,45369.8
67430.6,45372.1
67421.1,45373.5
67411.4,45374
66565,45374
66555.3,45373.5
66545.8,45372.1
66536.4,45369.8
66527.3,45366.5
66518.6,45362.4
66510.3,45357.4
66502.5,45351.7
66495.4,45345.2
66488.9,45338
66483.1,45330.3
66478.2,45322
66474,45313.3
66470.8,45304.2
66468.4,45294.8
66467,45285.2
66466.5,45275.6
66466.5,44911.4
66467,44901.8
66468.4,44892.2
66470.8,44882.8
66474,44873.8
66478.2,44865
66483.1,44856.7
66488.9,44849
66495.4,44841.8
66502.5,44835.3
66510.3,44829.6
66518.6,44824.6
66527.3,44820.5
66536.4,44817.2
66545.8,44814.9
66555.3,44813.5
66565,44813
67411.4,44813
Z" /> 
</g>
<g >
</g>
<g style="fill:#000000; fill-opacity:1.0; 
stroke:#000000; stroke-width:0; stroke-opacity:1; 
stroke-linecap:round; stroke-linejoin:round;">
<path style="fill:#000000; fill-opacity:1.0; 
stroke:#000000; stroke-width:0; stroke-opacity:1; 
stroke-linecap:round; stroke-linejoin:round;fill-rule:evenodd;"
d="M 65373.8,44813.5
65383.4,44814.9
65392.7,44817.2
65401.8,44820.5
65410.6,44824.6
65418.9,44829.6
65426.6,44835.3
65433.8,44841.8
65440.3,44849
65446,44856.7
65451,44865
65455.1,44873.8
65458.4,44882.8
65460.7,44892.2
65462.1,44901.8
65462.6,44911.4
65462.6,45275.6
65462.1,45285.2
65460.7,45294.8
65458.4,45304.2
65455.1,45313.3
65451,45322
65446,45330.3
65440.3,45338
65433.8,45345.2
65426.6,45351.7
65418.9,45357.4
65410.6,45362.4
65401.8,45366.5
65392.7,45369.8
65383.4,45372.1
65373.8,45373.5
65364.2,45374
64517.7,45374
64508.1,45373.5
64498.5,45372.1
64489.1,45369.8
64480.1,45366.5
64471.3,45362.4
64463,45357.4
64455.3,45351.7
64448.1,45345.2
64441.6,45338
64435.9,45330.3
64430.9,45322
64426.8,45313.3
64423.5,45304.2
64421.2,45294.8
64419.8,45285.2
64419.3,45275.6
64419.3,44911.4
64419.8,44901.8
64421.2,44892.2
64423.5,44882.8
64426.8,44873.8
64430.9,44865
64435.9,44856.7
64441.6,44849
64448.1,44841.8
64455.3,44835.3
64463,44829.6
64471.3,44824.6
64480.1,44820.5
64489.1,44817.2
64498.5,44814.9
64508.1,44813.5
64517.7,44813
65364.2,44813
Z" /> 
<path style="fill:#000000; fill-opacity:1.0; 
stroke:#000000; stroke-width:0; stroke-opacity:1; 
stroke-linecap:round; stroke-linejoin:round;fill-rule:evenodd;"
d="M 65373.8,43642.2
65383.4,43643.6
65392.7,43646
65401.8,43649.2
65410.6,43653.4
65418.9,43658.3
65426.6,43664.1
65433.8,43670.6
65440.3,43677.7
65446,43685.5
65451,43693.8
65455.1,43702.5
65458.4,43711.6
65460.7,43721
65462.1,43730.5
65462.6,43740.2
65462.6,44104.3
65462.1,44114
65460.7,44123.5
65458.4,44132.9
65455.1,44142
65451,44150.7
65446,44159
65440.3,44166.8
65433.8,44173.9
65426.6,44180.4
65418.9,44186.2
65410.6,44191.1
65401.8,44195.3
65392.7,44198.5
65383.4,44200.9
65373.8,44202.3
65364.2,44202.8
64517.7,44202.8
64508.1,44202.3
64498.5,44200.9
64489.1,44198.5
64480.1,44195.3
64471.3,44191.1
64463,44186.2
64455.3,44180.4
64448.1,44173.9
64441.6,44166.8
64435.9,44159
64430.9,44150.7
64426.8,44142
64423.5,44132.9
64421.2,44123.5
64419.8,44114
64419.3,44104.3
64419.3,43740.2
64419.8,43730.5
64421.2,43721
64423.5,43711.6
64426.8,43702.5
64430.9,43693.8
64435.9,43685.5
64441.6,43677.7
64448.1,43670.6
64455.3,43664.1
64463,43658.3
64471.3,43653.4
64480.1,43649.2
64489.1,43646
64498.5,43643.6
64508.1,43642.2
64517.7,43641.7
65364.2,43641.7
Z" /> 
</g>
<g >
</g>
<g style="fill:#000000; fill-opacity:1.0; 
stroke:#000000; stroke-width:0; stroke-opacity:1; 
stroke-linecap:round; stroke-linejoin:round;">
<path style="fill:#000000; fill-opacity:1.0; 
stroke:#000000; stroke-width:0; stroke-opacity:1; 
stroke-linecap:round; stroke-linejoin:round;fill-rule:evenodd;"
d="M 60255.7,44813.5
60265.3,44814.9
60274.6,44817.2
60283.7,44820.5
60292.5,44824.6
60300.7,44829.6
60308.5,44835.3
60315.7,44841.8
60322.1,44849
60327.9,44856.7
60332.9,44865
60337,44873.8
60340.2,44882.8
60342.6,44892.2
60344,44901.8
60344.5,44911.4
60344.5,45275.6
60344,45285.2
60342.6,45294.8
60340.2,45304.2
60337,45313.3
60332.9,45322
60327.9,45330.3
60322.1,45338
60315.7,45345.2
60308.5,45351.7
60300.7,45357.4
60292.5,45362.4
60283.7,45366.5
60274.6,45369.8
60265.3,45372.1
60255.7,45373.5
60246.1,45374
59399.6,45374
59390,45373.5
59380.4,45372.1
59371,45369.8
59361.9,45366.5
59353.2,45362.4
59344.9,45357.4
59337.2,45351.7
59330,45345.2
59323.5,45338
59317.8,45330.3
59312.8,45322
59308.7,45313.3
59305.4,45304.2
59303.1,45294.8
59301.7,45285.2
59301.2,45275.6
59301.2,44911.4
59301.7,44901.8
59303.1,44892.2
59305.4,44882.8
59308.7,44873.8
59312.8,44865
59317.8,44856.7
59323.5,44849
59330,44841.8
59337.2,44835.3
59344.9,44829.6
59353.2,44824.6
59361.9,44820.5
59371,44817.2
59380.4,44814.9
59390,44813.5
59399.6,44813
60246.1,44813
Z" /> 
<path style="fill:#000000; fill-opacity:1.0; 
stroke:#000000; stroke-width:0; stroke-opacity:1; 
stroke-linecap:round; stroke-linejoin:round;fill-rule:evenodd;"
d="M 60255.7,43642.2
60265.3,43643.6
60274.6,43646
60283.7,43649.2
60292.5,43653.4
60300.7,43658.3
60308.5,43664.1
60315.7,43670.6
60322.1,43677.7
60327.9,43685.5
60332.9,43693.8
60337,43702.5
60340.2,43711.6
60342.6,43721
60344,43730.5
60344.5,43740.2
60344.5,44104.3
60344,44114
60342.6,44123.5
60340.2,44132.9
60337,44142
60332.9,44150.7
60327.9,44159
60322.1,44166.8
60315.7,44173.9
60308.5,44180.4
60300.7,44186.2
60292.5,44191.1
60283.7,44195.3
60274.6,44198.5
60265.3,44200.9
60255.7,44202.3
60246.1,44202.8
59399.6,44202.8
59390,44202.3
59380.4,44200.9
59371,44198.5
59361.9,44195.3
59353.2,44191.1
59344.9,44186.2
59337.2,44180.4
59330,44173.9
59323.5,44166.8
59317.8,44159
59312.8,44150.7
59308.7,44142
59305.4,44132.9
59303.1,44123.5
59301.7,44114
59301.2,44104.3
59301.2,43740.2
59301.7,43730.5
59303.1,43721
59305.4,43711.6
59308.7,43702.5
59312.8,43693.8
59317.8,43685.5
59323.5,43677.7
59330,43670.6
59337.2,43664.1
59344.9,43658.3
59353.2,43653.4
59361.9,43649.2
59371,43646
59380.4,43643.6
59390,43642.2
59399.6,43641.7
60246.1,43641.7
Z" /> 
</g>
<g >
</g>
<g style="fill:#000000; fill-opacity:1.0; 
stroke:#000000; stroke-width:0; stroke-opacity:1; 
stroke-linecap:round; stroke-linejoin:round;">
<path style="fill:#000000; fill-opacity:1.0; 
stroke:#000000; stroke-width:0; stroke-opacity:1; 
stroke-linecap:round; stroke-linejoin:round;fill-rule:evenodd;"
d="M 71358.1,44813.5
71367.6,44814.9
71377,44817.2
71386.1,44820.5
71394.8,44824.6
71403.1,44829.6
71410.9,44835.3
71418,44841.8
71424.5,44849
71430.3,44856.7
71435.2,44865
71439.4,44873.8
71442.6,44882.8
71445,44892.2
71446.4,44901.8
71446.9,44911.4
71446.9,45275.6
71446.4,45285.2
71445,45294.8
71442.6,45304.2
71439.4,45313.3
71435.2,45322
71430.3,45330.3
71424.5,45338
71418,45345.2
71410.9,45351.7
71403.1,45357.4
71394.8,45362.4
71386.1,45366.5
71377,45369.8
71367.6,45372.1
71358.1,45373.5
71348.4,45374
70502,45374
70492.3,45373.5
70482.8,45372.1
70473.4,45369.8
70464.3,45366.5
70455.6,45362.4
70447.3,45357.4
70439.5,45351.7
70432.4,45345.2
70425.9,45338
70420.1,45330.3
70415.2,45322
70411,45313.3
70407.8,45304.2
70405.4,45294.8
70404,45285.2
70403.5,45275.6
70403.5,44911.4
70404,44901.8
70405.4,44892.2
70407.8,44882.8
70411,44873.8
70415.2,44865
70420.1,44856.7
70425.9,44849
70432.4,44841.8
70439.5,44835.3
70447.3,44829.6
70455.6,44824.6
70464.3,44820.5
70473.4,44817.2
70482.8,44814.9
70492.3,44813.5
70502,44813
71348.4,44813
Z" /> 
<path style="fill:#000000; fill-opacity:1.0; 
stroke:#000000; stroke-width:0; stroke-opacity:1; 
stroke-linecap:round; stroke-linejoin:round;fill-rule:evenodd;"
d="M 71358.1,43642.2
71367.6,43643.6
71377,43646
71386.1,43649.2
71394.8,43653.4
71403.1,43658.3
71410.9,43664.1
71418,43670.6
71424.5,43677.7
71430.3,43685.5
71435.2,43693.8
71439.4,43702.5
71442.6,43711.6
71445,43721
71446.4,43730.5
71446.9,43740.2
71446.9,44104.3
71446.4,44114
71445,44123.5
71442.6,44132.9
71439.4,44142
71435.2,44150.7
71430.3,44159
71424.5,44166.8
71418,44173.9
71410.9,44180.4
71403.1,44186.2
71394.8,44191.1
71386.1,44195.3
71377,44198.5
71367.6,44200.9
71358.1,44202.3
71348.4,44202.8
70502,44202.8
70492.3,44202.3
70482.8,44200.9
70473.4,44198.5
70464.3,44195.3
70455.6,44191.1
70447.3,44186.2
70439.5,44180.4
70432.4,44173.9
70425.9,44166.8
70420.1,44159
70415.2,44150.7
70411,44142
70407.8,44132.9
70405.4,44123.5
70404,44114
70403.5,44104.3
70403.5,43740.2
70404,43730.5
70405.4,43721
70407.8,43711.6
70411,43702.5
70415.2,43693.8
70420.1,43685.5
70425.9,43677.7
70432.4,43670.6
70439.5,43664.1
70447.3,43658.3
70455.6,43653.4
70464.3,43649.2
70473.4,43646
70482.8,43643.6
70492.3,43642.2
70502,43641.7
71348.4,43641.7
Z" /> 
</g>
<g >
</g>
<g >
</g>
<g >
</g>
<g >
</g>
<g >
</g>
<g >
</g>
<g style="fill:#000000; fill-opacity:1.0; 
stroke:#000000; stroke-width:0; stroke-opacity:1; 
stroke-linecap:round; stroke-linejoin:round;">
<path style="fill:#000000; fill-opacity:1.0; 
stroke:#000000; stroke-width:0; stroke-opacity:1; 
stroke-linecap:round; stroke-linejoin:round;fill-rule:evenodd;"
d="M 45039.2,53465
45048.7,53466.5
45058.1,53468.8
45067.2,53472.1
45075.9,53476.2
45084.2,53481.2
45092,53486.9
45099.1,53493.4
45105.6,53500.6
45111.4,53508.3
45116.3,53516.6
45120.5,53525.3
45123.7,53534.4
45126.1,53543.8
45127.5,53553.3
45128,53563
45128,53927.2
45127.5,53936.8
45126.1,53946.4
45123.7,53955.7
45120.5,53964.8
45116.3,53973.6
45111.4,53981.8
45105.6,53989.6
45099.1,53996.8
45092,54003.2
45084.2,54009
45075.9,54014
45067.2,54018.1
45058.1,54021.4
45048.7,54023.7
45039.2,54025.1
45029.5,54025.6
44183.1,54025.6
44173.4,54025.1
44163.9,54023.7
44154.5,54021.4
44145.4,54018.1
44136.7,54014
44128.4,54009
44120.6,54003.2
44113.5,53996.8
44107,53989.6
44101.2,53981.8
44096.3,53973.6
44092.1,53964.8
44088.9,53955.7
44086.5,53946.4
44085.1,53936.8
44084.6,53927.2
44084.6,53563
44085.1,53553.3
44086.5,53543.8
44088.9,53534.4
44092.1,53525.3
44096.3,53516.6
44101.2,53508.3
44107,53500.6
44113.5,53493.4
44120.6,53486.9
44128.4,53481.2
44136.7,53476.2
44145.4,53472.1
44154.5,53468.8
44163.9,53466.5
44173.4,53465
44183.1,53464.6
45029.5,53464.6
Z" /> 
<path style="fill:#000000; fill-opacity:1.0; 
stroke:#000000; stroke-width:0; stroke-opacity:1; 
stroke-linecap:round; stroke-linejoin:round;fill-rule:evenodd;"
d="M 45039.2,54636.3
45048.7,54637.7
45058.1,54640.1
45067.2,54643.3
45075.9,54647.4
45084.2,54652.4
45092,54658.2
45099.1,54664.7
45105.6,54671.8
45111.4,54679.6
45116.3,54687.9
45120.5,54696.6
45123.7,54705.7
45126.1,54715
45127.5,54724.6
45128,54734.3
45128,55098.4
45127.5,55108.1
45126.1,55117.6
45123.7,55127
45120.5,55136.1
45116.3,55144.8
45111.4,55153.1
45105.6,55160.9
45099.1,55168
45092,55174.5
45084.2,55180.3
45075.9,55185.2
45067.2,55189.4
45058.1,55192.6
45048.7,55195
45039.2,55196.4
45029.5,55196.9
44183.1,55196.9
44173.4,55196.4
44163.9,55195
44154.5,55192.6
44145.4,55189.4
44136.7,55185.2
44128.4,55180.3
44120.6,55174.5
44113.5,55168
44107,55160.9
44101.2,55153.1
44096.3,55144.8
44092.1,55136.1
44088.9,55127
44086.5,55117.6
44085.1,55108.1
44084.6,55098.4
44084.6,54734.3
44085.1,54724.6
44086.5,54715
44088.9,54705.7
44092.1,54696.6
44096.3,54687.9
44101.2,54679.6
44107,54671.8
44113.5,54664.7
44120.6,54658.2
44128.4,54652.4
44136.7,54647.4
44145.4,54643.3
44154.5,54640.1
44163.9,54637.7
44173.4,54636.3
44183.1,54635.8
45029.5,54635.8
Z" /> 
</g>
<g >
</g>
<g style="fill:#000000; fill-opacity:1.0; 
stroke:#000000; stroke-width:0; stroke-opacity:1; 
stroke-linecap:round; stroke-linejoin:round;">
<path style="fill:#000000; fill-opacity:1.0; 
stroke:#000000; stroke-width:0; stroke-opacity:1; 
stroke-linecap:round; stroke-linejoin:round;fill-rule:evenodd;"
d="M 43031.3,53465
43040.9,53466.5
43050.2,53468.8
43059.3,53472.1
43068.1,53476.2
43076.3,53481.2
43084.1,53486.9
43091.3,53493.4
43097.7,53500.6
43103.5,53508.3
43108.5,53516.6
43112.6,53525.3
43115.8,53534.4
43118.2,53543.8
43119.6,53553.3
43120.1,53563
43120.1,53927.2
43119.6,53936.8
43118.2,53946.4
43115.8,53955.7
43112.6,53964.8
43108.5,53973.6
43103.5,53981.8
43097.7,53989.6
43091.3,53996.8
43084.1,54003.2
43076.3,54009
43068.1,54014
43059.3,54018.1
43050.2,54021.4
43040.9,54023.7
43031.3,54025.1
43021.7,54025.6
42175.2,54025.6
42165.5,54025.1
42156,54023.7
42146.6,54021.4
42137.5,54018.1
42128.8,54014
42120.5,54009
42112.8,54003.2
42105.6,53996.8
42099.1,53989.6
42093.4,53981.8
42088.4,53973.6
42084.3,53964.8
42081,53955.7
42078.7,53946.4
42077.2,53936.8
42076.8,53927.2
42076.8,53563
42077.2,53553.3
42078.7,53543.8
42081,53534.4
42084.3,53525.3
42088.4,53516.6
42093.4,53508.3
42099.1,53500.6
42105.6,53493.4
42112.8,53486.9
42120.5,53481.2
42128.8,53476.2
42137.5,53472.1
42146.6,53468.8
42156,53466.5
42165.5,53465
42175.2,53464.6
43021.7,53464.6
Z" /> 
<path style="fill:#000000; fill-opacity:1.0; 
stroke:#000000; stroke-width:0; stroke-opacity:1; 
stroke-linecap:round; stroke-linejoin:round;fill-rule:evenodd;"
d="M 43031.3,54636.3
43040.9,54637.7
43050.2,54640.1
43059.3,54643.3
43068.1,54647.4
43076.3,54652.4
43084.1,54658.2
43091.3,54664.7
43097.7,54671.8
43103.5,54679.6
43108.5,54687.9
43112.6,54696.6
43115.8,54705.7
43118.2,54715
43119.6,54724.6
43120.1,54734.3
43120.1,55098.4
43119.6,55108.1
43118.2,55117.6
43115.8,55127
43112.6,55136.1
43108.5,55144.8
43103.5,55153.1
43097.7,55160.9
43091.3,55168
43084.1,55174.5
43076.3,55180.3
43068.1,55185.2
43059.3,55189.4
43050.2,55192.6
43040.9,55195
43031.3,55196.4
43021.7,55196.9
42175.2,55196.9
42165.5,55196.4
42156,55195
42146.6,55192.6
42137.5,55189.4
42128.8,55185.2
42120.5,55180.3
42112.8,55174.5
42105.6,55168
42099.1,55160.9
42093.4,55153.1
42088.4,55144.8
42084.3,55136.1
42081,55127
42078.7,55117.6
42077.2,55108.1
42076.8,55098.4
42076.8,54734.3
42077.2,54724.6
42078.7,54715
42081,54705.7
42084.3,54696.6
42088.4,54687.9
42093.4,54679.6
42099.1,54671.8
42105.6,54664.7
42112.8,54658.2
42120.5,54652.4
42128.8,54647.4
42137.5,54643.3
42146.6,54640.1
42156,54637.7
42165.5,54636.3
42175.2,54635.8
43021.7,54635.8
Z" /> 
</g>
<g >
</g>
<g style="fill:#000000; fill-opacity:1.0; 
stroke:#000000; stroke-width:0; stroke-opacity:1; 
stroke-linecap:round; stroke-linejoin:round;">
<path style="fill:#000000; fill-opacity:1.0; 
stroke:#000000; stroke-width:0; stroke-opacity:1; 
stroke-linecap:round; stroke-linejoin:round;fill-rule:evenodd;"
d="M 41023.4,53465
41033,53466.5
41042.4,53468.8
41051.4,53472.1
41060.2,53476.2
41068.5,53481.2
41076.2,53486.9
41083.4,53493.4
41089.9,53500.6
41095.6,53508.3
41100.6,53516.6
41104.7,53525.3
41108,53534.4
41110.3,53543.8
41111.7,53553.3
41112.2,53563
41112.2,53927.2
41111.7,53936.8
41110.3,53946.4
41108,53955.7
41104.7,53964.8
41100.6,53973.6
41095.6,53981.8
41089.9,53989.6
41083.4,53996.8
41076.2,54003.2
41068.5,54009
41060.2,54014
41051.4,54018.1
41042.4,54021.4
41033,54023.7
41023.4,54025.1
41013.8,54025.6
40167.3,54025.6
40157.7,54025.1
40148.1,54023.7
40138.8,54021.4
40129.7,54018.1
40120.9,54014
40112.6,54009
40104.9,54003.2
40097.7,53996.8
40091.2,53989.6
40085.5,53981.8
40080.5,53973.6
40076.4,53964.8
40073.1,53955.7
40070.8,53946.4
40069.4,53936.8
40068.9,53927.2
40068.9,53563
40069.4,53553.3
40070.8,53543.8
40073.1,53534.4
40076.4,53525.3
40080.5,53516.6
40085.5,53508.3
40091.2,53500.6
40097.7,53493.4
40104.9,53486.9
40112.6,53481.2
40120.9,53476.2
40129.7,53472.1
40138.8,53468.8
40148.1,53466.5
40157.7,53465
40167.3,53464.6
41013.8,53464.6
Z" /> 
<path style="fill:#000000; fill-opacity:1.0; 
stroke:#000000; stroke-width:0; stroke-opacity:1; 
stroke-linecap:round; stroke-linejoin:round;fill-rule:evenodd;"
d="M 41023.4,54636.3
41033,54637.7
41042.4,54640.1
41051.4,54643.3
41060.2,54647.4
41068.5,54652.4
41076.2,54658.2
41083.4,54664.7
41089.9,54671.8
41095.6,54679.6
41100.6,54687.9
41104.7,54696.6
41108,54705.7
41110.3,54715
41111.7,54724.6
41112.2,54734.3
41112.2,55098.4
41111.7,55108.1
41110.3,55117.6
41108,55127
41104.7,55136.1
41100.6,55144.8
41095.6,55153.1
41089.9,55160.9
41083.4,55168
41076.2,55174.5
41068.5,55180.3
41060.2,55185.2
41051.4,55189.4
41042.4,55192.6
41033,55195
41023.4,55196.4
41013.8,55196.9
40167.3,55196.9
40157.7,55196.4
40148.1,55195
40138.8,55192.6
40129.7,55189.4
40120.9,55185.2
40112.6,55180.3
40104.9,55174.5
40097.7,55168
40091.2,55160.9
40085.5,55153.1
40080.5,55144.8
40076.4,55136.1
40073.1,55127
40070.8,55117.6
40069.4,55108.1
40068.9,55098.4
40068.9,54734.3
40069.4,54724.6
40070.8,54715
40073.1,54705.7
40076.4,54696.6
40080.5,54687.9
40085.5,54679.6
40091.2,54671.8
40097.7,54664.7
40104.9,54658.2
40112.6,54652.4
40120.9,54647.4
40129.7,54643.3
40138.8,54640.1
40148.1,54637.7
40157.7,54636.3
40167.3,54635.8
41013.8,54635.8
Z" /> 
</g>
<g >
</g>
<g style="fill:#000000; fill-opacity:1.0; 
stroke:#000000; stroke-width:0; stroke-opacity:1; 
stroke-linecap:round; stroke-linejoin:round;">
<path style="fill:#000000; fill-opacity:1.0; 
stroke:#000000; stroke-width:0; stroke-opacity:1; 
stroke-linecap:round; stroke-linejoin:round;fill-rule:evenodd;"
d="M 42362.2,38661.4
41574.8,38661.4
41574.8,38149.6
42362.2,38149.6
Z" /> 
<path style="fill:#000000; fill-opacity:1.0; 
stroke:#000000; stroke-width:0; stroke-opacity:1; 
stroke-linecap:round; stroke-linejoin:round;fill-rule:evenodd;"
d="M 43937,38346.5
43149.6,38346.5
43149.6,37559.1
43937,37559.1
Z" /> 
<path style="fill:#000000; fill-opacity:1.0; 
stroke:#000000; stroke-width:0; stroke-opacity:1; 
stroke-linecap:round; stroke-linejoin:round;fill-rule:evenodd;"
d="M 42362.2,37755.9
41574.8,37755.9
41574.8,37244.1
42362.2,37244.1
Z" /> 
</g>
<g >
</g>
<g >
</g>
<g >
</g>
<g >
</g>
<g >
</g>
<g >
</g>
<g >
</g>
<g >
</g>
<g >
</g>
<g >
</g>
<g >
</g>
<g >
</g>
<g style="fill:#000000; fill-opacity:1.0; 
stroke:#000000; stroke-width:0; stroke-opacity:1; 
stroke-linecap:round; stroke-linejoin:round;">
<path style="fill:#000000; fill-opacity:1.0; 
stroke:#000000; stroke-width:0; stroke-opacity:1; 
stroke-linecap:round; stroke-linejoin:round;fill-rule:evenodd;"
d="M 39015.7,38700.8
38228.3,38700.8
38228.3,38189
39015.7,38189
Z" /> 
<path style="fill:#000000; fill-opacity:1.0; 
stroke:#000000; stroke-width:0; stroke-opacity:1; 
stroke-linecap:round; stroke-linejoin:round;fill-rule:evenodd;"
d="M 40590.6,38385.8
39803.1,38385.8
39803.1,37598.4
40590.6,37598.4
Z" /> 
<path style="fill:#000000; fill-opacity:1.0; 
stroke:#000000; stroke-width:0; stroke-opacity:1; 
stroke-linecap:round; stroke-linejoin:round;fill-rule:evenodd;"
d="M 39015.7,37795.3
38228.3,37795.3
38228.3,37283.5
39015.7,37283.5
Z" /> 
</g>
<g >
</g>
<g >
</g>
<g >
</g>
<g >
</g>
<g >
</g>
<g >
</g>
<g >
</g>
<g >
</g>
<g >
</g>
<g >
</g>
<g >
</g>
<g >
</g>
<g >
</g>
<g >
</g>
<g >
</g>
<g >
</g>
<g >
</g>
<g >
</g>
<g >
</g>
</g> 
</svg>
