<?xml version="1.0" standalone="no"?>
 <!DOCTYPE svg PUBLIC "-//W3C//DTD SVG 1.1//EN" 
 "http://www.w3.org/Graphics/SVG/1.1/DTD/svg11.dtd"> 
<svg xmlns="http://www.w3.org/2000/svg" version="1.1" 
    width="22.9997cm" height="21.9989cm" viewBox="0 0 90550 86610 ">
<title>SVG Picture created as motherboard-F_Mask.svg date 2020/11/10 10:06:40 </title>
  <desc>Picture generated by PCBNEW </desc>
<g style="fill:#000000; fill-opacity:1;stroke:#000000; stroke-opacity:1;
stroke-linecap:round; stroke-linejoin:round; "
 transform="translate(0 0) scale(1 1)">
</g>
<g style="fill:#000000; fill-opacity:0.0; 
stroke:#000000; stroke-width:-0.000393701; stroke-opacity:1; 
stroke-linecap:round; stroke-linejoin:round;">
<g >
</g>
<g style="fill:#000000; fill-opacity:0.0; 
stroke:#000000; stroke-width:0; stroke-opacity:1; 
stroke-linecap:round; stroke-linejoin:round;">
</g>
<g style="fill:#000000; fill-opacity:1.0; 
stroke:#000000; stroke-width:0; stroke-opacity:1; 
stroke-linecap:round; stroke-linejoin:round;">
<path style="fill:#000000; fill-opacity:1.0; 
stroke:#000000; stroke-width:0; stroke-opacity:1; 
stroke-linecap:round; stroke-linejoin:round;fill-rule:evenodd;"
d="M 35860.2,46639.8
35860.2,45958.7
36659.4,45958.7
36659.4,46639.8
Z" /> 
</g>
<g style="fill:#000000; fill-opacity:1.0; 
stroke:#000000; stroke-width:681.102; stroke-opacity:1; 
stroke-linecap:round; stroke-linejoin:round;">
</g>
<g style="fill:#000000; fill-opacity:0.0; 
stroke:#000000; stroke-width:681.102; stroke-opacity:1; 
stroke-linecap:round; stroke-linejoin:round;">
<path d="M36200 47299
L36318 47299
" />
<path d="M36200 48299
L36318 48299
" />
</g>
<g >
</g>
<g style="fill:#000000; fill-opacity:0.0; 
stroke:#000000; stroke-width:681.102; stroke-opacity:1; 
stroke-linecap:round; stroke-linejoin:round;">
</g>
<g style="fill:#000000; fill-opacity:1.0; 
stroke:#000000; stroke-width:0; stroke-opacity:1; 
stroke-linecap:round; stroke-linejoin:round;">
<circle cx="47677.2" cy="54133.9" r="1181" /> 
</g>
<g style="fill:#000000; fill-opacity:1.0; 
stroke:#000000; stroke-width:59.0551; stroke-opacity:1; 
stroke-linecap:round; stroke-linejoin:round;">
</g>
<g >
</g>
<g style="fill:#000000; fill-opacity:1.0; 
stroke:#000000; stroke-width:59.0551; stroke-opacity:1; 
stroke-linecap:round; stroke-linejoin:round;">
</g>
<g style="fill:#000000; fill-opacity:1.0; 
stroke:#000000; stroke-width:0; stroke-opacity:1; 
stroke-linecap:round; stroke-linejoin:round;">
<circle cx="65157.5" cy="14803.1" r="1181" /> 
</g>
<g style="fill:#000000; fill-opacity:1.0; 
stroke:#000000; stroke-width:59.0551; stroke-opacity:1; 
stroke-linecap:round; stroke-linejoin:round;">
</g>
<g >
</g>
<g style="fill:#000000; fill-opacity:1.0; 
stroke:#000000; stroke-width:59.0551; stroke-opacity:1; 
stroke-linecap:round; stroke-linejoin:round;">
</g>
<g style="fill:#000000; fill-opacity:1.0; 
stroke:#000000; stroke-width:669.291; stroke-opacity:1; 
stroke-linecap:round; stroke-linejoin:round;">
</g>
<g style="fill:#000000; fill-opacity:0.0; 
stroke:#000000; stroke-width:669.291; stroke-opacity:1; 
stroke-linecap:round; stroke-linejoin:round;">
<path d="M41173 23070
L41173 23070
" />
<path d="M40173 23070
L40173 23070
" />
</g>
<g style="fill:#000000; fill-opacity:0.0; 
stroke:#000000; stroke-width:0; stroke-opacity:1; 
stroke-linecap:round; stroke-linejoin:round;">
</g>
<g style="fill:#000000; fill-opacity:1.0; 
stroke:#000000; stroke-width:0; stroke-opacity:1; 
stroke-linecap:round; stroke-linejoin:round;">
<path style="fill:#000000; fill-opacity:1.0; 
stroke:#000000; stroke-width:0; stroke-opacity:1; 
stroke-linecap:round; stroke-linejoin:round;fill-rule:evenodd;"
d="M 39507.9,23405.5
38838.6,23405.5
38838.6,22736.2
39507.9,22736.2
Z" /> 
</g>
<g >
</g>
<g style="fill:#000000; fill-opacity:1.0; 
stroke:#000000; stroke-width:0; stroke-opacity:1; 
stroke-linecap:round; stroke-linejoin:round;">
<circle cx="64253.5" cy="57627.6" r="590.551" /> 
</g>
<g style="fill:#000000; fill-opacity:1.0; 
stroke:#000000; stroke-width:59.0551; stroke-opacity:1; 
stroke-linecap:round; stroke-linejoin:round;">
</g>
<g style="fill:#000000; fill-opacity:1.0; 
stroke:#000000; stroke-width:0; stroke-opacity:1; 
stroke-linecap:round; stroke-linejoin:round;">
<circle cx="71340.2" cy="57627.6" r="590.551" /> 
</g>
<g style="fill:#000000; fill-opacity:1.0; 
stroke:#000000; stroke-width:59.0551; stroke-opacity:1; 
stroke-linecap:round; stroke-linejoin:round;">
</g>
<g >
</g>
<g style="fill:#000000; fill-opacity:1.0; 
stroke:#000000; stroke-width:59.0551; stroke-opacity:1; 
stroke-linecap:round; stroke-linejoin:round;">
</g>
<g style="fill:#000000; fill-opacity:1.0; 
stroke:#000000; stroke-width:0; stroke-opacity:1; 
stroke-linecap:round; stroke-linejoin:round;">
<circle cx="53011.8" cy="57618.1" r="590.551" /> 
</g>
<g style="fill:#000000; fill-opacity:1.0; 
stroke:#000000; stroke-width:59.0551; stroke-opacity:1; 
stroke-linecap:round; stroke-linejoin:round;">
</g>
<g style="fill:#000000; fill-opacity:1.0; 
stroke:#000000; stroke-width:0; stroke-opacity:1; 
stroke-linecap:round; stroke-linejoin:round;">
<circle cx="60098.4" cy="57618.1" r="590.551" /> 
</g>
<g style="fill:#000000; fill-opacity:1.0; 
stroke:#000000; stroke-width:59.0551; stroke-opacity:1; 
stroke-linecap:round; stroke-linejoin:round;">
</g>
<g >
</g>
<g style="fill:#000000; fill-opacity:1.0; 
stroke:#000000; stroke-width:59.0551; stroke-opacity:1; 
stroke-linecap:round; stroke-linejoin:round;">
</g>
<g style="fill:#000000; fill-opacity:1.0; 
stroke:#000000; stroke-width:0; stroke-opacity:1; 
stroke-linecap:round; stroke-linejoin:round;">
<path style="fill:#000000; fill-opacity:1.0; 
stroke:#000000; stroke-width:0; stroke-opacity:1; 
stroke-linecap:round; stroke-linejoin:round;fill-rule:evenodd;"
d="M 10787.2,33356.8
10796.8,33358.2
10806.1,33360.5
10815.2,33363.8
10824,33367.9
10832.2,33372.9
10840,33378.6
10847.2,33385.1
10853.6,33392.3
10859.4,33400
10864.4,33408.3
10868.5,33417.1
10871.7,33426.2
10874.1,33435.5
10875.5,33445.1
10876,33454.7
10876,34301.2
10875.5,34310.8
10874.1,34320.4
10871.7,34329.8
10868.5,34338.8
10864.4,34347.6
10859.4,34355.9
10853.6,34363.6
10847.2,34370.8
10840,34377.3
10832.2,34383
10824,34388
10815.2,34392.1
10806.1,34395.4
10796.8,34397.7
10787.2,34399.1
10777.6,34399.6
10413.4,34399.6
10403.7,34399.1
10394.2,34397.7
10384.8,34395.4
10375.7,34392.1
10367,34388
10358.7,34383
10350.9,34377.3
10343.8,34370.8
10337.3,34363.6
10331.5,34355.9
10326.6,34347.6
10322.5,34338.8
10319.2,34329.8
10316.9,34320.4
10315.4,34310.8
10315,34301.2
10315,33454.7
10315.4,33445.1
10316.9,33435.5
10319.2,33426.2
10322.5,33417.1
10326.6,33408.3
10331.5,33400
10337.3,33392.3
10343.8,33385.1
10350.9,33378.6
10358.7,33372.9
10367,33367.9
10375.7,33363.8
10384.8,33360.5
10394.2,33358.2
10403.7,33356.8
10413.4,33356.3
10777.6,33356.3
Z" /> 
<path style="fill:#000000; fill-opacity:1.0; 
stroke:#000000; stroke-width:0; stroke-opacity:1; 
stroke-linecap:round; stroke-linejoin:round;fill-rule:evenodd;"
d="M 11958.5,33356.8
11968,33358.2
11977.4,33360.5
11986.5,33363.8
11995.2,33367.9
12003.5,33372.9
12011.3,33378.6
12018.4,33385.1
12024.9,33392.3
12030.7,33400
12035.6,33408.3
12039.8,33417.1
12043,33426.2
12045.4,33435.5
12046.8,33445.1
12047.2,33454.7
12047.2,34301.2
12046.8,34310.8
12045.4,34320.4
12043,34329.8
12039.8,34338.8
12035.6,34347.6
12030.7,34355.9
12024.9,34363.6
12018.4,34370.8
12011.3,34377.3
12003.5,34383
11995.2,34388
11986.5,34392.1
11977.4,34395.4
11968,34397.7
11958.5,34399.1
11948.8,34399.6
11584.6,34399.6
11575,34399.1
11565.4,34397.7
11556.1,34395.4
11547,34392.1
11538.2,34388
11530,34383
11522.2,34377.3
11515,34370.8
11508.6,34363.6
11502.8,34355.9
11497.8,34347.6
11493.7,34338.8
11490.5,34329.8
11488.1,34320.4
11486.7,34310.8
11486.2,34301.2
11486.2,33454.7
11486.7,33445.1
11488.1,33435.5
11490.5,33426.2
11493.7,33417.1
11497.8,33408.3
11502.8,33400
11508.6,33392.3
11515,33385.1
11522.2,33378.6
11530,33372.9
11538.2,33367.9
11547,33363.8
11556.1,33360.5
11565.4,33358.2
11575,33356.8
11584.6,33356.3
11948.8,33356.3
Z" /> 
</g>
<g >
</g>
<g style="fill:#000000; fill-opacity:1.0; 
stroke:#000000; stroke-width:0; stroke-opacity:1; 
stroke-linecap:round; stroke-linejoin:round;">
<path style="fill:#000000; fill-opacity:1.0; 
stroke:#000000; stroke-width:0; stroke-opacity:1; 
stroke-linecap:round; stroke-linejoin:round;fill-rule:evenodd;"
d="M 10787.2,31486.7
10796.8,31488.1
10806.1,31490.5
10815.2,31493.7
10824,31497.8
10832.2,31502.8
10840,31508.6
10847.2,31515
10853.6,31522.2
10859.4,31530
10864.4,31538.2
10868.5,31547
10871.7,31556.1
10874.1,31565.4
10875.5,31575
10876,31584.6
10876,32431.1
10875.5,32440.7
10874.1,32450.3
10871.7,32459.7
10868.5,32468.8
10864.4,32477.5
10859.4,32485.8
10853.6,32493.5
10847.2,32500.7
10840,32507.2
10832.2,32512.9
10824,32517.9
10815.2,32522
10806.1,32525.3
10796.8,32527.6
10787.2,32529.1
10777.6,32529.5
10413.4,32529.5
10403.7,32529.1
10394.2,32527.6
10384.8,32525.3
10375.7,32522
10367,32517.9
10358.7,32512.9
10350.9,32507.2
10343.8,32500.7
10337.3,32493.5
10331.5,32485.8
10326.6,32477.5
10322.5,32468.8
10319.2,32459.7
10316.9,32450.3
10315.4,32440.7
10315,32431.1
10315,31584.6
10315.4,31575
10316.9,31565.4
10319.2,31556.1
10322.5,31547
10326.6,31538.2
10331.5,31530
10337.3,31522.2
10343.8,31515
10350.9,31508.6
10358.7,31502.8
10367,31497.8
10375.7,31493.7
10384.8,31490.5
10394.2,31488.1
10403.7,31486.7
10413.4,31486.2
10777.6,31486.2
Z" /> 
<path style="fill:#000000; fill-opacity:1.0; 
stroke:#000000; stroke-width:0; stroke-opacity:1; 
stroke-linecap:round; stroke-linejoin:round;fill-rule:evenodd;"
d="M 11958.5,31486.7
11968,31488.1
11977.4,31490.5
11986.5,31493.7
11995.2,31497.8
12003.5,31502.8
12011.3,31508.6
12018.4,31515
12024.9,31522.2
12030.7,31530
12035.6,31538.2
12039.8,31547
12043,31556.1
12045.4,31565.4
12046.8,31575
12047.2,31584.6
12047.2,32431.1
12046.8,32440.7
12045.4,32450.3
12043,32459.7
12039.8,32468.8
12035.6,32477.5
12030.7,32485.8
12024.9,32493.5
12018.4,32500.7
12011.3,32507.2
12003.5,32512.9
11995.2,32517.9
11986.5,32522
11977.4,32525.3
11968,32527.6
11958.5,32529.1
11948.8,32529.5
11584.6,32529.5
11575,32529.1
11565.4,32527.6
11556.1,32525.3
11547,32522
11538.2,32517.9
11530,32512.9
11522.2,32507.2
11515,32500.7
11508.6,32493.5
11502.8,32485.8
11497.8,32477.5
11493.7,32468.8
11490.5,32459.7
11488.1,32450.3
11486.7,32440.7
11486.2,32431.1
11486.2,31584.6
11486.7,31575
11488.1,31565.4
11490.5,31556.1
11493.7,31547
11497.8,31538.2
11502.8,31530
11508.6,31522.2
11515,31515
11522.2,31508.6
11530,31502.8
11538.2,31497.8
11547,31493.7
11556.1,31490.5
11565.4,31488.1
11575,31486.7
11584.6,31486.2
11948.8,31486.2
Z" /> 
</g>
<g >
</g>
<g >
</g>
<g >
</g>
<g >
</g>
<g style="fill:#000000; fill-opacity:1.0; 
stroke:#000000; stroke-width:0; stroke-opacity:1; 
stroke-linecap:round; stroke-linejoin:round;">
<path style="fill:#000000; fill-opacity:1.0; 
stroke:#000000; stroke-width:0; stroke-opacity:1; 
stroke-linecap:round; stroke-linejoin:round;fill-rule:evenodd;"
d="M 10806.9,29596.9
10816.4,29598.3
10825.8,29600.7
10834.9,29603.9
10843.6,29608.1
10851.9,29613
10859.7,29618.8
10866.8,29625.3
10873.3,29632.4
10879.1,29640.2
10884,29648.5
10888.2,29657.2
10891.4,29666.3
10893.8,29675.7
10895.2,29685.2
10895.7,29694.9
10895.7,30541.3
10895.2,30551
10893.8,30560.5
10891.4,30569.9
10888.2,30579
10884,30587.7
10879.1,30596
10873.3,30603.8
10866.8,30610.9
10859.7,30617.4
10851.9,30623.2
10843.6,30628.1
10834.9,30632.3
10825.8,30635.5
10816.4,30637.9
10806.9,30639.3
10797.2,30639.8
10433.1,30639.8
10423.4,30639.3
10413.9,30637.9
10404.5,30635.5
10395.4,30632.3
10386.7,30628.1
10378.4,30623.2
10370.6,30617.4
10363.5,30610.9
10357,30603.8
10351.2,30596
10346.3,30587.7
10342.1,30579
10338.9,30569.9
10336.5,30560.5
10335.1,30551
10334.6,30541.3
10334.6,29694.9
10335.1,29685.2
10336.5,29675.7
10338.9,29666.3
10342.1,29657.2
10346.3,29648.5
10351.2,29640.2
10357,29632.4
10363.5,29625.3
10370.6,29618.8
10378.4,29613
10386.7,29608.1
10395.4,29603.9
10404.5,29600.7
10413.9,29598.3
10423.4,29596.9
10433.1,29596.5
10797.2,29596.5
Z" /> 
<path style="fill:#000000; fill-opacity:1.0; 
stroke:#000000; stroke-width:0; stroke-opacity:1; 
stroke-linecap:round; stroke-linejoin:round;fill-rule:evenodd;"
d="M 11978.2,29596.9
11987.7,29598.3
11997.1,29600.7
12006.2,29603.9
12014.9,29608.1
12023.2,29613
12030.9,29618.8
12038.1,29625.3
12044.6,29632.4
12050.3,29640.2
12055.3,29648.5
12059.4,29657.2
12062.7,29666.3
12065,29675.7
12066.5,29685.2
12066.9,29694.9
12066.9,30541.3
12066.5,30551
12065,30560.5
12062.7,30569.9
12059.4,30579
12055.3,30587.7
12050.3,30596
12044.6,30603.8
12038.1,30610.9
12030.9,30617.4
12023.2,30623.2
12014.9,30628.1
12006.2,30632.3
11997.1,30635.5
11987.7,30637.9
11978.2,30639.3
11968.5,30639.8
11604.3,30639.8
11594.7,30639.3
11585.1,30637.9
11575.8,30635.5
11566.7,30632.3
11557.9,30628.1
11549.6,30623.2
11541.9,30617.4
11534.7,30610.9
11528.2,30603.8
11522.5,30596
11517.5,30587.7
11513.4,30579
11510.1,30569.9
11507.8,30560.5
11506.4,30551
11505.9,30541.3
11505.9,29694.9
11506.4,29685.2
11507.8,29675.7
11510.1,29666.3
11513.4,29657.2
11517.5,29648.5
11522.5,29640.2
11528.2,29632.4
11534.7,29625.3
11541.9,29618.8
11549.6,29613
11557.9,29608.1
11566.7,29603.9
11575.8,29600.7
11585.1,29598.3
11594.7,29596.9
11604.3,29596.5
11968.5,29596.5
Z" /> 
</g>
<g >
</g>
<g style="fill:#000000; fill-opacity:1.0; 
stroke:#000000; stroke-width:0; stroke-opacity:1; 
stroke-linecap:round; stroke-linejoin:round;">
<path style="fill:#000000; fill-opacity:1.0; 
stroke:#000000; stroke-width:0; stroke-opacity:1; 
stroke-linecap:round; stroke-linejoin:round;fill-rule:evenodd;"
d="M 10806.9,27707.2
10816.4,27708.6
10825.8,27710.9
10834.9,27714.2
10843.6,27718.3
10851.9,27723.3
10859.7,27729
10866.8,27735.5
10873.3,27742.7
10879.1,27750.4
10884,27758.7
10888.2,27767.5
10891.4,27776.5
10893.8,27785.9
10895.2,27795.5
10895.7,27805.1
10895.7,28651.6
10895.2,28661.2
10893.8,28670.8
10891.4,28680.1
10888.2,28689.2
10884,28698
10879.1,28706.3
10873.3,28714
10866.8,28721.2
10859.7,28727.7
10851.9,28733.4
10843.6,28738.4
10834.9,28742.5
10825.8,28745.8
10816.4,28748.1
10806.9,28749.5
10797.2,28750
10433.1,28750
10423.4,28749.5
10413.9,28748.1
10404.5,28745.8
10395.4,28742.5
10386.7,28738.4
10378.4,28733.4
10370.6,28727.7
10363.5,28721.2
10357,28714
10351.2,28706.3
10346.3,28698
10342.1,28689.2
10338.9,28680.1
10336.5,28670.8
10335.1,28661.2
10334.6,28651.6
10334.6,27805.1
10335.1,27795.5
10336.5,27785.9
10338.9,27776.5
10342.1,27767.5
10346.3,27758.7
10351.2,27750.4
10357,27742.7
10363.5,27735.5
10370.6,27729
10378.4,27723.3
10386.7,27718.3
10395.4,27714.2
10404.5,27710.9
10413.9,27708.6
10423.4,27707.2
10433.1,27706.7
10797.2,27706.7
Z" /> 
<path style="fill:#000000; fill-opacity:1.0; 
stroke:#000000; stroke-width:0; stroke-opacity:1; 
stroke-linecap:round; stroke-linejoin:round;fill-rule:evenodd;"
d="M 11978.2,27707.2
11987.7,27708.6
11997.1,27710.9
12006.2,27714.2
12014.9,27718.3
12023.2,27723.3
12030.9,27729
12038.1,27735.5
12044.6,27742.7
12050.3,27750.4
12055.3,27758.7
12059.4,27767.5
12062.7,27776.5
12065,27785.9
12066.5,27795.5
12066.9,27805.1
12066.9,28651.6
12066.5,28661.2
12065,28670.8
12062.7,28680.1
12059.4,28689.2
12055.3,28698
12050.3,28706.3
12044.6,28714
12038.1,28721.2
12030.9,28727.7
12023.2,28733.4
12014.9,28738.4
12006.2,28742.5
11997.1,28745.8
11987.7,28748.1
11978.2,28749.5
11968.5,28750
11604.3,28750
11594.7,28749.5
11585.1,28748.1
11575.8,28745.8
11566.7,28742.5
11557.9,28738.4
11549.6,28733.4
11541.9,28727.7
11534.7,28721.2
11528.2,28714
11522.5,28706.3
11517.5,28698
11513.4,28689.2
11510.1,28680.1
11507.8,28670.8
11506.4,28661.2
11505.9,28651.6
11505.9,27805.1
11506.4,27795.5
11507.8,27785.9
11510.1,27776.5
11513.4,27767.5
11517.5,27758.7
11522.5,27750.4
11528.2,27742.7
11534.7,27735.5
11541.9,27729
11549.6,27723.3
11557.9,27718.3
11566.7,27714.2
11575.8,27710.9
11585.1,27708.6
11594.7,27707.2
11604.3,27706.7
11968.5,27706.7
Z" /> 
</g>
<g >
</g>
<g >
</g>
<g >
</g>
<g >
</g>
<g style="fill:#000000; fill-opacity:1.0; 
stroke:#000000; stroke-width:0; stroke-opacity:1; 
stroke-linecap:round; stroke-linejoin:round;">
<path style="fill:#000000; fill-opacity:1.0; 
stroke:#000000; stroke-width:0; stroke-opacity:1; 
stroke-linecap:round; stroke-linejoin:round;fill-rule:evenodd;"
d="M 18740.2,41555.1
19055.1,41555.1
19055.1,42303.1
18740.2,42303.1
Z" /> 
<path style="fill:#000000; fill-opacity:1.0; 
stroke:#000000; stroke-width:0; stroke-opacity:1; 
stroke-linecap:round; stroke-linejoin:round;fill-rule:evenodd;"
d="M 18366.1,40374
18681.1,40374
18681.1,41122
18366.1,41122
Z" /> 
<path style="fill:#000000; fill-opacity:1.0; 
stroke:#000000; stroke-width:0; stroke-opacity:1; 
stroke-linecap:round; stroke-linejoin:round;fill-rule:evenodd;"
d="M 19114.2,40374
19429.1,40374
19429.1,41122
19114.2,41122
Z" /> 
</g>
<g >
</g>
<g >
</g>
<g >
</g>
<g style="fill:#000000; fill-opacity:1.0; 
stroke:#000000; stroke-width:0; stroke-opacity:1; 
stroke-linecap:round; stroke-linejoin:round;">
<path style="fill:#000000; fill-opacity:1.0; 
stroke:#000000; stroke-width:0; stroke-opacity:1; 
stroke-linecap:round; stroke-linejoin:round;fill-rule:evenodd;"
d="M 21200.8,41555.1
21515.7,41555.1
21515.7,42303.1
21200.8,42303.1
Z" /> 
<path style="fill:#000000; fill-opacity:1.0; 
stroke:#000000; stroke-width:0; stroke-opacity:1; 
stroke-linecap:round; stroke-linejoin:round;fill-rule:evenodd;"
d="M 20826.8,40374
21141.7,40374
21141.7,41122
20826.8,41122
Z" /> 
<path style="fill:#000000; fill-opacity:1.0; 
stroke:#000000; stroke-width:0; stroke-opacity:1; 
stroke-linecap:round; stroke-linejoin:round;fill-rule:evenodd;"
d="M 21574.8,40374
21889.8,40374
21889.8,41122
21574.8,41122
Z" /> 
</g>
<g >
</g>
<g style="fill:#000000; fill-opacity:1.0; 
stroke:#000000; stroke-width:0; stroke-opacity:1; 
stroke-linecap:round; stroke-linejoin:round;">
<circle cx="76550" cy="36467.3" r="590.551" /> 
</g>
<g style="fill:#000000; fill-opacity:1.0; 
stroke:#000000; stroke-width:59.0551; stroke-opacity:1; 
stroke-linecap:round; stroke-linejoin:round;">
</g>
<g style="fill:#000000; fill-opacity:1.0; 
stroke:#000000; stroke-width:0; stroke-opacity:1; 
stroke-linecap:round; stroke-linejoin:round;">
<path style="fill:#000000; fill-opacity:1.0; 
stroke:#000000; stroke-width:0; stroke-opacity:1; 
stroke-linecap:round; stroke-linejoin:round;fill-rule:evenodd;"
d="M 75959.4,33876.8
77140.6,33876.8
77140.6,35057.9
75959.4,35057.9
Z" /> 
</g>
<g >
</g>
<g style="fill:#000000; fill-opacity:1.0; 
stroke:#000000; stroke-width:0; stroke-opacity:1; 
stroke-linecap:round; stroke-linejoin:round;">
<path style="fill:#000000; fill-opacity:1.0; 
stroke:#000000; stroke-width:0; stroke-opacity:1; 
stroke-linecap:round; stroke-linejoin:round;fill-rule:evenodd;"
d="M 40098.4,34039.4
40098.4,33566.9
40807.1,33566.9
40807.1,34039.4
Z" /> 
<path style="fill:#000000; fill-opacity:1.0; 
stroke:#000000; stroke-width:0; stroke-opacity:1; 
stroke-linecap:round; stroke-linejoin:round;fill-rule:evenodd;"
d="M 40098.4,35039.4
40098.4,34566.9
40807.1,34566.9
40807.1,35039.4
Z" /> 
<path style="fill:#000000; fill-opacity:1.0; 
stroke:#000000; stroke-width:0; stroke-opacity:1; 
stroke-linecap:round; stroke-linejoin:round;fill-rule:evenodd;"
d="M 40098.4,36039.4
40098.4,35566.9
40807.1,35566.9
40807.1,36039.4
Z" /> 
<path style="fill:#000000; fill-opacity:1.0; 
stroke:#000000; stroke-width:0; stroke-opacity:1; 
stroke-linecap:round; stroke-linejoin:round;fill-rule:evenodd;"
d="M 44626,34039.4
44626,33566.9
45334.6,33566.9
45334.6,34039.4
Z" /> 
<path style="fill:#000000; fill-opacity:1.0; 
stroke:#000000; stroke-width:0; stroke-opacity:1; 
stroke-linecap:round; stroke-linejoin:round;fill-rule:evenodd;"
d="M 44626,35039.4
44626,34566.9
45334.6,34566.9
45334.6,35039.4
Z" /> 
<path style="fill:#000000; fill-opacity:1.0; 
stroke:#000000; stroke-width:0; stroke-opacity:1; 
stroke-linecap:round; stroke-linejoin:round;fill-rule:evenodd;"
d="M 44626,36039.4
44626,35566.9
45334.6,35566.9
45334.6,36039.4
Z" /> 
</g>
<g >
</g>
<g style="fill:#000000; fill-opacity:1.0; 
stroke:#000000; stroke-width:0; stroke-opacity:1; 
stroke-linecap:round; stroke-linejoin:round;">
<path style="fill:#000000; fill-opacity:1.0; 
stroke:#000000; stroke-width:0; stroke-opacity:1; 
stroke-linecap:round; stroke-linejoin:round;fill-rule:evenodd;"
d="M 46476.4,34039.4
46476.4,33566.9
47185,33566.9
47185,34039.4
Z" /> 
<path style="fill:#000000; fill-opacity:1.0; 
stroke:#000000; stroke-width:0; stroke-opacity:1; 
stroke-linecap:round; stroke-linejoin:round;fill-rule:evenodd;"
d="M 46476.4,35039.4
46476.4,34566.9
47185,34566.9
47185,35039.4
Z" /> 
<path style="fill:#000000; fill-opacity:1.0; 
stroke:#000000; stroke-width:0; stroke-opacity:1; 
stroke-linecap:round; stroke-linejoin:round;fill-rule:evenodd;"
d="M 46476.4,36039.4
46476.4,35566.9
47185,35566.9
47185,36039.4
Z" /> 
<path style="fill:#000000; fill-opacity:1.0; 
stroke:#000000; stroke-width:0; stroke-opacity:1; 
stroke-linecap:round; stroke-linejoin:round;fill-rule:evenodd;"
d="M 51003.9,34039.4
51003.9,33566.9
51712.6,33566.9
51712.6,34039.4
Z" /> 
<path style="fill:#000000; fill-opacity:1.0; 
stroke:#000000; stroke-width:0; stroke-opacity:1; 
stroke-linecap:round; stroke-linejoin:round;fill-rule:evenodd;"
d="M 51003.9,35039.4
51003.9,34566.9
51712.6,34566.9
51712.6,35039.4
Z" /> 
<path style="fill:#000000; fill-opacity:1.0; 
stroke:#000000; stroke-width:0; stroke-opacity:1; 
stroke-linecap:round; stroke-linejoin:round;fill-rule:evenodd;"
d="M 51003.9,36039.4
51003.9,35566.9
51712.6,35566.9
51712.6,36039.4
Z" /> 
</g>
<g >
</g>
<g style="fill:#000000; fill-opacity:1.0; 
stroke:#000000; stroke-width:0; stroke-opacity:1; 
stroke-linecap:round; stroke-linejoin:round;">
</g>
<g style="fill:#000000; fill-opacity:1.0; 
stroke:#000000; stroke-width:669.291; stroke-opacity:1; 
stroke-linecap:round; stroke-linejoin:round;">
</g>
<g style="fill:#000000; fill-opacity:0.0; 
stroke:#000000; stroke-width:669.291; stroke-opacity:1; 
stroke-linecap:round; stroke-linejoin:round;">
<path d="M22834 16673
L22834 16673
" />
<path d="M22834 15673
L22834 15673
" />
<path d="M22834 14673
L22834 14673
" />
<path d="M22834 13673
L22834 13673
" />
<path d="M22834 12673
L22834 12673
" />
</g>
<g style="fill:#000000; fill-opacity:0.0; 
stroke:#000000; stroke-width:0; stroke-opacity:1; 
stroke-linecap:round; stroke-linejoin:round;">
</g>
<g style="fill:#000000; fill-opacity:1.0; 
stroke:#000000; stroke-width:0; stroke-opacity:1; 
stroke-linecap:round; stroke-linejoin:round;">
<path style="fill:#000000; fill-opacity:1.0; 
stroke:#000000; stroke-width:0; stroke-opacity:1; 
stroke-linecap:round; stroke-linejoin:round;fill-rule:evenodd;"
d="M 22500,12007.9
22500,11338.6
23169.3,11338.6
23169.3,12007.9
Z" /> 
</g>
<g >
</g>
<g style="fill:#000000; fill-opacity:1.0; 
stroke:#000000; stroke-width:0; stroke-opacity:1; 
stroke-linecap:round; stroke-linejoin:round;">
<circle cx="11220.5" cy="22047.2" r="314.961" /> 
</g>
<g style="fill:#000000; fill-opacity:1.0; 
stroke:#000000; stroke-width:59.0551; stroke-opacity:1; 
stroke-linecap:round; stroke-linejoin:round;">
</g>
<g style="fill:#000000; fill-opacity:1.0; 
stroke:#000000; stroke-width:0; stroke-opacity:1; 
stroke-linecap:round; stroke-linejoin:round;">
<path style="fill:#000000; fill-opacity:1.0; 
stroke:#000000; stroke-width:0; stroke-opacity:1; 
stroke-linecap:round; stroke-linejoin:round;fill-rule:evenodd;"
d="M 11535.4,23346.5
10905.5,23346.5
10905.5,22716.5
11535.4,22716.5
Z" /> 
</g>
<g >
</g>
<g style="fill:#000000; fill-opacity:1.0; 
stroke:#000000; stroke-width:0; stroke-opacity:1; 
stroke-linecap:round; stroke-linejoin:round;">
<circle cx="11220.5" cy="25885.8" r="314.961" /> 
</g>
<g style="fill:#000000; fill-opacity:1.0; 
stroke:#000000; stroke-width:59.0551; stroke-opacity:1; 
stroke-linecap:round; stroke-linejoin:round;">
</g>
<g style="fill:#000000; fill-opacity:1.0; 
stroke:#000000; stroke-width:0; stroke-opacity:1; 
stroke-linecap:round; stroke-linejoin:round;">
<path style="fill:#000000; fill-opacity:1.0; 
stroke:#000000; stroke-width:0; stroke-opacity:1; 
stroke-linecap:round; stroke-linejoin:round;fill-rule:evenodd;"
d="M 10905.5,24586.6
11535.4,24586.6
11535.4,25216.5
10905.5,25216.5
Z" /> 
</g>
<g >
</g>
<g style="fill:#000000; fill-opacity:1.0; 
stroke:#000000; stroke-width:0; stroke-opacity:1; 
stroke-linecap:round; stroke-linejoin:round;">
<path style="fill:#000000; fill-opacity:1.0; 
stroke:#000000; stroke-width:0; stroke-opacity:1; 
stroke-linecap:round; stroke-linejoin:round;fill-rule:evenodd;"
d="M 28627.6,41555.1
28942.5,41555.1
28942.5,42303.1
28627.6,42303.1
Z" /> 
<path style="fill:#000000; fill-opacity:1.0; 
stroke:#000000; stroke-width:0; stroke-opacity:1; 
stroke-linecap:round; stroke-linejoin:round;fill-rule:evenodd;"
d="M 28253.5,40374
28568.5,40374
28568.5,41122
28253.5,41122
Z" /> 
<path style="fill:#000000; fill-opacity:1.0; 
stroke:#000000; stroke-width:0; stroke-opacity:1; 
stroke-linecap:round; stroke-linejoin:round;fill-rule:evenodd;"
d="M 29001.6,40374
29316.5,40374
29316.5,41122
29001.6,41122
Z" /> 
</g>
<g >
</g>
<g style="fill:#000000; fill-opacity:1.0; 
stroke:#000000; stroke-width:0; stroke-opacity:1; 
stroke-linecap:round; stroke-linejoin:round;">
<path style="fill:#000000; fill-opacity:1.0; 
stroke:#000000; stroke-width:0; stroke-opacity:1; 
stroke-linecap:round; stroke-linejoin:round;fill-rule:evenodd;"
d="M 23661.4,41653.5
23976.4,41653.5
23976.4,42401.6
23661.4,42401.6
Z" /> 
<path style="fill:#000000; fill-opacity:1.0; 
stroke:#000000; stroke-width:0; stroke-opacity:1; 
stroke-linecap:round; stroke-linejoin:round;fill-rule:evenodd;"
d="M 23287.4,40472.4
23602.4,40472.4
23602.4,41220.5
23287.4,41220.5
Z" /> 
<path style="fill:#000000; fill-opacity:1.0; 
stroke:#000000; stroke-width:0; stroke-opacity:1; 
stroke-linecap:round; stroke-linejoin:round;fill-rule:evenodd;"
d="M 24035.4,40472.4
24350.4,40472.4
24350.4,41220.5
24035.4,41220.5
Z" /> 
</g>
<g >
</g>
<g style="fill:#000000; fill-opacity:1.0; 
stroke:#000000; stroke-width:0; stroke-opacity:1; 
stroke-linecap:round; stroke-linejoin:round;">
<path style="fill:#000000; fill-opacity:1.0; 
stroke:#000000; stroke-width:0; stroke-opacity:1; 
stroke-linecap:round; stroke-linejoin:round;fill-rule:evenodd;"
d="M 26141.7,41555.1
26456.7,41555.1
26456.7,42303.1
26141.7,42303.1
Z" /> 
<path style="fill:#000000; fill-opacity:1.0; 
stroke:#000000; stroke-width:0; stroke-opacity:1; 
stroke-linecap:round; stroke-linejoin:round;fill-rule:evenodd;"
d="M 25767.7,40374
26082.7,40374
26082.7,41122
25767.7,41122
Z" /> 
<path style="fill:#000000; fill-opacity:1.0; 
stroke:#000000; stroke-width:0; stroke-opacity:1; 
stroke-linecap:round; stroke-linejoin:round;fill-rule:evenodd;"
d="M 26515.7,40374
26830.7,40374
26830.7,41122
26515.7,41122
Z" /> 
</g>
<g >
</g>
<g >
</g>
<g >
</g>
<g >
</g>
<g >
</g>
<g >
</g>
<g style="fill:#000000; fill-opacity:1.0; 
stroke:#000000; stroke-width:0; stroke-opacity:1; 
stroke-linecap:round; stroke-linejoin:round;">
<path style="fill:#000000; fill-opacity:1.0; 
stroke:#000000; stroke-width:0; stroke-opacity:1; 
stroke-linecap:round; stroke-linejoin:round;fill-rule:evenodd;"
d="M 58759.6,44774.1
58769.2,44775.5
58778.6,44777.9
58787.7,44781.1
58796.4,44785.2
58804.7,44790.2
58812.4,44796
58819.6,44802.4
58826.1,44809.6
58831.8,44817.4
58836.8,44825.7
58840.9,44834.4
58844.2,44843.5
58846.5,44852.8
58848,44862.4
58848.4,44872
58848.4,45236.2
58848,45245.9
58846.5,45255.4
58844.2,45264.8
58840.9,45273.9
58836.8,45282.6
58831.8,45290.9
58826.1,45298.7
58819.6,45305.8
58812.4,45312.3
58804.7,45318.1
58796.4,45323
58787.7,45327.2
58778.6,45330.4
58769.2,45332.8
58759.6,45334.2
58750,45334.6
57903.5,45334.6
57893.9,45334.2
57884.3,45332.8
57875,45330.4
57865.9,45327.2
57857.1,45323
57848.9,45318.1
57841.1,45312.3
57833.9,45305.8
57827.5,45298.7
57821.7,45290.9
57816.7,45282.6
57812.6,45273.9
57809.4,45264.8
57807,45255.4
57805.6,45245.9
57805.1,45236.2
57805.1,44872
57805.6,44862.4
57807,44852.8
57809.4,44843.5
57812.6,44834.4
57816.7,44825.7
57821.7,44817.4
57827.5,44809.6
57833.9,44802.4
57841.1,44796
57848.9,44790.2
57857.1,44785.2
57865.9,44781.1
57875,44777.9
57884.3,44775.5
57893.9,44774.1
57903.5,44773.6
58750,44773.6
Z" /> 
<path style="fill:#000000; fill-opacity:1.0; 
stroke:#000000; stroke-width:0; stroke-opacity:1; 
stroke-linecap:round; stroke-linejoin:round;fill-rule:evenodd;"
d="M 58759.6,43602.8
58769.2,43604.3
58778.6,43606.6
58787.7,43609.9
58796.4,43614
58804.7,43618.9
58812.4,43624.7
58819.6,43631.2
58826.1,43638.3
58831.8,43646.1
58836.8,43654.4
58840.9,43663.1
58844.2,43672.2
58846.5,43681.6
58848,43691.1
58848.4,43700.8
58848.4,44065
58848,44074.6
58846.5,44084.2
58844.2,44093.5
58840.9,44102.6
58836.8,44111.4
58831.8,44119.6
58826.1,44127.4
58819.6,44134.6
58812.4,44141
58804.7,44146.8
58796.4,44151.8
58787.7,44155.9
58778.6,44159.1
58769.2,44161.5
58759.6,44162.9
58750,44163.4
57903.5,44163.4
57893.9,44162.9
57884.3,44161.5
57875,44159.1
57865.9,44155.9
57857.1,44151.8
57848.9,44146.8
57841.1,44141
57833.9,44134.6
57827.5,44127.4
57821.7,44119.6
57816.7,44111.4
57812.6,44102.6
57809.4,44093.5
57807,44084.2
57805.6,44074.6
57805.1,44065
57805.1,43700.8
57805.6,43691.1
57807,43681.6
57809.4,43672.2
57812.6,43663.1
57816.7,43654.4
57821.7,43646.1
57827.5,43638.3
57833.9,43631.2
57841.1,43624.7
57848.9,43618.9
57857.1,43614
57865.9,43609.9
57875,43606.6
57884.3,43604.3
57893.9,43602.8
57903.5,43602.4
58750,43602.4
Z" /> 
</g>
<g >
</g>
<g style="fill:#000000; fill-opacity:1.0; 
stroke:#000000; stroke-width:0; stroke-opacity:1; 
stroke-linecap:round; stroke-linejoin:round;">
<path style="fill:#000000; fill-opacity:1.0; 
stroke:#000000; stroke-width:0; stroke-opacity:1; 
stroke-linecap:round; stroke-linejoin:round;fill-rule:evenodd;"
d="M 69862,44774.1
69871.6,44775.5
69880.9,44777.9
69890,44781.1
69898.8,44785.2
69907,44790.2
69914.8,44796
69922,44802.4
69928.4,44809.6
69934.2,44817.4
69939.2,44825.7
69943.3,44834.4
69946.5,44843.5
69948.9,44852.8
69950.3,44862.4
69950.8,44872
69950.8,45236.2
69950.3,45245.9
69948.9,45255.4
69946.5,45264.8
69943.3,45273.9
69939.2,45282.6
69934.2,45290.9
69928.4,45298.7
69922,45305.8
69914.8,45312.3
69907,45318.1
69898.8,45323
69890,45327.2
69880.9,45330.4
69871.6,45332.8
69862,45334.2
69852.4,45334.6
69005.9,45334.6
68996.3,45334.2
68986.7,45332.8
68977.3,45330.4
68968.2,45327.2
68959.5,45323
68951.2,45318.1
68943.5,45312.3
68936.3,45305.8
68929.8,45298.7
68924.1,45290.9
68919.1,45282.6
68915,45273.9
68911.7,45264.8
68909.4,45255.4
68908,45245.9
68907.5,45236.2
68907.5,44872
68908,44862.4
68909.4,44852.8
68911.7,44843.5
68915,44834.4
68919.1,44825.7
68924.1,44817.4
68929.8,44809.6
68936.3,44802.4
68943.5,44796
68951.2,44790.2
68959.5,44785.2
68968.2,44781.1
68977.3,44777.9
68986.7,44775.5
68996.3,44774.1
69005.9,44773.6
69852.4,44773.6
Z" /> 
<path style="fill:#000000; fill-opacity:1.0; 
stroke:#000000; stroke-width:0; stroke-opacity:1; 
stroke-linecap:round; stroke-linejoin:round;fill-rule:evenodd;"
d="M 69862,43602.8
69871.6,43604.3
69880.9,43606.6
69890,43609.9
69898.8,43614
69907,43618.9
69914.8,43624.7
69922,43631.2
69928.4,43638.3
69934.2,43646.1
69939.2,43654.4
69943.3,43663.1
69946.5,43672.2
69948.9,43681.6
69950.3,43691.1
69950.8,43700.8
69950.8,44065
69950.3,44074.6
69948.9,44084.2
69946.5,44093.5
69943.3,44102.6
69939.2,44111.4
69934.2,44119.6
69928.4,44127.4
69922,44134.6
69914.8,44141
69907,44146.8
69898.8,44151.8
69890,44155.9
69880.9,44159.1
69871.6,44161.5
69862,44162.9
69852.4,44163.4
69005.9,44163.4
68996.3,44162.9
68986.7,44161.5
68977.3,44159.1
68968.2,44155.9
68959.5,44151.8
68951.2,44146.8
68943.5,44141
68936.3,44134.6
68929.8,44127.4
68924.1,44119.6
68919.1,44111.4
68915,44102.6
68911.7,44093.5
68909.4,44084.2
68908,44074.6
68907.5,44065
68907.5,43700.8
68908,43691.1
68909.4,43681.6
68911.7,43672.2
68915,43663.1
68919.1,43654.4
68924.1,43646.1
68929.8,43638.3
68936.3,43631.2
68943.5,43624.7
68951.2,43618.9
68959.5,43614
68968.2,43609.9
68977.3,43606.6
68986.7,43604.3
68996.3,43602.8
69005.9,43602.4
69852.4,43602.4
Z" /> 
</g>
<g >
</g>
<g style="fill:#000000; fill-opacity:1.0; 
stroke:#000000; stroke-width:0; stroke-opacity:1; 
stroke-linecap:round; stroke-linejoin:round;">
<path style="fill:#000000; fill-opacity:1.0; 
stroke:#000000; stroke-width:0; stroke-opacity:1; 
stroke-linecap:round; stroke-linejoin:round;fill-rule:evenodd;"
d="M 56791.1,43602.8
56800.7,43604.3
56810.1,43606.6
56819.2,43609.9
56827.9,43614
56836.2,43618.9
56843.9,43624.7
56851.1,43631.2
56857.6,43638.3
56863.3,43646.1
56868.3,43654.4
56872.4,43663.1
56875.7,43672.2
56878,43681.6
56879.4,43691.1
56879.9,43700.8
56879.9,44065
56879.4,44074.6
56878,44084.2
56875.7,44093.5
56872.4,44102.6
56868.3,44111.4
56863.3,44119.6
56857.6,44127.4
56851.1,44134.6
56843.9,44141
56836.2,44146.8
56827.9,44151.8
56819.2,44155.9
56810.1,44159.1
56800.7,44161.5
56791.1,44162.9
56781.5,44163.4
55935,44163.4
55925.4,44162.9
55915.8,44161.5
55906.5,44159.1
55897.4,44155.9
55888.6,44151.8
55880.4,44146.8
55872.6,44141
55865.4,44134.6
55859,44127.4
55853.2,44119.6
55848.2,44111.4
55844.1,44102.6
55840.9,44093.5
55838.5,44084.2
55837.1,44074.6
55836.6,44065
55836.6,43700.8
55837.1,43691.1
55838.5,43681.6
55840.9,43672.2
55844.1,43663.1
55848.2,43654.4
55853.2,43646.1
55859,43638.3
55865.4,43631.2
55872.6,43624.7
55880.4,43618.9
55888.6,43614
55897.4,43609.9
55906.5,43606.6
55915.8,43604.3
55925.4,43602.8
55935,43602.4
56781.5,43602.4
Z" /> 
<path style="fill:#000000; fill-opacity:1.0; 
stroke:#000000; stroke-width:0; stroke-opacity:1; 
stroke-linecap:round; stroke-linejoin:round;fill-rule:evenodd;"
d="M 56791.1,44774.1
56800.7,44775.5
56810.1,44777.9
56819.2,44781.1
56827.9,44785.2
56836.2,44790.2
56843.9,44796
56851.1,44802.4
56857.6,44809.6
56863.3,44817.4
56868.3,44825.7
56872.4,44834.4
56875.7,44843.5
56878,44852.8
56879.4,44862.4
56879.9,44872
56879.9,45236.2
56879.4,45245.9
56878,45255.4
56875.7,45264.8
56872.4,45273.9
56868.3,45282.6
56863.3,45290.9
56857.6,45298.7
56851.1,45305.8
56843.9,45312.3
56836.2,45318.1
56827.9,45323
56819.2,45327.2
56810.1,45330.4
56800.7,45332.8
56791.1,45334.2
56781.5,45334.6
55935,45334.6
55925.4,45334.2
55915.8,45332.8
55906.5,45330.4
55897.4,45327.2
55888.6,45323
55880.4,45318.1
55872.6,45312.3
55865.4,45305.8
55859,45298.7
55853.2,45290.9
55848.2,45282.6
55844.1,45273.9
55840.9,45264.8
55838.5,45255.4
55837.1,45245.9
55836.6,45236.2
55836.6,44872
55837.1,44862.4
55838.5,44852.8
55840.9,44843.5
55844.1,44834.4
55848.2,44825.7
55853.2,44817.4
55859,44809.6
55865.4,44802.4
55872.6,44796
55880.4,44790.2
55888.6,44785.2
55897.4,44781.1
55906.5,44777.9
55915.8,44775.5
55925.4,44774.1
55935,44773.6
56781.5,44773.6
Z" /> 
</g>
<g >
</g>
<g style="fill:#000000; fill-opacity:1.0; 
stroke:#000000; stroke-width:0; stroke-opacity:1; 
stroke-linecap:round; stroke-linejoin:round;">
<path style="fill:#000000; fill-opacity:1.0; 
stroke:#000000; stroke-width:0; stroke-opacity:1; 
stroke-linecap:round; stroke-linejoin:round;fill-rule:evenodd;"
d="M 54743.9,44774.1
54753.5,44775.5
54762.8,44777.9
54771.9,44781.1
54780.6,44785.2
54788.9,44790.2
54796.7,44796
54803.8,44802.4
54810.3,44809.6
54816.1,44817.4
54821.1,44825.7
54825.2,44834.4
54828.4,44843.5
54830.8,44852.8
54832.2,44862.4
54832.7,44872
54832.7,45236.2
54832.2,45245.9
54830.8,45255.4
54828.4,45264.8
54825.2,45273.9
54821.1,45282.6
54816.1,45290.9
54810.3,45298.7
54803.8,45305.8
54796.7,45312.3
54788.9,45318.1
54780.6,45323
54771.9,45327.2
54762.8,45330.4
54753.5,45332.8
54743.9,45334.2
54734.3,45334.6
53887.8,45334.6
53878.1,45334.2
53868.6,45332.8
53859.2,45330.4
53850.1,45327.2
53841.4,45323
53833.1,45318.1
53825.4,45312.3
53818.2,45305.8
53811.7,45298.7
53806,45290.9
53801,45282.6
53796.9,45273.9
53793.6,45264.8
53791.3,45255.4
53789.8,45245.9
53789.4,45236.2
53789.4,44872
53789.8,44862.4
53791.3,44852.8
53793.6,44843.5
53796.9,44834.4
53801,44825.7
53806,44817.4
53811.7,44809.6
53818.2,44802.4
53825.4,44796
53833.1,44790.2
53841.4,44785.2
53850.1,44781.1
53859.2,44777.9
53868.6,44775.5
53878.1,44774.1
53887.8,44773.6
54734.3,44773.6
Z" /> 
<path style="fill:#000000; fill-opacity:1.0; 
stroke:#000000; stroke-width:0; stroke-opacity:1; 
stroke-linecap:round; stroke-linejoin:round;fill-rule:evenodd;"
d="M 54743.9,43602.8
54753.5,43604.3
54762.8,43606.6
54771.9,43609.9
54780.6,43614
54788.9,43618.9
54796.7,43624.7
54803.8,43631.2
54810.3,43638.3
54816.1,43646.1
54821.1,43654.4
54825.2,43663.1
54828.4,43672.2
54830.8,43681.6
54832.2,43691.1
54832.7,43700.8
54832.7,44065
54832.2,44074.6
54830.8,44084.2
54828.4,44093.5
54825.2,44102.6
54821.1,44111.4
54816.1,44119.6
54810.3,44127.4
54803.8,44134.6
54796.7,44141
54788.9,44146.8
54780.6,44151.8
54771.9,44155.9
54762.8,44159.1
54753.5,44161.5
54743.9,44162.9
54734.3,44163.4
53887.8,44163.4
53878.1,44162.9
53868.6,44161.5
53859.2,44159.1
53850.1,44155.9
53841.4,44151.8
53833.1,44146.8
53825.4,44141
53818.2,44134.6
53811.7,44127.4
53806,44119.6
53801,44111.4
53796.9,44102.6
53793.6,44093.5
53791.3,44084.2
53789.8,44074.6
53789.4,44065
53789.4,43700.8
53789.8,43691.1
53791.3,43681.6
53793.6,43672.2
53796.9,43663.1
53801,43654.4
53806,43646.1
53811.7,43638.3
53818.2,43631.2
53825.4,43624.7
53833.1,43618.9
53841.4,43614
53850.1,43609.9
53859.2,43606.6
53868.6,43604.3
53878.1,43602.8
53887.8,43602.4
54734.3,43602.4
Z" /> 
</g>
<g >
</g>
<g style="fill:#000000; fill-opacity:1.0; 
stroke:#000000; stroke-width:0; stroke-opacity:1; 
stroke-linecap:round; stroke-linejoin:round;">
<path style="fill:#000000; fill-opacity:1.0; 
stroke:#000000; stroke-width:0; stroke-opacity:1; 
stroke-linecap:round; stroke-linejoin:round;fill-rule:evenodd;"
d="M 67893.5,43602.8
67903.1,43604.3
67912.4,43606.6
67921.5,43609.9
67930.3,43614
67938.5,43618.9
67946.3,43624.7
67953.5,43631.2
67959.9,43638.3
67965.7,43646.1
67970.7,43654.4
67974.8,43663.1
67978,43672.2
67980.4,43681.6
67981.8,43691.1
67982.3,43700.8
67982.3,44065
67981.8,44074.6
67980.4,44084.2
67978,44093.5
67974.8,44102.6
67970.7,44111.4
67965.7,44119.6
67959.9,44127.4
67953.5,44134.6
67946.3,44141
67938.5,44146.8
67930.3,44151.8
67921.5,44155.9
67912.4,44159.1
67903.1,44161.5
67893.5,44162.9
67883.9,44163.4
67037.4,44163.4
67027.8,44162.9
67018.2,44161.5
67008.8,44159.1
66999.7,44155.9
66991,44151.8
66982.7,44146.8
66975,44141
66967.8,44134.6
66961.3,44127.4
66955.6,44119.6
66950.6,44111.4
66946.5,44102.6
66943.2,44093.5
66940.9,44084.2
66939.5,44074.6
66939,44065
66939,43700.8
66939.5,43691.1
66940.9,43681.6
66943.2,43672.2
66946.5,43663.1
66950.6,43654.4
66955.6,43646.1
66961.3,43638.3
66967.8,43631.2
66975,43624.7
66982.7,43618.9
66991,43614
66999.7,43609.9
67008.8,43606.6
67018.2,43604.3
67027.8,43602.8
67037.4,43602.4
67883.9,43602.4
Z" /> 
<path style="fill:#000000; fill-opacity:1.0; 
stroke:#000000; stroke-width:0; stroke-opacity:1; 
stroke-linecap:round; stroke-linejoin:round;fill-rule:evenodd;"
d="M 67893.5,44774.1
67903.1,44775.5
67912.4,44777.9
67921.5,44781.1
67930.3,44785.2
67938.5,44790.2
67946.3,44796
67953.5,44802.4
67959.9,44809.6
67965.7,44817.4
67970.7,44825.7
67974.8,44834.4
67978,44843.5
67980.4,44852.8
67981.8,44862.4
67982.3,44872
67982.3,45236.2
67981.8,45245.9
67980.4,45255.4
67978,45264.8
67974.8,45273.9
67970.7,45282.6
67965.7,45290.9
67959.9,45298.7
67953.5,45305.8
67946.3,45312.3
67938.5,45318.1
67930.3,45323
67921.5,45327.2
67912.4,45330.4
67903.1,45332.8
67893.5,45334.2
67883.9,45334.6
67037.4,45334.6
67027.8,45334.2
67018.2,45332.8
67008.8,45330.4
66999.7,45327.2
66991,45323
66982.7,45318.1
66975,45312.3
66967.8,45305.8
66961.3,45298.7
66955.6,45290.9
66950.6,45282.6
66946.5,45273.9
66943.2,45264.8
66940.9,45255.4
66939.5,45245.9
66939,45236.2
66939,44872
66939.5,44862.4
66940.9,44852.8
66943.2,44843.5
66946.5,44834.4
66950.6,44825.7
66955.6,44817.4
66961.3,44809.6
66967.8,44802.4
66975,44796
66982.7,44790.2
66991,44785.2
66999.7,44781.1
67008.8,44777.9
67018.2,44775.5
67027.8,44774.1
67037.4,44773.6
67883.9,44773.6
Z" /> 
</g>
<g >
</g>
<g style="fill:#000000; fill-opacity:1.0; 
stroke:#000000; stroke-width:0; stroke-opacity:1; 
stroke-linecap:round; stroke-linejoin:round;">
<path style="fill:#000000; fill-opacity:1.0; 
stroke:#000000; stroke-width:0; stroke-opacity:1; 
stroke-linecap:round; stroke-linejoin:round;fill-rule:evenodd;"
d="M 65846.3,44774.1
65855.8,44775.5
65865.2,44777.9
65874.3,44781.1
65883,44785.2
65891.3,44790.2
65899.1,44796
65906.2,44802.4
65912.7,44809.6
65918.5,44817.4
65923.4,44825.7
65927.5,44834.4
65930.8,44843.5
65933.1,44852.8
65934.6,44862.4
65935,44872
65935,45236.2
65934.6,45245.9
65933.1,45255.4
65930.8,45264.8
65927.5,45273.9
65923.4,45282.6
65918.5,45290.9
65912.7,45298.7
65906.2,45305.8
65899.1,45312.3
65891.3,45318.1
65883,45323
65874.3,45327.2
65865.2,45330.4
65855.8,45332.8
65846.3,45334.2
65836.6,45334.6
64990.2,45334.6
64980.5,45334.2
64971,45332.8
64961.6,45330.4
64952.5,45327.2
64943.8,45323
64935.5,45318.1
64927.7,45312.3
64920.6,45305.8
64914.1,45298.7
64908.3,45290.9
64903.4,45282.6
64899.2,45273.9
64896,45264.8
64893.6,45255.4
64892.2,45245.9
64891.7,45236.2
64891.7,44872
64892.2,44862.4
64893.6,44852.8
64896,44843.5
64899.2,44834.4
64903.4,44825.7
64908.3,44817.4
64914.1,44809.6
64920.6,44802.4
64927.7,44796
64935.5,44790.2
64943.8,44785.2
64952.5,44781.1
64961.6,44777.9
64971,44775.5
64980.5,44774.1
64990.2,44773.6
65836.6,44773.6
Z" /> 
<path style="fill:#000000; fill-opacity:1.0; 
stroke:#000000; stroke-width:0; stroke-opacity:1; 
stroke-linecap:round; stroke-linejoin:round;fill-rule:evenodd;"
d="M 65846.3,43602.8
65855.8,43604.3
65865.2,43606.6
65874.3,43609.9
65883,43614
65891.3,43618.9
65899.1,43624.7
65906.2,43631.2
65912.7,43638.3
65918.5,43646.1
65923.4,43654.4
65927.5,43663.1
65930.8,43672.2
65933.1,43681.6
65934.6,43691.1
65935,43700.8
65935,44065
65934.6,44074.6
65933.1,44084.2
65930.8,44093.5
65927.5,44102.6
65923.4,44111.4
65918.5,44119.6
65912.7,44127.4
65906.2,44134.6
65899.1,44141
65891.3,44146.8
65883,44151.8
65874.3,44155.9
65865.2,44159.1
65855.8,44161.5
65846.3,44162.9
65836.6,44163.4
64990.2,44163.4
64980.5,44162.9
64971,44161.5
64961.6,44159.1
64952.5,44155.9
64943.8,44151.8
64935.5,44146.8
64927.7,44141
64920.6,44134.6
64914.1,44127.4
64908.3,44119.6
64903.4,44111.4
64899.2,44102.6
64896,44093.5
64893.6,44084.2
64892.2,44074.6
64891.7,44065
64891.7,43700.8
64892.2,43691.1
64893.6,43681.6
64896,43672.2
64899.2,43663.1
64903.4,43654.4
64908.3,43646.1
64914.1,43638.3
64920.6,43631.2
64927.7,43624.7
64935.5,43618.9
64943.8,43614
64952.5,43609.9
64961.6,43606.6
64971,43604.3
64980.5,43602.8
64990.2,43602.4
65836.6,43602.4
Z" /> 
</g>
<g >
</g>
<g style="fill:#000000; fill-opacity:1.0; 
stroke:#000000; stroke-width:0; stroke-opacity:1; 
stroke-linecap:round; stroke-linejoin:round;">
<path style="fill:#000000; fill-opacity:1.0; 
stroke:#000000; stroke-width:0; stroke-opacity:1; 
stroke-linecap:round; stroke-linejoin:round;fill-rule:evenodd;"
d="M 60728.2,44774.1
60737.7,44775.5
60747.1,44777.9
60756.2,44781.1
60764.9,44785.2
60773.2,44790.2
60780.9,44796
60788.1,44802.4
60794.6,44809.6
60800.3,44817.4
60805.3,44825.7
60809.4,44834.4
60812.7,44843.5
60815,44852.8
60816.5,44862.4
60816.9,44872
60816.9,45236.2
60816.5,45245.9
60815,45255.4
60812.7,45264.8
60809.4,45273.9
60805.3,45282.6
60800.3,45290.9
60794.6,45298.7
60788.1,45305.8
60780.9,45312.3
60773.2,45318.1
60764.9,45323
60756.2,45327.2
60747.1,45330.4
60737.7,45332.8
60728.2,45334.2
60718.5,45334.6
59872,45334.6
59862.4,45334.2
59852.8,45332.8
59843.5,45330.4
59834.4,45327.2
59825.7,45323
59817.4,45318.1
59809.6,45312.3
59802.4,45305.8
59796,45298.7
59790.2,45290.9
59785.2,45282.6
59781.1,45273.9
59777.9,45264.8
59775.5,45255.4
59774.1,45245.9
59773.6,45236.2
59773.6,44872
59774.1,44862.4
59775.5,44852.8
59777.9,44843.5
59781.1,44834.4
59785.2,44825.7
59790.2,44817.4
59796,44809.6
59802.4,44802.4
59809.6,44796
59817.4,44790.2
59825.7,44785.2
59834.4,44781.1
59843.5,44777.9
59852.8,44775.5
59862.4,44774.1
59872,44773.6
60718.5,44773.6
Z" /> 
<path style="fill:#000000; fill-opacity:1.0; 
stroke:#000000; stroke-width:0; stroke-opacity:1; 
stroke-linecap:round; stroke-linejoin:round;fill-rule:evenodd;"
d="M 60728.2,43602.8
60737.7,43604.3
60747.1,43606.6
60756.2,43609.9
60764.9,43614
60773.2,43618.9
60780.9,43624.7
60788.1,43631.2
60794.6,43638.3
60800.3,43646.1
60805.3,43654.4
60809.4,43663.1
60812.7,43672.2
60815,43681.6
60816.5,43691.1
60816.9,43700.8
60816.9,44065
60816.5,44074.6
60815,44084.2
60812.7,44093.5
60809.4,44102.6
60805.3,44111.4
60800.3,44119.6
60794.6,44127.4
60788.1,44134.6
60780.9,44141
60773.2,44146.8
60764.9,44151.8
60756.2,44155.9
60747.1,44159.1
60737.7,44161.5
60728.2,44162.9
60718.5,44163.4
59872,44163.4
59862.4,44162.9
59852.8,44161.5
59843.5,44159.1
59834.4,44155.9
59825.7,44151.8
59817.4,44146.8
59809.6,44141
59802.4,44134.6
59796,44127.4
59790.2,44119.6
59785.2,44111.4
59781.1,44102.6
59777.9,44093.5
59775.5,44084.2
59774.1,44074.6
59773.6,44065
59773.6,43700.8
59774.1,43691.1
59775.5,43681.6
59777.9,43672.2
59781.1,43663.1
59785.2,43654.4
59790.2,43646.1
59796,43638.3
59802.4,43631.2
59809.6,43624.7
59817.4,43618.9
59825.7,43614
59834.4,43609.9
59843.5,43606.6
59852.8,43604.3
59862.4,43602.8
59872,43602.4
60718.5,43602.4
Z" /> 
</g>
<g >
</g>
<g style="fill:#000000; fill-opacity:1.0; 
stroke:#000000; stroke-width:0; stroke-opacity:1; 
stroke-linecap:round; stroke-linejoin:round;">
<path style="fill:#000000; fill-opacity:1.0; 
stroke:#000000; stroke-width:0; stroke-opacity:1; 
stroke-linecap:round; stroke-linejoin:round;fill-rule:evenodd;"
d="M 71830.5,44774.1
71840.1,44775.5
71849.4,44777.9
71858.5,44781.1
71867.3,44785.2
71875.5,44790.2
71883.3,44796
71890.5,44802.4
71896.9,44809.6
71902.7,44817.4
71907.7,44825.7
71911.8,44834.4
71915.1,44843.5
71917.4,44852.8
71918.8,44862.4
71919.3,44872
71919.3,45236.2
71918.8,45245.9
71917.4,45255.4
71915.1,45264.8
71911.8,45273.9
71907.7,45282.6
71902.7,45290.9
71896.9,45298.7
71890.5,45305.8
71883.3,45312.3
71875.5,45318.1
71867.3,45323
71858.5,45327.2
71849.4,45330.4
71840.1,45332.8
71830.5,45334.2
71820.9,45334.6
70974.4,45334.6
70964.8,45334.2
70955.2,45332.8
70945.8,45330.4
70936.7,45327.2
70928,45323
70919.7,45318.1
70912,45312.3
70904.8,45305.8
70898.3,45298.7
70892.6,45290.9
70887.6,45282.6
70883.5,45273.9
70880.2,45264.8
70877.9,45255.4
70876.5,45245.9
70876,45236.2
70876,44872
70876.5,44862.4
70877.9,44852.8
70880.2,44843.5
70883.5,44834.4
70887.6,44825.7
70892.6,44817.4
70898.3,44809.6
70904.8,44802.4
70912,44796
70919.7,44790.2
70928,44785.2
70936.7,44781.1
70945.8,44777.9
70955.2,44775.5
70964.8,44774.1
70974.4,44773.6
71820.9,44773.6
Z" /> 
<path style="fill:#000000; fill-opacity:1.0; 
stroke:#000000; stroke-width:0; stroke-opacity:1; 
stroke-linecap:round; stroke-linejoin:round;fill-rule:evenodd;"
d="M 71830.5,43602.8
71840.1,43604.3
71849.4,43606.6
71858.5,43609.9
71867.3,43614
71875.5,43618.9
71883.3,43624.7
71890.5,43631.2
71896.9,43638.3
71902.7,43646.1
71907.7,43654.4
71911.8,43663.1
71915.1,43672.2
71917.4,43681.6
71918.8,43691.1
71919.3,43700.8
71919.3,44065
71918.8,44074.6
71917.4,44084.2
71915.1,44093.5
71911.8,44102.6
71907.7,44111.4
71902.7,44119.6
71896.9,44127.4
71890.5,44134.6
71883.3,44141
71875.5,44146.8
71867.3,44151.8
71858.5,44155.9
71849.4,44159.1
71840.1,44161.5
71830.5,44162.9
71820.9,44163.4
70974.4,44163.4
70964.8,44162.9
70955.2,44161.5
70945.8,44159.1
70936.7,44155.9
70928,44151.8
70919.7,44146.8
70912,44141
70904.8,44134.6
70898.3,44127.4
70892.6,44119.6
70887.6,44111.4
70883.5,44102.6
70880.2,44093.5
70877.9,44084.2
70876.5,44074.6
70876,44065
70876,43700.8
70876.5,43691.1
70877.9,43681.6
70880.2,43672.2
70883.5,43663.1
70887.6,43654.4
70892.6,43646.1
70898.3,43638.3
70904.8,43631.2
70912,43624.7
70919.7,43618.9
70928,43614
70936.7,43609.9
70945.8,43606.6
70955.2,43604.3
70964.8,43602.8
70974.4,43602.4
71820.9,43602.4
Z" /> 
</g>
<g >
</g>
<g >
</g>
<g >
</g>
<g >
</g>
<g >
</g>
<g >
</g>
<g style="fill:#000000; fill-opacity:1.0; 
stroke:#000000; stroke-width:0; stroke-opacity:1; 
stroke-linecap:round; stroke-linejoin:round;">
</g>
<g style="fill:#000000; fill-opacity:1.0; 
stroke:#000000; stroke-width:681.102; stroke-opacity:1; 
stroke-linecap:round; stroke-linejoin:round;">
</g>
<g style="fill:#000000; fill-opacity:0.0; 
stroke:#000000; stroke-width:681.102; stroke-opacity:1; 
stroke-linecap:round; stroke-linejoin:round;">
<path d="M36200 55937
L36318 55937
" />
<path d="M36200 54937
L36318 54937
" />
</g>
<g style="fill:#000000; fill-opacity:0.0; 
stroke:#000000; stroke-width:0; stroke-opacity:1; 
stroke-linecap:round; stroke-linejoin:round;">
</g>
<g style="fill:#000000; fill-opacity:1.0; 
stroke:#000000; stroke-width:0; stroke-opacity:1; 
stroke-linecap:round; stroke-linejoin:round;">
<path style="fill:#000000; fill-opacity:1.0; 
stroke:#000000; stroke-width:0; stroke-opacity:1; 
stroke-linecap:round; stroke-linejoin:round;fill-rule:evenodd;"
d="M 35860.2,54277.6
35860.2,53596.5
36659.4,53596.5
36659.4,54277.6
Z" /> 
</g>
<g >
</g>
<g style="fill:#000000; fill-opacity:1.0; 
stroke:#000000; stroke-width:0; stroke-opacity:1; 
stroke-linecap:round; stroke-linejoin:round;">
</g>
<g style="fill:#000000; fill-opacity:1.0; 
stroke:#000000; stroke-width:681.102; stroke-opacity:1; 
stroke-linecap:round; stroke-linejoin:round;">
</g>
<g style="fill:#000000; fill-opacity:0.0; 
stroke:#000000; stroke-width:681.102; stroke-opacity:1; 
stroke-linecap:round; stroke-linejoin:round;">
<path d="M36200 52118
L36318 52118
" />
<path d="M36200 51118
L36318 51118
" />
</g>
<g style="fill:#000000; fill-opacity:0.0; 
stroke:#000000; stroke-width:0; stroke-opacity:1; 
stroke-linecap:round; stroke-linejoin:round;">
</g>
<g style="fill:#000000; fill-opacity:1.0; 
stroke:#000000; stroke-width:0; stroke-opacity:1; 
stroke-linecap:round; stroke-linejoin:round;">
<path style="fill:#000000; fill-opacity:1.0; 
stroke:#000000; stroke-width:0; stroke-opacity:1; 
stroke-linecap:round; stroke-linejoin:round;fill-rule:evenodd;"
d="M 35860.2,50458.7
35860.2,49777.6
36659.4,49777.6
36659.4,50458.7
Z" /> 
</g>
<g >
</g>
<g style="fill:#000000; fill-opacity:1.0; 
stroke:#000000; stroke-width:0; stroke-opacity:1; 
stroke-linecap:round; stroke-linejoin:round;">
<path style="fill:#000000; fill-opacity:1.0; 
stroke:#000000; stroke-width:0; stroke-opacity:1; 
stroke-linecap:round; stroke-linejoin:round;fill-rule:evenodd;"
d="M 65895.5,10659.9
65905,10661.3
65914.4,10663.7
65923.5,10666.9
65932.2,10671.1
65940.5,10676
65948.3,10681.8
65955.4,10688.3
65961.9,10695.4
65967.7,10703.2
65972.6,10711.5
65976.8,10720.2
65980,10729.3
65982.4,10738.7
65983.8,10748.2
65984.3,10757.9
65984.3,11604.3
65983.8,11614
65982.4,11623.5
65980,11632.9
65976.8,11642
65972.6,11650.7
65967.7,11659
65961.9,11666.8
65955.4,11673.9
65948.3,11680.4
65940.5,11686.2
65932.2,11691.1
65923.5,11695.3
65914.4,11698.5
65905,11700.9
65895.5,11702.3
65885.8,11702.8
65521.7,11702.8
65512,11702.3
65502.5,11700.9
65493.1,11698.5
65484,11695.3
65475.3,11691.1
65467,11686.2
65459.2,11680.4
65452.1,11673.9
65445.6,11666.8
65439.8,11659
65434.9,11650.7
65430.7,11642
65427.5,11632.9
65425.1,11623.5
65423.7,11614
65423.2,11604.3
65423.2,10757.9
65423.7,10748.2
65425.1,10738.7
65427.5,10729.3
65430.7,10720.2
65434.9,10711.5
65439.8,10703.2
65445.6,10695.4
65452.1,10688.3
65459.2,10681.8
65467,10676
65475.3,10671.1
65484,10666.9
65493.1,10663.7
65502.5,10661.3
65512,10659.9
65521.7,10659.4
65885.8,10659.4
Z" /> 
<path style="fill:#000000; fill-opacity:1.0; 
stroke:#000000; stroke-width:0; stroke-opacity:1; 
stroke-linecap:round; stroke-linejoin:round;fill-rule:evenodd;"
d="M 64724.2,10659.9
64733.8,10661.3
64743.1,10663.7
64752.2,10666.9
64761,10671.1
64769.2,10676
64777,10681.8
64784.2,10688.3
64790.7,10695.4
64796.4,10703.2
64801.4,10711.5
64805.5,10720.2
64808.8,10729.3
64811.1,10738.7
64812.5,10748.2
64813,10757.9
64813,11604.3
64812.5,11614
64811.1,11623.5
64808.8,11632.9
64805.5,11642
64801.4,11650.7
64796.4,11659
64790.7,11666.8
64784.2,11673.9
64777,11680.4
64769.2,11686.2
64761,11691.1
64752.2,11695.3
64743.1,11698.5
64733.8,11700.9
64724.2,11702.3
64714.6,11702.8
64350.4,11702.8
64340.7,11702.3
64331.2,11700.9
64321.8,11698.5
64312.7,11695.3
64304,11691.1
64295.7,11686.2
64288,11680.4
64280.8,11673.9
64274.3,11666.8
64268.6,11659
64263.6,11650.7
64259.5,11642
64256.2,11632.9
64253.9,11623.5
64252.4,11614
64252,11604.3
64252,10757.9
64252.4,10748.2
64253.9,10738.7
64256.2,10729.3
64259.5,10720.2
64263.6,10711.5
64268.6,10703.2
64274.3,10695.4
64280.8,10688.3
64288,10681.8
64295.7,10676
64304,10671.1
64312.7,10666.9
64321.8,10663.7
64331.2,10661.3
64340.7,10659.9
64350.4,10659.4
64714.6,10659.4
Z" /> 
</g>
<g >
</g>
<g style="fill:#000000; fill-opacity:1.0; 
stroke:#000000; stroke-width:0; stroke-opacity:1; 
stroke-linecap:round; stroke-linejoin:round;">
<path style="fill:#000000; fill-opacity:1.0; 
stroke:#000000; stroke-width:0; stroke-opacity:1; 
stroke-linecap:round; stroke-linejoin:round;fill-rule:evenodd;"
d="M 45039.2,53465
45048.7,53466.5
45058.1,53468.8
45067.2,53472.1
45075.9,53476.2
45084.2,53481.2
45092,53486.9
45099.1,53493.4
45105.6,53500.6
45111.4,53508.3
45116.3,53516.6
45120.5,53525.3
45123.7,53534.4
45126.1,53543.8
45127.5,53553.3
45128,53563
45128,53927.2
45127.5,53936.8
45126.1,53946.4
45123.7,53955.7
45120.5,53964.8
45116.3,53973.6
45111.4,53981.8
45105.6,53989.6
45099.1,53996.8
45092,54003.2
45084.2,54009
45075.9,54014
45067.2,54018.1
45058.1,54021.4
45048.7,54023.7
45039.2,54025.1
45029.5,54025.6
44183.1,54025.6
44173.4,54025.1
44163.9,54023.7
44154.5,54021.4
44145.4,54018.1
44136.7,54014
44128.4,54009
44120.6,54003.2
44113.5,53996.8
44107,53989.6
44101.2,53981.8
44096.3,53973.6
44092.1,53964.8
44088.9,53955.7
44086.5,53946.4
44085.1,53936.8
44084.6,53927.2
44084.6,53563
44085.1,53553.3
44086.5,53543.8
44088.9,53534.4
44092.1,53525.3
44096.3,53516.6
44101.2,53508.3
44107,53500.6
44113.5,53493.4
44120.6,53486.9
44128.4,53481.2
44136.7,53476.2
44145.4,53472.1
44154.5,53468.8
44163.9,53466.5
44173.4,53465
44183.1,53464.6
45029.5,53464.6
Z" /> 
<path style="fill:#000000; fill-opacity:1.0; 
stroke:#000000; stroke-width:0; stroke-opacity:1; 
stroke-linecap:round; stroke-linejoin:round;fill-rule:evenodd;"
d="M 45039.2,54636.3
45048.7,54637.7
45058.1,54640.1
45067.2,54643.3
45075.9,54647.4
45084.2,54652.4
45092,54658.2
45099.1,54664.7
45105.6,54671.8
45111.4,54679.6
45116.3,54687.9
45120.5,54696.6
45123.7,54705.7
45126.1,54715
45127.5,54724.6
45128,54734.3
45128,55098.4
45127.5,55108.1
45126.1,55117.6
45123.7,55127
45120.5,55136.1
45116.3,55144.8
45111.4,55153.1
45105.6,55160.9
45099.1,55168
45092,55174.5
45084.2,55180.3
45075.9,55185.2
45067.2,55189.4
45058.1,55192.6
45048.7,55195
45039.2,55196.4
45029.5,55196.9
44183.1,55196.9
44173.4,55196.4
44163.9,55195
44154.5,55192.6
44145.4,55189.4
44136.7,55185.2
44128.4,55180.3
44120.6,55174.5
44113.5,55168
44107,55160.9
44101.2,55153.1
44096.3,55144.8
44092.1,55136.1
44088.9,55127
44086.5,55117.6
44085.1,55108.1
44084.6,55098.4
44084.6,54734.3
44085.1,54724.6
44086.5,54715
44088.9,54705.7
44092.1,54696.6
44096.3,54687.9
44101.2,54679.6
44107,54671.8
44113.5,54664.7
44120.6,54658.2
44128.4,54652.4
44136.7,54647.4
44145.4,54643.3
44154.5,54640.1
44163.9,54637.7
44173.4,54636.3
44183.1,54635.8
45029.5,54635.8
Z" /> 
</g>
<g >
</g>
<g style="fill:#000000; fill-opacity:1.0; 
stroke:#000000; stroke-width:0; stroke-opacity:1; 
stroke-linecap:round; stroke-linejoin:round;">
<path style="fill:#000000; fill-opacity:1.0; 
stroke:#000000; stroke-width:0; stroke-opacity:1; 
stroke-linecap:round; stroke-linejoin:round;fill-rule:evenodd;"
d="M 43031.3,53465
43040.9,53466.5
43050.2,53468.8
43059.3,53472.1
43068.1,53476.2
43076.3,53481.2
43084.1,53486.9
43091.3,53493.4
43097.7,53500.6
43103.5,53508.3
43108.5,53516.6
43112.6,53525.3
43115.8,53534.4
43118.2,53543.8
43119.6,53553.3
43120.1,53563
43120.1,53927.2
43119.6,53936.8
43118.2,53946.4
43115.8,53955.7
43112.6,53964.8
43108.5,53973.6
43103.5,53981.8
43097.7,53989.6
43091.3,53996.8
43084.1,54003.2
43076.3,54009
43068.1,54014
43059.3,54018.1
43050.2,54021.4
43040.9,54023.7
43031.3,54025.1
43021.7,54025.6
42175.2,54025.6
42165.5,54025.1
42156,54023.7
42146.6,54021.4
42137.5,54018.1
42128.8,54014
42120.5,54009
42112.8,54003.2
42105.6,53996.8
42099.1,53989.6
42093.4,53981.8
42088.4,53973.6
42084.3,53964.8
42081,53955.7
42078.7,53946.4
42077.2,53936.8
42076.8,53927.2
42076.8,53563
42077.2,53553.3
42078.7,53543.8
42081,53534.4
42084.3,53525.3
42088.4,53516.6
42093.4,53508.3
42099.1,53500.6
42105.6,53493.4
42112.8,53486.9
42120.5,53481.2
42128.8,53476.2
42137.5,53472.1
42146.6,53468.8
42156,53466.5
42165.5,53465
42175.2,53464.6
43021.7,53464.6
Z" /> 
<path style="fill:#000000; fill-opacity:1.0; 
stroke:#000000; stroke-width:0; stroke-opacity:1; 
stroke-linecap:round; stroke-linejoin:round;fill-rule:evenodd;"
d="M 43031.3,54636.3
43040.9,54637.7
43050.2,54640.1
43059.3,54643.3
43068.1,54647.4
43076.3,54652.4
43084.1,54658.2
43091.3,54664.7
43097.7,54671.8
43103.5,54679.6
43108.5,54687.9
43112.6,54696.6
43115.8,54705.7
43118.2,54715
43119.6,54724.6
43120.1,54734.3
43120.1,55098.4
43119.6,55108.1
43118.2,55117.6
43115.8,55127
43112.6,55136.1
43108.5,55144.8
43103.5,55153.1
43097.7,55160.9
43091.3,55168
43084.1,55174.5
43076.3,55180.3
43068.1,55185.2
43059.3,55189.4
43050.2,55192.6
43040.9,55195
43031.3,55196.4
43021.7,55196.9
42175.2,55196.9
42165.5,55196.4
42156,55195
42146.6,55192.6
42137.5,55189.4
42128.8,55185.2
42120.5,55180.3
42112.8,55174.5
42105.6,55168
42099.1,55160.9
42093.4,55153.1
42088.4,55144.8
42084.3,55136.1
42081,55127
42078.7,55117.6
42077.2,55108.1
42076.8,55098.4
42076.8,54734.3
42077.2,54724.6
42078.7,54715
42081,54705.7
42084.3,54696.6
42088.4,54687.9
42093.4,54679.6
42099.1,54671.8
42105.6,54664.7
42112.8,54658.2
42120.5,54652.4
42128.8,54647.4
42137.5,54643.3
42146.6,54640.1
42156,54637.7
42165.5,54636.3
42175.2,54635.8
43021.7,54635.8
Z" /> 
</g>
<g >
</g>
<g style="fill:#000000; fill-opacity:1.0; 
stroke:#000000; stroke-width:0; stroke-opacity:1; 
stroke-linecap:round; stroke-linejoin:round;">
<path style="fill:#000000; fill-opacity:1.0; 
stroke:#000000; stroke-width:0; stroke-opacity:1; 
stroke-linecap:round; stroke-linejoin:round;fill-rule:evenodd;"
d="M 41023.4,53465
41033,53466.5
41042.4,53468.8
41051.4,53472.1
41060.2,53476.2
41068.5,53481.2
41076.2,53486.9
41083.4,53493.4
41089.9,53500.6
41095.6,53508.3
41100.6,53516.6
41104.7,53525.3
41108,53534.4
41110.3,53543.8
41111.7,53553.3
41112.2,53563
41112.2,53927.2
41111.7,53936.8
41110.3,53946.4
41108,53955.7
41104.7,53964.8
41100.6,53973.6
41095.6,53981.8
41089.9,53989.6
41083.4,53996.8
41076.2,54003.2
41068.5,54009
41060.2,54014
41051.4,54018.1
41042.4,54021.4
41033,54023.7
41023.4,54025.1
41013.8,54025.6
40167.3,54025.6
40157.7,54025.1
40148.1,54023.7
40138.8,54021.4
40129.7,54018.1
40120.9,54014
40112.6,54009
40104.9,54003.2
40097.7,53996.8
40091.2,53989.6
40085.5,53981.8
40080.5,53973.6
40076.4,53964.8
40073.1,53955.7
40070.8,53946.4
40069.4,53936.8
40068.9,53927.2
40068.9,53563
40069.4,53553.3
40070.8,53543.8
40073.1,53534.4
40076.4,53525.3
40080.5,53516.6
40085.5,53508.3
40091.2,53500.6
40097.7,53493.4
40104.9,53486.9
40112.6,53481.2
40120.9,53476.2
40129.7,53472.1
40138.8,53468.8
40148.1,53466.5
40157.7,53465
40167.3,53464.6
41013.8,53464.6
Z" /> 
<path style="fill:#000000; fill-opacity:1.0; 
stroke:#000000; stroke-width:0; stroke-opacity:1; 
stroke-linecap:round; stroke-linejoin:round;fill-rule:evenodd;"
d="M 41023.4,54636.3
41033,54637.7
41042.4,54640.1
41051.4,54643.3
41060.2,54647.4
41068.5,54652.4
41076.2,54658.2
41083.4,54664.7
41089.9,54671.8
41095.6,54679.6
41100.6,54687.9
41104.7,54696.6
41108,54705.7
41110.3,54715
41111.7,54724.6
41112.2,54734.3
41112.2,55098.4
41111.7,55108.1
41110.3,55117.6
41108,55127
41104.7,55136.1
41100.6,55144.8
41095.6,55153.1
41089.9,55160.9
41083.4,55168
41076.2,55174.5
41068.5,55180.3
41060.2,55185.2
41051.4,55189.4
41042.4,55192.6
41033,55195
41023.4,55196.4
41013.8,55196.9
40167.3,55196.9
40157.7,55196.4
40148.1,55195
40138.8,55192.6
40129.7,55189.4
40120.9,55185.2
40112.6,55180.3
40104.9,55174.5
40097.7,55168
40091.2,55160.9
40085.5,55153.1
40080.5,55144.8
40076.4,55136.1
40073.1,55127
40070.8,55117.6
40069.4,55108.1
40068.9,55098.4
40068.9,54734.3
40069.4,54724.6
40070.8,54715
40073.1,54705.7
40076.4,54696.6
40080.5,54687.9
40085.5,54679.6
40091.2,54671.8
40097.7,54664.7
40104.9,54658.2
40112.6,54652.4
40120.9,54647.4
40129.7,54643.3
40138.8,54640.1
40148.1,54637.7
40157.7,54636.3
40167.3,54635.8
41013.8,54635.8
Z" /> 
</g>
<g >
</g>
<g style="fill:#000000; fill-opacity:1.0; 
stroke:#000000; stroke-width:0; stroke-opacity:1; 
stroke-linecap:round; stroke-linejoin:round;">
<path style="fill:#000000; fill-opacity:1.0; 
stroke:#000000; stroke-width:0; stroke-opacity:1; 
stroke-linecap:round; stroke-linejoin:round;fill-rule:evenodd;"
d="M 50157.5,41102.4
49370.1,41102.4
49370.1,40590.6
50157.5,40590.6
Z" /> 
<path style="fill:#000000; fill-opacity:1.0; 
stroke:#000000; stroke-width:0; stroke-opacity:1; 
stroke-linecap:round; stroke-linejoin:round;fill-rule:evenodd;"
d="M 51732.3,40787.4
50944.9,40787.4
50944.9,40000
51732.3,40000
Z" /> 
<path style="fill:#000000; fill-opacity:1.0; 
stroke:#000000; stroke-width:0; stroke-opacity:1; 
stroke-linecap:round; stroke-linejoin:round;fill-rule:evenodd;"
d="M 50157.5,40196.9
49370.1,40196.9
49370.1,39685
50157.5,39685
Z" /> 
</g>
<g >
</g>
<g style="fill:#000000; fill-opacity:1.0; 
stroke:#000000; stroke-width:0; stroke-opacity:1; 
stroke-linecap:round; stroke-linejoin:round;">
<path style="fill:#000000; fill-opacity:1.0; 
stroke:#000000; stroke-width:0; stroke-opacity:1; 
stroke-linecap:round; stroke-linejoin:round;fill-rule:evenodd;"
d="M 51692.9,43385.8
51692.9,44015.7
51063,44015.7
51063,43385.8
Z" /> 
<circle cx="50393.7" cy="43700.8" r="314.961" /> 
</g>
<g style="fill:#000000; fill-opacity:1.0; 
stroke:#000000; stroke-width:59.0551; stroke-opacity:1; 
stroke-linecap:round; stroke-linejoin:round;">
</g>
<g >
</g>
<g style="fill:#000000; fill-opacity:1.0; 
stroke:#000000; stroke-width:59.0551; stroke-opacity:1; 
stroke-linecap:round; stroke-linejoin:round;">
</g>
<g style="fill:#000000; fill-opacity:1.0; 
stroke:#000000; stroke-width:0; stroke-opacity:1; 
stroke-linecap:round; stroke-linejoin:round;">
<circle cx="76574.8" cy="25909.4" r="590.551" /> 
</g>
<g style="fill:#000000; fill-opacity:1.0; 
stroke:#000000; stroke-width:59.0551; stroke-opacity:1; 
stroke-linecap:round; stroke-linejoin:round;">
</g>
<g style="fill:#000000; fill-opacity:1.0; 
stroke:#000000; stroke-width:0; stroke-opacity:1; 
stroke-linecap:round; stroke-linejoin:round;">
<circle cx="76574.8" cy="23909.4" r="590.551" /> 
</g>
<g style="fill:#000000; fill-opacity:1.0; 
stroke:#000000; stroke-width:59.0551; stroke-opacity:1; 
stroke-linecap:round; stroke-linejoin:round;">
</g>
<g style="fill:#000000; fill-opacity:1.0; 
stroke:#000000; stroke-width:0; stroke-opacity:1; 
stroke-linecap:round; stroke-linejoin:round;">
<path style="fill:#000000; fill-opacity:1.0; 
stroke:#000000; stroke-width:0; stroke-opacity:1; 
stroke-linecap:round; stroke-linejoin:round;fill-rule:evenodd;"
d="M 75984.3,21318.9
77165.4,21318.9
77165.4,22500
75984.3,22500
Z" /> 
</g>
<g >
</g>
<g style="fill:#000000; fill-opacity:1.0; 
stroke:#000000; stroke-width:0; stroke-opacity:1; 
stroke-linecap:round; stroke-linejoin:round;">
</g>
<g style="fill:#000000; fill-opacity:1.0; 
stroke:#000000; stroke-width:669.291; stroke-opacity:1; 
stroke-linecap:round; stroke-linejoin:round;">
</g>
<g style="fill:#000000; fill-opacity:0.0; 
stroke:#000000; stroke-width:669.291; stroke-opacity:1; 
stroke-linecap:round; stroke-linejoin:round;">
<path d="M42893 26062
L42893 26062
" />
<path d="M42893 25062
L42893 25062
" />
<path d="M42893 24062
L42893 24062
" />
<path d="M42893 23062
L42893 23062
" />
<path d="M42893 22062
L42893 22062
" />
</g>
<g style="fill:#000000; fill-opacity:0.0; 
stroke:#000000; stroke-width:0; stroke-opacity:1; 
stroke-linecap:round; stroke-linejoin:round;">
</g>
<g style="fill:#000000; fill-opacity:1.0; 
stroke:#000000; stroke-width:0; stroke-opacity:1; 
stroke-linecap:round; stroke-linejoin:round;">
<path style="fill:#000000; fill-opacity:1.0; 
stroke:#000000; stroke-width:0; stroke-opacity:1; 
stroke-linecap:round; stroke-linejoin:round;fill-rule:evenodd;"
d="M 42559.1,21397.6
42559.1,20728.3
43228.3,20728.3
43228.3,21397.6
Z" /> 
</g>
<g >
</g>
<g style="fill:#000000; fill-opacity:1.0; 
stroke:#000000; stroke-width:0; stroke-opacity:1; 
stroke-linecap:round; stroke-linejoin:round;">
</g>
<g style="fill:#000000; fill-opacity:1.0; 
stroke:#000000; stroke-width:669.291; stroke-opacity:1; 
stroke-linecap:round; stroke-linejoin:round;">
</g>
<g style="fill:#000000; fill-opacity:0.0; 
stroke:#000000; stroke-width:669.291; stroke-opacity:1; 
stroke-linecap:round; stroke-linejoin:round;">
<path d="M42913 18468
L42913 18468
" />
<path d="M42913 17468
L42913 17468
" />
<path d="M42913 16468
L42913 16468
" />
<path d="M42913 15468
L42913 15468
" />
</g>
<g style="fill:#000000; fill-opacity:0.0; 
stroke:#000000; stroke-width:0; stroke-opacity:1; 
stroke-linecap:round; stroke-linejoin:round;">
</g>
<g style="fill:#000000; fill-opacity:1.0; 
stroke:#000000; stroke-width:0; stroke-opacity:1; 
stroke-linecap:round; stroke-linejoin:round;">
<path style="fill:#000000; fill-opacity:1.0; 
stroke:#000000; stroke-width:0; stroke-opacity:1; 
stroke-linecap:round; stroke-linejoin:round;fill-rule:evenodd;"
d="M 42578.7,14803.1
42578.7,14133.9
43248,14133.9
43248,14803.1
Z" /> 
</g>
<g >
</g>
<g style="fill:#000000; fill-opacity:1.0; 
stroke:#000000; stroke-width:0; stroke-opacity:1; 
stroke-linecap:round; stroke-linejoin:round;">
<circle cx="65137.8" cy="23578.7" r="472.441" /> 
</g>
<g style="fill:#000000; fill-opacity:1.0; 
stroke:#000000; stroke-width:59.0551; stroke-opacity:1; 
stroke-linecap:round; stroke-linejoin:round;">
</g>
<g style="fill:#000000; fill-opacity:1.0; 
stroke:#000000; stroke-width:0; stroke-opacity:1; 
stroke-linecap:round; stroke-linejoin:round;">
<circle cx="65137.8" cy="22019.7" r="472.441" /> 
</g>
<g style="fill:#000000; fill-opacity:1.0; 
stroke:#000000; stroke-width:59.0551; stroke-opacity:1; 
stroke-linecap:round; stroke-linejoin:round;">
</g>
<g style="fill:#000000; fill-opacity:1.0; 
stroke:#000000; stroke-width:0; stroke-opacity:1; 
stroke-linecap:round; stroke-linejoin:round;">
<circle cx="65137.8" cy="20460.6" r="472.441" /> 
</g>
<g style="fill:#000000; fill-opacity:1.0; 
stroke:#000000; stroke-width:59.0551; stroke-opacity:1; 
stroke-linecap:round; stroke-linejoin:round;">
</g>
<g style="fill:#000000; fill-opacity:1.0; 
stroke:#000000; stroke-width:0; stroke-opacity:1; 
stroke-linecap:round; stroke-linejoin:round;">
<circle cx="65137.8" cy="18901.6" r="472.441" /> 
</g>
<g style="fill:#000000; fill-opacity:1.0; 
stroke:#000000; stroke-width:59.0551; stroke-opacity:1; 
stroke-linecap:round; stroke-linejoin:round;">
</g>
<g style="fill:#000000; fill-opacity:1.0; 
stroke:#000000; stroke-width:0; stroke-opacity:1; 
stroke-linecap:round; stroke-linejoin:round;">
<path style="fill:#000000; fill-opacity:1.0; 
stroke:#000000; stroke-width:0; stroke-opacity:1; 
stroke-linecap:round; stroke-linejoin:round;fill-rule:evenodd;"
d="M 65521.5,16870.6
65531,16872
65540.4,16874.3
65549.5,16877.6
65558.2,16881.7
65566.5,16886.7
65574.3,16892.4
65581.4,16898.9
65587.9,16906.1
65593.6,16913.8
65598.6,16922.1
65602.7,16930.8
65606,16939.9
65608.3,16949.3
65609.8,16958.9
65610.2,16968.5
65610.2,17716.5
65609.8,17726.2
65608.3,17735.7
65606,17745.1
65602.7,17754.2
65598.6,17762.9
65593.6,17771.2
65587.9,17779
65581.4,17786.1
65574.3,17792.6
65566.5,17798.4
65558.2,17803.3
65549.5,17807.5
65540.4,17810.7
65531,17813.1
65521.5,17814.5
65511.8,17815
64763.8,17815
64754.1,17814.5
64744.6,17813.1
64735.2,17810.7
64726.1,17807.5
64717.4,17803.3
64709.1,17798.4
64701.3,17792.6
64694.2,17786.1
64687.7,17779
64681.9,17771.2
64677,17762.9
64672.8,17754.2
64669.6,17745.1
64667.2,17735.7
64665.8,17726.2
64665.4,17716.5
64665.4,16968.5
64665.8,16958.9
64667.2,16949.3
64669.6,16939.9
64672.8,16930.8
64677,16922.1
64681.9,16913.8
64687.7,16906.1
64694.2,16898.9
64701.3,16892.4
64709.1,16886.7
64717.4,16881.7
64726.1,16877.6
64735.2,16874.3
64744.6,16872
64754.1,16870.6
64763.8,16870.1
65511.8,16870.1
Z" /> 
</g>
<g >
</g>
<g style="fill:#000000; fill-opacity:1.0; 
stroke:#000000; stroke-width:0; stroke-opacity:1; 
stroke-linecap:round; stroke-linejoin:round;">
</g>
<g style="fill:#000000; fill-opacity:1.0; 
stroke:#000000; stroke-width:669.291; stroke-opacity:1; 
stroke-linecap:round; stroke-linejoin:round;">
</g>
<g style="fill:#000000; fill-opacity:0.0; 
stroke:#000000; stroke-width:669.291; stroke-opacity:1; 
stroke-linecap:round; stroke-linejoin:round;">
<path d="M36220 15667
L36220 15667
" />
<path d="M36220 14667
L36220 14667
" />
<path d="M36220 13667
L36220 13667
" />
</g>
<g style="fill:#000000; fill-opacity:0.0; 
stroke:#000000; stroke-width:0; stroke-opacity:1; 
stroke-linecap:round; stroke-linejoin:round;">
</g>
<g style="fill:#000000; fill-opacity:1.0; 
stroke:#000000; stroke-width:0; stroke-opacity:1; 
stroke-linecap:round; stroke-linejoin:round;">
<path style="fill:#000000; fill-opacity:1.0; 
stroke:#000000; stroke-width:0; stroke-opacity:1; 
stroke-linecap:round; stroke-linejoin:round;fill-rule:evenodd;"
d="M 35885.8,13002
35885.8,12332.7
36555.1,12332.7
36555.1,13002
Z" /> 
</g>
<g >
</g>
<g style="fill:#000000; fill-opacity:1.0; 
stroke:#000000; stroke-width:0; stroke-opacity:1; 
stroke-linecap:round; stroke-linejoin:round;">
</g>
<g style="fill:#000000; fill-opacity:1.0; 
stroke:#000000; stroke-width:669.291; stroke-opacity:1; 
stroke-linecap:round; stroke-linejoin:round;">
</g>
<g style="fill:#000000; fill-opacity:0.0; 
stroke:#000000; stroke-width:669.291; stroke-opacity:1; 
stroke-linecap:round; stroke-linejoin:round;">
<path d="M51133 38385
L51133 38385
" />
<path d="M50133 38385
L50133 38385
" />
</g>
<g style="fill:#000000; fill-opacity:0.0; 
stroke:#000000; stroke-width:0; stroke-opacity:1; 
stroke-linecap:round; stroke-linejoin:round;">
</g>
<g style="fill:#000000; fill-opacity:1.0; 
stroke:#000000; stroke-width:0; stroke-opacity:1; 
stroke-linecap:round; stroke-linejoin:round;">
<path style="fill:#000000; fill-opacity:1.0; 
stroke:#000000; stroke-width:0; stroke-opacity:1; 
stroke-linecap:round; stroke-linejoin:round;fill-rule:evenodd;"
d="M 49468.5,38720.5
48799.2,38720.5
48799.2,38051.2
49468.5,38051.2
Z" /> 
</g>
<g >
</g>
<g style="fill:#000000; fill-opacity:1.0; 
stroke:#000000; stroke-width:0; stroke-opacity:1; 
stroke-linecap:round; stroke-linejoin:round;">
<circle cx="70866.1" cy="13149.6" r="590.551" /> 
</g>
<g style="fill:#000000; fill-opacity:1.0; 
stroke:#000000; stroke-width:59.0551; stroke-opacity:1; 
stroke-linecap:round; stroke-linejoin:round;">
</g>
<g style="fill:#000000; fill-opacity:1.0; 
stroke:#000000; stroke-width:0; stroke-opacity:1; 
stroke-linecap:round; stroke-linejoin:round;">
<circle cx="73208.7" cy="13917.3" r="492.126" /> 
</g>
<g style="fill:#000000; fill-opacity:1.0; 
stroke:#000000; stroke-width:59.0551; stroke-opacity:1; 
stroke-linecap:round; stroke-linejoin:round;">
</g>
<g style="fill:#000000; fill-opacity:1.0; 
stroke:#000000; stroke-width:0; stroke-opacity:1; 
stroke-linecap:round; stroke-linejoin:round;">
<circle cx="73228.3" cy="18740.2" r="590.551" /> 
</g>
<g style="fill:#000000; fill-opacity:1.0; 
stroke:#000000; stroke-width:59.0551; stroke-opacity:1; 
stroke-linecap:round; stroke-linejoin:round;">
</g>
<g style="fill:#000000; fill-opacity:1.0; 
stroke:#000000; stroke-width:0; stroke-opacity:1; 
stroke-linecap:round; stroke-linejoin:round;">
<circle cx="68484.3" cy="18720.5" r="590.551" /> 
</g>
<g style="fill:#000000; fill-opacity:1.0; 
stroke:#000000; stroke-width:59.0551; stroke-opacity:1; 
stroke-linecap:round; stroke-linejoin:round;">
</g>
<g style="fill:#000000; fill-opacity:1.0; 
stroke:#000000; stroke-width:0; stroke-opacity:1; 
stroke-linecap:round; stroke-linejoin:round;">
<circle cx="68484.3" cy="13917.3" r="492.126" /> 
</g>
<g style="fill:#000000; fill-opacity:1.0; 
stroke:#000000; stroke-width:59.0551; stroke-opacity:1; 
stroke-linecap:round; stroke-linejoin:round;">
</g>
<g >
</g>
<g style="fill:#000000; fill-opacity:1.0; 
stroke:#000000; stroke-width:59.0551; stroke-opacity:1; 
stroke-linecap:round; stroke-linejoin:round;">
</g>
<g style="fill:#000000; fill-opacity:1.0; 
stroke:#000000; stroke-width:669.291; stroke-opacity:1; 
stroke-linecap:round; stroke-linejoin:round;">
</g>
<g style="fill:#000000; fill-opacity:0.0; 
stroke:#000000; stroke-width:669.291; stroke-opacity:1; 
stroke-linecap:round; stroke-linejoin:round;">
<path d="M73440 28385
L73440 28385
" />
<path d="M74440 28385
L74440 28385
" />
<path d="M75440 28385
L75440 28385
" />
<path d="M76440 28385
L76440 28385
" />
</g>
<g style="fill:#000000; fill-opacity:0.0; 
stroke:#000000; stroke-width:0; stroke-opacity:1; 
stroke-linecap:round; stroke-linejoin:round;">
</g>
<g style="fill:#000000; fill-opacity:1.0; 
stroke:#000000; stroke-width:0; stroke-opacity:1; 
stroke-linecap:round; stroke-linejoin:round;">
<path style="fill:#000000; fill-opacity:1.0; 
stroke:#000000; stroke-width:0; stroke-opacity:1; 
stroke-linecap:round; stroke-linejoin:round;fill-rule:evenodd;"
d="M 77106.3,28051.2
77775.6,28051.2
77775.6,28720.5
77106.3,28720.5
Z" /> 
</g>
<g >
</g>
<g style="fill:#000000; fill-opacity:1.0; 
stroke:#000000; stroke-width:0; stroke-opacity:1; 
stroke-linecap:round; stroke-linejoin:round;">
<circle cx="76550" cy="32467.3" r="590.551" /> 
</g>
<g style="fill:#000000; fill-opacity:1.0; 
stroke:#000000; stroke-width:59.0551; stroke-opacity:1; 
stroke-linecap:round; stroke-linejoin:round;">
</g>
<g style="fill:#000000; fill-opacity:1.0; 
stroke:#000000; stroke-width:0; stroke-opacity:1; 
stroke-linecap:round; stroke-linejoin:round;">
<path style="fill:#000000; fill-opacity:1.0; 
stroke:#000000; stroke-width:0; stroke-opacity:1; 
stroke-linecap:round; stroke-linejoin:round;fill-rule:evenodd;"
d="M 75959.4,29876.8
77140.6,29876.8
77140.6,31057.9
75959.4,31057.9
Z" /> 
</g>
<g >
</g>
<g style="fill:#000000; fill-opacity:1.0; 
stroke:#000000; stroke-width:0; stroke-opacity:1; 
stroke-linecap:round; stroke-linejoin:round;">
<circle cx="76535.4" cy="43653.5" r="590.551" /> 
</g>
<g style="fill:#000000; fill-opacity:1.0; 
stroke:#000000; stroke-width:59.0551; stroke-opacity:1; 
stroke-linecap:round; stroke-linejoin:round;">
</g>
<g style="fill:#000000; fill-opacity:1.0; 
stroke:#000000; stroke-width:0; stroke-opacity:1; 
stroke-linecap:round; stroke-linejoin:round;">
<path style="fill:#000000; fill-opacity:1.0; 
stroke:#000000; stroke-width:0; stroke-opacity:1; 
stroke-linecap:round; stroke-linejoin:round;fill-rule:evenodd;"
d="M 75944.9,41063
77126,41063
77126,42244.1
75944.9,42244.1
Z" /> 
</g>
<g >
</g>
<g style="fill:#000000; fill-opacity:1.0; 
stroke:#000000; stroke-width:0; stroke-opacity:1; 
stroke-linecap:round; stroke-linejoin:round;">
<circle cx="76535.4" cy="47677.2" r="590.551" /> 
</g>
<g style="fill:#000000; fill-opacity:1.0; 
stroke:#000000; stroke-width:59.0551; stroke-opacity:1; 
stroke-linecap:round; stroke-linejoin:round;">
</g>
<g style="fill:#000000; fill-opacity:1.0; 
stroke:#000000; stroke-width:0; stroke-opacity:1; 
stroke-linecap:round; stroke-linejoin:round;">
<path style="fill:#000000; fill-opacity:1.0; 
stroke:#000000; stroke-width:0; stroke-opacity:1; 
stroke-linecap:round; stroke-linejoin:round;fill-rule:evenodd;"
d="M 75944.9,45086.6
77126,45086.6
77126,46267.7
75944.9,46267.7
Z" /> 
</g>
<g >
</g>
<g style="fill:#000000; fill-opacity:1.0; 
stroke:#000000; stroke-width:0; stroke-opacity:1; 
stroke-linecap:round; stroke-linejoin:round;">
<circle cx="40622" cy="58149.6" r="590.551" /> 
</g>
<g style="fill:#000000; fill-opacity:1.0; 
stroke:#000000; stroke-width:59.0551; stroke-opacity:1; 
stroke-linecap:round; stroke-linejoin:round;">
</g>
<g style="fill:#000000; fill-opacity:1.0; 
stroke:#000000; stroke-width:0; stroke-opacity:1; 
stroke-linecap:round; stroke-linejoin:round;">
<circle cx="42622" cy="58149.6" r="590.551" /> 
</g>
<g style="fill:#000000; fill-opacity:1.0; 
stroke:#000000; stroke-width:59.0551; stroke-opacity:1; 
stroke-linecap:round; stroke-linejoin:round;">
</g>
<g style="fill:#000000; fill-opacity:1.0; 
stroke:#000000; stroke-width:0; stroke-opacity:1; 
stroke-linecap:round; stroke-linejoin:round;">
<path style="fill:#000000; fill-opacity:1.0; 
stroke:#000000; stroke-width:0; stroke-opacity:1; 
stroke-linecap:round; stroke-linejoin:round;fill-rule:evenodd;"
d="M 49212.6,57559.1
49212.6,58740.2
48031.5,58740.2
48031.5,57559.1
Z" /> 
<circle cx="44622" cy="58149.6" r="590.551" /> 
</g>
<g style="fill:#000000; fill-opacity:1.0; 
stroke:#000000; stroke-width:59.0551; stroke-opacity:1; 
stroke-linecap:round; stroke-linejoin:round;">
</g>
<g style="fill:#000000; fill-opacity:1.0; 
stroke:#000000; stroke-width:0; stroke-opacity:1; 
stroke-linecap:round; stroke-linejoin:round;">
<circle cx="46622" cy="58149.6" r="590.551" /> 
</g>
<g style="fill:#000000; fill-opacity:1.0; 
stroke:#000000; stroke-width:59.0551; stroke-opacity:1; 
stroke-linecap:round; stroke-linejoin:round;">
</g>
<g >
</g>
<g style="fill:#000000; fill-opacity:1.0; 
stroke:#000000; stroke-width:59.0551; stroke-opacity:1; 
stroke-linecap:round; stroke-linejoin:round;">
</g>
<g style="fill:#000000; fill-opacity:1.0; 
stroke:#000000; stroke-width:708.661; stroke-opacity:1; 
stroke-linecap:round; stroke-linejoin:round;">
</g>
<g style="fill:#000000; fill-opacity:0.0; 
stroke:#000000; stroke-width:708.661; stroke-opacity:1; 
stroke-linecap:round; stroke-linejoin:round;">
<path d="M55214 52707
L55214 52707
" />
<path d="M55884 54163
L55884 54163
" />
<path d="M56553 52707
L56553 52707
" />
<path d="M57222 54163
L57222 54163
" />
</g>
<g style="fill:#000000; fill-opacity:0.0; 
stroke:#000000; stroke-width:0; stroke-opacity:1; 
stroke-linecap:round; stroke-linejoin:round;">
</g>
<g style="fill:#000000; fill-opacity:1.0; 
stroke:#000000; stroke-width:0; stroke-opacity:1; 
stroke-linecap:round; stroke-linejoin:round;">
<path style="fill:#000000; fill-opacity:1.0; 
stroke:#000000; stroke-width:0; stroke-opacity:1; 
stroke-linecap:round; stroke-linejoin:round;fill-rule:evenodd;"
d="M 58246.5,52352.8
58246.5,53061.4
57537.8,53061.4
57537.8,52352.8
Z" /> 
</g>
<g >
</g>
<g style="fill:#000000; fill-opacity:1.0; 
stroke:#000000; stroke-width:0; stroke-opacity:1; 
stroke-linecap:round; stroke-linejoin:round;">
</g>
<g style="fill:#000000; fill-opacity:1.0; 
stroke:#000000; stroke-width:708.661; stroke-opacity:1; 
stroke-linecap:round; stroke-linejoin:round;">
</g>
<g style="fill:#000000; fill-opacity:0.0; 
stroke:#000000; stroke-width:708.661; stroke-opacity:1; 
stroke-linecap:round; stroke-linejoin:round;">
<path d="M66456 52716
L66456 52716
" />
<path d="M67125 54173
L67125 54173
" />
<path d="M67795 52716
L67795 52716
" />
<path d="M68464 54173
L68464 54173
" />
</g>
<g style="fill:#000000; fill-opacity:0.0; 
stroke:#000000; stroke-width:0; stroke-opacity:1; 
stroke-linecap:round; stroke-linejoin:round;">
</g>
<g style="fill:#000000; fill-opacity:1.0; 
stroke:#000000; stroke-width:0; stroke-opacity:1; 
stroke-linecap:round; stroke-linejoin:round;">
<path style="fill:#000000; fill-opacity:1.0; 
stroke:#000000; stroke-width:0; stroke-opacity:1; 
stroke-linecap:round; stroke-linejoin:round;fill-rule:evenodd;"
d="M 69488.2,52362.2
69488.2,53070.9
68779.5,53070.9
68779.5,52362.2
Z" /> 
</g>
<g >
</g>
<g style="fill:#000000; fill-opacity:1.0; 
stroke:#000000; stroke-width:0; stroke-opacity:1; 
stroke-linecap:round; stroke-linejoin:round;">
<path style="fill:#000000; fill-opacity:1.0; 
stroke:#000000; stroke-width:0; stroke-opacity:1; 
stroke-linecap:round; stroke-linejoin:round;fill-rule:evenodd;"
d="M 46811,41141.7
46023.6,41141.7
46023.6,40629.9
46811,40629.9
Z" /> 
<path style="fill:#000000; fill-opacity:1.0; 
stroke:#000000; stroke-width:0; stroke-opacity:1; 
stroke-linecap:round; stroke-linejoin:round;fill-rule:evenodd;"
d="M 48385.8,40826.8
47598.4,40826.8
47598.4,40039.4
48385.8,40039.4
Z" /> 
<path style="fill:#000000; fill-opacity:1.0; 
stroke:#000000; stroke-width:0; stroke-opacity:1; 
stroke-linecap:round; stroke-linejoin:round;fill-rule:evenodd;"
d="M 46811,40236.2
46023.6,40236.2
46023.6,39724.4
46811,39724.4
Z" /> 
</g>
<g >
</g>
<g style="fill:#000000; fill-opacity:1.0; 
stroke:#000000; stroke-width:0; stroke-opacity:1; 
stroke-linecap:round; stroke-linejoin:round;">
<circle cx="58799.2" cy="47736.2" r="314.961" /> 
</g>
<g style="fill:#000000; fill-opacity:1.0; 
stroke:#000000; stroke-width:59.0551; stroke-opacity:1; 
stroke-linecap:round; stroke-linejoin:round;">
</g>
<g style="fill:#000000; fill-opacity:1.0; 
stroke:#000000; stroke-width:0; stroke-opacity:1; 
stroke-linecap:round; stroke-linejoin:round;">
<circle cx="58799.2" cy="49704.7" r="314.961" /> 
</g>
<g style="fill:#000000; fill-opacity:1.0; 
stroke:#000000; stroke-width:59.0551; stroke-opacity:1; 
stroke-linecap:round; stroke-linejoin:round;">
</g>
<g >
</g>
<g style="fill:#000000; fill-opacity:1.0; 
stroke:#000000; stroke-width:59.0551; stroke-opacity:1; 
stroke-linecap:round; stroke-linejoin:round;">
</g>
<g style="fill:#000000; fill-opacity:1.0; 
stroke:#000000; stroke-width:0; stroke-opacity:1; 
stroke-linecap:round; stroke-linejoin:round;">
<circle cx="69901.6" cy="47716.5" r="314.961" /> 
</g>
<g style="fill:#000000; fill-opacity:1.0; 
stroke:#000000; stroke-width:59.0551; stroke-opacity:1; 
stroke-linecap:round; stroke-linejoin:round;">
</g>
<g style="fill:#000000; fill-opacity:1.0; 
stroke:#000000; stroke-width:0; stroke-opacity:1; 
stroke-linecap:round; stroke-linejoin:round;">
<circle cx="69901.6" cy="49685" r="314.961" /> 
</g>
<g style="fill:#000000; fill-opacity:1.0; 
stroke:#000000; stroke-width:59.0551; stroke-opacity:1; 
stroke-linecap:round; stroke-linejoin:round;">
</g>
<g >
</g>
<g style="fill:#000000; fill-opacity:1.0; 
stroke:#000000; stroke-width:59.0551; stroke-opacity:1; 
stroke-linecap:round; stroke-linejoin:round;">
</g>
<g style="fill:#000000; fill-opacity:1.0; 
stroke:#000000; stroke-width:0; stroke-opacity:1; 
stroke-linecap:round; stroke-linejoin:round;">
<circle cx="59429.1" cy="40236.2" r="393.701" /> 
</g>
<g style="fill:#000000; fill-opacity:1.0; 
stroke:#000000; stroke-width:59.0551; stroke-opacity:1; 
stroke-linecap:round; stroke-linejoin:round;">
</g>
<g style="fill:#000000; fill-opacity:1.0; 
stroke:#000000; stroke-width:0; stroke-opacity:1; 
stroke-linecap:round; stroke-linejoin:round;">
<path style="fill:#000000; fill-opacity:1.0; 
stroke:#000000; stroke-width:0; stroke-opacity:1; 
stroke-linecap:round; stroke-linejoin:round;fill-rule:evenodd;"
d="M 61791.3,39842.5
61791.3,40629.9
61003.9,40629.9
61003.9,39842.5
Z" /> 
</g>
<g >
</g>
<g style="fill:#000000; fill-opacity:1.0; 
stroke:#000000; stroke-width:0; stroke-opacity:1; 
stroke-linecap:round; stroke-linejoin:round;">
<circle cx="69429.1" cy="40236.2" r="393.701" /> 
</g>
<g style="fill:#000000; fill-opacity:1.0; 
stroke:#000000; stroke-width:59.0551; stroke-opacity:1; 
stroke-linecap:round; stroke-linejoin:round;">
</g>
<g style="fill:#000000; fill-opacity:1.0; 
stroke:#000000; stroke-width:0; stroke-opacity:1; 
stroke-linecap:round; stroke-linejoin:round;">
<path style="fill:#000000; fill-opacity:1.0; 
stroke:#000000; stroke-width:0; stroke-opacity:1; 
stroke-linecap:round; stroke-linejoin:round;fill-rule:evenodd;"
d="M 71791.3,39842.5
71791.3,40629.9
71003.9,40629.9
71003.9,39842.5
Z" /> 
</g>
<g >
</g>
<g style="fill:#000000; fill-opacity:1.0; 
stroke:#000000; stroke-width:0; stroke-opacity:1; 
stroke-linecap:round; stroke-linejoin:round;">
<circle cx="54074.8" cy="47775.6" r="393.701" /> 
</g>
<g style="fill:#000000; fill-opacity:1.0; 
stroke:#000000; stroke-width:59.0551; stroke-opacity:1; 
stroke-linecap:round; stroke-linejoin:round;">
</g>
<g style="fill:#000000; fill-opacity:1.0; 
stroke:#000000; stroke-width:0; stroke-opacity:1; 
stroke-linecap:round; stroke-linejoin:round;">
<path style="fill:#000000; fill-opacity:1.0; 
stroke:#000000; stroke-width:0; stroke-opacity:1; 
stroke-linecap:round; stroke-linejoin:round;fill-rule:evenodd;"
d="M 54468.5,50137.8
53681.1,50137.8
53681.1,49350.4
54468.5,49350.4
Z" /> 
</g>
<g >
</g>
<g style="fill:#000000; fill-opacity:1.0; 
stroke:#000000; stroke-width:0; stroke-opacity:1; 
stroke-linecap:round; stroke-linejoin:round;">
<circle cx="57303.1" cy="49704.7" r="314.961" /> 
</g>
<g style="fill:#000000; fill-opacity:1.0; 
stroke:#000000; stroke-width:59.0551; stroke-opacity:1; 
stroke-linecap:round; stroke-linejoin:round;">
</g>
<g style="fill:#000000; fill-opacity:1.0; 
stroke:#000000; stroke-width:0; stroke-opacity:1; 
stroke-linecap:round; stroke-linejoin:round;">
<circle cx="57303.1" cy="47736.2" r="314.961" /> 
</g>
<g style="fill:#000000; fill-opacity:1.0; 
stroke:#000000; stroke-width:59.0551; stroke-opacity:1; 
stroke-linecap:round; stroke-linejoin:round;">
</g>
<g >
</g>
<g style="fill:#000000; fill-opacity:1.0; 
stroke:#000000; stroke-width:59.0551; stroke-opacity:1; 
stroke-linecap:round; stroke-linejoin:round;">
</g>
<g style="fill:#000000; fill-opacity:1.0; 
stroke:#000000; stroke-width:0; stroke-opacity:1; 
stroke-linecap:round; stroke-linejoin:round;">
<circle cx="65413.4" cy="47716.5" r="393.701" /> 
</g>
<g style="fill:#000000; fill-opacity:1.0; 
stroke:#000000; stroke-width:59.0551; stroke-opacity:1; 
stroke-linecap:round; stroke-linejoin:round;">
</g>
<g style="fill:#000000; fill-opacity:1.0; 
stroke:#000000; stroke-width:0; stroke-opacity:1; 
stroke-linecap:round; stroke-linejoin:round;">
<path style="fill:#000000; fill-opacity:1.0; 
stroke:#000000; stroke-width:0; stroke-opacity:1; 
stroke-linecap:round; stroke-linejoin:round;fill-rule:evenodd;"
d="M 65807.1,50078.7
65019.7,50078.7
65019.7,49291.3
65807.1,49291.3
Z" /> 
</g>
<g >
</g>
<g style="fill:#000000; fill-opacity:1.0; 
stroke:#000000; stroke-width:0; stroke-opacity:1; 
stroke-linecap:round; stroke-linejoin:round;">
<circle cx="68405.5" cy="49665.4" r="314.961" /> 
</g>
<g style="fill:#000000; fill-opacity:1.0; 
stroke:#000000; stroke-width:59.0551; stroke-opacity:1; 
stroke-linecap:round; stroke-linejoin:round;">
</g>
<g style="fill:#000000; fill-opacity:1.0; 
stroke:#000000; stroke-width:0; stroke-opacity:1; 
stroke-linecap:round; stroke-linejoin:round;">
<circle cx="68405.5" cy="47696.9" r="314.961" /> 
</g>
<g style="fill:#000000; fill-opacity:1.0; 
stroke:#000000; stroke-width:59.0551; stroke-opacity:1; 
stroke-linecap:round; stroke-linejoin:round;">
</g>
<g >
</g>
<g style="fill:#000000; fill-opacity:1.0; 
stroke:#000000; stroke-width:59.0551; stroke-opacity:1; 
stroke-linecap:round; stroke-linejoin:round;">
</g>
<g style="fill:#000000; fill-opacity:1.0; 
stroke:#000000; stroke-width:0; stroke-opacity:1; 
stroke-linecap:round; stroke-linejoin:round;">
<circle cx="54468.5" cy="40315" r="393.701" /> 
</g>
<g style="fill:#000000; fill-opacity:1.0; 
stroke:#000000; stroke-width:59.0551; stroke-opacity:1; 
stroke-linecap:round; stroke-linejoin:round;">
</g>
<g style="fill:#000000; fill-opacity:1.0; 
stroke:#000000; stroke-width:0; stroke-opacity:1; 
stroke-linecap:round; stroke-linejoin:round;">
<path style="fill:#000000; fill-opacity:1.0; 
stroke:#000000; stroke-width:0; stroke-opacity:1; 
stroke-linecap:round; stroke-linejoin:round;fill-rule:evenodd;"
d="M 56830.7,39921.3
56830.7,40708.7
56043.3,40708.7
56043.3,39921.3
Z" /> 
</g>
<g >
</g>
<g style="fill:#000000; fill-opacity:1.0; 
stroke:#000000; stroke-width:0; stroke-opacity:1; 
stroke-linecap:round; stroke-linejoin:round;">
<circle cx="60295.3" cy="49704.7" r="314.961" /> 
</g>
<g style="fill:#000000; fill-opacity:1.0; 
stroke:#000000; stroke-width:59.0551; stroke-opacity:1; 
stroke-linecap:round; stroke-linejoin:round;">
</g>
<g style="fill:#000000; fill-opacity:1.0; 
stroke:#000000; stroke-width:0; stroke-opacity:1; 
stroke-linecap:round; stroke-linejoin:round;">
<circle cx="60295.3" cy="47736.2" r="314.961" /> 
</g>
<g style="fill:#000000; fill-opacity:1.0; 
stroke:#000000; stroke-width:59.0551; stroke-opacity:1; 
stroke-linecap:round; stroke-linejoin:round;">
</g>
<g >
</g>
<g style="fill:#000000; fill-opacity:1.0; 
stroke:#000000; stroke-width:59.0551; stroke-opacity:1; 
stroke-linecap:round; stroke-linejoin:round;">
</g>
<g style="fill:#000000; fill-opacity:1.0; 
stroke:#000000; stroke-width:0; stroke-opacity:1; 
stroke-linecap:round; stroke-linejoin:round;">
<circle cx="64389.8" cy="40236.2" r="393.701" /> 
</g>
<g style="fill:#000000; fill-opacity:1.0; 
stroke:#000000; stroke-width:59.0551; stroke-opacity:1; 
stroke-linecap:round; stroke-linejoin:round;">
</g>
<g style="fill:#000000; fill-opacity:1.0; 
stroke:#000000; stroke-width:0; stroke-opacity:1; 
stroke-linecap:round; stroke-linejoin:round;">
<path style="fill:#000000; fill-opacity:1.0; 
stroke:#000000; stroke-width:0; stroke-opacity:1; 
stroke-linecap:round; stroke-linejoin:round;fill-rule:evenodd;"
d="M 66752,39842.5
66752,40629.9
65964.6,40629.9
65964.6,39842.5
Z" /> 
</g>
<g >
</g>
<g style="fill:#000000; fill-opacity:1.0; 
stroke:#000000; stroke-width:0; stroke-opacity:1; 
stroke-linecap:round; stroke-linejoin:round;">
<circle cx="71397.6" cy="49675.2" r="314.961" /> 
</g>
<g style="fill:#000000; fill-opacity:1.0; 
stroke:#000000; stroke-width:59.0551; stroke-opacity:1; 
stroke-linecap:round; stroke-linejoin:round;">
</g>
<g style="fill:#000000; fill-opacity:1.0; 
stroke:#000000; stroke-width:0; stroke-opacity:1; 
stroke-linecap:round; stroke-linejoin:round;">
<circle cx="71397.6" cy="47706.7" r="314.961" /> 
</g>
<g style="fill:#000000; fill-opacity:1.0; 
stroke:#000000; stroke-width:59.0551; stroke-opacity:1; 
stroke-linecap:round; stroke-linejoin:round;">
</g>
<g >
</g>
<g style="fill:#000000; fill-opacity:1.0; 
stroke:#000000; stroke-width:59.0551; stroke-opacity:1; 
stroke-linecap:round; stroke-linejoin:round;">
</g>
<g style="fill:#000000; fill-opacity:1.0; 
stroke:#000000; stroke-width:0; stroke-opacity:1; 
stroke-linecap:round; stroke-linejoin:round;">
<path style="fill:#000000; fill-opacity:1.0; 
stroke:#000000; stroke-width:0; stroke-opacity:1; 
stroke-linecap:round; stroke-linejoin:round;fill-rule:evenodd;"
d="M 44094.5,43995
44094.5,43365
44724.4,43365
44724.4,43995
Z" /> 
<circle cx="45393.7" cy="43680" r="314.961" /> 
</g>
<g style="fill:#000000; fill-opacity:1.0; 
stroke:#000000; stroke-width:59.0551; stroke-opacity:1; 
stroke-linecap:round; stroke-linejoin:round;">
</g>
<g >
</g>
<g style="fill:#000000; fill-opacity:1.0; 
stroke:#000000; stroke-width:59.0551; stroke-opacity:1; 
stroke-linecap:round; stroke-linejoin:round;">
</g>
<g style="fill:#000000; fill-opacity:1.0; 
stroke:#000000; stroke-width:0; stroke-opacity:1; 
stroke-linecap:round; stroke-linejoin:round;">
<circle cx="48385.8" cy="43700.8" r="314.961" /> 
</g>
<g style="fill:#000000; fill-opacity:1.0; 
stroke:#000000; stroke-width:59.0551; stroke-opacity:1; 
stroke-linecap:round; stroke-linejoin:round;">
</g>
<g style="fill:#000000; fill-opacity:1.0; 
stroke:#000000; stroke-width:0; stroke-opacity:1; 
stroke-linecap:round; stroke-linejoin:round;">
<path style="fill:#000000; fill-opacity:1.0; 
stroke:#000000; stroke-width:0; stroke-opacity:1; 
stroke-linecap:round; stroke-linejoin:round;fill-rule:evenodd;"
d="M 47086.6,44015.7
47086.6,43385.8
47716.5,43385.8
47716.5,44015.7
Z" /> 
</g>
<g >
</g>
<g style="fill:#000000; fill-opacity:1.0; 
stroke:#000000; stroke-width:0; stroke-opacity:1; 
stroke-linecap:round; stroke-linejoin:round;">
<path style="fill:#000000; fill-opacity:1.0; 
stroke:#000000; stroke-width:0; stroke-opacity:1; 
stroke-linecap:round; stroke-linejoin:round;fill-rule:evenodd;"
d="M 41102.4,43995
41102.4,43365
41732.3,43365
41732.3,43995
Z" /> 
<circle cx="42401.6" cy="43680" r="314.961" /> 
</g>
<g style="fill:#000000; fill-opacity:1.0; 
stroke:#000000; stroke-width:59.0551; stroke-opacity:1; 
stroke-linecap:round; stroke-linejoin:round;">
</g>
<g >
</g>
<g style="fill:#000000; fill-opacity:1.0; 
stroke:#000000; stroke-width:59.0551; stroke-opacity:1; 
stroke-linecap:round; stroke-linejoin:round;">
</g>
<g style="fill:#000000; fill-opacity:1.0; 
stroke:#000000; stroke-width:669.291; stroke-opacity:1; 
stroke-linecap:round; stroke-linejoin:round;">
</g>
<g style="fill:#000000; fill-opacity:0.0; 
stroke:#000000; stroke-width:669.291; stroke-opacity:1; 
stroke-linecap:round; stroke-linejoin:round;">
<path d="M13478 40998
L13478 40998
" />
<path d="M14478 40998
L14478 40998
" />
<path d="M13478 39998
L13478 39998
" />
<path d="M14478 39998
L14478 39998
" />
<path d="M13478 38998
L13478 38998
" />
<path d="M14478 38998
L14478 38998
" />
<path d="M13478 37998
L13478 37998
" />
<path d="M14478 37998
L14478 37998
" />
<path d="M13478 36998
L13478 36998
" />
<path d="M14478 36998
L14478 36998
" />
<path d="M13478 35998
L13478 35998
" />
<path d="M14478 35998
L14478 35998
" />
<path d="M13478 34998
L13478 34998
" />
<path d="M14478 34998
L14478 34998
" />
<path d="M13478 33998
L13478 33998
" />
<path d="M14478 33998
L14478 33998
" />
<path d="M13478 32998
L13478 32998
" />
<path d="M14478 32998
L14478 32998
" />
<path d="M13478 31998
L13478 31998
" />
<path d="M14478 31998
L14478 31998
" />
<path d="M13478 30998
L13478 30998
" />
<path d="M14478 30998
L14478 30998
" />
<path d="M13478 29998
L13478 29998
" />
<path d="M14478 29998
L14478 29998
" />
<path d="M13478 28998
L13478 28998
" />
<path d="M14478 28998
L14478 28998
" />
<path d="M13478 27998
L13478 27998
" />
<path d="M14478 27998
L14478 27998
" />
<path d="M13478 26998
L13478 26998
" />
<path d="M14478 26998
L14478 26998
" />
<path d="M13478 25998
L13478 25998
" />
<path d="M14478 25998
L14478 25998
" />
<path d="M13478 24998
L13478 24998
" />
<path d="M14478 24998
L14478 24998
" />
<path d="M13478 23998
L13478 23998
" />
<path d="M14478 23998
L14478 23998
" />
<path d="M13478 22998
L13478 22998
" />
<path d="M14478 22998
L14478 22998
" />
<path d="M13478 21998
L13478 21998
" />
</g>
<g style="fill:#000000; fill-opacity:0.0; 
stroke:#000000; stroke-width:0; stroke-opacity:1; 
stroke-linecap:round; stroke-linejoin:round;">
</g>
<g style="fill:#000000; fill-opacity:1.0; 
stroke:#000000; stroke-width:0; stroke-opacity:1; 
stroke-linecap:round; stroke-linejoin:round;">
<path style="fill:#000000; fill-opacity:1.0; 
stroke:#000000; stroke-width:0; stroke-opacity:1; 
stroke-linecap:round; stroke-linejoin:round;fill-rule:evenodd;"
d="M 14143.7,22332.7
14143.7,21663.4
14813,21663.4
14813,22332.7
Z" /> 
</g>
<g >
</g>
<g >
</g>
<g >
</g>
</g> 
</svg>
