<?xml version="1.0" standalone="no"?>
 <!DOCTYPE svg PUBLIC "-//W3C//DTD SVG 1.1//EN" 
 "http://www.w3.org/Graphics/SVG/1.1/DTD/svg11.dtd"> 
<svg xmlns="http://www.w3.org/2000/svg" version="1.1" 
    width="22.9997cm" height="21.9989cm" viewBox="0 0 90550 86610 ">
<title>SVG Picture created as motherboard-B_SilkS.svg date 2020/11/03 15:54:26 </title>
  <desc>Picture generated by PCBNEW </desc>
<g style="fill:#000000; fill-opacity:1;stroke:#000000; stroke-opacity:1;
stroke-linecap:round; stroke-linejoin:round; "
 transform="translate(0 0) scale(1 1)">
</g>
<g style="fill:#000000; fill-opacity:0.0; 
stroke:#000000; stroke-width:-0.000393701; stroke-opacity:1; 
stroke-linecap:round; stroke-linejoin:round;">
</g>
<g style="fill:#000000; fill-opacity:0.0; 
stroke:#000000; stroke-width:47.2441; stroke-opacity:1; 
stroke-linecap:round; stroke-linejoin:round;">
<path d="M28635 41762
L28635 42237
" />
<path d="M27564 41762
L27564 42237
" />
<path d="M27035 41762
L27035 42237
" />
<path d="M25964 41762
L25964 42237
" />
<path d="M26277 39050
L26277 39625
" />
<path d="M27522 39050
L27522 40294
" />
<path d="M27522 39050
L27155 39050
" />
<path d="M26277 39050
L26644 39050
" />
<path d="M23477 38972
L23477 39547
" />
<path d="M24722 38972
L24722 40216
" />
<path d="M24722 38972
L24355 38972
" />
<path d="M23477 38972
L23844 38972
" />
<path d="M20677 38972
L20677 39547
" />
<path d="M21922 38972
L21922 40216
" />
<path d="M21922 38972
L21555 38972
" />
<path d="M20677 38972
L21044 38972
" />
<path d="M18677 38972
L18677 39547
" />
<path d="M19922 38972
L19922 40216
" />
<path d="M19922 38972
L19555 38972
" />
<path d="M18677 38972
L19044 38972
" />
<path d="M19039 41800
L19039 42274
" />
<path d="M17968 41800
L17968 42274
" />
<path d="M20614 41790
L20614 42264
" />
<path d="M19543 41790
L19543 42264
" />
<path d="M21124 42264
L21124 41790
" />
<path d="M22194 42264
L22194 41790
" />
<path d="M25435 41790
L25435 42264
" />
<path d="M24364 41790
L24364 42264
" />
<path d="M23835 41790
L23835 42264
" />
<path d="M22764 41790
L22764 42264
" />
</g>
<g style="fill:#000000; fill-opacity:0.0; 
stroke:#000000; stroke-width:59.0551; stroke-opacity:1; 
stroke-linecap:round; stroke-linejoin:round;">
<text x="28100" y="43496.9"
textLength="-1066.84" font-size="-524.934" lengthAdjust="spacingAndGlyphs"
text-anchor="middle" opacity="0">R23</text>
<path d="M28353 43478
L28484 43290
" />
<path d="M28578 43478
L28578 43084
L28428 43084
L28390 43103
L28371 43121
L28353 43159
L28353 43215
L28371 43253
L28390 43271
L28428 43290
L28578 43290
" />
<path d="M28203 43121
L28184 43103
L28146 43084
L28053 43084
L28015 43103
L27996 43121
L27978 43159
L27978 43196
L27996 43253
L28221 43478
L27978 43478
" />
<path d="M27846 43084
L27603 43084
L27734 43234
L27678 43234
L27640 43253
L27621 43271
L27603 43309
L27603 43403
L27621 43440
L27640 43459
L27678 43478
L27790 43478
L27828 43459
L27846 43440
" />
<text x="26500" y="43496.9"
textLength="-1066.84" font-size="-524.934" lengthAdjust="spacingAndGlyphs"
text-anchor="middle" opacity="0">R22</text>
<path d="M26753 43478
L26884 43290
" />
<path d="M26978 43478
L26978 43084
L26828 43084
L26790 43103
L26771 43121
L26753 43159
L26753 43215
L26771 43253
L26790 43271
L26828 43290
L26978 43290
" />
<path d="M26603 43121
L26584 43103
L26546 43084
L26453 43084
L26415 43103
L26396 43121
L26378 43159
L26378 43196
L26396 43253
L26621 43478
L26378 43478
" />
<path d="M26228 43121
L26209 43103
L26171 43084
L26078 43084
L26040 43103
L26021 43121
L26003 43159
L26003 43196
L26021 43253
L26246 43478
L26003 43478
" />
<g transform="rotate(-90 27893.7 39094.5)">
<text x="27893.7" y="39291.3"
textLength="-710.63" font-size="-524.934" lengthAdjust="spacingAndGlyphs"
text-anchor="middle" opacity="0">Q4</text>
</g>
<path d="M28109 39056
L28090 39019
L28053 38982
L27996 38925
L27978 38888
L27978 38850
" />
<path d="M28071 38869
L28053 38832
L28015 38794
L27940 38775
L27809 38775
L27734 38794
L27696 38832
L27678 38869
L27678 38944
L27696 38982
L27734 39019
L27809 39038
L27940 39038
L28015 39019
L28053 38982
L28071 38944
L28071 38869
" />
<path d="M27809 39375
L28071 39375
" />
<path d="M27659 39281
L27940 39188
L27940 39431
" />
<g transform="rotate(-90 25118.1 39114.2)">
<text x="25118.1" y="39311"
textLength="-710.63" font-size="-524.934" lengthAdjust="spacingAndGlyphs"
text-anchor="middle" opacity="0">Q3</text>
</g>
<path d="M25333 39076
L25314 39039
L25277 39001
L25221 38945
L25202 38907
L25202 38870
" />
<path d="M25296 38889
L25277 38851
L25239 38814
L25164 38795
L25033 38795
L24958 38814
L24921 38851
L24902 38889
L24902 38964
L24921 39001
L24958 39039
L25033 39057
L25164 39057
L25239 39039
L25277 39001
L25296 38964
L25296 38889
" />
<path d="M24902 39189
L24902 39432
L25052 39301
L25052 39357
L25071 39395
L25089 39414
L25127 39432
L25221 39432
L25258 39414
L25277 39395
L25296 39357
L25296 39245
L25277 39207
L25258 39189
" />
<g transform="rotate(-90 20303.1 39250)">
<text x="20303.1" y="39446.9"
textLength="-710.63" font-size="-524.934" lengthAdjust="spacingAndGlyphs"
text-anchor="middle" opacity="0">Q2</text>
</g>
<path d="M20518 39212
L20500 39175
L20462 39137
L20406 39081
L20387 39043
L20387 39006
" />
<path d="M20481 39025
L20462 38987
L20425 38950
L20350 38931
L20218 38931
L20143 38950
L20106 38987
L20087 39025
L20087 39100
L20106 39137
L20143 39175
L20218 39193
L20350 39193
L20425 39175
L20462 39137
L20481 39100
L20481 39025
" />
<path d="M20125 39343
L20106 39362
L20087 39399
L20087 39493
L20106 39531
L20125 39549
L20162 39568
L20200 39568
L20256 39549
L20481 39324
L20481 39568
" />
<g transform="rotate(-90 18350 39271.7)">
<text x="18350" y="39468.5"
textLength="-710.63" font-size="-524.934" lengthAdjust="spacingAndGlyphs"
text-anchor="middle" opacity="0">Q1</text>
</g>
<path d="M18565 39234
L18546 39196
L18509 39159
L18453 39102
L18434 39065
L18434 39027
" />
<path d="M18528 39046
L18509 39009
L18471 38971
L18396 38952
L18265 38952
L18190 38971
L18153 39009
L18134 39046
L18134 39121
L18153 39159
L18190 39196
L18265 39215
L18396 39215
L18471 39196
L18509 39159
L18528 39121
L18528 39046
" />
<path d="M18528 39590
L18528 39365
" />
<path d="M18528 39477
L18134 39477
L18190 39440
L18228 39402
L18246 39365
" />
<text x="18503.9" y="43503.9"
textLength="-1066.84" font-size="-524.934" lengthAdjust="spacingAndGlyphs"
text-anchor="middle" opacity="0">R19</text>
<path d="M18757 43485
L18888 43297
" />
<path d="M18982 43485
L18982 43091
L18832 43091
L18794 43110
L18775 43128
L18757 43166
L18757 43222
L18775 43260
L18794 43278
L18832 43297
L18982 43297
" />
<path d="M18382 43485
L18607 43485
" />
<path d="M18494 43485
L18494 43091
L18532 43147
L18569 43185
L18607 43203
" />
<path d="M18194 43485
L18119 43485
L18082 43466
L18063 43447
L18025 43391
L18007 43316
L18007 43166
L18025 43128
L18044 43110
L18082 43091
L18157 43091
L18194 43110
L18213 43128
L18232 43166
L18232 43260
L18213 43297
L18194 43316
L18157 43335
L18082 43335
L18044 43316
L18025 43297
L18007 43260
" />
<text x="20078.7" y="43503.9"
textLength="-1066.84" font-size="-524.934" lengthAdjust="spacingAndGlyphs"
text-anchor="middle" opacity="0">R16</text>
<path d="M20331 43485
L20463 43297
" />
<path d="M20556 43485
L20556 43091
L20406 43091
L20369 43110
L20350 43128
L20331 43166
L20331 43222
L20350 43260
L20369 43278
L20406 43297
L20556 43297
" />
<path d="M19956 43485
L20181 43485
" />
<path d="M20069 43485
L20069 43091
L20106 43147
L20144 43185
L20181 43203
" />
<path d="M19619 43091
L19694 43091
L19731 43110
L19750 43128
L19788 43185
L19806 43260
L19806 43410
L19788 43447
L19769 43466
L19731 43485
L19656 43485
L19619 43466
L19600 43447
L19581 43410
L19581 43316
L19600 43278
L19619 43260
L19656 43241
L19731 43241
L19769 43260
L19788 43278
L19806 43316
" />
<text x="21659.4" y="43503.9"
textLength="-1066.84" font-size="-524.934" lengthAdjust="spacingAndGlyphs"
text-anchor="middle" opacity="0">R15</text>
<path d="M21912 43485
L22043 43297
" />
<path d="M22137 43485
L22137 43091
L21987 43091
L21950 43110
L21931 43128
L21912 43166
L21912 43222
L21931 43260
L21950 43278
L21987 43297
L22137 43297
" />
<path d="M21537 43485
L21762 43485
" />
<path d="M21650 43485
L21650 43091
L21687 43147
L21725 43185
L21762 43203
" />
<path d="M21181 43091
L21368 43091
L21387 43278
L21368 43260
L21331 43241
L21237 43241
L21200 43260
L21181 43278
L21162 43316
L21162 43410
L21181 43447
L21200 43466
L21237 43485
L21331 43485
L21368 43466
L21387 43447
" />
<text x="24900" y="43503.9"
textLength="-691.882" font-size="-524.934" lengthAdjust="spacingAndGlyphs"
text-anchor="middle" opacity="0">R6</text>
<path d="M24965 43485
L25096 43297
" />
<path d="M25190 43485
L25190 43091
L25040 43091
L25003 43110
L24984 43128
L24965 43166
L24965 43222
L24984 43260
L25003 43278
L25040 43297
L25190 43297
" />
<path d="M24628 43091
L24703 43091
L24740 43110
L24759 43128
L24796 43185
L24815 43260
L24815 43410
L24796 43447
L24778 43466
L24740 43485
L24665 43485
L24628 43466
L24609 43447
L24590 43410
L24590 43316
L24609 43278
L24628 43260
L24665 43241
L24740 43241
L24778 43260
L24796 43278
L24815 43316
" />
<text x="23300" y="43503.9"
textLength="-691.882" font-size="-524.934" lengthAdjust="spacingAndGlyphs"
text-anchor="middle" opacity="0">R3</text>
<path d="M23365 43485
L23496 43297
" />
<path d="M23590 43485
L23590 43091
L23440 43091
L23403 43110
L23384 43128
L23365 43166
L23365 43222
L23384 43260
L23403 43278
L23440 43297
L23590 43297
" />
<path d="M23234 43091
L22990 43091
L23121 43241
L23065 43241
L23028 43260
L23009 43278
L22990 43316
L22990 43410
L23009 43447
L23028 43466
L23065 43485
L23178 43485
L23215 43466
L23234 43447
" />
<g >
</g>
</g> 
</svg>
