<?xml version="1.0" standalone="no"?>
 <!DOCTYPE svg PUBLIC "-//W3C//DTD SVG 1.1//EN" 
 "http://www.w3.org/Graphics/SVG/1.1/DTD/svg11.dtd"> 
<svg xmlns="http://www.w3.org/2000/svg" version="1.1" 
    width="22.9997cm" height="21.9989cm" viewBox="0 0 90550 86610 ">
<title>SVG Picture created as motherboard-B_Paste.svg date 2020/11/12 16:50:21 </title>
  <desc>Picture generated by PCBNEW </desc>
<g style="fill:#000000; fill-opacity:1;stroke:#000000; stroke-opacity:1;
stroke-linecap:round; stroke-linejoin:round; "
 transform="translate(0 0) scale(1 1)">
</g>
<g style="fill:#000000; fill-opacity:0.0; 
stroke:#000000; stroke-width:-0.000393701; stroke-opacity:1; 
stroke-linecap:round; stroke-linejoin:round;">
<g >
</g>
<g >
</g>
<g >
</g>
<g >
</g>
<g >
</g>
<g >
</g>
<g >
</g>
<g >
</g>
<g style="fill:#000000; fill-opacity:0.0; 
stroke:#000000; stroke-width:-0.000393701; stroke-opacity:1; 
stroke-linecap:round; stroke-linejoin:round;">
</g>
<g style="fill:#000000; fill-opacity:0.0; 
stroke:#000000; stroke-width:0; stroke-opacity:1; 
stroke-linecap:round; stroke-linejoin:round;">
</g>
<g style="fill:#000000; fill-opacity:1.0; 
stroke:#000000; stroke-width:0; stroke-opacity:1; 
stroke-linecap:round; stroke-linejoin:round;">
<path style="fill:#000000; fill-opacity:1.0; 
stroke:#000000; stroke-width:0; stroke-opacity:1; 
stroke-linecap:round; stroke-linejoin:round;fill-rule:evenodd;"
d="M 23612,41919.8
23621.6,41921.2
23630.9,41923.5
23640,41926.8
23648.8,41930.9
23657,41935.9
23664.8,41941.6
23672,41948.1
23678.4,41955.3
23684.2,41963
23689.2,41971.3
23693.3,41980.1
23696.5,41989.1
23698.9,41998.5
23700.3,42008.1
23700.8,42017.7
23700.8,42381.9
23700.3,42391.5
23698.9,42401.1
23696.5,42410.5
23693.3,42419.6
23689.2,42428.3
23684.2,42436.6
23678.4,42444.3
23672,42451.5
23664.8,42458
23657,42463.7
23648.8,42468.7
23640,42472.8
23630.9,42476.1
23621.6,42478.4
23612,42479.8
23602.4,42480.3
22755.9,42480.3
22746.3,42479.8
22736.7,42478.4
22727.3,42476.1
22718.2,42472.8
22709.5,42468.7
22701.2,42463.7
22693.5,42458
22686.3,42451.5
22679.8,42444.3
22674.1,42436.6
22669.1,42428.3
22665,42419.6
22661.7,42410.5
22659.4,42401.1
22658,42391.5
22657.5,42381.9
22657.5,42017.7
22658,42008.1
22659.4,41998.5
22661.7,41989.1
22665,41980.1
22669.1,41971.3
22674.1,41963
22679.8,41955.3
22686.3,41948.1
22693.5,41941.6
22701.2,41935.9
22709.5,41930.9
22718.2,41926.8
22727.3,41923.5
22736.7,41921.2
22746.3,41919.8
22755.9,41919.3
23602.4,41919.3
Z" /> 
<path style="fill:#000000; fill-opacity:1.0; 
stroke:#000000; stroke-width:0; stroke-opacity:1; 
stroke-linecap:round; stroke-linejoin:round;fill-rule:evenodd;"
d="M 23612,40748.5
23621.6,40749.9
23630.9,40752.3
23640,40755.5
23648.8,40759.7
23657,40764.6
23664.8,40770.4
23672,40776.9
23678.4,40784
23684.2,40791.8
23689.2,40800.1
23693.3,40808.8
23696.5,40817.9
23698.9,40827.3
23700.3,40836.8
23700.8,40846.5
23700.8,41210.6
23700.3,41220.3
23698.9,41229.8
23696.5,41239.2
23693.3,41248.3
23689.2,41257
23684.2,41265.3
23678.4,41273.1
23672,41280.2
23664.8,41286.7
23657,41292.5
23648.8,41297.4
23640,41301.6
23630.9,41304.8
23621.6,41307.2
23612,41308.6
23602.4,41309.1
22755.9,41309.1
22746.3,41308.6
22736.7,41307.2
22727.3,41304.8
22718.2,41301.6
22709.5,41297.4
22701.2,41292.5
22693.5,41286.7
22686.3,41280.2
22679.8,41273.1
22674.1,41265.3
22669.1,41257
22665,41248.3
22661.7,41239.2
22659.4,41229.8
22658,41220.3
22657.5,41210.6
22657.5,40846.5
22658,40836.8
22659.4,40827.3
22661.7,40817.9
22665,40808.8
22669.1,40800.1
22674.1,40791.8
22679.8,40784
22686.3,40776.9
22693.5,40770.4
22701.2,40764.6
22709.5,40759.7
22718.2,40755.5
22727.3,40752.3
22736.7,40749.9
22746.3,40748.5
22755.9,40748
23602.4,40748
Z" /> 
</g>
<g >
</g>
<g style="fill:#000000; fill-opacity:1.0; 
stroke:#000000; stroke-width:0; stroke-opacity:1; 
stroke-linecap:round; stroke-linejoin:round;">
<path style="fill:#000000; fill-opacity:1.0; 
stroke:#000000; stroke-width:0; stroke-opacity:1; 
stroke-linecap:round; stroke-linejoin:round;fill-rule:evenodd;"
d="M 18986,41924.7
18995.6,41926.1
19004.9,41928.5
19014,41931.7
19022.8,41935.8
19031.1,41940.8
19038.8,41946.6
19046,41953
19052.5,41960.2
19058.2,41968
19063.2,41976.2
19067.3,41985
19070.6,41994.1
19072.9,42003.4
19074.3,42013
19074.8,42022.6
19074.8,42386.8
19074.3,42396.5
19072.9,42406
19070.6,42415.4
19067.3,42424.5
19063.2,42433.2
19058.2,42441.5
19052.5,42449.3
19046,42456.4
19038.8,42462.9
19031.1,42468.6
19022.8,42473.6
19014,42477.7
19004.9,42481
18995.6,42483.3
18986,42484.8
18976.4,42485.2
18129.9,42485.2
18120.3,42484.8
18110.7,42483.3
18101.3,42481
18092.3,42477.7
18083.5,42473.6
18075.2,42468.6
18067.5,42462.9
18060.3,42456.4
18053.8,42449.3
18048.1,42441.5
18043.1,42433.2
18039,42424.5
18035.7,42415.4
18033.4,42406
18032,42396.5
18031.5,42386.8
18031.5,42022.6
18032,42013
18033.4,42003.4
18035.7,41994.1
18039,41985
18043.1,41976.2
18048.1,41968
18053.8,41960.2
18060.3,41953
18067.5,41946.6
18075.2,41940.8
18083.5,41935.8
18092.3,41931.7
18101.3,41928.5
18110.7,41926.1
18120.3,41924.7
18129.9,41924.2
18976.4,41924.2
Z" /> 
<path style="fill:#000000; fill-opacity:1.0; 
stroke:#000000; stroke-width:0; stroke-opacity:1; 
stroke-linecap:round; stroke-linejoin:round;fill-rule:evenodd;"
d="M 18986,40753.4
18995.6,40754.8
19004.9,40757.2
19014,40760.4
19022.8,40764.6
19031.1,40769.5
19038.8,40775.3
19046,40781.8
19052.5,40788.9
19058.2,40796.7
19063.2,40805
19067.3,40813.7
19070.6,40822.8
19072.9,40832.2
19074.3,40841.7
19074.8,40851.4
19074.8,41215.6
19074.3,41225.2
19072.9,41234.8
19070.6,41244.1
19067.3,41253.2
19063.2,41261.9
19058.2,41270.2
19052.5,41278
19046,41285.1
19038.8,41291.6
19031.1,41297.4
19022.8,41302.4
19014,41306.5
19004.9,41309.7
18995.6,41312.1
18986,41313.5
18976.4,41314
18129.9,41314
18120.3,41313.5
18110.7,41312.1
18101.3,41309.7
18092.3,41306.5
18083.5,41302.4
18075.2,41297.4
18067.5,41291.6
18060.3,41285.1
18053.8,41278
18048.1,41270.2
18043.1,41261.9
18039,41253.2
18035.7,41244.1
18033.4,41234.8
18032,41225.2
18031.5,41215.6
18031.5,40851.4
18032,40841.7
18033.4,40832.2
18035.7,40822.8
18039,40813.7
18043.1,40805
18048.1,40796.7
18053.8,40788.9
18060.3,40781.8
18067.5,40775.3
18075.2,40769.5
18083.5,40764.6
18092.3,40760.4
18101.3,40757.2
18110.7,40754.8
18120.3,40753.4
18129.9,40753
18976.4,40753
Z" /> 
</g>
<g >
</g>
<g style="fill:#000000; fill-opacity:1.0; 
stroke:#000000; stroke-width:0; stroke-opacity:1; 
stroke-linecap:round; stroke-linejoin:round;">
<path style="fill:#000000; fill-opacity:1.0; 
stroke:#000000; stroke-width:0; stroke-opacity:1; 
stroke-linecap:round; stroke-linejoin:round;fill-rule:evenodd;"
d="M 22047,41919.8
22056.6,41921.2
22066,41923.5
22075.1,41926.8
22083.8,41930.9
22092.1,41935.9
22099.8,41941.6
22107,41948.1
22113.5,41955.3
22119.2,41963
22124.2,41971.3
22128.3,41980.1
22131.6,41989.1
22133.9,41998.5
22135.4,42008.1
22135.8,42017.7
22135.8,42381.9
22135.4,42391.5
22133.9,42401.1
22131.6,42410.5
22128.3,42419.6
22124.2,42428.3
22119.2,42436.6
22113.5,42444.3
22107,42451.5
22099.8,42458
22092.1,42463.7
22083.8,42468.7
22075.1,42472.8
22066,42476.1
22056.6,42478.4
22047,42479.8
22037.4,42480.3
21190.9,42480.3
21181.3,42479.8
21171.7,42478.4
21162.4,42476.1
21153.3,42472.8
21144.5,42468.7
21136.3,42463.7
21128.5,42458
21121.3,42451.5
21114.9,42444.3
21109.1,42436.6
21104.1,42428.3
21100,42419.6
21096.8,42410.5
21094.4,42401.1
21093,42391.5
21092.5,42381.9
21092.5,42017.7
21093,42008.1
21094.4,41998.5
21096.8,41989.1
21100,41980.1
21104.1,41971.3
21109.1,41963
21114.9,41955.3
21121.3,41948.1
21128.5,41941.6
21136.3,41935.9
21144.5,41930.9
21153.3,41926.8
21162.4,41923.5
21171.7,41921.2
21181.3,41919.8
21190.9,41919.3
22037.4,41919.3
Z" /> 
<path style="fill:#000000; fill-opacity:1.0; 
stroke:#000000; stroke-width:0; stroke-opacity:1; 
stroke-linecap:round; stroke-linejoin:round;fill-rule:evenodd;"
d="M 22047,40748.5
22056.6,40749.9
22066,40752.3
22075.1,40755.5
22083.8,40759.7
22092.1,40764.6
22099.8,40770.4
22107,40776.9
22113.5,40784
22119.2,40791.8
22124.2,40800.1
22128.3,40808.8
22131.6,40817.9
22133.9,40827.3
22135.4,40836.8
22135.8,40846.5
22135.8,41210.6
22135.4,41220.3
22133.9,41229.8
22131.6,41239.2
22128.3,41248.3
22124.2,41257
22119.2,41265.3
22113.5,41273.1
22107,41280.2
22099.8,41286.7
22092.1,41292.5
22083.8,41297.4
22075.1,41301.6
22066,41304.8
22056.6,41307.2
22047,41308.6
22037.4,41309.1
21190.9,41309.1
21181.3,41308.6
21171.7,41307.2
21162.4,41304.8
21153.3,41301.6
21144.5,41297.4
21136.3,41292.5
21128.5,41286.7
21121.3,41280.2
21114.9,41273.1
21109.1,41265.3
21104.1,41257
21100,41248.3
21096.8,41239.2
21094.4,41229.8
21093,41220.3
21092.5,41210.6
21092.5,40846.5
21093,40836.8
21094.4,40827.3
21096.8,40817.9
21100,40808.8
21104.1,40800.1
21109.1,40791.8
21114.9,40784
21121.3,40776.9
21128.5,40770.4
21136.3,40764.6
21144.5,40759.7
21153.3,40755.5
21162.4,40752.3
21171.7,40749.9
21181.3,40748.5
21190.9,40748
22037.4,40748
Z" /> 
</g>
<g >
</g>
<g style="fill:#000000; fill-opacity:1.0; 
stroke:#000000; stroke-width:0; stroke-opacity:1; 
stroke-linecap:round; stroke-linejoin:round;">
<path style="fill:#000000; fill-opacity:1.0; 
stroke:#000000; stroke-width:0; stroke-opacity:1; 
stroke-linecap:round; stroke-linejoin:round;fill-rule:evenodd;"
d="M 20531.3,41919.8
20540.9,41921.2
20550.2,41923.5
20559.3,41926.8
20568.1,41930.9
20576.3,41935.9
20584.1,41941.6
20591.3,41948.1
20597.7,41955.3
20603.5,41963
20608.5,41971.3
20612.6,41980.1
20615.8,41989.1
20618.2,41998.5
20619.6,42008.1
20620.1,42017.7
20620.1,42381.9
20619.6,42391.5
20618.2,42401.1
20615.8,42410.5
20612.6,42419.6
20608.5,42428.3
20603.5,42436.6
20597.7,42444.3
20591.3,42451.5
20584.1,42458
20576.3,42463.7
20568.1,42468.7
20559.3,42472.8
20550.2,42476.1
20540.9,42478.4
20531.3,42479.8
20521.7,42480.3
19675.2,42480.3
19665.5,42479.8
19656,42478.4
19646.6,42476.1
19637.5,42472.8
19628.8,42468.7
19620.5,42463.7
19612.8,42458
19605.6,42451.5
19599.1,42444.3
19593.4,42436.6
19588.4,42428.3
19584.3,42419.6
19581,42410.5
19578.7,42401.1
19577.2,42391.5
19576.8,42381.9
19576.8,42017.7
19577.2,42008.1
19578.7,41998.5
19581,41989.1
19584.3,41980.1
19588.4,41971.3
19593.4,41963
19599.1,41955.3
19605.6,41948.1
19612.8,41941.6
19620.5,41935.9
19628.8,41930.9
19637.5,41926.8
19646.6,41923.5
19656,41921.2
19665.5,41919.8
19675.2,41919.3
20521.7,41919.3
Z" /> 
<path style="fill:#000000; fill-opacity:1.0; 
stroke:#000000; stroke-width:0; stroke-opacity:1; 
stroke-linecap:round; stroke-linejoin:round;fill-rule:evenodd;"
d="M 20531.3,40748.5
20540.9,40749.9
20550.2,40752.3
20559.3,40755.5
20568.1,40759.7
20576.3,40764.6
20584.1,40770.4
20591.3,40776.9
20597.7,40784
20603.5,40791.8
20608.5,40800.1
20612.6,40808.8
20615.8,40817.9
20618.2,40827.3
20619.6,40836.8
20620.1,40846.5
20620.1,41210.6
20619.6,41220.3
20618.2,41229.8
20615.8,41239.2
20612.6,41248.3
20608.5,41257
20603.5,41265.3
20597.7,41273.1
20591.3,41280.2
20584.1,41286.7
20576.3,41292.5
20568.1,41297.4
20559.3,41301.6
20550.2,41304.8
20540.9,41307.2
20531.3,41308.6
20521.7,41309.1
19675.2,41309.1
19665.5,41308.6
19656,41307.2
19646.6,41304.8
19637.5,41301.6
19628.8,41297.4
19620.5,41292.5
19612.8,41286.7
19605.6,41280.2
19599.1,41273.1
19593.4,41265.3
19588.4,41257
19584.3,41248.3
19581,41239.2
19578.7,41229.8
19577.2,41220.3
19576.8,41210.6
19576.8,40846.5
19577.2,40836.8
19578.7,40827.3
19581,40817.9
19584.3,40808.8
19588.4,40800.1
19593.4,40791.8
19599.1,40784
19605.6,40776.9
19612.8,40770.4
19620.5,40764.6
19628.8,40759.7
19637.5,40755.5
19646.6,40752.3
19656,40749.9
19665.5,40748.5
19675.2,40748
20521.7,40748
Z" /> 
</g>
<g >
</g>
<g >
</g>
<g >
</g>
<g >
</g>
<g >
</g>
<g >
</g>
<g >
</g>
<g >
</g>
<g style="fill:#000000; fill-opacity:1.0; 
stroke:#000000; stroke-width:0; stroke-opacity:1; 
stroke-linecap:round; stroke-linejoin:round;">
<path style="fill:#000000; fill-opacity:1.0; 
stroke:#000000; stroke-width:0; stroke-opacity:1; 
stroke-linecap:round; stroke-linejoin:round;fill-rule:evenodd;"
d="M 11889.6,33770.2
11899.1,33771.6
11908.5,33773.9
11917.6,33777.2
11926.3,33781.3
11934.6,33786.3
11942.4,33792
11949.5,33798.5
11956,33805.7
11961.8,33813.4
11966.7,33821.7
11970.9,33830.4
11974.1,33839.5
11976.5,33848.9
11977.9,33858.5
11978.3,33868.1
11978.3,34232.3
11977.9,34241.9
11976.5,34251.5
11974.1,34260.9
11970.9,34269.9
11966.7,34278.7
11961.8,34287
11956,34294.7
11949.5,34301.9
11942.4,34308.4
11934.6,34314.1
11926.3,34319.1
11917.6,34323.2
11908.5,34326.5
11899.1,34328.8
11889.6,34330.2
11879.9,34330.7
11033.5,34330.7
11023.8,34330.2
11014.3,34328.8
11004.9,34326.5
10995.8,34323.2
10987.1,34319.1
10978.8,34314.1
10971,34308.4
10963.9,34301.9
10957.4,34294.7
10951.6,34287
10946.7,34278.7
10942.5,34269.9
10939.3,34260.9
10936.9,34251.5
10935.5,34241.9
10935,34232.3
10935,33868.1
10935.5,33858.5
10936.9,33848.9
10939.3,33839.5
10942.5,33830.4
10946.7,33821.7
10951.6,33813.4
10957.4,33805.7
10963.9,33798.5
10971,33792
10978.8,33786.3
10987.1,33781.3
10995.8,33777.2
11004.9,33773.9
11014.3,33771.6
11023.8,33770.2
11033.5,33769.7
11879.9,33769.7
Z" /> 
<path style="fill:#000000; fill-opacity:1.0; 
stroke:#000000; stroke-width:0; stroke-opacity:1; 
stroke-linecap:round; stroke-linejoin:round;fill-rule:evenodd;"
d="M 11889.6,32598.9
11899.1,32600.3
11908.5,32602.7
11917.6,32605.9
11926.3,32610
11934.6,32615
11942.4,32620.8
11949.5,32627.3
11956,32634.4
11961.8,32642.2
11966.7,32650.5
11970.9,32659.2
11974.1,32668.3
11976.5,32677.6
11977.9,32687.2
11978.3,32696.9
11978.3,33061
11977.9,33070.7
11976.5,33080.2
11974.1,33089.6
11970.9,33098.7
11966.7,33107.4
11961.8,33115.7
11956,33123.5
11949.5,33130.6
11942.4,33137.1
11934.6,33142.9
11926.3,33147.8
11917.6,33152
11908.5,33155.2
11899.1,33157.6
11889.6,33159
11879.9,33159.4
11033.5,33159.4
11023.8,33159
11014.3,33157.6
11004.9,33155.2
10995.8,33152
10987.1,33147.8
10978.8,33142.9
10971,33137.1
10963.9,33130.6
10957.4,33123.5
10951.6,33115.7
10946.7,33107.4
10942.5,33098.7
10939.3,33089.6
10936.9,33080.2
10935.5,33070.7
10935,33061
10935,32696.9
10935.5,32687.2
10936.9,32677.6
10939.3,32668.3
10942.5,32659.2
10946.7,32650.5
10951.6,32642.2
10957.4,32634.4
10963.9,32627.3
10971,32620.8
10978.8,32615
10987.1,32610
10995.8,32605.9
11004.9,32602.7
11014.3,32600.3
11023.8,32598.9
11033.5,32598.4
11879.9,32598.4
Z" /> 
</g>
<g >
</g>
<g style="fill:#000000; fill-opacity:1.0; 
stroke:#000000; stroke-width:0; stroke-opacity:1; 
stroke-linecap:round; stroke-linejoin:round;">
<path style="fill:#000000; fill-opacity:1.0; 
stroke:#000000; stroke-width:0; stroke-opacity:1; 
stroke-linecap:round; stroke-linejoin:round;fill-rule:evenodd;"
d="M 11909.3,31093
11918.8,31094.4
11928.2,31096.8
11937.3,31100
11946,31104.1
11954.3,31109.1
11962,31114.9
11969.2,31121.3
11975.7,31128.5
11981.4,31136.3
11986.4,31144.5
11990.5,31153.3
11993.8,31162.4
11996.1,31171.7
11997.6,31181.3
11998,31190.9
11998,31555.1
11997.6,31564.8
11996.1,31574.3
11993.8,31583.7
11990.5,31592.8
11986.4,31601.5
11981.4,31609.8
11975.7,31617.6
11969.2,31624.7
11962,31631.2
11954.3,31637
11946,31641.9
11937.3,31646.1
11928.2,31649.3
11918.8,31651.7
11909.3,31653.1
11899.6,31653.5
11053.1,31653.5
11043.5,31653.1
11033.9,31651.7
11024.6,31649.3
11015.5,31646.1
11006.8,31641.9
10998.5,31637
10990.7,31631.2
10983.6,31624.7
10977.1,31617.6
10971.3,31609.8
10966.3,31601.5
10962.2,31592.8
10959,31583.7
10956.6,31574.3
10955.2,31564.8
10954.7,31555.1
10954.7,31190.9
10955.2,31181.3
10956.6,31171.7
10959,31162.4
10962.2,31153.3
10966.3,31144.5
10971.3,31136.3
10977.1,31128.5
10983.6,31121.3
10990.7,31114.9
10998.5,31109.1
11006.8,31104.1
11015.5,31100
11024.6,31096.8
11033.9,31094.4
11043.5,31093
11053.1,31092.5
11899.6,31092.5
Z" /> 
<path style="fill:#000000; fill-opacity:1.0; 
stroke:#000000; stroke-width:0; stroke-opacity:1; 
stroke-linecap:round; stroke-linejoin:round;fill-rule:evenodd;"
d="M 11909.3,29921.7
11918.8,29923.2
11928.2,29925.5
11937.3,29928.8
11946,29932.9
11954.3,29937.8
11962,29943.6
11969.2,29950.1
11975.7,29957.2
11981.4,29965
11986.4,29973.3
11990.5,29982
11993.8,29991.1
11996.1,30000.5
11997.6,30010
11998,30019.7
11998,30383.9
11997.6,30393.5
11996.1,30403.1
11993.8,30412.4
11990.5,30421.5
11986.4,30430.3
11981.4,30438.5
11975.7,30446.3
11969.2,30453.5
11962,30459.9
11954.3,30465.7
11946,30470.7
11937.3,30474.8
11928.2,30478
11918.8,30480.4
11909.3,30481.8
11899.6,30482.3
11053.1,30482.3
11043.5,30481.8
11033.9,30480.4
11024.6,30478
11015.5,30474.8
11006.8,30470.7
10998.5,30465.7
10990.7,30459.9
10983.6,30453.5
10977.1,30446.3
10971.3,30438.5
10966.3,30430.3
10962.2,30421.5
10959,30412.4
10956.6,30403.1
10955.2,30393.5
10954.7,30383.9
10954.7,30019.7
10955.2,30010
10956.6,30000.5
10959,29991.1
10962.2,29982
10966.3,29973.3
10971.3,29965
10977.1,29957.2
10983.6,29950.1
10990.7,29943.6
10998.5,29937.8
11006.8,29932.9
11015.5,29928.8
11024.6,29925.5
11033.9,29923.2
11043.5,29921.7
11053.1,29921.3
11899.6,29921.3
Z" /> 
</g>
<g >
</g>
<g style="fill:#000000; fill-opacity:1.0; 
stroke:#000000; stroke-width:0; stroke-opacity:1; 
stroke-linecap:round; stroke-linejoin:round;">
<path style="fill:#000000; fill-opacity:1.0; 
stroke:#000000; stroke-width:0; stroke-opacity:1; 
stroke-linecap:round; stroke-linejoin:round;fill-rule:evenodd;"
d="M 11879.7,36437.5
11889.3,36438.9
11898.6,36441.2
11907.7,36444.5
11916.5,36448.6
11924.8,36453.6
11932.5,36459.3
11939.7,36465.8
11946.2,36473
11951.9,36480.8
11956.9,36489
11961,36497.8
11964.3,36506.9
11966.6,36516.2
11968,36525.8
11968.5,36535.4
11968.5,36899.6
11968,36909.3
11966.6,36918.8
11964.3,36928.2
11961,36937.3
11956.9,36946
11951.9,36954.3
11946.2,36962
11939.7,36969.2
11932.5,36975.7
11924.8,36981.4
11916.5,36986.4
11907.7,36990.5
11898.6,36993.8
11889.3,36996.1
11879.7,36997.6
11870.1,36998
11023.6,36998
11014,36997.6
11004.4,36996.1
10995.1,36993.8
10986,36990.5
10977.2,36986.4
10968.9,36981.4
10961.2,36975.7
10954,36969.2
10947.5,36962
10941.8,36954.3
10936.8,36946
10932.7,36937.3
10929.4,36928.2
10927.1,36918.8
10925.7,36909.3
10925.2,36899.6
10925.2,36535.4
10925.7,36525.8
10927.1,36516.2
10929.4,36506.9
10932.7,36497.8
10936.8,36489
10941.8,36480.8
10947.5,36473
10954,36465.8
10961.2,36459.3
10968.9,36453.6
10977.2,36448.6
10986,36444.5
10995.1,36441.2
11004.4,36438.9
11014,36437.5
11023.6,36437
11870.1,36437
Z" /> 
<path style="fill:#000000; fill-opacity:1.0; 
stroke:#000000; stroke-width:0; stroke-opacity:1; 
stroke-linecap:round; stroke-linejoin:round;fill-rule:evenodd;"
d="M 11879.7,35266.2
11889.3,35267.6
11898.6,35270
11907.7,35273.2
11916.5,35277.4
11924.8,35282.3
11932.5,35288.1
11939.7,35294.6
11946.2,35301.7
11951.9,35309.5
11956.9,35317.8
11961,35326.5
11964.3,35335.6
11966.6,35345
11968,35354.5
11968.5,35364.2
11968.5,35728.3
11968,35738
11966.6,35747.5
11964.3,35756.9
11961,35766
11956.9,35774.7
11951.9,35783
11946.2,35790.8
11939.7,35797.9
11932.5,35804.4
11924.8,35810.2
11916.5,35815.1
11907.7,35819.3
11898.6,35822.5
11889.3,35824.9
11879.7,35826.3
11870.1,35826.8
11023.6,35826.8
11014,35826.3
11004.4,35824.9
10995.1,35822.5
10986,35819.3
10977.2,35815.1
10968.9,35810.2
10961.2,35804.4
10954,35797.9
10947.5,35790.8
10941.8,35783
10936.8,35774.7
10932.7,35766
10929.4,35756.9
10927.1,35747.5
10925.7,35738
10925.2,35728.3
10925.2,35364.2
10925.7,35354.5
10927.1,35345
10929.4,35335.6
10932.7,35326.5
10936.8,35317.8
10941.8,35309.5
10947.5,35301.7
10954,35294.6
10961.2,35288.1
10968.9,35282.3
10977.2,35277.4
10986,35273.2
10995.1,35270
11004.4,35267.6
11014,35266.2
11023.6,35265.7
11870.1,35265.7
Z" /> 
</g>
<g >
</g>
<g >
</g>
<g >
</g>
<g style="fill:#000000; fill-opacity:1.0; 
stroke:#000000; stroke-width:0; stroke-opacity:1; 
stroke-linecap:round; stroke-linejoin:round;">
<path style="fill:#000000; fill-opacity:1.0; 
stroke:#000000; stroke-width:0; stroke-opacity:1; 
stroke-linecap:round; stroke-linejoin:round;fill-rule:evenodd;"
d="M 11909.3,28376.5
11918.8,28377.9
11928.2,28380.2
11937.3,28383.5
11946,28387.6
11954.3,28392.6
11962,28398.3
11969.2,28404.8
11975.7,28412
11981.4,28419.7
11986.4,28428
11990.5,28436.7
11993.8,28445.8
11996.1,28455.2
11997.6,28464.8
11998,28474.4
11998,28838.6
11997.6,28848.2
11996.1,28857.8
11993.8,28867.2
11990.5,28876.2
11986.4,28885
11981.4,28893.3
11975.7,28901
11969.2,28908.2
11962,28914.7
11954.3,28920.4
11946,28925.4
11937.3,28929.5
11928.2,28932.8
11918.8,28935.1
11909.3,28936.5
11899.6,28937
11053.1,28937
11043.5,28936.5
11033.9,28935.1
11024.6,28932.8
11015.5,28929.5
11006.8,28925.4
10998.5,28920.4
10990.7,28914.7
10983.6,28908.2
10977.1,28901
10971.3,28893.3
10966.3,28885
10962.2,28876.2
10959,28867.2
10956.6,28857.8
10955.2,28848.2
10954.7,28838.6
10954.7,28474.4
10955.2,28464.8
10956.6,28455.2
10959,28445.8
10962.2,28436.7
10966.3,28428
10971.3,28419.7
10977.1,28412
10983.6,28404.8
10990.7,28398.3
10998.5,28392.6
11006.8,28387.6
11015.5,28383.5
11024.6,28380.2
11033.9,28377.9
11043.5,28376.5
11053.1,28376
11899.6,28376
Z" /> 
<path style="fill:#000000; fill-opacity:1.0; 
stroke:#000000; stroke-width:0; stroke-opacity:1; 
stroke-linecap:round; stroke-linejoin:round;fill-rule:evenodd;"
d="M 11909.3,27205.2
11918.8,27206.6
11928.2,27209
11937.3,27212.2
11946,27216.3
11954.3,27221.3
11962,27227.1
11969.2,27233.6
11975.7,27240.7
11981.4,27248.5
11986.4,27256.8
11990.5,27265.5
11993.8,27274.6
11996.1,27283.9
11997.6,27293.5
11998,27303.1
11998,27667.3
11997.6,27677
11996.1,27686.5
11993.8,27695.9
11990.5,27705
11986.4,27713.7
11981.4,27722
11975.7,27729.8
11969.2,27736.9
11962,27743.4
11954.3,27749.2
11946,27754.1
11937.3,27758.3
11928.2,27761.5
11918.8,27763.9
11909.3,27765.3
11899.6,27765.7
11053.1,27765.7
11043.5,27765.3
11033.9,27763.9
11024.6,27761.5
11015.5,27758.3
11006.8,27754.1
10998.5,27749.2
10990.7,27743.4
10983.6,27736.9
10977.1,27729.8
10971.3,27722
10966.3,27713.7
10962.2,27705
10959,27695.9
10956.6,27686.5
10955.2,27677
10954.7,27667.3
10954.7,27303.1
10955.2,27293.5
10956.6,27283.9
10959,27274.6
10962.2,27265.5
10966.3,27256.8
10971.3,27248.5
10977.1,27240.7
10983.6,27233.6
10990.7,27227.1
10998.5,27221.3
11006.8,27216.3
11015.5,27212.2
11024.6,27209
11033.9,27206.6
11043.5,27205.2
11053.1,27204.7
11899.6,27204.7
Z" /> 
</g>
<g >
</g>
<g >
</g>
<g >
</g>
<g >
</g>
<g >
</g>
<g >
</g>
<g >
</g>
<g >
</g>
<g >
</g>
<g >
</g>
<g >
</g>
<g >
</g>
<g >
</g>
<g >
</g>
<g >
</g>
<g style="fill:#000000; fill-opacity:1.0; 
stroke:#000000; stroke-width:0; stroke-opacity:1; 
stroke-linecap:round; stroke-linejoin:round;">
<path style="fill:#000000; fill-opacity:1.0; 
stroke:#000000; stroke-width:0; stroke-opacity:1; 
stroke-linecap:round; stroke-linejoin:round;fill-rule:evenodd;"
d="M 45039.2,54636.3
45048.7,54637.7
45058.1,54640.1
45067.2,54643.3
45075.9,54647.4
45084.2,54652.4
45092,54658.2
45099.1,54664.7
45105.6,54671.8
45111.4,54679.6
45116.3,54687.9
45120.5,54696.6
45123.7,54705.7
45126.1,54715
45127.5,54724.6
45128,54734.3
45128,55098.4
45127.5,55108.1
45126.1,55117.6
45123.7,55127
45120.5,55136.1
45116.3,55144.8
45111.4,55153.1
45105.6,55160.9
45099.1,55168
45092,55174.5
45084.2,55180.3
45075.9,55185.2
45067.2,55189.4
45058.1,55192.6
45048.7,55195
45039.2,55196.4
45029.5,55196.9
44183.1,55196.9
44173.4,55196.4
44163.9,55195
44154.5,55192.6
44145.4,55189.4
44136.7,55185.2
44128.4,55180.3
44120.6,55174.5
44113.5,55168
44107,55160.9
44101.2,55153.1
44096.3,55144.8
44092.1,55136.1
44088.9,55127
44086.5,55117.6
44085.1,55108.1
44084.6,55098.4
44084.6,54734.3
44085.1,54724.6
44086.5,54715
44088.9,54705.7
44092.1,54696.6
44096.3,54687.9
44101.2,54679.6
44107,54671.8
44113.5,54664.7
44120.6,54658.2
44128.4,54652.4
44136.7,54647.4
44145.4,54643.3
44154.5,54640.1
44163.9,54637.7
44173.4,54636.3
44183.1,54635.8
45029.5,54635.8
Z" /> 
<path style="fill:#000000; fill-opacity:1.0; 
stroke:#000000; stroke-width:0; stroke-opacity:1; 
stroke-linecap:round; stroke-linejoin:round;fill-rule:evenodd;"
d="M 45039.2,53465
45048.7,53466.5
45058.1,53468.8
45067.2,53472.1
45075.9,53476.2
45084.2,53481.2
45092,53486.9
45099.1,53493.4
45105.6,53500.6
45111.4,53508.3
45116.3,53516.6
45120.5,53525.3
45123.7,53534.4
45126.1,53543.8
45127.5,53553.3
45128,53563
45128,53927.2
45127.5,53936.8
45126.1,53946.4
45123.7,53955.7
45120.5,53964.8
45116.3,53973.6
45111.4,53981.8
45105.6,53989.6
45099.1,53996.8
45092,54003.2
45084.2,54009
45075.9,54014
45067.2,54018.1
45058.1,54021.4
45048.7,54023.7
45039.2,54025.1
45029.5,54025.6
44183.1,54025.6
44173.4,54025.1
44163.9,54023.7
44154.5,54021.4
44145.4,54018.1
44136.7,54014
44128.4,54009
44120.6,54003.2
44113.5,53996.8
44107,53989.6
44101.2,53981.8
44096.3,53973.6
44092.1,53964.8
44088.9,53955.7
44086.5,53946.4
44085.1,53936.8
44084.6,53927.2
44084.6,53563
44085.1,53553.3
44086.5,53543.8
44088.9,53534.4
44092.1,53525.3
44096.3,53516.6
44101.2,53508.3
44107,53500.6
44113.5,53493.4
44120.6,53486.9
44128.4,53481.2
44136.7,53476.2
44145.4,53472.1
44154.5,53468.8
44163.9,53466.5
44173.4,53465
44183.1,53464.6
45029.5,53464.6
Z" /> 
</g>
<g >
</g>
<g style="fill:#000000; fill-opacity:1.0; 
stroke:#000000; stroke-width:0; stroke-opacity:1; 
stroke-linecap:round; stroke-linejoin:round;">
<path style="fill:#000000; fill-opacity:1.0; 
stroke:#000000; stroke-width:0; stroke-opacity:1; 
stroke-linecap:round; stroke-linejoin:round;fill-rule:evenodd;"
d="M 43031.3,54636.3
43040.9,54637.7
43050.2,54640.1
43059.3,54643.3
43068.1,54647.4
43076.3,54652.4
43084.1,54658.2
43091.3,54664.7
43097.7,54671.8
43103.5,54679.6
43108.5,54687.9
43112.6,54696.6
43115.8,54705.7
43118.2,54715
43119.6,54724.6
43120.1,54734.3
43120.1,55098.4
43119.6,55108.1
43118.2,55117.6
43115.8,55127
43112.6,55136.1
43108.5,55144.8
43103.5,55153.1
43097.7,55160.9
43091.3,55168
43084.1,55174.5
43076.3,55180.3
43068.1,55185.2
43059.3,55189.4
43050.2,55192.6
43040.9,55195
43031.3,55196.4
43021.7,55196.9
42175.2,55196.9
42165.5,55196.4
42156,55195
42146.6,55192.6
42137.5,55189.4
42128.8,55185.2
42120.5,55180.3
42112.8,55174.5
42105.6,55168
42099.1,55160.9
42093.4,55153.1
42088.4,55144.8
42084.3,55136.1
42081,55127
42078.7,55117.6
42077.2,55108.1
42076.8,55098.4
42076.8,54734.3
42077.2,54724.6
42078.7,54715
42081,54705.7
42084.3,54696.6
42088.4,54687.9
42093.4,54679.6
42099.1,54671.8
42105.6,54664.7
42112.8,54658.2
42120.5,54652.4
42128.8,54647.4
42137.5,54643.3
42146.6,54640.1
42156,54637.7
42165.5,54636.3
42175.2,54635.8
43021.7,54635.8
Z" /> 
<path style="fill:#000000; fill-opacity:1.0; 
stroke:#000000; stroke-width:0; stroke-opacity:1; 
stroke-linecap:round; stroke-linejoin:round;fill-rule:evenodd;"
d="M 43031.3,53465
43040.9,53466.5
43050.2,53468.8
43059.3,53472.1
43068.1,53476.2
43076.3,53481.2
43084.1,53486.9
43091.3,53493.4
43097.7,53500.6
43103.5,53508.3
43108.5,53516.6
43112.6,53525.3
43115.8,53534.4
43118.2,53543.8
43119.6,53553.3
43120.1,53563
43120.1,53927.2
43119.6,53936.8
43118.2,53946.4
43115.8,53955.7
43112.6,53964.8
43108.5,53973.6
43103.5,53981.8
43097.7,53989.6
43091.3,53996.8
43084.1,54003.2
43076.3,54009
43068.1,54014
43059.3,54018.1
43050.2,54021.4
43040.9,54023.7
43031.3,54025.1
43021.7,54025.6
42175.2,54025.6
42165.5,54025.1
42156,54023.7
42146.6,54021.4
42137.5,54018.1
42128.8,54014
42120.5,54009
42112.8,54003.2
42105.6,53996.8
42099.1,53989.6
42093.4,53981.8
42088.4,53973.6
42084.3,53964.8
42081,53955.7
42078.7,53946.4
42077.2,53936.8
42076.8,53927.2
42076.8,53563
42077.2,53553.3
42078.7,53543.8
42081,53534.4
42084.3,53525.3
42088.4,53516.6
42093.4,53508.3
42099.1,53500.6
42105.6,53493.4
42112.8,53486.9
42120.5,53481.2
42128.8,53476.2
42137.5,53472.1
42146.6,53468.8
42156,53466.5
42165.5,53465
42175.2,53464.6
43021.7,53464.6
Z" /> 
</g>
<g >
</g>
<g style="fill:#000000; fill-opacity:1.0; 
stroke:#000000; stroke-width:0; stroke-opacity:1; 
stroke-linecap:round; stroke-linejoin:round;">
<path style="fill:#000000; fill-opacity:1.0; 
stroke:#000000; stroke-width:0; stroke-opacity:1; 
stroke-linecap:round; stroke-linejoin:round;fill-rule:evenodd;"
d="M 41023.4,54636.3
41033,54637.7
41042.4,54640.1
41051.4,54643.3
41060.2,54647.4
41068.5,54652.4
41076.2,54658.2
41083.4,54664.7
41089.9,54671.8
41095.6,54679.6
41100.6,54687.9
41104.7,54696.6
41108,54705.7
41110.3,54715
41111.7,54724.6
41112.2,54734.3
41112.2,55098.4
41111.7,55108.1
41110.3,55117.6
41108,55127
41104.7,55136.1
41100.6,55144.8
41095.6,55153.1
41089.9,55160.9
41083.4,55168
41076.2,55174.5
41068.5,55180.3
41060.2,55185.2
41051.4,55189.4
41042.4,55192.6
41033,55195
41023.4,55196.4
41013.8,55196.9
40167.3,55196.9
40157.7,55196.4
40148.1,55195
40138.8,55192.6
40129.7,55189.4
40120.9,55185.2
40112.6,55180.3
40104.9,55174.5
40097.7,55168
40091.2,55160.9
40085.5,55153.1
40080.5,55144.8
40076.4,55136.1
40073.1,55127
40070.8,55117.6
40069.4,55108.1
40068.9,55098.4
40068.9,54734.3
40069.4,54724.6
40070.8,54715
40073.1,54705.7
40076.4,54696.6
40080.5,54687.9
40085.5,54679.6
40091.2,54671.8
40097.7,54664.7
40104.9,54658.2
40112.6,54652.4
40120.9,54647.4
40129.7,54643.3
40138.8,54640.1
40148.1,54637.7
40157.7,54636.3
40167.3,54635.8
41013.8,54635.8
Z" /> 
<path style="fill:#000000; fill-opacity:1.0; 
stroke:#000000; stroke-width:0; stroke-opacity:1; 
stroke-linecap:round; stroke-linejoin:round;fill-rule:evenodd;"
d="M 41023.4,53465
41033,53466.5
41042.4,53468.8
41051.4,53472.1
41060.2,53476.2
41068.5,53481.2
41076.2,53486.9
41083.4,53493.4
41089.9,53500.6
41095.6,53508.3
41100.6,53516.6
41104.7,53525.3
41108,53534.4
41110.3,53543.8
41111.7,53553.3
41112.2,53563
41112.2,53927.2
41111.7,53936.8
41110.3,53946.4
41108,53955.7
41104.7,53964.8
41100.6,53973.6
41095.6,53981.8
41089.9,53989.6
41083.4,53996.8
41076.2,54003.2
41068.5,54009
41060.2,54014
41051.4,54018.1
41042.4,54021.4
41033,54023.7
41023.4,54025.1
41013.8,54025.6
40167.3,54025.6
40157.7,54025.1
40148.1,54023.7
40138.8,54021.4
40129.7,54018.1
40120.9,54014
40112.6,54009
40104.9,54003.2
40097.7,53996.8
40091.2,53989.6
40085.5,53981.8
40080.5,53973.6
40076.4,53964.8
40073.1,53955.7
40070.8,53946.4
40069.4,53936.8
40068.9,53927.2
40068.9,53563
40069.4,53553.3
40070.8,53543.8
40073.1,53534.4
40076.4,53525.3
40080.5,53516.6
40085.5,53508.3
40091.2,53500.6
40097.7,53493.4
40104.9,53486.9
40112.6,53481.2
40120.9,53476.2
40129.7,53472.1
40138.8,53468.8
40148.1,53466.5
40157.7,53465
40167.3,53464.6
41013.8,53464.6
Z" /> 
</g>
<g >
</g>
<g >
</g>
<g >
</g>
<g >
</g>
<g >
</g>
<g >
</g>
<g >
</g>
<g >
</g>
<g >
</g>
<g >
</g>
<g >
</g>
<g >
</g>
<g >
</g>
<g >
</g>
<g >
</g>
<g >
</g>
<g >
</g>
<g >
</g>
<g >
</g>
<g >
</g>
<g >
</g>
<g >
</g>
<g >
</g>
<g >
</g>
<g >
</g>
<g >
</g>
<g >
</g>
<g >
</g>
<g >
</g>
<g >
</g>
<g >
</g>
<g >
</g>
<g >
</g>
<g >
</g>
<g >
</g>
<g >
</g>
<g >
</g>
</g> 
</svg>
