<?xml version="1.0" standalone="no"?>
 <!DOCTYPE svg PUBLIC "-//W3C//DTD SVG 1.1//EN" 
 "http://www.w3.org/Graphics/SVG/1.1/DTD/svg11.dtd"> 
<svg xmlns="http://www.w3.org/2000/svg" version="1.1" 
    width="22.9997cm" height="21.9989cm" viewBox="0 0 90550 86610 ">
<title>SVG Picture created as motherboard-B_Paste.svg date 2020/11/10 10:06:40 </title>
  <desc>Picture generated by PCBNEW </desc>
<g style="fill:#000000; fill-opacity:1;stroke:#000000; stroke-opacity:1;
stroke-linecap:round; stroke-linejoin:round; "
 transform="translate(0 0) scale(1 1)">
</g>
<g style="fill:#000000; fill-opacity:0.0; 
stroke:#000000; stroke-width:-0.000393701; stroke-opacity:1; 
stroke-linecap:round; stroke-linejoin:round;">
<g >
</g>
<g >
</g>
<g >
</g>
<g >
</g>
<g >
</g>
<g >
</g>
<g >
</g>
<g >
</g>
<g >
</g>
<g style="fill:#000000; fill-opacity:0.0; 
stroke:#000000; stroke-width:-0.000393701; stroke-opacity:1; 
stroke-linecap:round; stroke-linejoin:round;">
</g>
<g style="fill:#000000; fill-opacity:0.0; 
stroke:#000000; stroke-width:0; stroke-opacity:1; 
stroke-linecap:round; stroke-linejoin:round;">
</g>
<g style="fill:#000000; fill-opacity:1.0; 
stroke:#000000; stroke-width:0; stroke-opacity:1; 
stroke-linecap:round; stroke-linejoin:round;">
<path style="fill:#000000; fill-opacity:1.0; 
stroke:#000000; stroke-width:0; stroke-opacity:1; 
stroke-linecap:round; stroke-linejoin:round;fill-rule:evenodd;"
d="M 11978.2,27707.2
11987.7,27708.6
11997.1,27710.9
12006.2,27714.2
12014.9,27718.3
12023.2,27723.3
12030.9,27729
12038.1,27735.5
12044.6,27742.7
12050.3,27750.4
12055.3,27758.7
12059.4,27767.5
12062.7,27776.5
12065,27785.9
12066.5,27795.5
12066.9,27805.1
12066.9,28651.6
12066.5,28661.2
12065,28670.8
12062.7,28680.1
12059.4,28689.2
12055.3,28698
12050.3,28706.3
12044.6,28714
12038.1,28721.2
12030.9,28727.7
12023.2,28733.4
12014.9,28738.4
12006.2,28742.5
11997.1,28745.8
11987.7,28748.1
11978.2,28749.5
11968.5,28750
11604.3,28750
11594.7,28749.5
11585.1,28748.1
11575.8,28745.8
11566.7,28742.5
11557.9,28738.4
11549.6,28733.4
11541.9,28727.7
11534.7,28721.2
11528.2,28714
11522.5,28706.3
11517.5,28698
11513.4,28689.2
11510.1,28680.1
11507.8,28670.8
11506.4,28661.2
11505.9,28651.6
11505.9,27805.1
11506.4,27795.5
11507.8,27785.9
11510.1,27776.5
11513.4,27767.5
11517.5,27758.7
11522.5,27750.4
11528.2,27742.7
11534.7,27735.5
11541.9,27729
11549.6,27723.3
11557.9,27718.3
11566.7,27714.2
11575.8,27710.9
11585.1,27708.6
11594.7,27707.2
11604.3,27706.7
11968.5,27706.7
Z" /> 
<path style="fill:#000000; fill-opacity:1.0; 
stroke:#000000; stroke-width:0; stroke-opacity:1; 
stroke-linecap:round; stroke-linejoin:round;fill-rule:evenodd;"
d="M 10806.9,27707.2
10816.4,27708.6
10825.8,27710.9
10834.9,27714.2
10843.6,27718.3
10851.9,27723.3
10859.7,27729
10866.8,27735.5
10873.3,27742.7
10879.1,27750.4
10884,27758.7
10888.2,27767.5
10891.4,27776.5
10893.8,27785.9
10895.2,27795.5
10895.7,27805.1
10895.7,28651.6
10895.2,28661.2
10893.8,28670.8
10891.4,28680.1
10888.2,28689.2
10884,28698
10879.1,28706.3
10873.3,28714
10866.8,28721.2
10859.7,28727.7
10851.9,28733.4
10843.6,28738.4
10834.9,28742.5
10825.8,28745.8
10816.4,28748.1
10806.9,28749.5
10797.2,28750
10433.1,28750
10423.4,28749.5
10413.9,28748.1
10404.5,28745.8
10395.4,28742.5
10386.7,28738.4
10378.4,28733.4
10370.6,28727.7
10363.5,28721.2
10357,28714
10351.2,28706.3
10346.3,28698
10342.1,28689.2
10338.9,28680.1
10336.5,28670.8
10335.1,28661.2
10334.6,28651.6
10334.6,27805.1
10335.1,27795.5
10336.5,27785.9
10338.9,27776.5
10342.1,27767.5
10346.3,27758.7
10351.2,27750.4
10357,27742.7
10363.5,27735.5
10370.6,27729
10378.4,27723.3
10386.7,27718.3
10395.4,27714.2
10404.5,27710.9
10413.9,27708.6
10423.4,27707.2
10433.1,27706.7
10797.2,27706.7
Z" /> 
</g>
<g >
</g>
<g style="fill:#000000; fill-opacity:1.0; 
stroke:#000000; stroke-width:0; stroke-opacity:1; 
stroke-linecap:round; stroke-linejoin:round;">
<path style="fill:#000000; fill-opacity:1.0; 
stroke:#000000; stroke-width:0; stroke-opacity:1; 
stroke-linecap:round; stroke-linejoin:round;fill-rule:evenodd;"
d="M 11958.5,33356.8
11968,33358.2
11977.4,33360.5
11986.5,33363.8
11995.2,33367.9
12003.5,33372.9
12011.3,33378.6
12018.4,33385.1
12024.9,33392.3
12030.7,33400
12035.6,33408.3
12039.8,33417.1
12043,33426.2
12045.4,33435.5
12046.8,33445.1
12047.2,33454.7
12047.2,34301.2
12046.8,34310.8
12045.4,34320.4
12043,34329.8
12039.8,34338.8
12035.6,34347.6
12030.7,34355.9
12024.9,34363.6
12018.4,34370.8
12011.3,34377.3
12003.5,34383
11995.2,34388
11986.5,34392.1
11977.4,34395.4
11968,34397.7
11958.5,34399.1
11948.8,34399.6
11584.6,34399.6
11575,34399.1
11565.4,34397.7
11556.1,34395.4
11547,34392.1
11538.2,34388
11530,34383
11522.2,34377.3
11515,34370.8
11508.6,34363.6
11502.8,34355.9
11497.8,34347.6
11493.7,34338.8
11490.5,34329.8
11488.1,34320.4
11486.7,34310.8
11486.2,34301.2
11486.2,33454.7
11486.7,33445.1
11488.1,33435.5
11490.5,33426.2
11493.7,33417.1
11497.8,33408.3
11502.8,33400
11508.6,33392.3
11515,33385.1
11522.2,33378.6
11530,33372.9
11538.2,33367.9
11547,33363.8
11556.1,33360.5
11565.4,33358.2
11575,33356.8
11584.6,33356.3
11948.8,33356.3
Z" /> 
<path style="fill:#000000; fill-opacity:1.0; 
stroke:#000000; stroke-width:0; stroke-opacity:1; 
stroke-linecap:round; stroke-linejoin:round;fill-rule:evenodd;"
d="M 10787.2,33356.8
10796.8,33358.2
10806.1,33360.5
10815.2,33363.8
10824,33367.9
10832.2,33372.9
10840,33378.6
10847.2,33385.1
10853.6,33392.3
10859.4,33400
10864.4,33408.3
10868.5,33417.1
10871.7,33426.2
10874.1,33435.5
10875.5,33445.1
10876,33454.7
10876,34301.2
10875.5,34310.8
10874.1,34320.4
10871.7,34329.8
10868.5,34338.8
10864.4,34347.6
10859.4,34355.9
10853.6,34363.6
10847.2,34370.8
10840,34377.3
10832.2,34383
10824,34388
10815.2,34392.1
10806.1,34395.4
10796.8,34397.7
10787.2,34399.1
10777.6,34399.6
10413.4,34399.6
10403.7,34399.1
10394.2,34397.7
10384.8,34395.4
10375.7,34392.1
10367,34388
10358.7,34383
10350.9,34377.3
10343.8,34370.8
10337.3,34363.6
10331.5,34355.9
10326.6,34347.6
10322.5,34338.8
10319.2,34329.8
10316.9,34320.4
10315.4,34310.8
10315,34301.2
10315,33454.7
10315.4,33445.1
10316.9,33435.5
10319.2,33426.2
10322.5,33417.1
10326.6,33408.3
10331.5,33400
10337.3,33392.3
10343.8,33385.1
10350.9,33378.6
10358.7,33372.9
10367,33367.9
10375.7,33363.8
10384.8,33360.5
10394.2,33358.2
10403.7,33356.8
10413.4,33356.3
10777.6,33356.3
Z" /> 
</g>
<g >
</g>
<g style="fill:#000000; fill-opacity:1.0; 
stroke:#000000; stroke-width:0; stroke-opacity:1; 
stroke-linecap:round; stroke-linejoin:round;">
<path style="fill:#000000; fill-opacity:1.0; 
stroke:#000000; stroke-width:0; stroke-opacity:1; 
stroke-linecap:round; stroke-linejoin:round;fill-rule:evenodd;"
d="M 11958.5,31486.7
11968,31488.1
11977.4,31490.5
11986.5,31493.7
11995.2,31497.8
12003.5,31502.8
12011.3,31508.6
12018.4,31515
12024.9,31522.2
12030.7,31530
12035.6,31538.2
12039.8,31547
12043,31556.1
12045.4,31565.4
12046.8,31575
12047.2,31584.6
12047.2,32431.1
12046.8,32440.7
12045.4,32450.3
12043,32459.7
12039.8,32468.8
12035.6,32477.5
12030.7,32485.8
12024.9,32493.5
12018.4,32500.7
12011.3,32507.2
12003.5,32512.9
11995.2,32517.9
11986.5,32522
11977.4,32525.3
11968,32527.6
11958.5,32529.1
11948.8,32529.5
11584.6,32529.5
11575,32529.1
11565.4,32527.6
11556.1,32525.3
11547,32522
11538.2,32517.9
11530,32512.9
11522.2,32507.2
11515,32500.7
11508.6,32493.5
11502.8,32485.8
11497.8,32477.5
11493.7,32468.8
11490.5,32459.7
11488.1,32450.3
11486.7,32440.7
11486.2,32431.1
11486.2,31584.6
11486.7,31575
11488.1,31565.4
11490.5,31556.1
11493.7,31547
11497.8,31538.2
11502.8,31530
11508.6,31522.2
11515,31515
11522.2,31508.6
11530,31502.8
11538.2,31497.8
11547,31493.7
11556.1,31490.5
11565.4,31488.1
11575,31486.7
11584.6,31486.2
11948.8,31486.2
Z" /> 
<path style="fill:#000000; fill-opacity:1.0; 
stroke:#000000; stroke-width:0; stroke-opacity:1; 
stroke-linecap:round; stroke-linejoin:round;fill-rule:evenodd;"
d="M 10787.2,31486.7
10796.8,31488.1
10806.1,31490.5
10815.2,31493.7
10824,31497.8
10832.2,31502.8
10840,31508.6
10847.2,31515
10853.6,31522.2
10859.4,31530
10864.4,31538.2
10868.5,31547
10871.7,31556.1
10874.1,31565.4
10875.5,31575
10876,31584.6
10876,32431.1
10875.5,32440.7
10874.1,32450.3
10871.7,32459.7
10868.5,32468.8
10864.4,32477.5
10859.4,32485.8
10853.6,32493.5
10847.2,32500.7
10840,32507.2
10832.2,32512.9
10824,32517.9
10815.2,32522
10806.1,32525.3
10796.8,32527.6
10787.2,32529.1
10777.6,32529.5
10413.4,32529.5
10403.7,32529.1
10394.2,32527.6
10384.8,32525.3
10375.7,32522
10367,32517.9
10358.7,32512.9
10350.9,32507.2
10343.8,32500.7
10337.3,32493.5
10331.5,32485.8
10326.6,32477.5
10322.5,32468.8
10319.2,32459.7
10316.9,32450.3
10315.4,32440.7
10315,32431.1
10315,31584.6
10315.4,31575
10316.9,31565.4
10319.2,31556.1
10322.5,31547
10326.6,31538.2
10331.5,31530
10337.3,31522.2
10343.8,31515
10350.9,31508.6
10358.7,31502.8
10367,31497.8
10375.7,31493.7
10384.8,31490.5
10394.2,31488.1
10403.7,31486.7
10413.4,31486.2
10777.6,31486.2
Z" /> 
</g>
<g >
</g>
<g >
</g>
<g >
</g>
<g style="fill:#000000; fill-opacity:1.0; 
stroke:#000000; stroke-width:0; stroke-opacity:1; 
stroke-linecap:round; stroke-linejoin:round;">
<path style="fill:#000000; fill-opacity:1.0; 
stroke:#000000; stroke-width:0; stroke-opacity:1; 
stroke-linecap:round; stroke-linejoin:round;fill-rule:evenodd;"
d="M 11978.2,29596.9
11987.7,29598.3
11997.1,29600.7
12006.2,29603.9
12014.9,29608.1
12023.2,29613
12030.9,29618.8
12038.1,29625.3
12044.6,29632.4
12050.3,29640.2
12055.3,29648.5
12059.4,29657.2
12062.7,29666.3
12065,29675.7
12066.5,29685.2
12066.9,29694.9
12066.9,30541.3
12066.5,30551
12065,30560.5
12062.7,30569.9
12059.4,30579
12055.3,30587.7
12050.3,30596
12044.6,30603.8
12038.1,30610.9
12030.9,30617.4
12023.2,30623.2
12014.9,30628.1
12006.2,30632.3
11997.1,30635.5
11987.7,30637.9
11978.2,30639.3
11968.5,30639.8
11604.3,30639.8
11594.7,30639.3
11585.1,30637.9
11575.8,30635.5
11566.7,30632.3
11557.9,30628.1
11549.6,30623.2
11541.9,30617.4
11534.7,30610.9
11528.2,30603.8
11522.5,30596
11517.5,30587.7
11513.4,30579
11510.1,30569.9
11507.8,30560.5
11506.4,30551
11505.9,30541.3
11505.9,29694.9
11506.4,29685.2
11507.8,29675.7
11510.1,29666.3
11513.4,29657.2
11517.5,29648.5
11522.5,29640.2
11528.2,29632.4
11534.7,29625.3
11541.9,29618.8
11549.6,29613
11557.9,29608.1
11566.7,29603.9
11575.8,29600.7
11585.1,29598.3
11594.7,29596.9
11604.3,29596.5
11968.5,29596.5
Z" /> 
<path style="fill:#000000; fill-opacity:1.0; 
stroke:#000000; stroke-width:0; stroke-opacity:1; 
stroke-linecap:round; stroke-linejoin:round;fill-rule:evenodd;"
d="M 10806.9,29596.9
10816.4,29598.3
10825.8,29600.7
10834.9,29603.9
10843.6,29608.1
10851.9,29613
10859.7,29618.8
10866.8,29625.3
10873.3,29632.4
10879.1,29640.2
10884,29648.5
10888.2,29657.2
10891.4,29666.3
10893.8,29675.7
10895.2,29685.2
10895.7,29694.9
10895.7,30541.3
10895.2,30551
10893.8,30560.5
10891.4,30569.9
10888.2,30579
10884,30587.7
10879.1,30596
10873.3,30603.8
10866.8,30610.9
10859.7,30617.4
10851.9,30623.2
10843.6,30628.1
10834.9,30632.3
10825.8,30635.5
10816.4,30637.9
10806.9,30639.3
10797.2,30639.8
10433.1,30639.8
10423.4,30639.3
10413.9,30637.9
10404.5,30635.5
10395.4,30632.3
10386.7,30628.1
10378.4,30623.2
10370.6,30617.4
10363.5,30610.9
10357,30603.8
10351.2,30596
10346.3,30587.7
10342.1,30579
10338.9,30569.9
10336.5,30560.5
10335.1,30551
10334.6,30541.3
10334.6,29694.9
10335.1,29685.2
10336.5,29675.7
10338.9,29666.3
10342.1,29657.2
10346.3,29648.5
10351.2,29640.2
10357,29632.4
10363.5,29625.3
10370.6,29618.8
10378.4,29613
10386.7,29608.1
10395.4,29603.9
10404.5,29600.7
10413.9,29598.3
10423.4,29596.9
10433.1,29596.5
10797.2,29596.5
Z" /> 
</g>
<g >
</g>
<g style="fill:#000000; fill-opacity:1.0; 
stroke:#000000; stroke-width:0; stroke-opacity:1; 
stroke-linecap:round; stroke-linejoin:round;">
<path style="fill:#000000; fill-opacity:1.0; 
stroke:#000000; stroke-width:0; stroke-opacity:1; 
stroke-linecap:round; stroke-linejoin:round;fill-rule:evenodd;"
d="M 18503.7,39636.3
18513.3,39637.7
18522.7,39640.1
18531.8,39643.3
18540.5,39647.4
18548.8,39652.4
18556.5,39658.2
18563.7,39664.7
18570.2,39671.8
18575.9,39679.6
18580.9,39687.9
18585,39696.6
18588.3,39705.7
18590.6,39715.1
18592,39724.6
18592.5,39734.3
18592.5,40580.7
18592,40590.4
18590.6,40599.9
18588.3,40609.3
18585,40618.4
18580.9,40627.1
18575.9,40635.4
18570.2,40643.1
18563.7,40650.3
18556.5,40656.8
18548.8,40662.5
18540.5,40667.5
18531.8,40671.6
18522.7,40674.9
18513.3,40677.2
18503.7,40678.7
18494.1,40679.1
18129.9,40679.1
18120.3,40678.7
18110.7,40677.2
18101.3,40674.9
18092.3,40671.6
18083.5,40667.5
18075.2,40662.5
18067.5,40656.8
18060.3,40650.3
18053.8,40643.1
18048.1,40635.4
18043.1,40627.1
18039,40618.4
18035.7,40609.3
18033.4,40599.9
18032,40590.4
18031.5,40580.7
18031.5,39734.3
18032,39724.6
18033.4,39715.1
18035.7,39705.7
18039,39696.6
18043.1,39687.9
18048.1,39679.6
18053.8,39671.8
18060.3,39664.7
18067.5,39658.2
18075.2,39652.4
18083.5,39647.4
18092.3,39643.3
18101.3,39640.1
18110.7,39637.7
18120.3,39636.3
18129.9,39635.8
18494.1,39635.8
Z" /> 
<path style="fill:#000000; fill-opacity:1.0; 
stroke:#000000; stroke-width:0; stroke-opacity:1; 
stroke-linecap:round; stroke-linejoin:round;fill-rule:evenodd;"
d="M 19675,39636.3
19684.6,39637.7
19693.9,39640.1
19703,39643.3
19711.8,39647.4
19720,39652.4
19727.8,39658.2
19735,39664.7
19741.4,39671.8
19747.2,39679.6
19752.2,39687.9
19756.3,39696.6
19759.5,39705.7
19761.9,39715.1
19763.3,39724.6
19763.8,39734.3
19763.8,40580.7
19763.3,40590.4
19761.9,40599.9
19759.5,40609.3
19756.3,40618.4
19752.2,40627.1
19747.2,40635.4
19741.4,40643.1
19735,40650.3
19727.8,40656.8
19720,40662.5
19711.8,40667.5
19703,40671.6
19693.9,40674.9
19684.6,40677.2
19675,40678.7
19665.4,40679.1
19301.2,40679.1
19291.5,40678.7
19282,40677.2
19272.6,40674.9
19263.5,40671.6
19254.8,40667.5
19246.5,40662.5
19238.7,40656.8
19231.6,40650.3
19225.1,40643.1
19219.3,40635.4
19214.4,40627.1
19210.2,40618.4
19207,40609.3
19204.6,40599.9
19203.2,40590.4
19202.8,40580.7
19202.8,39734.3
19203.2,39724.6
19204.6,39715.1
19207,39705.7
19210.2,39696.6
19214.4,39687.9
19219.3,39679.6
19225.1,39671.8
19231.6,39664.7
19238.7,39658.2
19246.5,39652.4
19254.8,39647.4
19263.5,39643.3
19272.6,39640.1
19282,39637.7
19291.5,39636.3
19301.2,39635.8
19665.4,39635.8
Z" /> 
</g>
<g >
</g>
<g style="fill:#000000; fill-opacity:1.0; 
stroke:#000000; stroke-width:0; stroke-opacity:1; 
stroke-linecap:round; stroke-linejoin:round;">
<path style="fill:#000000; fill-opacity:1.0; 
stroke:#000000; stroke-width:0; stroke-opacity:1; 
stroke-linecap:round; stroke-linejoin:round;fill-rule:evenodd;"
d="M 19675,41900.1
19684.6,41901.5
19693.9,41903.8
19703,41907.1
19711.8,41911.2
19720,41916.2
19727.8,41921.9
19735,41928.4
19741.4,41935.6
19747.2,41943.3
19752.2,41951.6
19756.3,41960.4
19759.5,41969.5
19761.9,41978.8
19763.3,41988.4
19763.8,41998
19763.8,42844.5
19763.3,42854.1
19761.9,42863.7
19759.5,42873.1
19756.3,42882.2
19752.2,42890.9
19747.2,42899.2
19741.4,42906.9
19735,42914.1
19727.8,42920.6
19720,42926.3
19711.8,42931.3
19703,42935.4
19693.9,42938.7
19684.6,42941
19675,42942.4
19665.4,42942.9
19301.2,42942.9
19291.5,42942.4
19282,42941
19272.6,42938.7
19263.5,42935.4
19254.8,42931.3
19246.5,42926.3
19238.7,42920.6
19231.6,42914.1
19225.1,42906.9
19219.3,42899.2
19214.4,42890.9
19210.2,42882.2
19207,42873.1
19204.6,42863.7
19203.2,42854.1
19202.8,42844.5
19202.8,41998
19203.2,41988.4
19204.6,41978.8
19207,41969.5
19210.2,41960.4
19214.4,41951.6
19219.3,41943.3
19225.1,41935.6
19231.6,41928.4
19238.7,41921.9
19246.5,41916.2
19254.8,41911.2
19263.5,41907.1
19272.6,41903.8
19282,41901.5
19291.5,41900.1
19301.2,41899.6
19665.4,41899.6
Z" /> 
<path style="fill:#000000; fill-opacity:1.0; 
stroke:#000000; stroke-width:0; stroke-opacity:1; 
stroke-linecap:round; stroke-linejoin:round;fill-rule:evenodd;"
d="M 18503.7,41900.1
18513.3,41901.5
18522.7,41903.8
18531.8,41907.1
18540.5,41911.2
18548.8,41916.2
18556.5,41921.9
18563.7,41928.4
18570.2,41935.6
18575.9,41943.3
18580.9,41951.6
18585,41960.4
18588.3,41969.5
18590.6,41978.8
18592,41988.4
18592.5,41998
18592.5,42844.5
18592,42854.1
18590.6,42863.7
18588.3,42873.1
18585,42882.2
18580.9,42890.9
18575.9,42899.2
18570.2,42906.9
18563.7,42914.1
18556.5,42920.6
18548.8,42926.3
18540.5,42931.3
18531.8,42935.4
18522.7,42938.7
18513.3,42941
18503.7,42942.4
18494.1,42942.9
18129.9,42942.9
18120.3,42942.4
18110.7,42941
18101.3,42938.7
18092.3,42935.4
18083.5,42931.3
18075.2,42926.3
18067.5,42920.6
18060.3,42914.1
18053.8,42906.9
18048.1,42899.2
18043.1,42890.9
18039,42882.2
18035.7,42873.1
18033.4,42863.7
18032,42854.1
18031.5,42844.5
18031.5,41998
18032,41988.4
18033.4,41978.8
18035.7,41969.5
18039,41960.4
18043.1,41951.6
18048.1,41943.3
18053.8,41935.6
18060.3,41928.4
18067.5,41921.9
18075.2,41916.2
18083.5,41911.2
18092.3,41907.1
18101.3,41903.8
18110.7,41901.5
18120.3,41900.1
18129.9,41899.6
18494.1,41899.6
Z" /> 
</g>
<g >
</g>
<g >
</g>
<g style="fill:#000000; fill-opacity:1.0; 
stroke:#000000; stroke-width:0; stroke-opacity:1; 
stroke-linecap:round; stroke-linejoin:round;">
<path style="fill:#000000; fill-opacity:1.0; 
stroke:#000000; stroke-width:0; stroke-opacity:1; 
stroke-linecap:round; stroke-linejoin:round;fill-rule:evenodd;"
d="M 22135.6,41900.1
22145.2,41901.5
22154.6,41903.8
22163.7,41907.1
22172.4,41911.2
22180.7,41916.2
22188.4,41921.9
22195.6,41928.4
22202.1,41935.6
22207.8,41943.3
22212.8,41951.6
22216.9,41960.4
22220.2,41969.5
22222.5,41978.8
22223.9,41988.4
22224.4,41998
22224.4,42844.5
22223.9,42854.1
22222.5,42863.7
22220.2,42873.1
22216.9,42882.2
22212.8,42890.9
22207.8,42899.2
22202.1,42906.9
22195.6,42914.1
22188.4,42920.6
22180.7,42926.3
22172.4,42931.3
22163.7,42935.4
22154.6,42938.7
22145.2,42941
22135.6,42942.4
22126,42942.9
21761.8,42942.9
21752.2,42942.4
21742.6,42941
21733.2,42938.7
21724.1,42935.4
21715.4,42931.3
21707.1,42926.3
21699.4,42920.6
21692.2,42914.1
21685.7,42906.9
21680,42899.2
21675,42890.9
21670.9,42882.2
21667.6,42873.1
21665.3,42863.7
21663.9,42854.1
21663.4,42844.5
21663.4,41998
21663.9,41988.4
21665.3,41978.8
21667.6,41969.5
21670.9,41960.4
21675,41951.6
21680,41943.3
21685.7,41935.6
21692.2,41928.4
21699.4,41921.9
21707.1,41916.2
21715.4,41911.2
21724.1,41907.1
21733.2,41903.8
21742.6,41901.5
21752.2,41900.1
21761.8,41899.6
22126,41899.6
Z" /> 
<path style="fill:#000000; fill-opacity:1.0; 
stroke:#000000; stroke-width:0; stroke-opacity:1; 
stroke-linecap:round; stroke-linejoin:round;fill-rule:evenodd;"
d="M 20964.4,41900.1
20973.9,41901.5
20983.3,41903.8
20992.4,41907.1
21001.1,41911.2
21009.4,41916.2
21017.2,41921.9
21024.3,41928.4
21030.8,41935.6
21036.6,41943.3
21041.5,41951.6
21045.7,41960.4
21048.9,41969.5
21051.3,41978.8
21052.7,41988.4
21053.1,41998
21053.1,42844.5
21052.7,42854.1
21051.3,42863.7
21048.9,42873.1
21045.7,42882.2
21041.5,42890.9
21036.6,42899.2
21030.8,42906.9
21024.3,42914.1
21017.2,42920.6
21009.4,42926.3
21001.1,42931.3
20992.4,42935.4
20983.3,42938.7
20973.9,42941
20964.4,42942.4
20954.7,42942.9
20590.6,42942.9
20580.9,42942.4
20571.3,42941
20562,42938.7
20552.9,42935.4
20544.2,42931.3
20535.9,42926.3
20528.1,42920.6
20521,42914.1
20514.5,42906.9
20508.7,42899.2
20503.7,42890.9
20499.6,42882.2
20496.4,42873.1
20494,42863.7
20492.6,42854.1
20492.1,42844.5
20492.1,41998
20492.6,41988.4
20494,41978.8
20496.4,41969.5
20499.6,41960.4
20503.7,41951.6
20508.7,41943.3
20514.5,41935.6
20521,41928.4
20528.1,41921.9
20535.9,41916.2
20544.2,41911.2
20552.9,41907.1
20562,41903.8
20571.3,41901.5
20580.9,41900.1
20590.6,41899.6
20954.7,41899.6
Z" /> 
</g>
<g >
</g>
<g style="fill:#000000; fill-opacity:1.0; 
stroke:#000000; stroke-width:0; stroke-opacity:1; 
stroke-linecap:round; stroke-linejoin:round;">
<path style="fill:#000000; fill-opacity:1.0; 
stroke:#000000; stroke-width:0; stroke-opacity:1; 
stroke-linecap:round; stroke-linejoin:round;fill-rule:evenodd;"
d="M 22135.6,39636.3
22145.2,39637.7
22154.6,39640.1
22163.7,39643.3
22172.4,39647.4
22180.7,39652.4
22188.4,39658.2
22195.6,39664.7
22202.1,39671.8
22207.8,39679.6
22212.8,39687.9
22216.9,39696.6
22220.2,39705.7
22222.5,39715.1
22223.9,39724.6
22224.4,39734.3
22224.4,40580.7
22223.9,40590.4
22222.5,40599.9
22220.2,40609.3
22216.9,40618.4
22212.8,40627.1
22207.8,40635.4
22202.1,40643.1
22195.6,40650.3
22188.4,40656.8
22180.7,40662.5
22172.4,40667.5
22163.7,40671.6
22154.6,40674.9
22145.2,40677.2
22135.6,40678.7
22126,40679.1
21761.8,40679.1
21752.2,40678.7
21742.6,40677.2
21733.2,40674.9
21724.1,40671.6
21715.4,40667.5
21707.1,40662.5
21699.4,40656.8
21692.2,40650.3
21685.7,40643.1
21680,40635.4
21675,40627.1
21670.9,40618.4
21667.6,40609.3
21665.3,40599.9
21663.9,40590.4
21663.4,40580.7
21663.4,39734.3
21663.9,39724.6
21665.3,39715.1
21667.6,39705.7
21670.9,39696.6
21675,39687.9
21680,39679.6
21685.7,39671.8
21692.2,39664.7
21699.4,39658.2
21707.1,39652.4
21715.4,39647.4
21724.1,39643.3
21733.2,39640.1
21742.6,39637.7
21752.2,39636.3
21761.8,39635.8
22126,39635.8
Z" /> 
<path style="fill:#000000; fill-opacity:1.0; 
stroke:#000000; stroke-width:0; stroke-opacity:1; 
stroke-linecap:round; stroke-linejoin:round;fill-rule:evenodd;"
d="M 20964.4,39636.3
20973.9,39637.7
20983.3,39640.1
20992.4,39643.3
21001.1,39647.4
21009.4,39652.4
21017.2,39658.2
21024.3,39664.7
21030.8,39671.8
21036.6,39679.6
21041.5,39687.9
21045.7,39696.6
21048.9,39705.7
21051.3,39715.1
21052.7,39724.6
21053.1,39734.3
21053.1,40580.7
21052.7,40590.4
21051.3,40599.9
21048.9,40609.3
21045.7,40618.4
21041.5,40627.1
21036.6,40635.4
21030.8,40643.1
21024.3,40650.3
21017.2,40656.8
21009.4,40662.5
21001.1,40667.5
20992.4,40671.6
20983.3,40674.9
20973.9,40677.2
20964.4,40678.7
20954.7,40679.1
20590.6,40679.1
20580.9,40678.7
20571.3,40677.2
20562,40674.9
20552.9,40671.6
20544.2,40667.5
20535.9,40662.5
20528.1,40656.8
20521,40650.3
20514.5,40643.1
20508.7,40635.4
20503.7,40627.1
20499.6,40618.4
20496.4,40609.3
20494,40599.9
20492.6,40590.4
20492.1,40580.7
20492.1,39734.3
20492.6,39724.6
20494,39715.1
20496.4,39705.7
20499.6,39696.6
20503.7,39687.9
20508.7,39679.6
20514.5,39671.8
20521,39664.7
20528.1,39658.2
20535.9,39652.4
20544.2,39647.4
20552.9,39643.3
20562,39640.1
20571.3,39637.7
20580.9,39636.3
20590.6,39635.8
20954.7,39635.8
Z" /> 
</g>
<g >
</g>
<g >
</g>
<g >
</g>
<g >
</g>
<g >
</g>
<g >
</g>
<g >
</g>
<g >
</g>
<g >
</g>
<g >
</g>
<g >
</g>
<g style="fill:#000000; fill-opacity:1.0; 
stroke:#000000; stroke-width:0; stroke-opacity:1; 
stroke-linecap:round; stroke-linejoin:round;">
<path style="fill:#000000; fill-opacity:1.0; 
stroke:#000000; stroke-width:0; stroke-opacity:1; 
stroke-linecap:round; stroke-linejoin:round;fill-rule:evenodd;"
d="M 70275.6,14232.3
70275.6,15059.1
69724.4,15059.1
69724.4,14232.3
Z" /> 
<path style="fill:#000000; fill-opacity:1.0; 
stroke:#000000; stroke-width:0; stroke-opacity:1; 
stroke-linecap:round; stroke-linejoin:round;fill-rule:evenodd;"
d="M 72007.9,14232.3
72007.9,15059.1
71456.7,15059.1
71456.7,14232.3
Z" /> 
</g>
<g >
</g>
<g style="fill:#000000; fill-opacity:1.0; 
stroke:#000000; stroke-width:0; stroke-opacity:1; 
stroke-linecap:round; stroke-linejoin:round;">
<path style="fill:#000000; fill-opacity:1.0; 
stroke:#000000; stroke-width:0; stroke-opacity:1; 
stroke-linecap:round; stroke-linejoin:round;fill-rule:evenodd;"
d="M 64724.2,10659.9
64733.8,10661.3
64743.1,10663.7
64752.2,10666.9
64761,10671.1
64769.2,10676
64777,10681.8
64784.2,10688.3
64790.7,10695.4
64796.4,10703.2
64801.4,10711.5
64805.5,10720.2
64808.8,10729.3
64811.1,10738.7
64812.5,10748.2
64813,10757.9
64813,11604.3
64812.5,11614
64811.1,11623.5
64808.8,11632.9
64805.5,11642
64801.4,11650.7
64796.4,11659
64790.7,11666.8
64784.2,11673.9
64777,11680.4
64769.2,11686.2
64761,11691.1
64752.2,11695.3
64743.1,11698.5
64733.8,11700.9
64724.2,11702.3
64714.6,11702.8
64350.4,11702.8
64340.7,11702.3
64331.2,11700.9
64321.8,11698.5
64312.7,11695.3
64304,11691.1
64295.7,11686.2
64288,11680.4
64280.8,11673.9
64274.3,11666.8
64268.6,11659
64263.6,11650.7
64259.5,11642
64256.2,11632.9
64253.9,11623.5
64252.4,11614
64252,11604.3
64252,10757.9
64252.4,10748.2
64253.9,10738.7
64256.2,10729.3
64259.5,10720.2
64263.6,10711.5
64268.6,10703.2
64274.3,10695.4
64280.8,10688.3
64288,10681.8
64295.7,10676
64304,10671.1
64312.7,10666.9
64321.8,10663.7
64331.2,10661.3
64340.7,10659.9
64350.4,10659.4
64714.6,10659.4
Z" /> 
<path style="fill:#000000; fill-opacity:1.0; 
stroke:#000000; stroke-width:0; stroke-opacity:1; 
stroke-linecap:round; stroke-linejoin:round;fill-rule:evenodd;"
d="M 65895.5,10659.9
65905,10661.3
65914.4,10663.7
65923.5,10666.9
65932.2,10671.1
65940.5,10676
65948.3,10681.8
65955.4,10688.3
65961.9,10695.4
65967.7,10703.2
65972.6,10711.5
65976.8,10720.2
65980,10729.3
65982.4,10738.7
65983.8,10748.2
65984.3,10757.9
65984.3,11604.3
65983.8,11614
65982.4,11623.5
65980,11632.9
65976.8,11642
65972.6,11650.7
65967.7,11659
65961.9,11666.8
65955.4,11673.9
65948.3,11680.4
65940.5,11686.2
65932.2,11691.1
65923.5,11695.3
65914.4,11698.5
65905,11700.9
65895.5,11702.3
65885.8,11702.8
65521.7,11702.8
65512,11702.3
65502.5,11700.9
65493.1,11698.5
65484,11695.3
65475.3,11691.1
65467,11686.2
65459.2,11680.4
65452.1,11673.9
65445.6,11666.8
65439.8,11659
65434.9,11650.7
65430.7,11642
65427.5,11632.9
65425.1,11623.5
65423.7,11614
65423.2,11604.3
65423.2,10757.9
65423.7,10748.2
65425.1,10738.7
65427.5,10729.3
65430.7,10720.2
65434.9,10711.5
65439.8,10703.2
65445.6,10695.4
65452.1,10688.3
65459.2,10681.8
65467,10676
65475.3,10671.1
65484,10666.9
65493.1,10663.7
65502.5,10661.3
65512,10659.9
65521.7,10659.4
65885.8,10659.4
Z" /> 
</g>
<g >
</g>
<g style="fill:#000000; fill-opacity:1.0; 
stroke:#000000; stroke-width:0; stroke-opacity:1; 
stroke-linecap:round; stroke-linejoin:round;">
<path style="fill:#000000; fill-opacity:1.0; 
stroke:#000000; stroke-width:0; stroke-opacity:1; 
stroke-linecap:round; stroke-linejoin:round;fill-rule:evenodd;"
d="M 27076.6,39636.3
27086.1,39637.7
27095.5,39640.1
27104.6,39643.3
27113.3,39647.4
27121.6,39652.4
27129.4,39658.2
27136.5,39664.7
27143,39671.8
27148.8,39679.6
27153.7,39687.9
27157.9,39696.6
27161.1,39705.7
27163.5,39715.1
27164.9,39724.6
27165.4,39734.3
27165.4,40580.7
27164.9,40590.4
27163.5,40599.9
27161.1,40609.3
27157.9,40618.4
27153.7,40627.1
27148.8,40635.4
27143,40643.1
27136.5,40650.3
27129.4,40656.8
27121.6,40662.5
27113.3,40667.5
27104.6,40671.6
27095.5,40674.9
27086.1,40677.2
27076.6,40678.7
27066.9,40679.1
26702.8,40679.1
26693.1,40678.7
26683.6,40677.2
26674.2,40674.9
26665.1,40671.6
26656.4,40667.5
26648.1,40662.5
26640.3,40656.8
26633.2,40650.3
26626.7,40643.1
26620.9,40635.4
26616,40627.1
26611.8,40618.4
26608.6,40609.3
26606.2,40599.9
26604.8,40590.4
26604.3,40580.7
26604.3,39734.3
26604.8,39724.6
26606.2,39715.1
26608.6,39705.7
26611.8,39696.6
26616,39687.9
26620.9,39679.6
26626.7,39671.8
26633.2,39664.7
26640.3,39658.2
26648.1,39652.4
26656.4,39647.4
26665.1,39643.3
26674.2,39640.1
26683.6,39637.7
26693.1,39636.3
26702.8,39635.8
27066.9,39635.8
Z" /> 
<path style="fill:#000000; fill-opacity:1.0; 
stroke:#000000; stroke-width:0; stroke-opacity:1; 
stroke-linecap:round; stroke-linejoin:round;fill-rule:evenodd;"
d="M 25905.3,39636.3
25914.9,39637.7
25924.2,39640.1
25933.3,39643.3
25942.1,39647.4
25950.4,39652.4
25958.1,39658.2
25965.3,39664.7
25971.8,39671.8
25977.5,39679.6
25982.5,39687.9
25986.6,39696.6
25989.9,39705.7
25992.2,39715.1
25993.6,39724.6
25994.1,39734.3
25994.1,40580.7
25993.6,40590.4
25992.2,40599.9
25989.9,40609.3
25986.6,40618.4
25982.5,40627.1
25977.5,40635.4
25971.8,40643.1
25965.3,40650.3
25958.1,40656.8
25950.4,40662.5
25942.1,40667.5
25933.3,40671.6
25924.2,40674.9
25914.9,40677.2
25905.3,40678.7
25895.7,40679.1
25531.5,40679.1
25521.8,40678.7
25512.3,40677.2
25502.9,40674.9
25493.8,40671.6
25485.1,40667.5
25476.8,40662.5
25469.1,40656.8
25461.9,40650.3
25455.4,40643.1
25449.7,40635.4
25444.7,40627.1
25440.6,40618.4
25437.3,40609.3
25435,40599.9
25433.5,40590.4
25433.1,40580.7
25433.1,39734.3
25433.5,39724.6
25435,39715.1
25437.3,39705.7
25440.6,39696.6
25444.7,39687.9
25449.7,39679.6
25455.4,39671.8
25461.9,39664.7
25469.1,39658.2
25476.8,39652.4
25485.1,39647.4
25493.8,39643.3
25502.9,39640.1
25512.3,39637.7
25521.8,39636.3
25531.5,39635.8
25895.7,39635.8
Z" /> 
</g>
<g >
</g>
<g style="fill:#000000; fill-opacity:1.0; 
stroke:#000000; stroke-width:0; stroke-opacity:1; 
stroke-linecap:round; stroke-linejoin:round;">
<path style="fill:#000000; fill-opacity:1.0; 
stroke:#000000; stroke-width:0; stroke-opacity:1; 
stroke-linecap:round; stroke-linejoin:round;fill-rule:evenodd;"
d="M 27076.6,41900.1
27086.1,41901.5
27095.5,41903.8
27104.6,41907.1
27113.3,41911.2
27121.6,41916.2
27129.4,41921.9
27136.5,41928.4
27143,41935.6
27148.8,41943.3
27153.7,41951.6
27157.9,41960.4
27161.1,41969.5
27163.5,41978.8
27164.9,41988.4
27165.4,41998
27165.4,42844.5
27164.9,42854.1
27163.5,42863.7
27161.1,42873.1
27157.9,42882.2
27153.7,42890.9
27148.8,42899.2
27143,42906.9
27136.5,42914.1
27129.4,42920.6
27121.6,42926.3
27113.3,42931.3
27104.6,42935.4
27095.5,42938.7
27086.1,42941
27076.6,42942.4
27066.9,42942.9
26702.8,42942.9
26693.1,42942.4
26683.6,42941
26674.2,42938.7
26665.1,42935.4
26656.4,42931.3
26648.1,42926.3
26640.3,42920.6
26633.2,42914.1
26626.7,42906.9
26620.9,42899.2
26616,42890.9
26611.8,42882.2
26608.6,42873.1
26606.2,42863.7
26604.8,42854.1
26604.3,42844.5
26604.3,41998
26604.8,41988.4
26606.2,41978.8
26608.6,41969.5
26611.8,41960.4
26616,41951.6
26620.9,41943.3
26626.7,41935.6
26633.2,41928.4
26640.3,41921.9
26648.1,41916.2
26656.4,41911.2
26665.1,41907.1
26674.2,41903.8
26683.6,41901.5
26693.1,41900.1
26702.8,41899.6
27066.9,41899.6
Z" /> 
<path style="fill:#000000; fill-opacity:1.0; 
stroke:#000000; stroke-width:0; stroke-opacity:1; 
stroke-linecap:round; stroke-linejoin:round;fill-rule:evenodd;"
d="M 25905.3,41900.1
25914.9,41901.5
25924.2,41903.8
25933.3,41907.1
25942.1,41911.2
25950.4,41916.2
25958.1,41921.9
25965.3,41928.4
25971.8,41935.6
25977.5,41943.3
25982.5,41951.6
25986.6,41960.4
25989.9,41969.5
25992.2,41978.8
25993.6,41988.4
25994.1,41998
25994.1,42844.5
25993.6,42854.1
25992.2,42863.7
25989.9,42873.1
25986.6,42882.2
25982.5,42890.9
25977.5,42899.2
25971.8,42906.9
25965.3,42914.1
25958.1,42920.6
25950.4,42926.3
25942.1,42931.3
25933.3,42935.4
25924.2,42938.7
25914.9,42941
25905.3,42942.4
25895.7,42942.9
25531.5,42942.9
25521.8,42942.4
25512.3,42941
25502.9,42938.7
25493.8,42935.4
25485.1,42931.3
25476.8,42926.3
25469.1,42920.6
25461.9,42914.1
25455.4,42906.9
25449.7,42899.2
25444.7,42890.9
25440.6,42882.2
25437.3,42873.1
25435,42863.7
25433.5,42854.1
25433.1,42844.5
25433.1,41998
25433.5,41988.4
25435,41978.8
25437.3,41969.5
25440.6,41960.4
25444.7,41951.6
25449.7,41943.3
25455.4,41935.6
25461.9,41928.4
25469.1,41921.9
25476.8,41916.2
25485.1,41911.2
25493.8,41907.1
25502.9,41903.8
25512.3,41901.5
25521.8,41900.1
25531.5,41899.6
25895.7,41899.6
Z" /> 
</g>
<g >
</g>
<g style="fill:#000000; fill-opacity:1.0; 
stroke:#000000; stroke-width:0; stroke-opacity:1; 
stroke-linecap:round; stroke-linejoin:round;">
<path style="fill:#000000; fill-opacity:1.0; 
stroke:#000000; stroke-width:0; stroke-opacity:1; 
stroke-linecap:round; stroke-linejoin:round;fill-rule:evenodd;"
d="M 24596.3,39636.3
24605.8,39637.7
24615.2,39640.1
24624.3,39643.3
24633,39647.4
24641.3,39652.4
24649.1,39658.2
24656.2,39664.7
24662.7,39671.8
24668.5,39679.6
24673.4,39687.9
24677.5,39696.6
24680.8,39705.7
24683.1,39715.1
24684.6,39724.6
24685,39734.3
24685,40580.7
24684.6,40590.4
24683.1,40599.9
24680.8,40609.3
24677.5,40618.4
24673.4,40627.1
24668.5,40635.4
24662.7,40643.1
24656.2,40650.3
24649.1,40656.8
24641.3,40662.5
24633,40667.5
24624.3,40671.6
24615.2,40674.9
24605.8,40677.2
24596.3,40678.7
24586.6,40679.1
24222.4,40679.1
24212.8,40678.7
24203.2,40677.2
24193.9,40674.9
24184.8,40671.6
24176,40667.5
24167.8,40662.5
24160,40656.8
24152.8,40650.3
24146.4,40643.1
24140.6,40635.4
24135.6,40627.1
24131.5,40618.4
24128.3,40609.3
24125.9,40599.9
24124.5,40590.4
24124,40580.7
24124,39734.3
24124.5,39724.6
24125.9,39715.1
24128.3,39705.7
24131.5,39696.6
24135.6,39687.9
24140.6,39679.6
24146.4,39671.8
24152.8,39664.7
24160,39658.2
24167.8,39652.4
24176,39647.4
24184.8,39643.3
24193.9,39640.1
24203.2,39637.7
24212.8,39636.3
24222.4,39635.8
24586.6,39635.8
Z" /> 
<path style="fill:#000000; fill-opacity:1.0; 
stroke:#000000; stroke-width:0; stroke-opacity:1; 
stroke-linecap:round; stroke-linejoin:round;fill-rule:evenodd;"
d="M 23425,39636.3
23434.6,39637.7
23443.9,39640.1
23453,39643.3
23461.8,39647.4
23470,39652.4
23477.8,39658.2
23485,39664.7
23491.4,39671.8
23497.2,39679.6
23502.2,39687.9
23506.3,39696.6
23509.5,39705.7
23511.9,39715.1
23513.3,39724.6
23513.8,39734.3
23513.8,40580.7
23513.3,40590.4
23511.9,40599.9
23509.5,40609.3
23506.3,40618.4
23502.2,40627.1
23497.2,40635.4
23491.4,40643.1
23485,40650.3
23477.8,40656.8
23470,40662.5
23461.8,40667.5
23453,40671.6
23443.9,40674.9
23434.6,40677.2
23425,40678.7
23415.4,40679.1
23051.2,40679.1
23041.5,40678.7
23032,40677.2
23022.6,40674.9
23013.5,40671.6
23004.8,40667.5
22996.5,40662.5
22988.7,40656.8
22981.6,40650.3
22975.1,40643.1
22969.3,40635.4
22964.4,40627.1
22960.2,40618.4
22957,40609.3
22954.6,40599.9
22953.2,40590.4
22952.8,40580.7
22952.8,39734.3
22953.2,39724.6
22954.6,39715.1
22957,39705.7
22960.2,39696.6
22964.4,39687.9
22969.3,39679.6
22975.1,39671.8
22981.6,39664.7
22988.7,39658.2
22996.5,39652.4
23004.8,39647.4
23013.5,39643.3
23022.6,39640.1
23032,39637.7
23041.5,39636.3
23051.2,39635.8
23415.4,39635.8
Z" /> 
</g>
<g >
</g>
<g >
</g>
<g >
</g>
<g >
</g>
<g >
</g>
<g >
</g>
<g >
</g>
<g >
</g>
<g >
</g>
<g style="fill:#000000; fill-opacity:1.0; 
stroke:#000000; stroke-width:0; stroke-opacity:1; 
stroke-linecap:round; stroke-linejoin:round;">
<path style="fill:#000000; fill-opacity:1.0; 
stroke:#000000; stroke-width:0; stroke-opacity:1; 
stroke-linecap:round; stroke-linejoin:round;fill-rule:evenodd;"
d="M 29576.6,41900.1
29586.1,41901.5
29595.5,41903.8
29604.6,41907.1
29613.3,41911.2
29621.6,41916.2
29629.4,41921.9
29636.5,41928.4
29643,41935.6
29648.8,41943.3
29653.7,41951.6
29657.9,41960.4
29661.1,41969.5
29663.5,41978.8
29664.9,41988.4
29665.4,41998
29665.4,42844.5
29664.9,42854.1
29663.5,42863.7
29661.1,42873.1
29657.9,42882.2
29653.7,42890.9
29648.8,42899.2
29643,42906.9
29636.5,42914.1
29629.4,42920.6
29621.6,42926.3
29613.3,42931.3
29604.6,42935.4
29595.5,42938.7
29586.1,42941
29576.6,42942.4
29566.9,42942.9
29202.8,42942.9
29193.1,42942.4
29183.6,42941
29174.2,42938.7
29165.1,42935.4
29156.4,42931.3
29148.1,42926.3
29140.3,42920.6
29133.2,42914.1
29126.7,42906.9
29120.9,42899.2
29116,42890.9
29111.8,42882.2
29108.6,42873.1
29106.2,42863.7
29104.8,42854.1
29104.3,42844.5
29104.3,41998
29104.8,41988.4
29106.2,41978.8
29108.6,41969.5
29111.8,41960.4
29116,41951.6
29120.9,41943.3
29126.7,41935.6
29133.2,41928.4
29140.3,41921.9
29148.1,41916.2
29156.4,41911.2
29165.1,41907.1
29174.2,41903.8
29183.6,41901.5
29193.1,41900.1
29202.8,41899.6
29566.9,41899.6
Z" /> 
<path style="fill:#000000; fill-opacity:1.0; 
stroke:#000000; stroke-width:0; stroke-opacity:1; 
stroke-linecap:round; stroke-linejoin:round;fill-rule:evenodd;"
d="M 28405.3,41900.1
28414.9,41901.5
28424.2,41903.8
28433.3,41907.1
28442.1,41911.2
28450.4,41916.2
28458.1,41921.9
28465.3,41928.4
28471.8,41935.6
28477.5,41943.3
28482.5,41951.6
28486.6,41960.4
28489.9,41969.5
28492.2,41978.8
28493.6,41988.4
28494.1,41998
28494.1,42844.5
28493.6,42854.1
28492.2,42863.7
28489.9,42873.1
28486.6,42882.2
28482.5,42890.9
28477.5,42899.2
28471.8,42906.9
28465.3,42914.1
28458.1,42920.6
28450.4,42926.3
28442.1,42931.3
28433.3,42935.4
28424.2,42938.7
28414.9,42941
28405.3,42942.4
28395.7,42942.9
28031.5,42942.9
28021.8,42942.4
28012.3,42941
28002.9,42938.7
27993.8,42935.4
27985.1,42931.3
27976.8,42926.3
27969.1,42920.6
27961.9,42914.1
27955.4,42906.9
27949.7,42899.2
27944.7,42890.9
27940.6,42882.2
27937.3,42873.1
27935,42863.7
27933.5,42854.1
27933.1,42844.5
27933.1,41998
27933.5,41988.4
27935,41978.8
27937.3,41969.5
27940.6,41960.4
27944.7,41951.6
27949.7,41943.3
27955.4,41935.6
27961.9,41928.4
27969.1,41921.9
27976.8,41916.2
27985.1,41911.2
27993.8,41907.1
28002.9,41903.8
28012.3,41901.5
28021.8,41900.1
28031.5,41899.6
28395.7,41899.6
Z" /> 
</g>
<g >
</g>
<g style="fill:#000000; fill-opacity:1.0; 
stroke:#000000; stroke-width:0; stroke-opacity:1; 
stroke-linecap:round; stroke-linejoin:round;">
<path style="fill:#000000; fill-opacity:1.0; 
stroke:#000000; stroke-width:0; stroke-opacity:1; 
stroke-linecap:round; stroke-linejoin:round;fill-rule:evenodd;"
d="M 45039.2,54636.3
45048.7,54637.7
45058.1,54640.1
45067.2,54643.3
45075.9,54647.4
45084.2,54652.4
45092,54658.2
45099.1,54664.7
45105.6,54671.8
45111.4,54679.6
45116.3,54687.9
45120.5,54696.6
45123.7,54705.7
45126.1,54715
45127.5,54724.6
45128,54734.3
45128,55098.4
45127.5,55108.1
45126.1,55117.6
45123.7,55127
45120.5,55136.1
45116.3,55144.8
45111.4,55153.1
45105.6,55160.9
45099.1,55168
45092,55174.5
45084.2,55180.3
45075.9,55185.2
45067.2,55189.4
45058.1,55192.6
45048.7,55195
45039.2,55196.4
45029.5,55196.9
44183.1,55196.9
44173.4,55196.4
44163.9,55195
44154.5,55192.6
44145.4,55189.4
44136.7,55185.2
44128.4,55180.3
44120.6,55174.5
44113.5,55168
44107,55160.9
44101.2,55153.1
44096.3,55144.8
44092.1,55136.1
44088.9,55127
44086.5,55117.6
44085.1,55108.1
44084.6,55098.4
44084.6,54734.3
44085.1,54724.6
44086.5,54715
44088.9,54705.7
44092.1,54696.6
44096.3,54687.9
44101.2,54679.6
44107,54671.8
44113.5,54664.7
44120.6,54658.2
44128.4,54652.4
44136.7,54647.4
44145.4,54643.3
44154.5,54640.1
44163.9,54637.7
44173.4,54636.3
44183.1,54635.8
45029.5,54635.8
Z" /> 
<path style="fill:#000000; fill-opacity:1.0; 
stroke:#000000; stroke-width:0; stroke-opacity:1; 
stroke-linecap:round; stroke-linejoin:round;fill-rule:evenodd;"
d="M 45039.2,53465
45048.7,53466.5
45058.1,53468.8
45067.2,53472.1
45075.9,53476.2
45084.2,53481.2
45092,53486.9
45099.1,53493.4
45105.6,53500.6
45111.4,53508.3
45116.3,53516.6
45120.5,53525.3
45123.7,53534.4
45126.1,53543.8
45127.5,53553.3
45128,53563
45128,53927.2
45127.5,53936.8
45126.1,53946.4
45123.7,53955.7
45120.5,53964.8
45116.3,53973.6
45111.4,53981.8
45105.6,53989.6
45099.1,53996.8
45092,54003.2
45084.2,54009
45075.9,54014
45067.2,54018.1
45058.1,54021.4
45048.7,54023.7
45039.2,54025.1
45029.5,54025.6
44183.1,54025.6
44173.4,54025.1
44163.9,54023.7
44154.5,54021.4
44145.4,54018.1
44136.7,54014
44128.4,54009
44120.6,54003.2
44113.5,53996.8
44107,53989.6
44101.2,53981.8
44096.3,53973.6
44092.1,53964.8
44088.9,53955.7
44086.5,53946.4
44085.1,53936.8
44084.6,53927.2
44084.6,53563
44085.1,53553.3
44086.5,53543.8
44088.9,53534.4
44092.1,53525.3
44096.3,53516.6
44101.2,53508.3
44107,53500.6
44113.5,53493.4
44120.6,53486.9
44128.4,53481.2
44136.7,53476.2
44145.4,53472.1
44154.5,53468.8
44163.9,53466.5
44173.4,53465
44183.1,53464.6
45029.5,53464.6
Z" /> 
</g>
<g >
</g>
<g style="fill:#000000; fill-opacity:1.0; 
stroke:#000000; stroke-width:0; stroke-opacity:1; 
stroke-linecap:round; stroke-linejoin:round;">
<path style="fill:#000000; fill-opacity:1.0; 
stroke:#000000; stroke-width:0; stroke-opacity:1; 
stroke-linecap:round; stroke-linejoin:round;fill-rule:evenodd;"
d="M 29576.6,39636.3
29586.1,39637.7
29595.5,39640.1
29604.6,39643.3
29613.3,39647.4
29621.6,39652.4
29629.4,39658.2
29636.5,39664.7
29643,39671.8
29648.8,39679.6
29653.7,39687.9
29657.9,39696.6
29661.1,39705.7
29663.5,39715.1
29664.9,39724.6
29665.4,39734.3
29665.4,40580.7
29664.9,40590.4
29663.5,40599.9
29661.1,40609.3
29657.9,40618.4
29653.7,40627.1
29648.8,40635.4
29643,40643.1
29636.5,40650.3
29629.4,40656.8
29621.6,40662.5
29613.3,40667.5
29604.6,40671.6
29595.5,40674.9
29586.1,40677.2
29576.6,40678.7
29566.9,40679.1
29202.8,40679.1
29193.1,40678.7
29183.6,40677.2
29174.2,40674.9
29165.1,40671.6
29156.4,40667.5
29148.1,40662.5
29140.3,40656.8
29133.2,40650.3
29126.7,40643.1
29120.9,40635.4
29116,40627.1
29111.8,40618.4
29108.6,40609.3
29106.2,40599.9
29104.8,40590.4
29104.3,40580.7
29104.3,39734.3
29104.8,39724.6
29106.2,39715.1
29108.6,39705.7
29111.8,39696.6
29116,39687.9
29120.9,39679.6
29126.7,39671.8
29133.2,39664.7
29140.3,39658.2
29148.1,39652.4
29156.4,39647.4
29165.1,39643.3
29174.2,39640.1
29183.6,39637.7
29193.1,39636.3
29202.8,39635.8
29566.9,39635.8
Z" /> 
<path style="fill:#000000; fill-opacity:1.0; 
stroke:#000000; stroke-width:0; stroke-opacity:1; 
stroke-linecap:round; stroke-linejoin:round;fill-rule:evenodd;"
d="M 28405.3,39636.3
28414.9,39637.7
28424.2,39640.1
28433.3,39643.3
28442.1,39647.4
28450.4,39652.4
28458.1,39658.2
28465.3,39664.7
28471.8,39671.8
28477.5,39679.6
28482.5,39687.9
28486.6,39696.6
28489.9,39705.7
28492.2,39715.1
28493.6,39724.6
28494.1,39734.3
28494.1,40580.7
28493.6,40590.4
28492.2,40599.9
28489.9,40609.3
28486.6,40618.4
28482.5,40627.1
28477.5,40635.4
28471.8,40643.1
28465.3,40650.3
28458.1,40656.8
28450.4,40662.5
28442.1,40667.5
28433.3,40671.6
28424.2,40674.9
28414.9,40677.2
28405.3,40678.7
28395.7,40679.1
28031.5,40679.1
28021.8,40678.7
28012.3,40677.2
28002.9,40674.9
27993.8,40671.6
27985.1,40667.5
27976.8,40662.5
27969.1,40656.8
27961.9,40650.3
27955.4,40643.1
27949.7,40635.4
27944.7,40627.1
27940.6,40618.4
27937.3,40609.3
27935,40599.9
27933.5,40590.4
27933.1,40580.7
27933.1,39734.3
27933.5,39724.6
27935,39715.1
27937.3,39705.7
27940.6,39696.6
27944.7,39687.9
27949.7,39679.6
27955.4,39671.8
27961.9,39664.7
27969.1,39658.2
27976.8,39652.4
27985.1,39647.4
27993.8,39643.3
28002.9,39640.1
28012.3,39637.7
28021.8,39636.3
28031.5,39635.8
28395.7,39635.8
Z" /> 
</g>
<g >
</g>
<g style="fill:#000000; fill-opacity:1.0; 
stroke:#000000; stroke-width:0; stroke-opacity:1; 
stroke-linecap:round; stroke-linejoin:round;">
<path style="fill:#000000; fill-opacity:1.0; 
stroke:#000000; stroke-width:0; stroke-opacity:1; 
stroke-linecap:round; stroke-linejoin:round;fill-rule:evenodd;"
d="M 43031.3,54636.3
43040.9,54637.7
43050.2,54640.1
43059.3,54643.3
43068.1,54647.4
43076.3,54652.4
43084.1,54658.2
43091.3,54664.7
43097.7,54671.8
43103.5,54679.6
43108.5,54687.9
43112.6,54696.6
43115.8,54705.7
43118.2,54715
43119.6,54724.6
43120.1,54734.3
43120.1,55098.4
43119.6,55108.1
43118.2,55117.6
43115.8,55127
43112.6,55136.1
43108.5,55144.8
43103.5,55153.1
43097.7,55160.9
43091.3,55168
43084.1,55174.5
43076.3,55180.3
43068.1,55185.2
43059.3,55189.4
43050.2,55192.6
43040.9,55195
43031.3,55196.4
43021.7,55196.9
42175.2,55196.9
42165.5,55196.4
42156,55195
42146.6,55192.6
42137.5,55189.4
42128.8,55185.2
42120.5,55180.3
42112.8,55174.5
42105.6,55168
42099.1,55160.9
42093.4,55153.1
42088.4,55144.8
42084.3,55136.1
42081,55127
42078.7,55117.6
42077.2,55108.1
42076.8,55098.4
42076.8,54734.3
42077.2,54724.6
42078.7,54715
42081,54705.7
42084.3,54696.6
42088.4,54687.9
42093.4,54679.6
42099.1,54671.8
42105.6,54664.7
42112.8,54658.2
42120.5,54652.4
42128.8,54647.4
42137.5,54643.3
42146.6,54640.1
42156,54637.7
42165.5,54636.3
42175.2,54635.8
43021.7,54635.8
Z" /> 
<path style="fill:#000000; fill-opacity:1.0; 
stroke:#000000; stroke-width:0; stroke-opacity:1; 
stroke-linecap:round; stroke-linejoin:round;fill-rule:evenodd;"
d="M 43031.3,53465
43040.9,53466.5
43050.2,53468.8
43059.3,53472.1
43068.1,53476.2
43076.3,53481.2
43084.1,53486.9
43091.3,53493.4
43097.7,53500.6
43103.5,53508.3
43108.5,53516.6
43112.6,53525.3
43115.8,53534.4
43118.2,53543.8
43119.6,53553.3
43120.1,53563
43120.1,53927.2
43119.6,53936.8
43118.2,53946.4
43115.8,53955.7
43112.6,53964.8
43108.5,53973.6
43103.5,53981.8
43097.7,53989.6
43091.3,53996.8
43084.1,54003.2
43076.3,54009
43068.1,54014
43059.3,54018.1
43050.2,54021.4
43040.9,54023.7
43031.3,54025.1
43021.7,54025.6
42175.2,54025.6
42165.5,54025.1
42156,54023.7
42146.6,54021.4
42137.5,54018.1
42128.8,54014
42120.5,54009
42112.8,54003.2
42105.6,53996.8
42099.1,53989.6
42093.4,53981.8
42088.4,53973.6
42084.3,53964.8
42081,53955.7
42078.7,53946.4
42077.2,53936.8
42076.8,53927.2
42076.8,53563
42077.2,53553.3
42078.7,53543.8
42081,53534.4
42084.3,53525.3
42088.4,53516.6
42093.4,53508.3
42099.1,53500.6
42105.6,53493.4
42112.8,53486.9
42120.5,53481.2
42128.8,53476.2
42137.5,53472.1
42146.6,53468.8
42156,53466.5
42165.5,53465
42175.2,53464.6
43021.7,53464.6
Z" /> 
</g>
<g >
</g>
<g style="fill:#000000; fill-opacity:1.0; 
stroke:#000000; stroke-width:0; stroke-opacity:1; 
stroke-linecap:round; stroke-linejoin:round;">
<path style="fill:#000000; fill-opacity:1.0; 
stroke:#000000; stroke-width:0; stroke-opacity:1; 
stroke-linecap:round; stroke-linejoin:round;fill-rule:evenodd;"
d="M 41023.4,54636.3
41033,54637.7
41042.4,54640.1
41051.4,54643.3
41060.2,54647.4
41068.5,54652.4
41076.2,54658.2
41083.4,54664.7
41089.9,54671.8
41095.6,54679.6
41100.6,54687.9
41104.7,54696.6
41108,54705.7
41110.3,54715
41111.7,54724.6
41112.2,54734.3
41112.2,55098.4
41111.7,55108.1
41110.3,55117.6
41108,55127
41104.7,55136.1
41100.6,55144.8
41095.6,55153.1
41089.9,55160.9
41083.4,55168
41076.2,55174.5
41068.5,55180.3
41060.2,55185.2
41051.4,55189.4
41042.4,55192.6
41033,55195
41023.4,55196.4
41013.8,55196.9
40167.3,55196.9
40157.7,55196.4
40148.1,55195
40138.8,55192.6
40129.7,55189.4
40120.9,55185.2
40112.6,55180.3
40104.9,55174.5
40097.7,55168
40091.2,55160.9
40085.5,55153.1
40080.5,55144.8
40076.4,55136.1
40073.1,55127
40070.8,55117.6
40069.4,55108.1
40068.9,55098.4
40068.9,54734.3
40069.4,54724.6
40070.8,54715
40073.1,54705.7
40076.4,54696.6
40080.5,54687.9
40085.5,54679.6
40091.2,54671.8
40097.7,54664.7
40104.9,54658.2
40112.6,54652.4
40120.9,54647.4
40129.7,54643.3
40138.8,54640.1
40148.1,54637.7
40157.7,54636.3
40167.3,54635.8
41013.8,54635.8
Z" /> 
<path style="fill:#000000; fill-opacity:1.0; 
stroke:#000000; stroke-width:0; stroke-opacity:1; 
stroke-linecap:round; stroke-linejoin:round;fill-rule:evenodd;"
d="M 41023.4,53465
41033,53466.5
41042.4,53468.8
41051.4,53472.1
41060.2,53476.2
41068.5,53481.2
41076.2,53486.9
41083.4,53493.4
41089.9,53500.6
41095.6,53508.3
41100.6,53516.6
41104.7,53525.3
41108,53534.4
41110.3,53543.8
41111.7,53553.3
41112.2,53563
41112.2,53927.2
41111.7,53936.8
41110.3,53946.4
41108,53955.7
41104.7,53964.8
41100.6,53973.6
41095.6,53981.8
41089.9,53989.6
41083.4,53996.8
41076.2,54003.2
41068.5,54009
41060.2,54014
41051.4,54018.1
41042.4,54021.4
41033,54023.7
41023.4,54025.1
41013.8,54025.6
40167.3,54025.6
40157.7,54025.1
40148.1,54023.7
40138.8,54021.4
40129.7,54018.1
40120.9,54014
40112.6,54009
40104.9,54003.2
40097.7,53996.8
40091.2,53989.6
40085.5,53981.8
40080.5,53973.6
40076.4,53964.8
40073.1,53955.7
40070.8,53946.4
40069.4,53936.8
40068.9,53927.2
40068.9,53563
40069.4,53553.3
40070.8,53543.8
40073.1,53534.4
40076.4,53525.3
40080.5,53516.6
40085.5,53508.3
40091.2,53500.6
40097.7,53493.4
40104.9,53486.9
40112.6,53481.2
40120.9,53476.2
40129.7,53472.1
40138.8,53468.8
40148.1,53466.5
40157.7,53465
40167.3,53464.6
41013.8,53464.6
Z" /> 
</g>
<g >
</g>
<g >
</g>
<g >
</g>
<g >
</g>
<g >
</g>
<g >
</g>
<g >
</g>
<g >
</g>
<g >
</g>
<g >
</g>
<g >
</g>
<g >
</g>
<g >
</g>
<g >
</g>
<g >
</g>
<g >
</g>
<g >
</g>
<g >
</g>
<g >
</g>
<g >
</g>
<g >
</g>
<g >
</g>
<g >
</g>
<g >
</g>
<g >
</g>
<g >
</g>
<g >
</g>
<g >
</g>
<g >
</g>
<g >
</g>
<g >
</g>
<g >
</g>
<g >
</g>
<g >
</g>
<g >
</g>
<g >
</g>
<g >
</g>
<g >
</g>
<g >
</g>
<g >
</g>
<g >
</g>
<g >
</g>
</g> 
</svg>
