<?xml version="1.0" standalone="no"?>
 <!DOCTYPE svg PUBLIC "-//W3C//DTD SVG 1.1//EN" 
 "http://www.w3.org/Graphics/SVG/1.1/DTD/svg11.dtd"> 
<svg xmlns="http://www.w3.org/2000/svg" version="1.1" 
    width="22.9997cm" height="21.9989cm" viewBox="0 0 90550 86610 ">
<title>SVG Picture created as motherboard-Edge_Cuts.svg date 2020/11/12 16:50:21 </title>
  <desc>Picture generated by PCBNEW </desc>
<g style="fill:#000000; fill-opacity:1;stroke:#000000; stroke-opacity:1;
stroke-linecap:round; stroke-linejoin:round; "
 transform="translate(0 0) scale(1 1)">
</g>
<g style="fill:#000000; fill-opacity:0.0; 
stroke:#000000; stroke-width:-0.000393701; stroke-opacity:1; 
stroke-linecap:round; stroke-linejoin:round;">
</g>
<g style="fill:#000000; fill-opacity:0.0; 
stroke:#000000; stroke-width:78.7402; stroke-opacity:1; 
stroke-linecap:round; stroke-linejoin:round;">
<path d="M36023 59251
L35961 59248
" />
<path d="M36085 59248
L36023 59251
" />
<path d="M36146 59239
L36085 59248
" />
<path d="M36206 59223
L36146 59239
" />
<path d="M36263 59200
L36206 59223
" />
<path d="M36318 59172
L36263 59200
" />
<path d="M36370 59139
L36318 59172
" />
<path d="M36418 59100
L36370 59139
" />
<path d="M36462 59056
L36418 59100
" />
<path d="M36501 59008
L36462 59056
" />
<path d="M36535 58956
L36501 59008
" />
<path d="M36563 58901
L36535 58956
" />
<path d="M36585 58843
L36563 58901
" />
<path d="M36601 58784
L36585 58843
" />
<path d="M36610 58723
L36601 58784
" />
<path d="M36614 58661
L36610 58723
" />
<path d="M36610 58599
L36614 58661
" />
<path d="M36601 58538
L36610 58599
" />
<path d="M36585 58478
L36601 58538
" />
<path d="M36563 58421
L36585 58478
" />
<path d="M36535 58366
L36563 58421
" />
<path d="M36501 58314
L36535 58366
" />
<path d="M36462 58266
L36501 58314
" />
<path d="M36418 58222
L36462 58266
" />
<path d="M36370 58183
L36418 58222
" />
<path d="M36318 58150
L36370 58183
" />
<path d="M36263 58121
L36318 58150
" />
<path d="M36206 58099
L36263 58121
" />
<path d="M36146 58083
L36206 58099
" />
<path d="M36085 58074
L36146 58083
" />
<path d="M36023 58070
L36085 58074
" />
<path d="M35961 58074
L36023 58070
" />
<path d="M35900 58083
L35961 58074
" />
<path d="M35841 58099
L35900 58083
" />
<path d="M35783 58121
L35841 58099
" />
<path d="M35728 58150
L35783 58121
" />
<path d="M35676 58183
L35728 58150
" />
<path d="M35628 58222
L35676 58183
" />
<path d="M35584 58266
L35628 58222
" />
<path d="M35545 58314
L35584 58266
" />
<path d="M35512 58366
L35545 58314
" />
<path d="M35484 58421
L35512 58366
" />
<path d="M35461 58478
L35484 58421
" />
<path d="M35445 58538
L35461 58478
" />
<path d="M35436 58599
L35445 58538
" />
<path d="M35433 58661
L35436 58599
" />
<path d="M35436 58723
L35433 58661
" />
<path d="M35445 58784
L35436 58723
" />
<path d="M35461 58843
L35445 58784
" />
<path d="M35484 58901
L35461 58843
" />
<path d="M35512 58956
L35484 58901
" />
<path d="M35545 59008
L35512 58956
" />
<path d="M35584 59056
L35545 59008
" />
<path d="M35628 59100
L35584 59056
" />
<path d="M35676 59139
L35628 59100
" />
<path d="M35728 59172
L35676 59139
" />
<path d="M35783 59200
L35728 59172
" />
<path d="M35841 59223
L35783 59200
" />
<path d="M35900 59239
L35841 59223
" />
<path d="M35961 59248
L35900 59239
" />
<path d="M73425 59251
L73363 59248
" />
<path d="M73486 59248
L73425 59251
" />
<path d="M73547 59239
L73486 59248
" />
<path d="M73607 59223
L73547 59239
" />
<path d="M73665 59200
L73607 59223
" />
<path d="M73720 59172
L73665 59200
" />
<path d="M73772 59139
L73720 59172
" />
<path d="M73820 59100
L73772 59139
" />
<path d="M73864 59056
L73820 59100
" />
<path d="M73902 59008
L73864 59056
" />
<path d="M73936 58956
L73902 59008
" />
<path d="M73964 58901
L73936 58956
" />
<path d="M73986 58843
L73964 58901
" />
<path d="M74002 58784
L73986 58843
" />
<path d="M74012 58723
L74002 58784
" />
<path d="M74015 58661
L74012 58723
" />
<path d="M74012 58599
L74015 58661
" />
<path d="M74002 58538
L74012 58599
" />
<path d="M73986 58478
L74002 58538
" />
<path d="M73964 58421
L73986 58478
" />
<path d="M73936 58366
L73964 58421
" />
<path d="M73902 58314
L73936 58366
" />
<path d="M73864 58266
L73902 58314
" />
<path d="M73820 58222
L73864 58266
" />
<path d="M73772 58183
L73820 58222
" />
<path d="M73720 58150
L73772 58183
" />
<path d="M73665 58121
L73720 58150
" />
<path d="M73607 58099
L73665 58121
" />
<path d="M73547 58083
L73607 58099
" />
<path d="M73486 58074
L73547 58083
" />
<path d="M73425 58070
L73486 58074
" />
<path d="M73363 58074
L73425 58070
" />
<path d="M73302 58083
L73363 58074
" />
<path d="M73242 58099
L73302 58083
" />
<path d="M73185 58121
L73242 58099
" />
<path d="M73129 58150
L73185 58121
" />
<path d="M73078 58183
L73129 58150
" />
<path d="M73030 58222
L73078 58183
" />
<path d="M72986 58266
L73030 58222
" />
<path d="M72947 58314
L72986 58266
" />
<path d="M72913 58366
L72947 58314
" />
<path d="M72885 58421
L72913 58366
" />
<path d="M72863 58478
L72885 58421
" />
<path d="M72847 58538
L72863 58478
" />
<path d="M72837 58599
L72847 58538
" />
<path d="M72834 58661
L72837 58599
" />
<path d="M72837 58723
L72834 58661
" />
<path d="M72847 58784
L72837 58723
" />
<path d="M72863 58843
L72847 58784
" />
<path d="M72885 58901
L72863 58843
" />
<path d="M72913 58956
L72885 58901
" />
<path d="M72947 59008
L72913 58956
" />
<path d="M72986 59056
L72947 59008
" />
<path d="M73030 59100
L72986 59056
" />
<path d="M73078 59139
L73030 59100
" />
<path d="M73129 59172
L73078 59139
" />
<path d="M73185 59200
L73129 59172
" />
<path d="M73242 59223
L73185 59200
" />
<path d="M73302 59239
L73242 59223
" />
<path d="M73363 59248
L73302 59239
" />
<path d="M33267 43503
L33205 43500
" />
<path d="M33329 43500
L33267 43503
" />
<path d="M33390 43491
L33329 43500
" />
<path d="M33450 43475
L33390 43491
" />
<path d="M33507 43452
L33450 43475
" />
<path d="M33562 43424
L33507 43452
" />
<path d="M33614 43391
L33562 43424
" />
<path d="M33662 43352
L33614 43391
" />
<path d="M33706 43308
L33662 43352
" />
<path d="M33745 43260
L33706 43308
" />
<path d="M33779 43208
L33745 43260
" />
<path d="M33807 43153
L33779 43208
" />
<path d="M33829 43095
L33807 43153
" />
<path d="M33845 43036
L33829 43095
" />
<path d="M33855 42975
L33845 43036
" />
<path d="M33858 42913
L33855 42975
" />
<path d="M33855 42851
L33858 42913
" />
<path d="M33845 42790
L33855 42851
" />
<path d="M33829 42730
L33845 42790
" />
<path d="M33807 42673
L33829 42730
" />
<path d="M33779 42618
L33807 42673
" />
<path d="M33745 42566
L33779 42618
" />
<path d="M33706 42518
L33745 42566
" />
<path d="M33662 42474
L33706 42518
" />
<path d="M33614 42435
L33662 42474
" />
<path d="M33562 42401
L33614 42435
" />
<path d="M33507 42373
L33562 42401
" />
<path d="M33450 42351
L33507 42373
" />
<path d="M33390 42335
L33450 42351
" />
<path d="M33329 42326
L33390 42335
" />
<path d="M33267 42322
L33329 42326
" />
<path d="M33205 42326
L33267 42322
" />
<path d="M33144 42335
L33205 42326
" />
<path d="M33085 42351
L33144 42335
" />
<path d="M33027 42373
L33085 42351
" />
<path d="M32972 42401
L33027 42373
" />
<path d="M32920 42435
L32972 42401
" />
<path d="M32872 42474
L32920 42435
" />
<path d="M32828 42518
L32872 42474
" />
<path d="M32789 42566
L32828 42518
" />
<path d="M32756 42618
L32789 42566
" />
<path d="M32728 42673
L32756 42618
" />
<path d="M32706 42730
L32728 42673
" />
<path d="M32690 42790
L32706 42730
" />
<path d="M32680 42851
L32690 42790
" />
<path d="M32677 42913
L32680 42851
" />
<path d="M32680 42975
L32677 42913
" />
<path d="M32690 43036
L32680 42975
" />
<path d="M32706 43095
L32690 43036
" />
<path d="M32728 43153
L32706 43095
" />
<path d="M32756 43208
L32728 43153
" />
<path d="M32789 43260
L32756 43208
" />
<path d="M32828 43308
L32789 43260
" />
<path d="M32872 43352
L32828 43308
" />
<path d="M32920 43391
L32872 43352
" />
<path d="M32972 43424
L32920 43391
" />
<path d="M33027 43452
L32972 43424
" />
<path d="M33085 43475
L33027 43452
" />
<path d="M33144 43491
L33085 43475
" />
<path d="M33205 43500
L33144 43491
" />
<path d="M11220 43503
L11158 43500
" />
<path d="M11282 43500
L11220 43503
" />
<path d="M11343 43491
L11282 43500
" />
<path d="M11402 43475
L11343 43491
" />
<path d="M11460 43452
L11402 43475
" />
<path d="M11515 43424
L11460 43452
" />
<path d="M11567 43391
L11515 43424
" />
<path d="M11615 43352
L11567 43391
" />
<path d="M11659 43308
L11615 43352
" />
<path d="M11698 43260
L11659 43308
" />
<path d="M11731 43208
L11698 43260
" />
<path d="M11759 43153
L11731 43208
" />
<path d="M11782 43095
L11759 43153
" />
<path d="M11798 43036
L11782 43095
" />
<path d="M11807 42975
L11798 43036
" />
<path d="M11811 42913
L11807 42975
" />
<path d="M11807 42851
L11811 42913
" />
<path d="M11798 42790
L11807 42851
" />
<path d="M11782 42730
L11798 42790
" />
<path d="M11759 42673
L11782 42730
" />
<path d="M11731 42618
L11759 42673
" />
<path d="M11698 42566
L11731 42618
" />
<path d="M11659 42518
L11698 42566
" />
<path d="M11615 42474
L11659 42518
" />
<path d="M11567 42435
L11615 42474
" />
<path d="M11515 42401
L11567 42435
" />
<path d="M11460 42373
L11515 42401
" />
<path d="M11402 42351
L11460 42373
" />
<path d="M11343 42335
L11402 42351
" />
<path d="M11282 42326
L11343 42335
" />
<path d="M11220 42322
L11282 42326
" />
<path d="M11158 42326
L11220 42322
" />
<path d="M11097 42335
L11158 42326
" />
<path d="M11037 42351
L11097 42335
" />
<path d="M10980 42373
L11037 42351
" />
<path d="M10925 42401
L10980 42373
" />
<path d="M10873 42435
L10925 42401
" />
<path d="M10825 42474
L10873 42435
" />
<path d="M10781 42518
L10825 42474
" />
<path d="M10742 42566
L10781 42518
" />
<path d="M10709 42618
L10742 42566
" />
<path d="M10680 42673
L10709 42618
" />
<path d="M10658 42730
L10680 42673
" />
<path d="M10642 42790
L10658 42730
" />
<path d="M10633 42851
L10642 42790
" />
<path d="M10629 42913
L10633 42851
" />
<path d="M10633 42975
L10629 42913
" />
<path d="M10642 43036
L10633 42975
" />
<path d="M10658 43095
L10642 43036
" />
<path d="M10680 43153
L10658 43095
" />
<path d="M10709 43208
L10680 43153
" />
<path d="M10742 43260
L10709 43208
" />
<path d="M10781 43308
L10742 43260
" />
<path d="M10825 43352
L10781 43308
" />
<path d="M10873 43391
L10825 43352
" />
<path d="M10925 43424
L10873 43391
" />
<path d="M10980 43452
L10925 43424
" />
<path d="M11037 43475
L10980 43452
" />
<path d="M11097 43491
L11037 43475
" />
<path d="M11158 43500
L11097 43491
" />
<path d="M73425 39370
L73363 39366
" />
<path d="M73486 39366
L73425 39370
" />
<path d="M73547 39357
L73486 39366
" />
<path d="M73607 39341
L73547 39357
" />
<path d="M73665 39319
L73607 39341
" />
<path d="M73720 39290
L73665 39319
" />
<path d="M73772 39257
L73720 39290
" />
<path d="M73820 39218
L73772 39257
" />
<path d="M73864 39174
L73820 39218
" />
<path d="M73902 39126
L73864 39174
" />
<path d="M73936 39074
L73902 39126
" />
<path d="M73964 39019
L73936 39074
" />
<path d="M73986 38962
L73964 39019
" />
<path d="M74002 38902
L73986 38962
" />
<path d="M74012 38841
L74002 38902
" />
<path d="M74015 38779
L74012 38841
" />
<path d="M74012 38717
L74015 38779
" />
<path d="M74002 38656
L74012 38717
" />
<path d="M73986 38597
L74002 38656
" />
<path d="M73964 38539
L73986 38597
" />
<path d="M73936 38484
L73964 38539
" />
<path d="M73902 38432
L73936 38484
" />
<path d="M73864 38384
L73902 38432
" />
<path d="M73820 38340
L73864 38384
" />
<path d="M73772 38301
L73820 38340
" />
<path d="M73720 38268
L73772 38301
" />
<path d="M73665 38240
L73720 38268
" />
<path d="M73607 38217
L73665 38240
" />
<path d="M73547 38201
L73607 38217
" />
<path d="M73486 38192
L73547 38201
" />
<path d="M73425 38188
L73486 38192
" />
<path d="M73363 38192
L73425 38188
" />
<path d="M73302 38201
L73363 38192
" />
<path d="M73242 38217
L73302 38201
" />
<path d="M73185 38240
L73242 38217
" />
<path d="M73129 38268
L73185 38240
" />
<path d="M73078 38301
L73129 38268
" />
<path d="M73030 38340
L73078 38301
" />
<path d="M72986 38384
L73030 38340
" />
<path d="M72947 38432
L72986 38384
" />
<path d="M72913 38484
L72947 38432
" />
<path d="M72885 38539
L72913 38484
" />
<path d="M72863 38597
L72885 38539
" />
<path d="M72847 38656
L72863 38597
" />
<path d="M72837 38717
L72847 38656
" />
<path d="M72834 38779
L72837 38717
" />
<path d="M72837 38841
L72834 38779
" />
<path d="M72847 38902
L72837 38841
" />
<path d="M72863 38962
L72847 38902
" />
<path d="M72885 39019
L72863 38962
" />
<path d="M72913 39074
L72885 39019
" />
<path d="M72947 39126
L72913 39074
" />
<path d="M72986 39174
L72947 39126
" />
<path d="M73030 39218
L72986 39174
" />
<path d="M73078 39257
L73030 39218
" />
<path d="M73129 39290
L73078 39257
" />
<path d="M73185 39319
L73129 39290
" />
<path d="M73242 39341
L73185 39319
" />
<path d="M73302 39357
L73242 39341
" />
<path d="M73363 39366
L73302 39357
" />
<path d="M29921 37007
L29838 37003
" />
<path d="M30003 37003
L29921 37007
" />
<path d="M30084 36990
L30003 37003
" />
<path d="M30164 36969
L30084 36990
" />
<path d="M30241 36939
L30164 36969
" />
<path d="M30314 36902
L30241 36939
" />
<path d="M30384 36857
L30314 36902
" />
<path d="M30448 36805
L30384 36857
" />
<path d="M30506 36747
L30448 36805
" />
<path d="M30558 36683
L30506 36747
" />
<path d="M30603 36614
L30558 36683
" />
<path d="M30640 36540
L30603 36614
" />
<path d="M30670 36463
L30640 36540
" />
<path d="M30691 36384
L30670 36463
" />
<path d="M30704 36302
L30691 36384
" />
<path d="M30708 36220
L30704 36302
" />
<path d="M30704 36138
L30708 36220
" />
<path d="M30691 36056
L30704 36138
" />
<path d="M30670 35977
L30691 36056
" />
<path d="M30640 35900
L30670 35977
" />
<path d="M30603 35826
L30640 35900
" />
<path d="M30558 35757
L30603 35826
" />
<path d="M30506 35693
L30558 35757
" />
<path d="M30448 35635
L30506 35693
" />
<path d="M30384 35583
L30448 35635
" />
<path d="M30314 35538
L30384 35583
" />
<path d="M30241 35501
L30314 35538
" />
<path d="M30164 35471
L30241 35501
" />
<path d="M30084 35450
L30164 35471
" />
<path d="M30003 35437
L30084 35450
" />
<path d="M29921 35433
L30003 35437
" />
<path d="M29838 35437
L29921 35433
" />
<path d="M29757 35450
L29838 35437
" />
<path d="M29677 35471
L29757 35450
" />
<path d="M29600 35501
L29677 35471
" />
<path d="M29527 35538
L29600 35501
" />
<path d="M29458 35583
L29527 35538
" />
<path d="M29394 35635
L29458 35583
" />
<path d="M29336 35693
L29394 35635
" />
<path d="M29284 35757
L29336 35693
" />
<path d="M29239 35826
L29284 35757
" />
<path d="M29201 35900
L29239 35826
" />
<path d="M29172 35977
L29201 35900
" />
<path d="M29151 36056
L29172 35977
" />
<path d="M29138 36138
L29151 36056
" />
<path d="M29133 36220
L29138 36138
" />
<path d="M29138 36302
L29133 36220
" />
<path d="M29151 36384
L29138 36302
" />
<path d="M29172 36463
L29151 36384
" />
<path d="M29201 36540
L29172 36463
" />
<path d="M29239 36614
L29201 36540
" />
<path d="M29284 36683
L29239 36614
" />
<path d="M29336 36747
L29284 36683
" />
<path d="M29394 36805
L29336 36747
" />
<path d="M29458 36857
L29394 36805
" />
<path d="M29527 36902
L29458 36857
" />
<path d="M29600 36939
L29527 36902
" />
<path d="M29677 36969
L29600 36939
" />
<path d="M29757 36990
L29677 36969
" />
<path d="M29838 37003
L29757 36990
" />
<path d="M17322 37007
L17240 37003
" />
<path d="M17405 37003
L17322 37007
" />
<path d="M17486 36990
L17405 37003
" />
<path d="M17566 36969
L17486 36990
" />
<path d="M17643 36939
L17566 36969
" />
<path d="M17716 36902
L17643 36939
" />
<path d="M17785 36857
L17716 36902
" />
<path d="M17849 36805
L17785 36857
" />
<path d="M17907 36747
L17849 36805
" />
<path d="M17959 36683
L17907 36747
" />
<path d="M18004 36614
L17959 36683
" />
<path d="M18042 36540
L18004 36614
" />
<path d="M18071 36463
L18042 36540
" />
<path d="M18093 36384
L18071 36463
" />
<path d="M18105 36302
L18093 36384
" />
<path d="M18110 36220
L18105 36302
" />
<path d="M18105 36138
L18110 36220
" />
<path d="M18093 36056
L18105 36138
" />
<path d="M18071 35977
L18093 36056
" />
<path d="M18042 35900
L18071 35977
" />
<path d="M18004 35826
L18042 35900
" />
<path d="M17959 35757
L18004 35826
" />
<path d="M17907 35693
L17959 35757
" />
<path d="M17849 35635
L17907 35693
" />
<path d="M17785 35583
L17849 35635
" />
<path d="M17716 35538
L17785 35583
" />
<path d="M17643 35501
L17716 35538
" />
<path d="M17566 35471
L17643 35501
" />
<path d="M17486 35450
L17566 35471
" />
<path d="M17405 35437
L17486 35450
" />
<path d="M17322 35433
L17405 35437
" />
<path d="M17240 35437
L17322 35433
" />
<path d="M17159 35450
L17240 35437
" />
<path d="M17079 35471
L17159 35450
" />
<path d="M17002 35501
L17079 35471
" />
<path d="M16929 35538
L17002 35501
" />
<path d="M16860 35583
L16929 35538
" />
<path d="M16795 35635
L16860 35583
" />
<path d="M16737 35693
L16795 35635
" />
<path d="M16685 35757
L16737 35693
" />
<path d="M16640 35826
L16685 35757
" />
<path d="M16603 35900
L16640 35826
" />
<path d="M16573 35977
L16603 35900
" />
<path d="M16552 36056
L16573 35977
" />
<path d="M16539 36138
L16552 36056
" />
<path d="M16535 36220
L16539 36138
" />
<path d="M16539 36302
L16535 36220
" />
<path d="M16552 36384
L16539 36302
" />
<path d="M16573 36463
L16552 36384
" />
<path d="M16603 36540
L16573 36463
" />
<path d="M16640 36614
L16603 36540
" />
<path d="M16685 36683
L16640 36614
" />
<path d="M16737 36747
L16685 36683
" />
<path d="M16795 36805
L16737 36747
" />
<path d="M16860 36857
L16795 36805
" />
<path d="M16929 36902
L16860 36857
" />
<path d="M17002 36939
L16929 36902
" />
<path d="M17079 36969
L17002 36939
" />
<path d="M17159 36990
L17079 36969
" />
<path d="M17240 37003
L17159 36990
" />
<path d="M69488 28248
L69426 28244
" />
<path d="M69549 28244
L69488 28248
" />
<path d="M69610 28235
L69549 28244
" />
<path d="M69670 28219
L69610 28235
" />
<path d="M69728 28196
L69670 28219
" />
<path d="M69783 28168
L69728 28196
" />
<path d="M69835 28135
L69783 28168
" />
<path d="M69883 28096
L69835 28135
" />
<path d="M69927 28052
L69883 28096
" />
<path d="M69965 28004
L69927 28052
" />
<path d="M69999 27952
L69965 28004
" />
<path d="M70027 27897
L69999 27952
" />
<path d="M70049 27839
L70027 27897
" />
<path d="M70065 27780
L70049 27839
" />
<path d="M70075 27719
L70065 27780
" />
<path d="M70078 27657
L70075 27719
" />
<path d="M70075 27595
L70078 27657
" />
<path d="M70065 27534
L70075 27595
" />
<path d="M70049 27474
L70065 27534
" />
<path d="M70027 27417
L70049 27474
" />
<path d="M69999 27362
L70027 27417
" />
<path d="M69965 27310
L69999 27362
" />
<path d="M69927 27262
L69965 27310
" />
<path d="M69883 27218
L69927 27262
" />
<path d="M69835 27179
L69883 27218
" />
<path d="M69783 27146
L69835 27179
" />
<path d="M69728 27117
L69783 27146
" />
<path d="M69670 27095
L69728 27117
" />
<path d="M69610 27079
L69670 27095
" />
<path d="M69549 27070
L69610 27079
" />
<path d="M69488 27066
L69549 27070
" />
<path d="M69426 27070
L69488 27066
" />
<path d="M69365 27079
L69426 27070
" />
<path d="M69305 27095
L69365 27079
" />
<path d="M69247 27117
L69305 27095
" />
<path d="M69192 27146
L69247 27117
" />
<path d="M69141 27179
L69192 27146
" />
<path d="M69093 27218
L69141 27179
" />
<path d="M69049 27262
L69093 27218
" />
<path d="M69010 27310
L69049 27262
" />
<path d="M68976 27362
L69010 27310
" />
<path d="M68948 27417
L68976 27362
" />
<path d="M68926 27474
L68948 27417
" />
<path d="M68910 27534
L68926 27474
" />
<path d="M68900 27595
L68910 27534
" />
<path d="M68897 27657
L68900 27595
" />
<path d="M68900 27719
L68897 27657
" />
<path d="M68910 27780
L68900 27719
" />
<path d="M68926 27839
L68910 27780
" />
<path d="M68948 27897
L68926 27839
" />
<path d="M68976 27952
L68948 27897
" />
<path d="M69010 28004
L68976 27952
" />
<path d="M69049 28052
L69010 28004
" />
<path d="M69093 28096
L69049 28052
" />
<path d="M69141 28135
L69093 28096
" />
<path d="M69192 28168
L69141 28135
" />
<path d="M69247 28196
L69192 28168
" />
<path d="M69305 28219
L69247 28196
" />
<path d="M69365 28235
L69305 28219
" />
<path d="M69426 28244
L69365 28235
" />
<path d="M66141 27559
L66059 27554
" />
<path d="M66224 27554
L66141 27559
" />
<path d="M66305 27541
L66224 27554
" />
<path d="M66385 27520
L66305 27541
" />
<path d="M66462 27490
L66385 27520
" />
<path d="M66535 27453
L66462 27490
" />
<path d="M66604 27408
L66535 27453
" />
<path d="M66668 27356
L66604 27408
" />
<path d="M66726 27298
L66668 27356
" />
<path d="M66778 27234
L66726 27298
" />
<path d="M66823 27165
L66778 27234
" />
<path d="M66861 27091
L66823 27165
" />
<path d="M66890 27014
L66861 27091
" />
<path d="M66911 26935
L66890 27014
" />
<path d="M66924 26853
L66911 26935
" />
<path d="M66929 26771
L66924 26853
" />
<path d="M66924 26689
L66929 26771
" />
<path d="M66911 26607
L66924 26689
" />
<path d="M66890 26528
L66911 26607
" />
<path d="M66861 26451
L66890 26528
" />
<path d="M66823 26377
L66861 26451
" />
<path d="M66778 26308
L66823 26377
" />
<path d="M66726 26244
L66778 26308
" />
<path d="M66668 26186
L66726 26244
" />
<path d="M66604 26134
L66668 26186
" />
<path d="M66535 26089
L66604 26134
" />
<path d="M66462 26052
L66535 26089
" />
<path d="M66385 26022
L66462 26052
" />
<path d="M66305 26001
L66385 26022
" />
<path d="M66224 25988
L66305 26001
" />
<path d="M66141 25984
L66224 25988
" />
<path d="M66059 25988
L66141 25984
" />
<path d="M65978 26001
L66059 25988
" />
<path d="M65898 26022
L65978 26001
" />
<path d="M65821 26052
L65898 26022
" />
<path d="M65748 26089
L65821 26052
" />
<path d="M65678 26134
L65748 26089
" />
<path d="M65614 26186
L65678 26134
" />
<path d="M65556 26244
L65614 26186
" />
<path d="M65504 26308
L65556 26244
" />
<path d="M65459 26377
L65504 26308
" />
<path d="M65422 26451
L65459 26377
" />
<path d="M65392 26528
L65422 26451
" />
<path d="M65371 26607
L65392 26528
" />
<path d="M65358 26689
L65371 26607
" />
<path d="M65354 26771
L65358 26689
" />
<path d="M65358 26853
L65354 26771
" />
<path d="M65371 26935
L65358 26853
" />
<path d="M65392 27014
L65371 26935
" />
<path d="M65422 27091
L65392 27014
" />
<path d="M65459 27165
L65422 27091
" />
<path d="M65504 27234
L65459 27165
" />
<path d="M65556 27298
L65504 27234
" />
<path d="M65614 27356
L65556 27298
" />
<path d="M65678 27408
L65614 27356
" />
<path d="M65748 27453
L65678 27408
" />
<path d="M65821 27490
L65748 27453
" />
<path d="M65898 27520
L65821 27490
" />
<path d="M65978 27541
L65898 27520
" />
<path d="M66059 27554
L65978 27541
" />
<path d="M53543 27559
L53460 27554
" />
<path d="M53625 27554
L53543 27559
" />
<path d="M53707 27541
L53625 27554
" />
<path d="M53786 27520
L53707 27541
" />
<path d="M53863 27490
L53786 27520
" />
<path d="M53937 27453
L53863 27490
" />
<path d="M54006 27408
L53937 27453
" />
<path d="M54070 27356
L54006 27408
" />
<path d="M54128 27298
L54070 27356
" />
<path d="M54180 27234
L54128 27298
" />
<path d="M54225 27165
L54180 27234
" />
<path d="M54262 27091
L54225 27165
" />
<path d="M54292 27014
L54262 27091
" />
<path d="M54313 26935
L54292 27014
" />
<path d="M54326 26853
L54313 26935
" />
<path d="M54330 26771
L54326 26853
" />
<path d="M54326 26689
L54330 26771
" />
<path d="M54313 26607
L54326 26689
" />
<path d="M54292 26528
L54313 26607
" />
<path d="M54262 26451
L54292 26528
" />
<path d="M54225 26377
L54262 26451
" />
<path d="M54180 26308
L54225 26377
" />
<path d="M54128 26244
L54180 26308
" />
<path d="M54070 26186
L54128 26244
" />
<path d="M54006 26134
L54070 26186
" />
<path d="M53937 26089
L54006 26134
" />
<path d="M53863 26052
L53937 26089
" />
<path d="M53786 26022
L53863 26052
" />
<path d="M53707 26001
L53786 26022
" />
<path d="M53625 25988
L53707 26001
" />
<path d="M53543 25984
L53625 25988
" />
<path d="M53460 25988
L53543 25984
" />
<path d="M53379 26001
L53460 25988
" />
<path d="M53300 26022
L53379 26001
" />
<path d="M53223 26052
L53300 26022
" />
<path d="M53149 26089
L53223 26052
" />
<path d="M53080 26134
L53149 26089
" />
<path d="M53016 26186
L53080 26134
" />
<path d="M52958 26244
L53016 26186
" />
<path d="M52906 26308
L52958 26244
" />
<path d="M52861 26377
L52906 26308
" />
<path d="M52823 26451
L52861 26377
" />
<path d="M52794 26528
L52823 26451
" />
<path d="M52773 26607
L52794 26528
" />
<path d="M52760 26689
L52773 26607
" />
<path d="M52755 26771
L52760 26689
" />
<path d="M52760 26853
L52755 26771
" />
<path d="M52773 26935
L52760 26853
" />
<path d="M52794 27014
L52773 26935
" />
<path d="M52823 27091
L52794 27014
" />
<path d="M52861 27165
L52823 27091
" />
<path d="M52906 27234
L52861 27165
" />
<path d="M52958 27298
L52906 27234
" />
<path d="M53016 27356
L52958 27298
" />
<path d="M53080 27408
L53016 27356
" />
<path d="M53149 27453
L53080 27408
" />
<path d="M53223 27490
L53149 27453
" />
<path d="M53300 27520
L53223 27490
" />
<path d="M53379 27541
L53300 27520
" />
<path d="M53460 27554
L53379 27541
" />
<path d="M17322 24409
L17240 24405
" />
<path d="M17405 24405
L17322 24409
" />
<path d="M17486 24392
L17405 24405
" />
<path d="M17566 24370
L17486 24392
" />
<path d="M17643 24341
L17566 24370
" />
<path d="M17716 24303
L17643 24341
" />
<path d="M17785 24259
L17716 24303
" />
<path d="M17849 24207
L17785 24259
" />
<path d="M17907 24148
L17849 24207
" />
<path d="M17959 24084
L17907 24148
" />
<path d="M18004 24015
L17959 24084
" />
<path d="M18042 23942
L18004 24015
" />
<path d="M18071 23865
L18042 23942
" />
<path d="M18093 23785
L18071 23865
" />
<path d="M18105 23704
L18093 23785
" />
<path d="M18110 23622
L18105 23704
" />
<path d="M18105 23539
L18110 23622
" />
<path d="M18093 23458
L18105 23539
" />
<path d="M18071 23378
L18093 23458
" />
<path d="M18042 23301
L18071 23378
" />
<path d="M18004 23228
L18042 23301
" />
<path d="M17959 23159
L18004 23228
" />
<path d="M17907 23095
L17959 23159
" />
<path d="M17849 23036
L17907 23095
" />
<path d="M17785 22985
L17849 23036
" />
<path d="M17716 22940
L17785 22985
" />
<path d="M17643 22902
L17716 22940
" />
<path d="M17566 22873
L17643 22902
" />
<path d="M17486 22851
L17566 22873
" />
<path d="M17405 22838
L17486 22851
" />
<path d="M17322 22834
L17405 22838
" />
<path d="M17240 22838
L17322 22834
" />
<path d="M17159 22851
L17240 22838
" />
<path d="M17079 22873
L17159 22851
" />
<path d="M17002 22902
L17079 22873
" />
<path d="M16929 22940
L17002 22902
" />
<path d="M16860 22985
L16929 22940
" />
<path d="M16795 23036
L16860 22985
" />
<path d="M16737 23095
L16795 23036
" />
<path d="M16685 23159
L16737 23095
" />
<path d="M16640 23228
L16685 23159
" />
<path d="M16603 23301
L16640 23228
" />
<path d="M16573 23378
L16603 23301
" />
<path d="M16552 23458
L16573 23378
" />
<path d="M16539 23539
L16552 23458
" />
<path d="M16535 23622
L16539 23539
" />
<path d="M16539 23704
L16535 23622
" />
<path d="M16552 23785
L16539 23704
" />
<path d="M16573 23865
L16552 23785
" />
<path d="M16603 23942
L16573 23865
" />
<path d="M16640 24015
L16603 23942
" />
<path d="M16685 24084
L16640 24015
" />
<path d="M16737 24148
L16685 24084
" />
<path d="M16795 24207
L16737 24148
" />
<path d="M16860 24259
L16795 24207
" />
<path d="M16929 24303
L16860 24259
" />
<path d="M17002 24341
L16929 24303
" />
<path d="M17079 24370
L17002 24341
" />
<path d="M17159 24392
L17079 24370
" />
<path d="M17240 24405
L17159 24392
" />
<path d="M29921 24409
L29838 24405
" />
<path d="M30003 24405
L29921 24409
" />
<path d="M30084 24392
L30003 24405
" />
<path d="M30164 24370
L30084 24392
" />
<path d="M30241 24341
L30164 24370
" />
<path d="M30314 24303
L30241 24341
" />
<path d="M30384 24259
L30314 24303
" />
<path d="M30448 24207
L30384 24259
" />
<path d="M30506 24148
L30448 24207
" />
<path d="M30558 24084
L30506 24148
" />
<path d="M30603 24015
L30558 24084
" />
<path d="M30640 23942
L30603 24015
" />
<path d="M30670 23865
L30640 23942
" />
<path d="M30691 23785
L30670 23865
" />
<path d="M30704 23704
L30691 23785
" />
<path d="M30708 23622
L30704 23704
" />
<path d="M30704 23539
L30708 23622
" />
<path d="M30691 23458
L30704 23539
" />
<path d="M30670 23378
L30691 23458
" />
<path d="M30640 23301
L30670 23378
" />
<path d="M30603 23228
L30640 23301
" />
<path d="M30558 23159
L30603 23228
" />
<path d="M30506 23095
L30558 23159
" />
<path d="M30448 23036
L30506 23095
" />
<path d="M30384 22985
L30448 23036
" />
<path d="M30314 22940
L30384 22985
" />
<path d="M30241 22902
L30314 22940
" />
<path d="M30164 22873
L30241 22902
" />
<path d="M30084 22851
L30164 22873
" />
<path d="M30003 22838
L30084 22851
" />
<path d="M29921 22834
L30003 22838
" />
<path d="M29838 22838
L29921 22834
" />
<path d="M29757 22851
L29838 22838
" />
<path d="M29677 22873
L29757 22851
" />
<path d="M29600 22902
L29677 22873
" />
<path d="M29527 22940
L29600 22902
" />
<path d="M29458 22985
L29527 22940
" />
<path d="M29394 23036
L29458 22985
" />
<path d="M29336 23095
L29394 23036
" />
<path d="M29284 23159
L29336 23095
" />
<path d="M29239 23228
L29284 23159
" />
<path d="M29201 23301
L29239 23228
" />
<path d="M29172 23378
L29201 23301
" />
<path d="M29151 23458
L29172 23378
" />
<path d="M29138 23539
L29151 23458
" />
<path d="M29133 23622
L29138 23539
" />
<path d="M29138 23704
L29133 23622
" />
<path d="M29151 23785
L29138 23704
" />
<path d="M29172 23865
L29151 23785
" />
<path d="M29201 23942
L29172 23865
" />
<path d="M29239 24015
L29201 23942
" />
<path d="M29284 24084
L29239 24015
" />
<path d="M29336 24148
L29284 24084
" />
<path d="M29394 24207
L29336 24148
" />
<path d="M29458 24259
L29394 24207
" />
<path d="M29527 24303
L29458 24259
" />
<path d="M29600 24341
L29527 24303
" />
<path d="M29677 24370
L29600 24341
" />
<path d="M29757 24392
L29677 24370
" />
<path d="M29838 24405
L29757 24392
" />
<path d="M23622 37401
L22840 37360
" />
<path d="M24403 37360
L23622 37401
" />
<path d="M25177 37238
L24403 37360
" />
<path d="M25933 37035
L25177 37238
" />
<path d="M26664 36754
L25933 37035
" />
<path d="M27362 36399
L26664 36754
" />
<path d="M28018 35972
L27362 36399
" />
<path d="M28627 35480
L28018 35972
" />
<path d="M29181 34926
L28627 35480
" />
<path d="M29673 34318
L29181 34926
" />
<path d="M30100 33661
L29673 34318
" />
<path d="M30455 32963
L30100 33661
" />
<path d="M30736 32232
L30455 32963
" />
<path d="M30938 31476
L30736 32232
" />
<path d="M31061 30703
L30938 31476
" />
<path d="M31102 29921
L31061 30703
" />
<path d="M31061 29139
L31102 29921
" />
<path d="M30938 28366
L31061 29139
" />
<path d="M30736 27609
L30938 28366
" />
<path d="M30455 26878
L30736 27609
" />
<path d="M30100 26181
L30455 26878
" />
<path d="M29673 25524
L30100 26181
" />
<path d="M29181 24915
L29673 25524
" />
<path d="M28627 24362
L29181 24915
" />
<path d="M28018 23869
L28627 24362
" />
<path d="M27362 23443
L28018 23869
" />
<path d="M26664 23087
L27362 23443
" />
<path d="M25933 22807
L26664 23087
" />
<path d="M25177 22604
L25933 22807
" />
<path d="M24403 22481
L25177 22604
" />
<path d="M23622 22440
L24403 22481
" />
<path d="M22840 22481
L23622 22440
" />
<path d="M22066 22604
L22840 22481
" />
<path d="M21310 22807
L22066 22604
" />
<path d="M20579 23087
L21310 22807
" />
<path d="M19881 23443
L20579 23087
" />
<path d="M19225 23869
L19881 23443
" />
<path d="M18616 24362
L19225 23869
" />
<path d="M18063 24915
L18616 24362
" />
<path d="M17570 25524
L18063 24915
" />
<path d="M17143 26181
L17570 25524
" />
<path d="M16788 26878
L17143 26181
" />
<path d="M16507 27609
L16788 26878
" />
<path d="M16305 28366
L16507 27609
" />
<path d="M16182 29139
L16305 28366
" />
<path d="M16141 29921
L16182 29139
" />
<path d="M16182 30703
L16141 29921
" />
<path d="M16305 31476
L16182 30703
" />
<path d="M16507 32232
L16305 31476
" />
<path d="M16788 32963
L16507 32232
" />
<path d="M17143 33661
L16788 32963
" />
<path d="M17570 34318
L17143 33661
" />
<path d="M18063 34926
L17570 34318
" />
<path d="M18616 35480
L18063 34926
" />
<path d="M19225 35972
L18616 35480
" />
<path d="M19881 36399
L19225 35972
" />
<path d="M20579 36754
L19881 36399
" />
<path d="M21310 37035
L20579 36754
" />
<path d="M22066 37238
L21310 37035
" />
<path d="M22840 37360
L22066 37238
" />
<path d="M33267 20669
L33205 20666
" />
<path d="M33329 20666
L33267 20669
" />
<path d="M33390 20656
L33329 20666
" />
<path d="M33450 20640
L33390 20656
" />
<path d="M33507 20618
L33450 20640
" />
<path d="M33562 20590
L33507 20618
" />
<path d="M33614 20556
L33562 20590
" />
<path d="M33662 20517
L33614 20556
" />
<path d="M33706 20473
L33662 20517
" />
<path d="M33745 20425
L33706 20473
" />
<path d="M33779 20374
L33745 20425
" />
<path d="M33807 20318
L33779 20374
" />
<path d="M33829 20261
L33807 20318
" />
<path d="M33845 20201
L33829 20261
" />
<path d="M33855 20140
L33845 20201
" />
<path d="M33858 20078
L33855 20140
" />
<path d="M33855 20017
L33858 20078
" />
<path d="M33845 19955
L33855 20017
" />
<path d="M33829 19896
L33845 19955
" />
<path d="M33807 19838
L33829 19896
" />
<path d="M33779 19783
L33807 19838
" />
<path d="M33745 19731
L33779 19783
" />
<path d="M33706 19683
L33745 19731
" />
<path d="M33662 19639
L33706 19683
" />
<path d="M33614 19600
L33662 19639
" />
<path d="M33562 19567
L33614 19600
" />
<path d="M33507 19539
L33562 19567
" />
<path d="M33450 19517
L33507 19539
" />
<path d="M33390 19501
L33450 19517
" />
<path d="M33329 19491
L33390 19501
" />
<path d="M33267 19488
L33329 19491
" />
<path d="M33205 19491
L33267 19488
" />
<path d="M33144 19501
L33205 19491
" />
<path d="M33085 19517
L33144 19501
" />
<path d="M33027 19539
L33085 19517
" />
<path d="M32972 19567
L33027 19539
" />
<path d="M32920 19600
L32972 19567
" />
<path d="M32872 19639
L32920 19600
" />
<path d="M32828 19683
L32872 19639
" />
<path d="M32789 19731
L32828 19683
" />
<path d="M32756 19783
L32789 19731
" />
<path d="M32728 19838
L32756 19783
" />
<path d="M32706 19896
L32728 19838
" />
<path d="M32690 19955
L32706 19896
" />
<path d="M32680 20017
L32690 19955
" />
<path d="M32677 20078
L32680 20017
" />
<path d="M32680 20140
L32677 20078
" />
<path d="M32690 20201
L32680 20140
" />
<path d="M32706 20261
L32690 20201
" />
<path d="M32728 20318
L32706 20261
" />
<path d="M32756 20374
L32728 20318
" />
<path d="M32789 20425
L32756 20374
" />
<path d="M32828 20473
L32789 20425
" />
<path d="M32872 20517
L32828 20473
" />
<path d="M32920 20556
L32872 20517
" />
<path d="M32972 20590
L32920 20556
" />
<path d="M33027 20618
L32972 20590
" />
<path d="M33085 20640
L33027 20618
" />
<path d="M33144 20656
L33085 20640
" />
<path d="M33205 20666
L33144 20656
" />
<path d="M11023 19488
L10961 19484
" />
<path d="M11085 19484
L11023 19488
" />
<path d="M11146 19475
L11085 19484
" />
<path d="M11206 19459
L11146 19475
" />
<path d="M11263 19437
L11206 19459
" />
<path d="M11318 19409
L11263 19437
" />
<path d="M11370 19375
L11318 19409
" />
<path d="M11418 19336
L11370 19375
" />
<path d="M11462 19292
L11418 19336
" />
<path d="M11501 19244
L11462 19292
" />
<path d="M11535 19192
L11501 19244
" />
<path d="M11563 19137
L11535 19192
" />
<path d="M11585 19080
L11563 19137
" />
<path d="M11601 19020
L11585 19080
" />
<path d="M11610 18959
L11601 19020
" />
<path d="M11614 18897
L11610 18959
" />
<path d="M11610 18835
L11614 18897
" />
<path d="M11601 18774
L11610 18835
" />
<path d="M11585 18715
L11601 18774
" />
<path d="M11563 18657
L11585 18715
" />
<path d="M11535 18602
L11563 18657
" />
<path d="M11501 18550
L11535 18602
" />
<path d="M11462 18502
L11501 18550
" />
<path d="M11418 18458
L11462 18502
" />
<path d="M11370 18419
L11418 18458
" />
<path d="M11318 18386
L11370 18419
" />
<path d="M11263 18358
L11318 18386
" />
<path d="M11206 18335
L11263 18358
" />
<path d="M11146 18320
L11206 18335
" />
<path d="M11085 18310
L11146 18320
" />
<path d="M11023 18307
L11085 18310
" />
<path d="M10961 18310
L11023 18307
" />
<path d="M10900 18320
L10961 18310
" />
<path d="M10841 18335
L10900 18320
" />
<path d="M10783 18358
L10841 18335
" />
<path d="M10728 18386
L10783 18358
" />
<path d="M10676 18419
L10728 18386
" />
<path d="M10628 18458
L10676 18419
" />
<path d="M10584 18502
L10628 18458
" />
<path d="M10545 18550
L10584 18502
" />
<path d="M10512 18602
L10545 18550
" />
<path d="M10484 18657
L10512 18602
" />
<path d="M10461 18715
L10484 18657
" />
<path d="M10445 18774
L10461 18715
" />
<path d="M10436 18835
L10445 18774
" />
<path d="M10433 18897
L10436 18835
" />
<path d="M10436 18959
L10433 18897
" />
<path d="M10445 19020
L10436 18959
" />
<path d="M10461 19080
L10445 19020
" />
<path d="M10484 19137
L10461 19080
" />
<path d="M10512 19192
L10484 19137
" />
<path d="M10545 19244
L10512 19192
" />
<path d="M10584 19292
L10545 19244
" />
<path d="M10628 19336
L10584 19292
" />
<path d="M10676 19375
L10628 19336
" />
<path d="M10728 19409
L10676 19375
" />
<path d="M10783 19437
L10728 19409
" />
<path d="M10841 19459
L10783 19437
" />
<path d="M10900 19475
L10841 19459
" />
<path d="M10961 19484
L10900 19475
" />
<path d="M66141 14960
L66059 14956
" />
<path d="M66224 14956
L66141 14960
" />
<path d="M66305 14943
L66224 14956
" />
<path d="M66385 14922
L66305 14943
" />
<path d="M66462 14892
L66385 14922
" />
<path d="M66535 14855
L66462 14892
" />
<path d="M66604 14810
L66535 14855
" />
<path d="M66668 14758
L66604 14810
" />
<path d="M66726 14700
L66668 14758
" />
<path d="M66778 14636
L66726 14700
" />
<path d="M66823 14566
L66778 14636
" />
<path d="M66861 14493
L66823 14566
" />
<path d="M66890 14416
L66861 14493
" />
<path d="M66911 14336
L66890 14416
" />
<path d="M66924 14255
L66911 14336
" />
<path d="M66929 14173
L66924 14255
" />
<path d="M66924 14090
L66929 14173
" />
<path d="M66911 14009
L66924 14090
" />
<path d="M66890 13929
L66911 14009
" />
<path d="M66861 13852
L66890 13929
" />
<path d="M66823 13779
L66861 13852
" />
<path d="M66778 13710
L66823 13779
" />
<path d="M66726 13646
L66778 13710
" />
<path d="M66668 13588
L66726 13646
" />
<path d="M66604 13536
L66668 13588
" />
<path d="M66535 13491
L66604 13536
" />
<path d="M66462 13453
L66535 13491
" />
<path d="M66385 13424
L66462 13453
" />
<path d="M66305 13403
L66385 13424
" />
<path d="M66224 13390
L66305 13403
" />
<path d="M66141 13385
L66224 13390
" />
<path d="M66059 13390
L66141 13385
" />
<path d="M65978 13403
L66059 13390
" />
<path d="M65898 13424
L65978 13403
" />
<path d="M65821 13453
L65898 13424
" />
<path d="M65748 13491
L65821 13453
" />
<path d="M65678 13536
L65748 13491
" />
<path d="M65614 13588
L65678 13536
" />
<path d="M65556 13646
L65614 13588
" />
<path d="M65504 13710
L65556 13646
" />
<path d="M65459 13779
L65504 13710
" />
<path d="M65422 13852
L65459 13779
" />
<path d="M65392 13929
L65422 13852
" />
<path d="M65371 14009
L65392 13929
" />
<path d="M65358 14090
L65371 14009
" />
<path d="M65354 14173
L65358 14090
" />
<path d="M65358 14255
L65354 14173
" />
<path d="M65371 14336
L65358 14255
" />
<path d="M65392 14416
L65371 14336
" />
<path d="M65422 14493
L65392 14416
" />
<path d="M65459 14566
L65422 14493
" />
<path d="M65504 14636
L65459 14566
" />
<path d="M65556 14700
L65504 14636
" />
<path d="M65614 14758
L65556 14700
" />
<path d="M65678 14810
L65614 14758
" />
<path d="M65748 14855
L65678 14810
" />
<path d="M65821 14892
L65748 14855
" />
<path d="M65898 14922
L65821 14892
" />
<path d="M65978 14943
L65898 14922
" />
<path d="M66059 14956
L65978 14943
" />
<path d="M53543 14960
L53460 14956
" />
<path d="M53625 14956
L53543 14960
" />
<path d="M53707 14943
L53625 14956
" />
<path d="M53786 14922
L53707 14943
" />
<path d="M53863 14892
L53786 14922
" />
<path d="M53937 14855
L53863 14892
" />
<path d="M54006 14810
L53937 14855
" />
<path d="M54070 14758
L54006 14810
" />
<path d="M54128 14700
L54070 14758
" />
<path d="M54180 14636
L54128 14700
" />
<path d="M54225 14566
L54180 14636
" />
<path d="M54262 14493
L54225 14566
" />
<path d="M54292 14416
L54262 14493
" />
<path d="M54313 14336
L54292 14416
" />
<path d="M54326 14255
L54313 14336
" />
<path d="M54330 14173
L54326 14255
" />
<path d="M54326 14090
L54330 14173
" />
<path d="M54313 14009
L54326 14090
" />
<path d="M54292 13929
L54313 14009
" />
<path d="M54262 13852
L54292 13929
" />
<path d="M54225 13779
L54262 13852
" />
<path d="M54180 13710
L54225 13779
" />
<path d="M54128 13646
L54180 13710
" />
<path d="M54070 13588
L54128 13646
" />
<path d="M54006 13536
L54070 13588
" />
<path d="M53937 13491
L54006 13536
" />
<path d="M53863 13453
L53937 13491
" />
<path d="M53786 13424
L53863 13453
" />
<path d="M53707 13403
L53786 13424
" />
<path d="M53625 13390
L53707 13403
" />
<path d="M53543 13385
L53625 13390
" />
<path d="M53460 13390
L53543 13385
" />
<path d="M53379 13403
L53460 13390
" />
<path d="M53300 13424
L53379 13403
" />
<path d="M53223 13453
L53300 13424
" />
<path d="M53149 13491
L53223 13453
" />
<path d="M53080 13536
L53149 13491
" />
<path d="M53016 13588
L53080 13536
" />
<path d="M52958 13646
L53016 13588
" />
<path d="M52906 13710
L52958 13646
" />
<path d="M52861 13779
L52906 13710
" />
<path d="M52823 13852
L52861 13779
" />
<path d="M52794 13929
L52823 13852
" />
<path d="M52773 14009
L52794 13929
" />
<path d="M52760 14090
L52773 14009
" />
<path d="M52755 14173
L52760 14090
" />
<path d="M52760 14255
L52755 14173
" />
<path d="M52773 14336
L52760 14255
" />
<path d="M52794 14416
L52773 14336
" />
<path d="M52823 14493
L52794 14416
" />
<path d="M52861 14566
L52823 14493
" />
<path d="M52906 14636
L52861 14566
" />
<path d="M52958 14700
L52906 14636
" />
<path d="M53016 14758
L52958 14700
" />
<path d="M53080 14810
L53016 14758
" />
<path d="M53149 14855
L53080 14810
" />
<path d="M53223 14892
L53149 14855
" />
<path d="M53300 14922
L53223 14892
" />
<path d="M53379 14943
L53300 14922
" />
<path d="M53460 14956
L53379 14943
" />
<path d="M59842 27952
L59060 27911
" />
<path d="M60624 27911
L59842 27952
" />
<path d="M61397 27789
L60624 27911
" />
<path d="M62154 27586
L61397 27789
" />
<path d="M62885 27306
L62154 27586
" />
<path d="M63582 26950
L62885 27306
" />
<path d="M64239 26524
L63582 26950
" />
<path d="M64847 26031
L64239 26524
" />
<path d="M65401 25477
L64847 26031
" />
<path d="M65894 24869
L65401 25477
" />
<path d="M66320 24212
L65894 24869
" />
<path d="M66676 23514
L66320 24212
" />
<path d="M66956 22783
L66676 23514
" />
<path d="M67159 22027
L66956 22783
" />
<path d="M67281 21254
L67159 22027
" />
<path d="M67322 20472
L67281 21254
" />
<path d="M67281 19690
L67322 20472
" />
<path d="M67159 18917
L67281 19690
" />
<path d="M66956 18160
L67159 18917
" />
<path d="M66676 17429
L66956 18160
" />
<path d="M66320 16732
L66676 17429
" />
<path d="M65894 16075
L66320 16732
" />
<path d="M65401 15467
L65894 16075
" />
<path d="M64847 14913
L65401 15467
" />
<path d="M64239 14420
L64847 14913
" />
<path d="M63582 13994
L64239 14420
" />
<path d="M62885 13638
L63582 13994
" />
<path d="M62154 13358
L62885 13638
" />
<path d="M61397 13155
L62154 13358
" />
<path d="M60624 13033
L61397 13155
" />
<path d="M59842 12992
L60624 13033
" />
<path d="M59060 13033
L59842 12992
" />
<path d="M58287 13155
L59060 13033
" />
<path d="M57530 13358
L58287 13155
" />
<path d="M56800 13638
L57530 13358
" />
<path d="M56102 13994
L56800 13638
" />
<path d="M55445 14420
L56102 13994
" />
<path d="M54837 14913
L55445 14420
" />
<path d="M54283 15467
L54837 14913
" />
<path d="M53790 16075
L54283 15467
" />
<path d="M53364 16732
L53790 16075
" />
<path d="M53008 17429
L53364 16732
" />
<path d="M52728 18160
L53008 17429
" />
<path d="M52525 18917
L52728 18160
" />
<path d="M52403 19690
L52525 18917
" />
<path d="M52362 20472
L52403 19690
" />
<path d="M52403 21254
L52362 20472
" />
<path d="M52525 22027
L52403 21254
" />
<path d="M52728 22783
L52525 22027
" />
<path d="M53008 23514
L52728 22783
" />
<path d="M53364 24212
L53008 23514
" />
<path d="M53790 24869
L53364 24212
" />
<path d="M54283 25477
L53790 24869
" />
<path d="M54837 26031
L54283 25477
" />
<path d="M55445 26524
L54837 26031
" />
<path d="M56102 26950
L55445 26524
" />
<path d="M56800 27306
L56102 26950
" />
<path d="M57530 27586
L56800 27306
" />
<path d="M58287 27789
L57530 27586
" />
<path d="M59060 27911
L58287 27789
" />
<path d="M69488 13877
L69426 13874
" />
<path d="M69549 13874
L69488 13877
" />
<path d="M69610 13865
L69549 13874
" />
<path d="M69670 13849
L69610 13865
" />
<path d="M69728 13826
L69670 13849
" />
<path d="M69783 13798
L69728 13826
" />
<path d="M69835 13765
L69783 13798
" />
<path d="M69883 13726
L69835 13765
" />
<path d="M69927 13682
L69883 13726
" />
<path d="M69965 13634
L69927 13682
" />
<path d="M69999 13582
L69965 13634
" />
<path d="M70027 13527
L69999 13582
" />
<path d="M70049 13469
L70027 13527
" />
<path d="M70065 13410
L70049 13469
" />
<path d="M70075 13349
L70065 13410
" />
<path d="M70078 13287
L70075 13349
" />
<path d="M70075 13225
L70078 13287
" />
<path d="M70065 13164
L70075 13225
" />
<path d="M70049 13104
L70065 13164
" />
<path d="M70027 13047
L70049 13104
" />
<path d="M69999 12992
L70027 13047
" />
<path d="M69965 12940
L69999 12992
" />
<path d="M69927 12892
L69965 12940
" />
<path d="M69883 12848
L69927 12892
" />
<path d="M69835 12809
L69883 12848
" />
<path d="M69783 12775
L69835 12809
" />
<path d="M69728 12747
L69783 12775
" />
<path d="M69670 12725
L69728 12747
" />
<path d="M69610 12709
L69670 12725
" />
<path d="M69549 12700
L69610 12709
" />
<path d="M69488 12696
L69549 12700
" />
<path d="M69426 12700
L69488 12696
" />
<path d="M69365 12709
L69426 12700
" />
<path d="M69305 12725
L69365 12709
" />
<path d="M69247 12747
L69305 12725
" />
<path d="M69192 12775
L69247 12747
" />
<path d="M69141 12809
L69192 12775
" />
<path d="M69093 12848
L69141 12809
" />
<path d="M69049 12892
L69093 12848
" />
<path d="M69010 12940
L69049 12892
" />
<path d="M68976 12992
L69010 12940
" />
<path d="M68948 13047
L68976 12992
" />
<path d="M68926 13104
L68948 13047
" />
<path d="M68910 13164
L68926 13104
" />
<path d="M68900 13225
L68910 13164
" />
<path d="M68897 13287
L68900 13225
" />
<path d="M68900 13349
L68897 13287
" />
<path d="M68910 13410
L68900 13349
" />
<path d="M68926 13469
L68910 13410
" />
<path d="M68948 13527
L68926 13469
" />
<path d="M68976 13582
L68948 13527
" />
<path d="M69010 13634
L68976 13582
" />
<path d="M69049 13682
L69010 13634
" />
<path d="M69093 13726
L69049 13682
" />
<path d="M69141 13765
L69093 13726
" />
<path d="M69192 13798
L69141 13765
" />
<path d="M69247 13826
L69192 13798
" />
<path d="M69305 13849
L69247 13826
" />
<path d="M69365 13865
L69305 13849
" />
<path d="M69426 13874
L69365 13865
" />
<path d="M73622 11614
L73560 11610
" />
<path d="M73683 11610
L73622 11614
" />
<path d="M73744 11601
L73683 11610
" />
<path d="M73804 11585
L73744 11601
" />
<path d="M73862 11563
L73804 11585
" />
<path d="M73917 11535
L73862 11563
" />
<path d="M73969 11501
L73917 11535
" />
<path d="M74017 11462
L73969 11501
" />
<path d="M74060 11418
L74017 11462
" />
<path d="M74099 11370
L74060 11418
" />
<path d="M74133 11318
L74099 11370
" />
<path d="M74161 11263
L74133 11318
" />
<path d="M74183 11206
L74161 11263
" />
<path d="M74199 11146
L74183 11206
" />
<path d="M74209 11085
L74199 11146
" />
<path d="M74212 11023
L74209 11085
" />
<path d="M74209 10961
L74212 11023
" />
<path d="M74199 10900
L74209 10961
" />
<path d="M74183 10841
L74199 10900
" />
<path d="M74161 10783
L74183 10841
" />
<path d="M74133 10728
L74161 10783
" />
<path d="M74099 10676
L74133 10728
" />
<path d="M74060 10628
L74099 10676
" />
<path d="M74017 10584
L74060 10628
" />
<path d="M73969 10545
L74017 10584
" />
<path d="M73917 10512
L73969 10545
" />
<path d="M73862 10484
L73917 10512
" />
<path d="M73804 10461
L73862 10484
" />
<path d="M73744 10445
L73804 10461
" />
<path d="M73683 10436
L73744 10445
" />
<path d="M73622 10433
L73683 10436
" />
<path d="M73560 10436
L73622 10433
" />
<path d="M73499 10445
L73560 10436
" />
<path d="M73439 10461
L73499 10445
" />
<path d="M73381 10484
L73439 10461
" />
<path d="M73326 10512
L73381 10484
" />
<path d="M73274 10545
L73326 10512
" />
<path d="M73226 10584
L73274 10545
" />
<path d="M73183 10628
L73226 10584
" />
<path d="M73144 10676
L73183 10628
" />
<path d="M73110 10728
L73144 10676
" />
<path d="M73082 10783
L73110 10728
" />
<path d="M73060 10841
L73082 10783
" />
<path d="M73044 10900
L73060 10841
" />
<path d="M73034 10961
L73044 10900
" />
<path d="M73031 11023
L73034 10961
" />
<path d="M73034 11085
L73031 11023
" />
<path d="M73044 11146
L73034 11085
" />
<path d="M73060 11206
L73044 11146
" />
<path d="M73082 11263
L73060 11206
" />
<path d="M73110 11318
L73082 11263
" />
<path d="M73144 11370
L73110 11318
" />
<path d="M73183 11418
L73144 11370
" />
<path d="M73226 11462
L73183 11418
" />
<path d="M73274 11501
L73226 11462
" />
<path d="M73326 11535
L73274 11501
" />
<path d="M73381 11563
L73326 11535
" />
<path d="M73439 11585
L73381 11563
" />
<path d="M73499 11601
L73439 11585
" />
<path d="M73560 11610
L73499 11601
" />
<path d="M47244 11614
L47182 11610
" />
<path d="M47305 11610
L47244 11614
" />
<path d="M47366 11601
L47305 11610
" />
<path d="M47426 11585
L47366 11601
" />
<path d="M47484 11563
L47426 11585
" />
<path d="M47539 11535
L47484 11563
" />
<path d="M47591 11501
L47539 11535
" />
<path d="M47639 11462
L47591 11501
" />
<path d="M47682 11418
L47639 11462
" />
<path d="M47721 11370
L47682 11418
" />
<path d="M47755 11318
L47721 11370
" />
<path d="M47783 11263
L47755 11318
" />
<path d="M47805 11206
L47783 11263
" />
<path d="M47821 11146
L47805 11206
" />
<path d="M47831 11085
L47821 11146
" />
<path d="M47834 11023
L47831 11085
" />
<path d="M47831 10961
L47834 11023
" />
<path d="M47821 10900
L47831 10961
" />
<path d="M47805 10841
L47821 10900
" />
<path d="M47783 10783
L47805 10841
" />
<path d="M47755 10728
L47783 10783
" />
<path d="M47721 10676
L47755 10728
" />
<path d="M47682 10628
L47721 10676
" />
<path d="M47639 10584
L47682 10628
" />
<path d="M47591 10545
L47639 10584
" />
<path d="M47539 10512
L47591 10545
" />
<path d="M47484 10484
L47539 10512
" />
<path d="M47426 10461
L47484 10484
" />
<path d="M47366 10445
L47426 10461
" />
<path d="M47305 10436
L47366 10445
" />
<path d="M47244 10433
L47305 10436
" />
<path d="M47182 10436
L47244 10433
" />
<path d="M47121 10445
L47182 10436
" />
<path d="M47061 10461
L47121 10445
" />
<path d="M47003 10484
L47061 10461
" />
<path d="M46948 10512
L47003 10484
" />
<path d="M46896 10545
L46948 10512
" />
<path d="M46848 10584
L46896 10545
" />
<path d="M46805 10628
L46848 10584
" />
<path d="M46766 10676
L46805 10628
" />
<path d="M46732 10728
L46766 10676
" />
<path d="M46704 10783
L46732 10728
" />
<path d="M46682 10841
L46704 10783
" />
<path d="M46666 10900
L46682 10841
" />
<path d="M46656 10961
L46666 10900
" />
<path d="M46653 11023
L46656 10961
" />
<path d="M46656 11085
L46653 11023
" />
<path d="M46666 11146
L46656 11085
" />
<path d="M46682 11206
L46666 11146
" />
<path d="M46704 11263
L46682 11206
" />
<path d="M46732 11318
L46704 11263
" />
<path d="M46766 11370
L46732 11318
" />
<path d="M46805 11418
L46766 11370
" />
<path d="M46848 11462
L46805 11418
" />
<path d="M46896 11501
L46848 11462
" />
<path d="M46948 11535
L46896 11501
" />
<path d="M47003 11563
L46948 11535
" />
<path d="M47061 11585
L47003 11563
" />
<path d="M47121 11601
L47061 11585
" />
<path d="M47182 11610
L47121 11601
" />
<path d="M20866 11614
L20804 11610
" />
<path d="M20927 11610
L20866 11614
" />
<path d="M20988 11601
L20927 11610
" />
<path d="M21048 11585
L20988 11601
" />
<path d="M21106 11563
L21048 11585
" />
<path d="M21161 11535
L21106 11563
" />
<path d="M21213 11501
L21161 11535
" />
<path d="M21261 11462
L21213 11501
" />
<path d="M21305 11418
L21261 11462
" />
<path d="M21343 11370
L21305 11418
" />
<path d="M21377 11318
L21343 11370
" />
<path d="M21405 11263
L21377 11318
" />
<path d="M21427 11206
L21405 11263
" />
<path d="M21443 11146
L21427 11206
" />
<path d="M21453 11085
L21443 11146
" />
<path d="M21456 11023
L21453 11085
" />
<path d="M21453 10961
L21456 11023
" />
<path d="M21443 10900
L21453 10961
" />
<path d="M21427 10841
L21443 10900
" />
<path d="M21405 10783
L21427 10841
" />
<path d="M21377 10728
L21405 10783
" />
<path d="M21343 10676
L21377 10728
" />
<path d="M21305 10628
L21343 10676
" />
<path d="M21261 10584
L21305 10628
" />
<path d="M21213 10545
L21261 10584
" />
<path d="M21161 10512
L21213 10545
" />
<path d="M21106 10484
L21161 10512
" />
<path d="M21048 10461
L21106 10484
" />
<path d="M20988 10445
L21048 10461
" />
<path d="M20927 10436
L20988 10445
" />
<path d="M20866 10433
L20927 10436
" />
<path d="M20804 10436
L20866 10433
" />
<path d="M20743 10445
L20804 10436
" />
<path d="M20683 10461
L20743 10445
" />
<path d="M20625 10484
L20683 10461
" />
<path d="M20570 10512
L20625 10484
" />
<path d="M20519 10545
L20570 10512
" />
<path d="M20470 10584
L20519 10545
" />
<path d="M20427 10628
L20470 10584
" />
<path d="M20388 10676
L20427 10628
" />
<path d="M20354 10728
L20388 10676
" />
<path d="M20326 10783
L20354 10728
" />
<path d="M20304 10841
L20326 10783
" />
<path d="M20288 10900
L20304 10841
" />
<path d="M20278 10961
L20288 10900
" />
<path d="M20275 11023
L20278 10961
" />
<path d="M20278 11085
L20275 11023
" />
<path d="M20288 11146
L20278 11085
" />
<path d="M20304 11206
L20288 11146
" />
<path d="M20326 11263
L20304 11206
" />
<path d="M20354 11318
L20326 11263
" />
<path d="M20388 11370
L20354 11318
" />
<path d="M20427 11418
L20388 11370
" />
<path d="M20470 11462
L20427 11418
" />
<path d="M20519 11501
L20470 11462
" />
<path d="M20570 11535
L20519 11501
" />
<path d="M20625 11563
L20570 11535
" />
<path d="M20683 11585
L20625 11563
" />
<path d="M20743 11601
L20683 11585
" />
<path d="M20804 11610
L20743 11601
" />
<path d="M74803 59842
L74803 9842
" />
<path d="M34645 59842
L74803 59842
" />
<path d="M34645 44094
L34645 59842
" />
<path d="M9842 44094
L34645 44094
" />
<path d="M9842 17716
L9842 44094
" />
<path d="M19685 17716
L9842 17716
" />
<path d="M19685 9842
L19685 17716
" />
<path d="M74803 9842
L19685 9842
" />
<g >
</g>
<g >
</g>
<g >
</g>
<g >
</g>
<g >
</g>
<g >
</g>
<g >
</g>
<g >
</g>
<g >
</g>
<g >
</g>
<g >
</g>
<g >
</g>
<g >
</g>
<g >
</g>
<g >
</g>
<g >
</g>
<g >
</g>
<g >
</g>
<g >
</g>
<g >
</g>
<g >
</g>
<g >
</g>
<g >
</g>
<g >
</g>
<g >
</g>
<g >
</g>
<g >
</g>
<g >
</g>
<g >
</g>
<g >
</g>
<g >
</g>
<g >
</g>
<g >
</g>
<g >
</g>
<g >
</g>
<g >
</g>
<g >
</g>
<g >
</g>
<g >
</g>
<g >
</g>
<g >
</g>
<g >
</g>
<g >
</g>
<g >
</g>
<g >
</g>
<g >
</g>
<g >
</g>
<g >
</g>
<g >
</g>
<g >
</g>
<g >
</g>
<g >
</g>
<g >
</g>
<g >
</g>
<g >
</g>
<g >
</g>
<g >
</g>
<g >
</g>
<g >
</g>
<g >
</g>
<g >
</g>
<g >
</g>
<g >
</g>
<g >
</g>
<g >
</g>
<g >
</g>
<g >
</g>
<g >
</g>
<g >
</g>
<g >
</g>
<g >
</g>
<g >
</g>
<g >
</g>
<g >
</g>
<g >
</g>
<g >
</g>
</g> 
</svg>
