<?xml version="1.0" standalone="no"?>
 <!DOCTYPE svg PUBLIC "-//W3C//DTD SVG 1.1//EN" 
 "http://www.w3.org/Graphics/SVG/1.1/DTD/svg11.dtd"> 
<svg xmlns="http://www.w3.org/2000/svg" version="1.1" 
    width="22.9997cm" height="21.9989cm" viewBox="0 0 90550 86610 ">
<title>SVG Picture created as motherboard-B_SilkS.svg date 2020/11/12 16:50:21 </title>
  <desc>Picture generated by PCBNEW </desc>
<g style="fill:#000000; fill-opacity:1;stroke:#000000; stroke-opacity:1;
stroke-linecap:round; stroke-linejoin:round; "
 transform="translate(0 0) scale(1 1)">
</g>
<g style="fill:#000000; fill-opacity:0.0; 
stroke:#000000; stroke-width:-0.000393701; stroke-opacity:1; 
stroke-linecap:round; stroke-linejoin:round;">
</g>
<g style="fill:#000000; fill-opacity:0.0; 
stroke:#000000; stroke-width:47.2441; stroke-opacity:1; 
stroke-linecap:round; stroke-linejoin:round;">
<path d="M23714 41377
L23714 41851
" />
<path d="M22643 41377
L22643 41851
" />
<path d="M19088 41382
L19088 41856
" />
<path d="M18017 41382
L18017 41856
" />
<path d="M22149 41377
L22149 41851
" />
<path d="M21078 41377
L21078 41851
" />
<path d="M20633 41377
L20633 41851
" />
<path d="M19562 41377
L19562 41851
" />
<path d="M11992 33227
L11992 33701
" />
<path d="M10921 33227
L10921 33701
" />
<path d="M12011 30550
L12011 31024
" />
<path d="M10940 30550
L10940 31024
" />
<path d="M11982 35894
L11982 36368
" />
<path d="M10911 35894
L10911 36368
" />
<path d="M12011 27833
L12011 28307
" />
<path d="M10940 27833
L10940 28307
" />
<path d="M45141 54093
L45141 54567
" />
<path d="M44070 54093
L44070 54567
" />
<path d="M43133 54093
L43133 54567
" />
<path d="M42062 54093
L42062 54567
" />
<path d="M41125 54093
L41125 54567
" />
<path d="M40055 54093
L40055 54567
" />
</g>
<g style="fill:#000000; fill-opacity:0.0; 
stroke:#000000; stroke-width:59.0551; stroke-opacity:1; 
stroke-linecap:round; stroke-linejoin:round;">
<text x="23169.3" y="40492.1"
textLength="-1066.84" font-size="-524.934" lengthAdjust="spacingAndGlyphs"
text-anchor="middle" opacity="0">R22</text>
<path d="M23422 40473
L23553 40285
" />
<path d="M23647 40473
L23647 40079
L23497 40079
L23459 40098
L23441 40117
L23422 40154
L23422 40210
L23441 40248
L23459 40267
L23497 40285
L23647 40285
" />
<path d="M23272 40117
L23253 40098
L23216 40079
L23122 40079
L23084 40098
L23066 40117
L23047 40154
L23047 40192
L23066 40248
L23291 40473
L23047 40473
" />
<path d="M22897 40117
L22878 40098
L22841 40079
L22747 40079
L22709 40098
L22691 40117
L22672 40154
L22672 40192
L22691 40248
L22916 40473
L22672 40473
" />
<text x="18563" y="40487.2"
textLength="-1066.84" font-size="-524.934" lengthAdjust="spacingAndGlyphs"
text-anchor="middle" opacity="0">R19</text>
<path d="M18816 40468
L18947 40280
" />
<path d="M19041 40468
L19041 40074
L18891 40074
L18853 40093
L18834 40112
L18816 40149
L18816 40205
L18834 40243
L18853 40262
L18891 40280
L19041 40280
" />
<path d="M18441 40468
L18666 40468
" />
<path d="M18553 40468
L18553 40074
L18591 40130
L18628 40168
L18666 40187
" />
<path d="M18253 40468
L18178 40468
L18141 40449
L18122 40430
L18084 40374
L18066 40299
L18066 40149
L18084 40112
L18103 40093
L18141 40074
L18216 40074
L18253 40093
L18272 40112
L18291 40149
L18291 40243
L18272 40280
L18253 40299
L18216 40318
L18141 40318
L18103 40299
L18084 40280
L18066 40243
" />
<text x="21614.2" y="40502"
textLength="-1066.84" font-size="-524.934" lengthAdjust="spacingAndGlyphs"
text-anchor="middle" opacity="0">R16</text>
<path d="M21867 40483
L21998 40295
" />
<path d="M22092 40483
L22092 40089
L21942 40089
L21904 40108
L21886 40127
L21867 40164
L21867 40220
L21886 40258
L21904 40276
L21942 40295
L22092 40295
" />
<path d="M21492 40483
L21717 40483
" />
<path d="M21604 40483
L21604 40089
L21642 40145
L21679 40183
L21717 40202
" />
<path d="M21154 40089
L21229 40089
L21267 40108
L21286 40127
L21323 40183
L21342 40258
L21342 40408
L21323 40445
L21304 40464
L21267 40483
L21192 40483
L21154 40464
L21136 40445
L21117 40408
L21117 40314
L21136 40276
L21154 40258
L21192 40239
L21267 40239
L21304 40258
L21323 40276
L21342 40314
" />
<text x="20088.6" y="40472.4"
textLength="-691.882" font-size="-524.934" lengthAdjust="spacingAndGlyphs"
text-anchor="middle" opacity="0">R6</text>
<path d="M20154 40453
L20285 40266
" />
<path d="M20379 40453
L20379 40059
L20229 40059
L20191 40078
L20172 40097
L20154 40134
L20154 40191
L20172 40228
L20191 40247
L20229 40266
L20379 40266
" />
<path d="M19816 40059
L19891 40059
L19929 40078
L19947 40097
L19985 40153
L20004 40228
L20004 40378
L19985 40416
L19966 40434
L19929 40453
L19854 40453
L19816 40434
L19797 40416
L19779 40378
L19779 40284
L19797 40247
L19816 40228
L19854 40209
L19929 40209
L19966 40228
L19985 40247
L20004 40284
" />
<text x="11456.7" y="34980.3"
textLength="-1066.84" font-size="-524.934" lengthAdjust="spacingAndGlyphs"
text-anchor="middle" opacity="0">R21</text>
<path d="M11709 34961
L11841 34774
" />
<path d="M11934 34961
L11934 34567
L11784 34567
L11747 34586
L11728 34605
L11709 34642
L11709 34699
L11728 34736
L11747 34755
L11784 34774
L11934 34774
" />
<path d="M11559 34605
L11541 34586
L11503 34567
L11409 34567
L11372 34586
L11353 34605
L11334 34642
L11334 34680
L11353 34736
L11578 34961
L11334 34961
" />
<path d="M10959 34961
L11184 34961
" />
<path d="M11072 34961
L11072 34567
L11109 34624
L11147 34661
L11184 34680
" />
<text x="11456.7" y="32283.5"
textLength="-1066.84" font-size="-524.934" lengthAdjust="spacingAndGlyphs"
text-anchor="middle" opacity="0">R18</text>
<path d="M11709 32264
L11841 32077
" />
<path d="M11934 32264
L11934 31871
L11784 31871
L11747 31889
L11728 31908
L11709 31946
L11709 32002
L11728 32039
L11747 32058
L11784 32077
L11934 32077
" />
<path d="M11334 32264
L11559 32264
" />
<path d="M11447 32264
L11447 31871
L11484 31927
L11522 31964
L11559 31983
" />
<path d="M11109 32039
L11147 32020
L11166 32002
L11184 31964
L11184 31946
L11166 31908
L11147 31889
L11109 31871
L11034 31871
L10997 31889
L10978 31908
L10959 31946
L10959 31964
L10978 32002
L10997 32020
L11034 32039
L11109 32039
L11147 32058
L11166 32077
L11184 32114
L11184 32189
L11166 32227
L11147 32245
L11109 32264
L11034 32264
L10997 32245
L10978 32227
L10959 32189
L10959 32114
L10978 32077
L10997 32058
L11034 32039
" />
<text x="11446.9" y="37628"
textLength="-1066.84" font-size="-524.934" lengthAdjust="spacingAndGlyphs"
text-anchor="middle" opacity="0">R24</text>
<path d="M11699 37609
L11831 37421
" />
<path d="M11924 37609
L11924 37215
L11774 37215
L11737 37234
L11718 37252
L11699 37290
L11699 37346
L11718 37384
L11737 37402
L11774 37421
L11924 37421
" />
<path d="M11549 37252
L11531 37234
L11493 37215
L11399 37215
L11362 37234
L11343 37252
L11324 37290
L11324 37327
L11343 37384
L11568 37609
L11324 37609
" />
<path d="M10987 37346
L10987 37609
" />
<path d="M11081 37196
L11175 37477
L10931 37477
" />
<text x="11476.4" y="29586.6"
textLength="-1066.84" font-size="-524.934" lengthAdjust="spacingAndGlyphs"
text-anchor="middle" opacity="0">R25</text>
<path d="M11729 29567
L11860 29380
" />
<path d="M11954 29567
L11954 29174
L11804 29174
L11766 29192
L11748 29211
L11729 29249
L11729 29305
L11748 29342
L11766 29361
L11804 29380
L11954 29380
" />
<path d="M11579 29211
L11560 29192
L11523 29174
L11429 29174
L11392 29192
L11373 29211
L11354 29249
L11354 29286
L11373 29342
L11598 29567
L11354 29567
" />
<path d="M10998 29174
L11185 29174
L11204 29361
L11185 29342
L11148 29324
L11054 29324
L11017 29342
L10998 29361
L10979 29399
L10979 29492
L10998 29530
L11017 29549
L11054 29567
L11148 29567
L11185 29549
L11204 29530
" />
<text x="44606.3" y="53267.7"
textLength="-691.882" font-size="-524.934" lengthAdjust="spacingAndGlyphs"
text-anchor="middle" opacity="0">R4</text>
<path d="M44671 53248
L44803 53061
" />
<path d="M44896 53248
L44896 52855
L44746 52855
L44709 52874
L44690 52892
L44671 52930
L44671 52986
L44690 53023
L44709 53042
L44746 53061
L44896 53061
" />
<path d="M44334 52986
L44334 53248
" />
<path d="M44428 52836
L44521 53117
L44278 53117
" />
<text x="42598.4" y="53267.7"
textLength="-691.882" font-size="-524.934" lengthAdjust="spacingAndGlyphs"
text-anchor="middle" opacity="0">R2</text>
<path d="M42664 53248
L42795 53061
" />
<path d="M42889 53248
L42889 52855
L42739 52855
L42701 52874
L42682 52892
L42664 52930
L42664 52986
L42682 53023
L42701 53042
L42739 53061
L42889 53061
" />
<path d="M42514 52892
L42495 52874
L42457 52855
L42364 52855
L42326 52874
L42307 52892
L42289 52930
L42289 52967
L42307 53023
L42532 53248
L42289 53248
" />
<text x="40590.6" y="53198.8"
textLength="-691.882" font-size="-524.934" lengthAdjust="spacingAndGlyphs"
text-anchor="middle" opacity="0">R1</text>
<path d="M40656 53180
L40787 52992
" />
<path d="M40881 53180
L40881 52786
L40731 52786
L40693 52805
L40674 52823
L40656 52861
L40656 52917
L40674 52955
L40693 52973
L40731 52992
L40881 52992
" />
<path d="M40281 53180
L40506 53180
" />
<path d="M40393 53180
L40393 52786
L40431 52842
L40468 52880
L40506 52898
" />
<g >
</g>
</g> 
</svg>
